<svg width="558" height="305" viewBox="0 0 558 305" fill="none" xmlns="http://www.w3.org/2000/svg">
<path d="M170 205.25H141.5V242H102V205.25H7.75V178L90.25 67H132.75L56.25 172.25H103.25V139.5H141.5V172.25H170V205.25ZM554.766 205.25H526.266V242H486.766V205.25H392.516V178L475.016 67H517.516L441.016 172.25H488.016V139.5H526.266V172.25H554.766V205.25Z" fill="#2C5DEB"/>
<path d="M303.261 100.552C295.696 97.4258 287.348 95.6024 279 95.6024C270.652 95.6024 262.304 97.1653 254.739 100.552C247.435 103.677 240.652 108.106 234.913 113.836C229.174 119.567 224.739 126.079 221.609 133.633C218.478 141.187 216.652 149.522 216.652 157.858C216.652 166.193 218.217 174.529 221.609 182.083C224.739 189.376 229.174 196.149 234.913 201.88C240.652 207.61 247.174 212.039 254.739 215.164C262.304 218.29 270.652 220.114 279 220.114C287.348 220.114 295.696 218.551 303.261 215.164C310.565 212.039 317.348 207.61 323.087 201.88C328.826 196.149 333.261 189.637 336.391 182.083C339.522 174.529 341.348 166.193 341.348 157.858C341.348 149.522 339.783 141.187 336.391 133.633C333.261 126.339 328.826 119.567 323.087 113.836C317.348 108.106 310.565 103.677 303.261 100.552ZM298.826 109.148L288.913 133.112C285.261 141.968 272.478 141.968 268.826 133.112L258.913 109.148C265.174 106.543 271.696 105.24 278.739 105.24C286.043 105.24 292.826 106.543 298.826 109.148ZM279 166.454C274.304 166.454 270.391 162.547 270.391 157.858C270.391 153.169 274.304 149.262 279 149.262C283.696 149.262 287.609 153.169 287.609 157.858C287.609 162.547 283.957 166.454 279 166.454ZM240.652 121.911L261.261 139.103C268.565 145.355 264.652 157.337 255 158.118L226.304 160.202C226.304 159.421 226.304 158.639 226.304 157.858C226.304 143.792 231.783 131.289 240.652 121.911ZM232.826 183.125L258.391 167.496C266.739 162.286 276.913 169.84 274.565 179.218L267.261 209.173C252.391 205.787 239.87 196.149 232.826 183.125ZM291.783 208.913L284.217 178.957C281.87 169.58 292.304 162.026 300.391 167.235L325.435 182.604C318.652 195.628 306.391 205.266 291.783 208.913ZM331.696 159.942L303.261 157.858C293.609 157.077 289.696 145.094 297 138.843L317.087 121.911C325.957 131.289 331.435 144.052 331.435 158.118C331.696 158.639 331.696 159.16 331.696 159.942Z" fill="#2C5DEB"/>
<path d="M367.174 120.609C362.478 109.148 355.435 98.9887 346.826 90.1322C337.957 81.2758 327.783 74.5032 316.304 69.554C304.565 64.6048 292.043 62 279 62C265.957 62 253.435 64.6048 241.696 69.554C230.217 74.5032 220.043 81.5363 211.174 90.1322C202.304 98.7282 195.522 109.148 190.565 120.609C185.609 132.331 183 144.834 183 157.858C183 170.882 185.609 183.385 190.565 195.107C195.522 206.568 202.565 216.727 211.174 225.584C226.021 240.858 334.591 237.441 346.826 225.584C355.696 216.727 362.478 206.568 367.435 195.107C372.391 183.385 375 170.882 375 157.858C374.739 144.834 372.13 132.331 367.174 120.609ZM279 223.5C242.739 223.5 213.261 194.065 213.261 157.858C213.261 121.651 242.739 92.2161 279 92.2161C315.261 92.2161 344.739 121.651 344.739 157.858C344.739 194.065 315.261 223.5 279 223.5Z" fill="#2C5DEB"/>
<path d="M197.933 235.609C197.933 232.08 200.799 229.219 204.333 229.219H353.667C357.201 229.219 360.067 232.08 360.067 235.609C360.067 239.139 357.201 242 353.667 242H204.333C200.799 242 197.933 239.139 197.933 235.609Z" fill="#2C5DEB"/>
<path d="M203.267 216.438C210.947 226.237 208.6 228.509 205.4 229.219L215.473 237.858L224.54 234.13L222.939 223.479C214.228 217.799 195.587 206.639 203.267 216.438Z" fill="#2C5DEB"/>
<path d="M354.673 216.438C346.993 226.237 349.34 228.509 352.54 229.219L342.467 237.858L333.4 234.13L335 223.479C343.711 217.799 362.353 206.639 354.673 216.438Z" fill="#2C5DEB"/>
</svg>
