<svg width="602" height="305" viewBox="0 0 602 305" fill="none" xmlns="http://www.w3.org/2000/svg">
<path d="M69.75 132.75C94.4167 132.75 112.583 137.667 124.25 147.5C136.083 157.333 142 170.5 142 187C142 197.667 139.333 207.417 134 216.25C128.667 224.917 120.5 231.917 109.5 237.25C98.6667 242.417 85.25 245 69.25 245C56.9167 245 44.75 243.417 32.75 240.25C20.9167 236.917 10.8333 232.25 2.5 226.25L18.5 195.25C25.1667 200.25 32.8333 204.167 41.5 207C50.1667 209.667 59.0833 211 68.25 211C78.4167 211 86.4167 209 92.25 205C98.0833 201 101 195.417 101 188.25C101 180.75 97.9167 175.083 91.75 171.25C85.75 167.417 75.25 165.5 60.25 165.5H15.5L24.5 67H131.25V99.5H58.25L55.5 132.75H69.75ZM516.635 245C502.135 245 489.218 241.417 477.885 234.25C466.551 227.083 457.635 216.75 451.135 203.25C444.801 189.583 441.635 173.333 441.635 154.5C441.635 135.667 444.801 119.5 451.135 106C457.635 92.3333 466.551 81.9167 477.885 74.75C489.218 67.5833 502.135 64 516.635 64C531.135 64 544.051 67.5833 555.385 74.75C566.718 81.9167 575.551 92.3333 581.885 106C588.385 119.5 591.635 135.667 591.635 154.5C591.635 173.333 588.385 189.583 581.885 203.25C575.551 216.75 566.718 227.083 555.385 234.25C544.051 241.417 531.135 245 516.635 245ZM516.635 210.75C527.301 210.75 535.635 206.167 541.635 197C547.801 187.833 550.885 173.667 550.885 154.5C550.885 135.333 547.801 121.167 541.635 112C535.635 102.833 527.301 98.25 516.635 98.25C506.135 98.25 497.801 102.833 491.635 112C485.635 121.167 482.635 135.333 482.635 154.5C482.635 173.667 485.635 187.833 491.635 197C497.801 206.167 506.135 210.75 516.635 210.75Z" fill="#2C5DEB"/>
<path d="M189.818 242H395.182C401.231 241.993 407.031 239.6 411.309 235.345C415.587 231.09 417.993 225.321 418 219.304V90.6957C417.993 84.6785 415.587 78.9099 411.309 74.6551C407.031 70.4004 401.231 68.007 395.182 68H189.818C183.769 68.007 177.969 70.4004 173.691 74.6551C169.413 78.9099 167.007 84.6785 167 90.6957V219.304C167.007 225.321 169.413 231.09 173.691 235.345C177.969 239.6 183.769 241.993 189.818 242ZM395.182 83.1304C397.199 83.1304 399.134 83.9275 400.56 85.3462C401.987 86.765 402.788 88.6892 402.788 90.6957V105.826H322.924C320.907 105.826 318.972 106.623 317.546 108.042C316.12 109.461 315.318 111.385 315.318 113.391C315.318 115.398 316.12 117.322 317.546 118.741C318.972 120.159 320.907 120.957 322.924 120.957H402.788V219.304C402.788 221.311 401.987 223.235 400.56 224.654C399.134 226.073 397.199 226.87 395.182 226.87H303.255L295.649 219.304L305.48 209.523C306.906 208.104 307.707 206.18 307.707 204.174C307.707 202.168 306.906 200.244 305.48 198.825L295.653 189.043L305.484 179.262C306.909 177.843 307.71 175.919 307.71 173.913C307.71 171.907 306.909 169.983 305.484 168.564L295.653 158.783L305.484 149.001C306.909 147.582 307.71 145.658 307.71 143.652C307.71 141.646 306.909 139.722 305.484 138.304L295.653 128.522L305.484 118.74C306.909 117.321 307.71 115.397 307.71 113.391C307.71 111.385 306.909 109.461 305.484 108.043L295.653 98.2609L305.484 88.479C306.191 87.7776 306.752 86.9439 307.135 86.026C307.517 85.1081 307.713 84.124 307.712 83.1304H395.182ZM189.818 83.1304H289.347L279.516 92.9123C278.091 94.331 277.29 96.2548 277.29 98.2609C277.29 100.267 278.091 102.191 279.516 103.609L289.347 113.391L279.516 123.173C278.091 124.592 277.29 126.516 277.29 128.522C277.29 130.528 278.091 132.452 279.516 133.87L289.347 143.652L279.516 153.434C278.091 154.853 277.29 156.777 277.29 158.783C277.29 160.789 278.091 162.713 279.516 164.131L289.347 173.913L279.516 183.695C278.091 185.114 277.29 187.037 277.29 189.043C277.29 191.05 278.091 192.973 279.516 194.392L289.347 204.174L279.516 213.956C278.091 215.374 277.29 217.298 277.29 219.304C277.29 221.31 278.091 223.234 279.516 224.653L281.745 226.87H189.818C187.801 226.87 185.866 226.073 184.44 224.654C183.013 223.235 182.212 221.311 182.212 219.304V120.957H262.076C264.093 120.957 266.028 120.159 267.454 118.741C268.88 117.322 269.682 115.398 269.682 113.391C269.682 111.385 268.88 109.461 267.454 108.042C266.028 106.623 264.093 105.826 262.076 105.826H182.212V90.6957C182.212 88.6892 183.013 86.765 184.44 85.3462C185.866 83.9275 187.801 83.1304 189.818 83.1304Z" fill="#2C5DEB"/>
<path d="M193.621 102.043C197.822 102.043 201.227 98.6564 201.227 94.4783C201.227 90.3001 197.822 86.913 193.621 86.913C189.421 86.913 186.015 90.3001 186.015 94.4783C186.015 98.6564 189.421 102.043 193.621 102.043Z" fill="#2C5DEB"/>
<path d="M212.636 102.043C216.837 102.043 220.242 98.6564 220.242 94.4783C220.242 90.3001 216.837 86.913 212.636 86.913C208.436 86.913 205.03 90.3001 205.03 94.4783C205.03 98.6564 208.436 102.043 212.636 102.043Z" fill="#2C5DEB"/>
<path d="M231.652 102.043C235.852 102.043 239.258 98.6564 239.258 94.4783C239.258 90.3001 235.852 86.913 231.652 86.913C227.451 86.913 224.045 90.3001 224.045 94.4783C224.045 98.6564 227.451 102.043 231.652 102.043Z" fill="#2C5DEB"/>
<path d="M257.187 184.22C260.091 187.111 260.091 191.799 257.187 194.69C254.282 197.581 249.574 197.581 246.669 194.69L207.467 155.664C204.563 152.773 204.563 148.085 207.467 145.194C210.372 142.302 215.081 142.302 217.985 145.194L257.187 184.22Z" fill="#2C5DEB"/>
<path d="M378.884 184.22C381.788 187.111 381.788 191.799 378.884 194.69C375.979 197.581 371.27 197.581 368.366 194.69L329.164 155.664C326.26 152.773 326.26 148.085 329.164 145.194C332.069 142.302 336.778 142.302 339.682 145.194L378.884 184.22Z" fill="#2C5DEB"/>
<path d="M217.002 194.386C214.098 197.277 209.389 197.277 206.485 194.386C203.581 191.494 203.581 186.807 206.485 183.915L245.687 144.889C248.591 141.998 253.3 141.998 256.204 144.889C259.109 147.781 259.109 152.468 256.204 155.36L217.002 194.386Z" fill="#2C5DEB"/>
<path d="M338.699 194.386C335.795 197.277 331.086 197.277 328.182 194.386C325.278 191.494 325.278 186.807 328.182 183.915L367.384 144.889C370.288 141.998 374.997 141.998 377.901 144.889C380.806 147.781 380.806 152.468 377.901 155.36L338.699 194.386Z" fill="#2C5DEB"/>
</svg>
