<svg width="180" height="52" viewBox="0 0 180 52" fill="none" xmlns="http://www.w3.org/2000/svg">
<path d="M179 46.0034C179 48.7745 176.709 51.0192 173.874 51.0192H6.13243C3.2995 51.0192 1 48.7745 1 46.0034V6.00382C1 3.23398 3.2995 0.981445 6.13243 0.981445H173.873C176.709 0.981445 178.999 3.23398 178.999 6.00382L179 46.0034Z" fill="black"/>
<path d="M173.333 1.04193C176.42 1.04193 178.932 3.49081 178.932 6.50031V45.5003C178.932 48.5098 176.42 50.9587 173.333 50.9587H6.66667C3.58 50.9587 1.06833 48.5098 1.06833 45.5003V6.50031C1.06833 3.49081 3.58 1.04193 6.66667 1.04193H173.333ZM173.333 0.000307924H6.66667C3.00167 0.000307924 0 2.92693 0 6.50031V45.5003C0 49.0737 3.00167 52.0003 6.66667 52.0003H173.333C176.998 52.0003 180 49.0737 180 45.5003V6.50031C180 2.92693 176.998 0.000307924 173.333 0.000307924Z" fill="#A6A6A6"/>
<path d="M71.5266 40.9555H68.4986L66.84 35.8738H61.0746L59.4946 40.9555H56.5466L62.2586 23.6551H65.7866L71.5266 40.9555ZM66.34 33.7418L64.84 29.2243C64.6813 28.7628 64.384 27.676 63.9453 25.9652H63.892C63.7173 26.701 63.436 27.7878 63.0493 29.2243L61.576 33.7418H66.34Z" fill="white"/>
<path d="M86.216 34.5647C86.216 36.6863 85.628 38.3633 84.452 39.5944C83.3986 40.6903 82.0906 41.2376 80.5293 41.2376C78.844 41.2376 77.6333 40.6474 76.896 39.467H76.8426V46.0385H74V32.5874C74 31.2536 73.964 29.8847 73.8946 28.4807H76.3946L76.5533 30.458H76.6066C77.5546 28.9682 78.9933 28.2246 80.924 28.2246C82.4333 28.2246 83.6933 28.8057 84.7013 29.9692C85.712 31.134 86.216 32.6654 86.216 34.5647ZM83.32 34.6661C83.32 33.4519 83.04 32.4509 82.4773 31.6631C81.8626 30.8415 81.0373 30.4307 80.0026 30.4307C79.3013 30.4307 78.664 30.6595 78.0946 31.1106C77.524 31.5656 77.1506 32.1597 76.976 32.8955C76.888 33.2387 76.844 33.5195 76.844 33.7405V35.8205C76.844 36.7279 77.1293 37.4936 77.7 38.1189C78.2706 38.7442 79.012 39.0562 79.924 39.0562C80.9946 39.0562 81.828 38.6532 82.424 37.8498C83.0213 37.0451 83.32 35.9843 83.32 34.6661Z" fill="white"/>
<path d="M100.932 34.5647C100.932 36.6863 100.344 38.3633 99.1666 39.5944C98.1146 40.6903 96.8066 41.2376 95.2453 41.2376C93.56 41.2376 92.3493 40.6474 91.6133 39.467H91.56V46.0385H88.7173V32.5874C88.7173 31.2536 88.6813 29.8847 88.612 28.4807H91.112L91.2706 30.458H91.324C92.2706 28.9682 93.7093 28.2246 95.6413 28.2246C97.1493 28.2246 98.4093 28.8057 99.42 29.9692C100.427 31.134 100.932 32.6654 100.932 34.5647ZM98.036 34.6661C98.036 33.4519 97.7546 32.4509 97.192 31.6631C96.5773 30.8415 95.7546 30.4307 94.7186 30.4307C94.016 30.4307 93.38 30.6595 92.8093 31.1106C92.2386 31.5656 91.8666 32.1597 91.692 32.8955C91.6053 33.2387 91.56 33.5195 91.56 33.7405V35.8205C91.56 36.7279 91.8453 37.4936 92.4133 38.1189C92.984 38.7429 93.7253 39.0562 94.64 39.0562C95.7106 39.0562 96.544 38.6532 97.14 37.8498C97.7373 37.0451 98.036 35.9843 98.036 34.6661Z" fill="white"/>
<path d="M117.385 36.1039C117.385 37.5755 116.861 38.7728 115.809 39.6971C114.653 40.7072 113.044 41.2116 110.976 41.2116C109.067 41.2116 107.536 40.8528 106.377 40.1339L107.036 37.8238C108.284 38.5596 109.653 38.9288 111.145 38.9288C112.216 38.9288 113.049 38.6922 113.648 38.2216C114.244 37.751 114.541 37.1192 114.541 36.3314C114.541 35.6294 114.296 35.0379 113.804 34.5582C113.315 34.0785 112.497 33.6326 111.356 33.2205C108.249 32.0908 106.697 30.4359 106.697 28.2597C106.697 26.8375 107.241 25.6714 108.331 24.764C109.416 23.8553 110.864 23.4016 112.675 23.4016C114.289 23.4016 115.631 23.6759 116.701 24.2232L115.991 26.4826C114.991 25.9522 113.86 25.687 112.595 25.687C111.595 25.687 110.813 25.9275 110.253 26.4059C109.78 26.8336 109.543 27.3549 109.543 27.9724C109.543 28.6562 109.813 29.2217 110.357 29.6663C110.831 30.0771 111.691 30.5217 112.939 31.0014C114.465 31.6007 115.587 32.3014 116.308 33.1048C117.027 33.9056 117.385 34.9079 117.385 36.1039Z" fill="white"/>
<path d="M126.784 30.5607H123.651V36.6174C123.651 38.1579 124.203 38.9275 125.309 38.9275C125.817 38.9275 126.239 38.8846 126.572 38.7988L126.651 40.9035C126.091 41.1076 125.353 41.2103 124.44 41.2103C123.317 41.2103 122.44 40.8762 121.807 40.2093C121.176 39.5411 120.859 38.4205 120.859 36.8462V30.5581H118.992V28.4781H120.859V26.194L123.651 25.3724V28.4781H126.784V30.5607Z" fill="white"/>
<path d="M140.921 34.6154C140.921 36.5329 140.359 38.1072 139.236 39.3383C138.059 40.6058 136.496 41.2376 134.548 41.2376C132.671 41.2376 131.176 40.6305 130.061 39.4163C128.947 38.2021 128.389 36.6694 128.389 34.8221C128.389 32.889 128.963 31.3056 130.113 30.0745C131.261 28.8421 132.811 28.2259 134.759 28.2259C136.636 28.2259 138.147 28.833 139.287 30.0485C140.377 31.2276 140.921 32.7499 140.921 34.6154ZM137.972 34.7051C137.972 33.5546 137.72 32.5679 137.209 31.745C136.613 30.7492 135.761 30.2526 134.657 30.2526C133.515 30.2526 132.647 30.7505 132.051 31.745C131.54 32.5692 131.288 33.5715 131.288 34.7571C131.288 35.9076 131.54 36.8943 132.051 37.7159C132.665 38.7117 133.524 39.2083 134.632 39.2083C135.717 39.2083 136.569 38.7013 137.184 37.6899C137.708 36.8514 137.972 35.8543 137.972 34.7051Z" fill="white"/>
<path d="M150.161 30.9182C149.88 30.8675 149.58 30.8415 149.265 30.8415C148.265 30.8415 147.492 31.2094 146.948 31.9465C146.475 32.5965 146.237 33.4181 146.237 34.41V40.9555H143.396L143.423 32.4093C143.423 30.9715 143.387 29.6624 143.316 28.482H145.792L145.896 30.8688H145.975C146.275 30.0485 146.748 29.3881 147.396 28.8928C148.029 28.4469 148.713 28.2246 149.451 28.2246C149.713 28.2246 149.951 28.2428 150.161 28.2753V30.9182Z" fill="white"/>
<path d="M162.875 34.1279C162.875 34.6245 162.841 35.0431 162.771 35.385H154.243C154.276 36.6174 154.688 37.5599 155.48 38.2099C156.199 38.791 157.128 39.0822 158.269 39.0822C159.532 39.0822 160.684 38.8859 161.72 38.492L162.165 40.416C160.955 40.9308 159.525 41.1869 157.876 41.1869C155.892 41.1869 154.335 40.6175 153.201 39.48C152.071 38.3425 151.504 36.815 151.504 34.8988C151.504 33.0177 152.031 31.4512 153.085 30.2019C154.189 28.8681 155.681 28.2012 157.559 28.2012C159.403 28.2012 160.799 28.8681 161.747 30.2019C162.497 31.2614 162.875 32.5718 162.875 34.1279ZM160.164 33.409C160.183 32.5874 159.997 31.8776 159.612 31.2783C159.12 30.5074 158.364 30.1226 157.347 30.1226C156.417 30.1226 155.661 30.4983 155.084 31.2523C154.611 31.8516 154.329 32.5705 154.243 33.4077H160.164V33.409Z" fill="white"/>
<path d="M65.4 13.012C65.4 14.5421 64.9293 15.6939 63.9893 16.4674C63.1186 17.1811 61.8813 17.5386 60.2786 17.5386C59.484 17.5386 58.804 17.5048 58.2346 17.4372V9.07694C58.9773 8.95994 59.7773 8.90014 60.6413 8.90014C62.168 8.90014 63.3186 9.22384 64.0946 9.87124C64.964 10.6031 65.4 11.6496 65.4 13.012ZM63.9266 13.0497C63.9266 12.0578 63.6573 11.2973 63.1186 10.7669C62.58 10.2378 61.7933 9.97264 60.7573 9.97264C60.3173 9.97264 59.9426 10.0012 59.632 10.061V16.4167C59.804 16.4427 60.1186 16.4544 60.576 16.4544C61.6453 16.4544 62.4706 16.1645 63.052 15.5847C63.6333 15.0049 63.9266 14.1599 63.9266 13.0497Z" fill="white"/>
<path d="M73.212 14.3484C73.212 15.2909 72.936 16.0631 72.384 16.6689C71.8053 17.2916 71.0386 17.6023 70.0813 17.6023C69.1586 17.6023 68.424 17.3046 67.876 16.7066C67.3293 16.1099 67.056 15.3572 67.056 14.4498C67.056 13.5008 67.3373 12.7221 67.9026 12.1176C68.468 11.5131 69.228 11.2102 70.1853 11.2102C71.108 11.2102 71.8493 11.5079 72.4106 12.1046C72.944 12.6844 73.212 13.4332 73.212 14.3484ZM71.7626 14.3926C71.7626 13.8271 71.6373 13.3422 71.388 12.9379C71.0946 12.4491 70.6773 12.2047 70.1346 12.2047C69.5733 12.2047 69.1466 12.4491 68.8533 12.9379C68.6026 13.3422 68.4786 13.8349 68.4786 14.4173C68.4786 14.9828 68.604 15.4677 68.8533 15.872C69.156 16.3608 69.5773 16.6052 70.1213 16.6052C70.6546 16.6052 71.0733 16.3569 71.3746 15.859C71.6333 15.4469 71.7626 14.9581 71.7626 14.3926Z" fill="white"/>
<path d="M83.6866 11.335L81.72 17.4632H80.44L79.6253 14.8021C79.4186 14.1378 79.2506 13.4774 79.12 12.8222H79.0946C78.9733 13.4956 78.8053 14.1547 78.5893 14.8021L77.724 17.4632H76.4293L74.58 11.335H76.016L76.7266 14.2483C76.8986 14.9373 77.04 15.5938 77.1533 16.2152H77.1786C77.2826 15.703 77.4546 15.0504 77.6973 14.2613L78.5893 11.3363H79.728L80.5826 14.1989C80.7893 14.897 80.9573 15.5691 81.0866 16.2165H81.1253C81.22 15.586 81.3626 14.9139 81.552 14.1989L82.3146 11.3363H83.6866V11.335Z" fill="white"/>
<path d="M90.9306 17.4632H89.5333V13.9532C89.5333 12.8716 89.112 12.3308 88.2666 12.3308C87.852 12.3308 87.5173 12.479 87.2573 12.7767C87 13.0744 86.8693 13.4254 86.8693 13.8271V17.4619H85.472V13.0861C85.472 12.5479 85.4546 11.9642 85.4213 11.3324H86.6493L86.7146 12.2905H86.7533C86.916 11.9928 87.1586 11.7471 87.4773 11.5508C87.856 11.322 88.28 11.2063 88.744 11.2063C89.3306 11.2063 89.8186 11.3909 90.2066 11.7614C90.6893 12.2151 90.9306 12.8924 90.9306 13.792V17.4632Z" fill="white"/>
<path d="M94.784 17.4632H93.388V8.52313H94.784V17.4632Z" fill="white"/>
<path d="M103.011 14.3484C103.011 15.2909 102.735 16.0631 102.183 16.6689C101.604 17.2916 100.836 17.6023 99.88 17.6023C98.956 17.6023 98.2213 17.3046 97.6746 16.7066C97.128 16.1099 96.8546 15.3572 96.8546 14.4498C96.8546 13.5008 97.136 12.7221 97.7013 12.1176C98.2666 11.5131 99.0266 11.2102 99.9826 11.2102C100.907 11.2102 101.647 11.5079 102.209 12.1046C102.743 12.6844 103.011 13.4332 103.011 14.3484ZM101.56 14.3926C101.56 13.8271 101.435 13.3422 101.185 12.9379C100.893 12.4491 100.475 12.2047 99.9333 12.2047C99.3706 12.2047 98.944 12.4491 98.652 12.9379C98.4013 13.3422 98.2773 13.8349 98.2773 14.4173C98.2773 14.9828 98.4026 15.4677 98.652 15.872C98.9546 16.3608 99.376 16.6052 99.92 16.6052C100.453 16.6052 100.871 16.3569 101.172 15.859C101.432 15.4469 101.56 14.9581 101.56 14.3926Z" fill="white"/>
<path d="M109.773 17.4632H108.519L108.415 16.7573H108.376C107.947 17.3202 107.335 17.6023 106.54 17.6023C105.947 17.6023 105.467 17.4164 105.105 17.0472C104.777 16.7118 104.613 16.2945 104.613 15.7992C104.613 15.0504 104.933 14.4797 105.577 14.0845C106.22 13.6893 107.124 13.4956 108.288 13.5047V13.3903C108.288 12.583 107.853 12.18 106.983 12.18C106.363 12.18 105.816 12.3321 105.344 12.6337L105.06 11.7393C105.644 11.387 106.365 11.2102 107.216 11.2102C108.859 11.2102 109.683 12.0552 109.683 13.7452V16.002C109.683 16.6143 109.713 17.1018 109.773 17.4632ZM108.323 15.3572V14.4121C106.781 14.3861 106.011 14.7982 106.011 15.6471C106.011 15.9669 106.099 16.2061 106.279 16.366C106.459 16.5259 106.688 16.6052 106.961 16.6052C107.268 16.6052 107.555 16.5103 107.816 16.3218C108.079 16.132 108.24 15.8915 108.3 15.5964C108.315 15.5301 108.323 15.4495 108.323 15.3572Z" fill="white"/>
<path d="M117.713 17.4632H116.473L116.408 16.4791H116.369C115.973 17.2279 115.299 17.6023 114.351 17.6023C113.593 17.6023 112.963 17.3124 112.463 16.7326C111.963 16.1528 111.713 15.4001 111.713 14.4758C111.713 13.4839 111.984 12.6805 112.528 12.0669C113.055 11.4949 113.7 11.2089 114.468 11.2089C115.312 11.2089 115.903 11.4858 116.239 12.0409H116.265V8.52313H117.664V15.8122C117.664 16.4089 117.68 16.9588 117.713 17.4632ZM116.265 14.8788V13.857C116.265 13.6802 116.252 13.5372 116.227 13.428C116.148 13.1004 115.979 12.8248 115.721 12.6025C115.461 12.3802 115.148 12.2684 114.787 12.2684C114.265 12.2684 113.857 12.4699 113.557 12.8742C113.26 13.2785 113.109 13.7946 113.109 14.4251C113.109 15.0309 113.252 15.5223 113.539 15.9006C113.841 16.3036 114.249 16.5051 114.76 16.5051C115.219 16.5051 115.585 16.3374 115.864 16.0007C116.133 15.69 116.265 15.3156 116.265 14.8788Z" fill="white"/>
<path d="M129.664 14.3484C129.664 15.2909 129.388 16.0631 128.836 16.6689C128.257 17.2916 127.492 17.6023 126.533 17.6023C125.612 17.6023 124.877 17.3046 124.328 16.7066C123.781 16.1099 123.508 15.3572 123.508 14.4498C123.508 13.5008 123.789 12.7221 124.355 12.1176C124.92 11.5131 125.68 11.2102 126.639 11.2102C127.56 11.2102 128.303 11.5079 128.863 12.1046C129.396 12.6844 129.664 13.4332 129.664 14.3484ZM128.216 14.3926C128.216 13.8271 128.091 13.3422 127.841 12.9379C127.547 12.4491 127.131 12.2047 126.587 12.2047C126.027 12.2047 125.6 12.4491 125.305 12.9379C125.055 13.3422 124.931 13.8349 124.931 14.4173C124.931 14.9828 125.056 15.4677 125.305 15.872C125.608 16.3608 126.029 16.6052 126.573 16.6052C127.107 16.6052 127.527 16.3569 127.828 15.859C128.085 15.4469 128.216 14.9581 128.216 14.3926Z" fill="white"/>
<path d="M137.177 17.4632H135.781V13.9532C135.781 12.8716 135.36 12.3308 134.513 12.3308C134.099 12.3308 133.764 12.479 133.505 12.7767C133.247 13.0744 133.117 13.4254 133.117 13.8271V17.4619H131.719V13.0861C131.719 12.5479 131.703 11.9642 131.669 11.3324H132.896L132.961 12.2905H133C133.164 11.9928 133.407 11.7471 133.724 11.5508C134.104 11.322 134.527 11.2063 134.992 11.2063C135.577 11.2063 136.065 11.3909 136.453 11.7614C136.937 12.2151 137.177 12.8924 137.177 13.792V17.4632Z" fill="white"/>
<path d="M146.581 12.3555H145.043V15.3325C145.043 16.0891 145.316 16.4674 145.857 16.4674C146.108 16.4674 146.316 16.4466 146.48 16.4037L146.516 17.4372C146.24 17.5386 145.877 17.5893 145.431 17.5893C144.879 17.5893 144.449 17.4255 144.139 17.0979C143.827 16.7703 143.672 16.2191 143.672 15.4456V12.3555H142.753V11.335H143.672V10.2118L145.041 9.80884V11.3337H146.58V12.3555H146.581Z" fill="white"/>
<path d="M153.979 17.4632H152.58V13.9792C152.58 12.8807 152.159 12.3308 151.315 12.3308C150.667 12.3308 150.224 12.6493 149.981 13.2863C149.94 13.4202 149.916 13.584 149.916 13.7764V17.4619H148.52V8.52313H149.916V12.2164H149.943C150.383 11.5443 151.013 11.2089 151.831 11.2089C152.409 11.2089 152.888 11.3935 153.268 11.764C153.741 12.2255 153.979 12.9119 153.979 13.8193V17.4632Z" fill="white"/>
<path d="M161.609 14.1092C161.609 14.3536 161.591 14.559 161.557 14.7267H157.367C157.385 15.3325 157.585 15.794 157.973 16.1138C158.328 16.3998 158.785 16.5428 159.345 16.5428C159.965 16.5428 160.531 16.4466 161.04 16.2529L161.259 17.1993C160.663 17.4515 159.961 17.5776 159.149 17.5776C158.176 17.5776 157.409 17.2981 156.855 16.7391C156.297 16.1801 156.021 15.43 156.021 14.4888C156.021 13.5645 156.279 12.7949 156.797 12.1813C157.339 11.5261 158.071 11.1985 158.995 11.1985C159.899 11.1985 160.585 11.5261 161.049 12.1813C161.424 12.7013 161.609 13.3448 161.609 14.1092ZM160.276 13.7569C160.287 13.3526 160.195 13.0042 160.005 12.7104C159.763 12.3321 159.393 12.1423 158.893 12.1423C158.437 12.1423 158.065 12.3269 157.781 12.6974C157.549 12.9925 157.412 13.3448 157.367 13.7569H160.276Z" fill="white"/>
<path d="M40.1707 25.7195C40.132 21.5296 43.6893 19.4912 43.852 19.3963C41.8373 16.5324 38.7147 16.1411 37.6173 16.1099C34.9947 15.8408 32.4507 17.64 31.1147 17.64C29.752 17.64 27.6947 16.1359 25.4773 16.1801C22.624 16.223 19.9547 17.8337 18.4907 20.3349C15.4693 25.4348 17.7227 32.9293 20.6173 37.0516C22.0653 39.0705 23.7573 41.3247 25.972 41.2454C28.1387 41.1583 28.948 39.8986 31.5627 39.8986C34.1533 39.8986 34.9133 41.2454 37.172 41.1947C39.4973 41.1583 40.9613 39.1667 42.3587 37.1296C44.032 34.8156 44.704 32.5367 44.7307 32.4197C44.676 32.4015 40.2147 30.7414 40.1707 25.7195Z" fill="white"/>
<path d="M35.904 13.3981C37.0693 11.9772 37.8667 10.0441 37.6453 8.0824C35.9587 8.1552 33.8493 9.2199 32.6347 10.6096C31.56 11.8342 30.6 13.8414 30.848 15.729C32.7427 15.8668 34.688 14.7969 35.904 13.3981Z" fill="white"/>
</svg>
