<svg width="12" height="15" viewBox="0 0 12 15" fill="none" xmlns="http://www.w3.org/2000/svg">
<path d="M7.25 1H2.25C1.91848 1 1.60054 1.13696 1.36612 1.38076C1.1317 1.62456 1 1.95522 1 2.3V12.7C1 13.0448 1.1317 13.3754 1.36612 13.6192C1.60054 13.863 1.91848 14 2.25 14H9.75C10.0815 14 10.3995 13.863 10.6339 13.6192C10.8683 13.3754 11 13.0448 11 12.7V4.9M7.25 1L11 4.9M7.25 1V4.9H11M8.5 8.15H3.5M8.5 10.75H3.5M4.75 5.55H3.5" stroke="#686F7C" stroke-linecap="round" stroke-linejoin="round"/>
</svg>
