<svg width="441" height="441" viewBox="0 0 441 441" fill="none" xmlns="http://www.w3.org/2000/svg">
<mask id="mask0" mask-type="alpha" maskUnits="userSpaceOnUse" x="0" y="0" width="441" height="441">
<rect x="0.126953" y="220.127" width="311.127" height="311.127" rx="55" transform="rotate(-45 0.126953 220.127)" fill="#2C5DEB"/>
</mask>
<g mask="url(#mask0)">
<path d="M417.511 479.608L418.682 482.915V479.765L418.507 479.267L418.682 479.214V478.103L418.157 478.278L398.473 422.789C404.635 421.471 411.372 419.972 418.682 418.293V412.86C387.525 419.937 368.111 423.804 355.477 424.329C353.709 418.658 352.725 412.771 352.55 406.833L367.718 402.459C367.827 402.425 367.923 402.358 367.992 402.267C368.062 402.176 368.1 402.066 368.102 401.951C368.1 401.863 368.079 401.777 368.041 401.698L361.174 389.135C361.113 389.022 361.012 388.936 360.891 388.893C360.77 388.849 360.638 388.851 360.519 388.899L346.592 394.489L342.94 387.263L339.13 379.39L345.552 371.648L418.682 403.377V402.222L386.643 388.313L394.157 369.408L404.868 368.192L407.62 385.951C407.641 386.069 407.701 386.177 407.789 386.258C407.878 386.338 407.99 386.387 408.11 386.397L418.682 387.106V386.047L408.599 385.374L407.551 378.594L418.682 377.99V369.89L406.354 370.869L405.838 367.554L404.187 354.913L418.682 352.087V351.011L404.047 353.846L403.112 346.725L410.277 345.115L418.682 350.364V349.113L411.736 344.739L418.682 343.173V341.012L409.848 342.998L401.697 323.026L415.248 318.014C415.367 317.968 415.467 317.882 415.528 317.769C415.588 317.657 415.607 317.526 415.58 317.401L414.173 311.444L418.682 310.123V309.021L413.439 310.613C413.31 310.652 413.2 310.738 413.132 310.855C413.064 310.972 413.042 311.111 413.072 311.243L414.488 317.226L401.382 322.09L384.353 280.371L379.985 251.59L388.923 247.522C388.993 247.491 389.055 247.447 389.106 247.391L398.875 236.149L415.414 221.654L418.682 218.784V217.376L415.064 220.551L407.551 214.052L417.083 207.841C417.157 207.794 417.219 207.73 417.262 207.654C417.304 207.577 417.327 207.491 417.327 207.403C417.325 207.301 417.295 207.201 417.24 207.114C417.163 206.997 417.043 206.914 416.905 206.884C416.768 206.855 416.624 206.881 416.506 206.957L406.397 213.544L398.036 218.653L388.276 208.155L394.392 202.775L405.305 202.907C405.375 202.908 405.444 202.895 405.508 202.869C405.573 202.843 405.632 202.805 405.681 202.756C405.731 202.707 405.77 202.649 405.797 202.585C405.824 202.52 405.838 202.451 405.838 202.382C405.839 202.313 405.827 202.245 405.801 202.182C405.776 202.118 405.738 202.06 405.69 202.011C405.642 201.962 405.585 201.923 405.522 201.897C405.459 201.87 405.391 201.857 405.323 201.857L394.183 201.717C394.054 201.715 393.929 201.762 393.833 201.848L387.56 207.377L382.728 202.128L390.137 188.455C390.179 188.377 390.2 188.29 390.199 188.201C390.199 188.124 390.182 188.047 390.149 187.978C390.116 187.908 390.067 187.847 390.006 187.799L386.232 184.649L390.19 183.048C390.266 183.019 390.334 182.972 390.389 182.911C390.443 182.85 390.483 182.777 390.504 182.699L392.575 175.236L400.133 172.752C400.208 172.727 400.277 172.685 400.334 172.63L418.682 154.871V152.089L397.11 129.423L385.061 116.764L398.324 92.5586L408.538 88.377L418.682 96.084V94.7631L401.312 81.5797C401.388 81.4851 401.431 81.3685 401.435 81.2473C401.434 81.168 401.416 81.0899 401.381 81.0186C401.346 80.9474 401.296 80.885 401.234 80.8362C401.18 80.792 401.118 80.759 401.051 80.739C400.985 80.7191 400.915 80.7126 400.846 80.7199C400.777 80.7272 400.71 80.7482 400.649 80.7817C400.588 80.8152 400.534 80.8605 400.491 80.9149L391.221 73.9164L397.817 65.5008C400.73 67.8336 403.642 70.1402 406.555 72.4205C408.302 73.8465 410.128 75.2637 411.919 76.6721L418.682 82.0784V72.5605C414.313 70.9421 411.307 69.4899 409.779 68.2827L409.106 67.7491L415.493 58.6773C415.558 58.5923 415.592 58.4872 415.589 58.3799C415.59 58.2969 415.572 58.2148 415.535 58.1403C415.499 58.0658 415.445 58.001 415.379 57.9512L410.906 54.5745C410.79 54.4898 410.645 54.4547 410.503 54.4768C410.362 54.499 410.234 54.5766 410.15 54.6926C410.065 54.8086 410.03 54.9535 410.052 55.0954C410.074 55.2373 410.152 55.3646 410.268 55.4493L414.313 58.4936L408.258 67.093C401.382 61.6429 392.689 54.7319 383.253 47.1824L392.96 27.8141L418.682 41.9948V40.7963L413.317 37.8307L418.682 27.9979V25.8021L412.391 37.3233L391.055 25.5397L377.879 18.1301C377.827 18.1048 377.771 18.087 377.713 18.0775L364.512 15.8206L368.006 -29.8968L374.489 -22.8983C374.575 -22.8092 374.688 -22.752 374.81 -22.7361C374.933 -22.7202 375.057 -22.7466 375.162 -22.8109L385.201 -29.162L418.682 -8.62152V-9.85498L386.04 -29.8793L418.437 -65.239L418.682 -65.0902V-68.1433L418.149 -66.8311L400.176 -83.5311L411.002 -107.081C413.5 -106.162 416.078 -105.209 418.682 -104.255V-109.898C415.781 -110.956 412.933 -112.006 410.18 -113.021C413.168 -114.832 416.052 -116.599 418.682 -118.27V-124.481C416.296 -122.985 413.597 -121.314 410.687 -119.529L416.392 -133.999L418.682 -139.414V-142.117L415.624 -134.874L390.286 -145.275L392.033 -149.649H390.898L389.281 -145.651L379.566 -149.64H376.743L378.718 -148.827L374.35 -139.501L368.609 -142.231L371.396 -149.64H370.269L367.648 -142.642L362.843 -144.925C362.753 -144.968 362.652 -144.984 362.553 -144.972C362.454 -144.959 362.36 -144.919 362.284 -144.855L364.241 -149.605H363.096L357.102 -135.031L352.157 -137.262L357.373 -149.64H356.229L351.249 -137.725C347.754 -139.309 344.11 -140.91 340.633 -142.449L343.542 -149.64H337.855L335.81 -144.584C331.442 -146.491 327.545 -148.214 324.452 -149.553L324.496 -149.64H309.642C319.498 -144.33 329.021 -136.982 334.106 -119.801C334.237 -118.926 334.386 -118.051 334.561 -117.176C336.098 -109.469 335.854 -89.6548 335.076 -72.946L316.728 -78.4922L297.699 -92.4891L310.376 -110.187C310.444 -110.274 310.481 -110.382 310.481 -110.493C310.481 -110.577 310.461 -110.661 310.421 -110.735C310.381 -110.81 310.324 -110.874 310.254 -110.921C310.14 -111.001 309.999 -111.032 309.862 -111.01C309.725 -110.987 309.602 -110.911 309.52 -110.799L296.886 -93.1278L283.982 -102.619L303.413 -149.64H302.277L282.889 -102.724L270.483 -89.6023L243.197 -111.849L261.981 -149.64H256.101L238.697 -114.701L169.919 -149.64H160.413L162.571 -139.729L151.911 -142.729C153.033 -144.979 154.036 -147.286 154.917 -149.64H149.255C148.302 -147.302 147.214 -145.02 145.996 -142.808C141.427 -139.073 102.223 -106.941 96.9112 -101.272C91.599 -95.6035 82.5299 -75.2817 80.3719 -70.3303C55.0342 -56.5259 17.0715 -36.0554 13.6291 -34.8745C11.6108 -34.4633 -3.60927 -32.8099 -18.174 -31.279V-25.9777C-15.2122 -26.2838 -11.9882 -26.6251 -8.73795 -26.975L-18.174 -23.6682V-18.0781L-13.1677 -19.8278L-15.0374 4.74551L-18.174 4.28189V5.34912L-15.1248 5.80405L-16.7761 27.4992L-18.174 27.6567V29.7737L-16.68 29.6162L-14.9326 40.5513L-18.209 41.4261V42.5196L-14.7141 41.6448L-11.9882 58.3537L-18.174 59.0098V60.077L-11.8134 59.3947L-8.26615 81.1248L-18.174 82.752V83.828L-8.09141 82.1833L-4.59656 103.485C-9.29713 103.581 -13.7356 103.66 -17.5974 103.721L-18.174 100.397V115.54L-17.5712 130.744H-18.174V131.802L-4.3694 132.528L-4.3694 139.439C-4.3694 139.553 -4.33261 139.663 -4.26455 139.754C-4.20339 139.833 0.331168 146.018 3.79107 150.838L-3.5219 151.967L-7.01674 143.971C-7.05562 143.888 -7.11418 143.816 -7.18729 143.761C-7.2604 143.706 -7.34584 143.67 -7.43612 143.656L-17.2392 142.388C-17.3728 142.372 -17.5073 142.407 -17.6159 142.487C-17.7245 142.566 -17.799 142.684 -17.8246 142.816L-18.174 144.732V150.488L-16.8635 143.49L-7.84677 144.662L-4.35192 152.754C-4.30394 152.861 -4.22268 152.949 -4.12031 153.006C-4.01793 153.063 -3.89995 153.085 -3.78401 153.069L4.45509 151.783C5.3288 152.99 6.08019 154.057 6.63936 154.871C9.34787 158.79 14.5028 174.449 14.9047 175.814L14.2843 186.766L-7.6196 206.406L-15.85 209.03L-18.174 205.531V207.429L-16.8984 209.363L-18.174 209.756V210.859L-7.20022 207.359C-7.12856 207.341 -7.06257 207.305 -7.00801 207.254L14.5901 187.904L29.7141 229.02C29.5044 229.982 28.0191 236.018 24.3844 237.181C23.004 237.619 15.9269 240.786 6.718 244.915L-3.11999 224.794L9.36535 219.484C9.43307 219.455 9.49385 219.412 9.54358 219.358C9.59331 219.304 9.63085 219.239 9.65367 219.169C9.66678 219.112 9.66678 219.052 9.65367 218.994C9.65227 218.905 9.62821 218.818 9.58377 218.741L2.82125 206.572C2.78689 206.51 2.7403 206.455 2.6843 206.412C2.6283 206.368 2.56405 206.336 2.49543 206.318C2.42682 206.3 2.35528 206.297 2.28513 206.307C2.21498 206.318 2.14769 206.342 2.08733 206.38L-14.0938 216.422C-14.1905 216.484 -14.2648 216.575 -14.3057 216.682C-14.3467 216.789 -14.352 216.907 -14.321 217.017L-11.4639 227.156L-18.174 230.026V231.172L-4.09855 225.188L5.76565 245.308L4.59488 245.833C-2.28123 248.939 -10.4067 252.587 -18.174 256.007V257.145C-10.433 253.742 -2.22881 250.059 5.023 246.796C15.2192 242.22 23.2748 238.607 24.699 238.153C28.4821 236.937 30.1422 231.644 30.6227 229.737C33.0167 231.023 41.8936 235.861 44.0517 238.021C45.7991 239.771 50.0104 246.769 52.4481 250.898L36.066 267.319L-18.174 292.224V298.024L4.87447 287.439L1.37962 326.219C-4.34319 322.431 -11.2455 317.856 -18.174 313.255V319.588C-12.2153 323.542 -6.02071 327.645 -0.69981 331.136L-18.174 327.881V328.949L-5.81102 331.258L-11.1843 352.026L-18.174 350.591V351.624L0.986454 355.543L-5.06837 378.743L-18.174 377.78V378.839L-4.73636 379.827L30.2121 381.35C30.3326 381.355 30.4514 381.319 30.5485 381.248C30.6456 381.176 30.715 381.073 30.7451 380.956L33.2351 371.193L46.9874 391.865L0.173903 407.804C-5.37275 403.708 -11.5782 400.593 -18.174 398.592V404.112C-12.6991 405.959 -7.54168 408.641 -2.88409 412.064L-9.00007 415.563C-9.06955 415.599 -9.12949 415.652 -9.17504 415.715C-9.22058 415.779 -9.25044 415.853 -9.26218 415.931C-9.27446 416.007 -9.26987 416.085 -9.24873 416.159C-9.22759 416.233 -9.19042 416.301 -9.13986 416.359L-3.02388 423.576L-18.174 442.953V444.703L-2.32491 424.434L14.4766 444.239L-0.376535 445C-0.488069 445.006 -0.594836 445.048 -0.681274 445.118C-0.767713 445.189 -0.829308 445.286 -0.857079 445.394L-2.44723 451.422C-2.47783 451.524 -2.47783 451.634 -2.44723 451.736L2.11354 463.852L0.366117 483.037L-14.5569 479.057V471.603C-14.5551 471.486 -14.5929 471.371 -14.6642 471.277C-14.7355 471.183 -14.8362 471.117 -14.95 471.087L-18.174 470.247V471.341L-15.6053 472.006V479.407L-16.8547 485.381L-18.174 485.128V486.204L-17.0732 486.414L-18.174 491.671V496.841L-16.0422 486.615L0.00789642 489.703L5.01426 500.078L3.76486 506.464H4.83952L5.98408 500.594L14.8697 501.697L13.6291 506.464H14.7125L15.0619 505.126L29.2598 506.464H40.5044L30.8936 505.589L34.4845 487.131L52.518 488.741L51.9238 506.464H52.981L53.5926 488.277L53.2955 469.031L73.7579 465.847C72.5259 480.22 68.1749 495.809 64.6713 506.464H70.2368C71.0406 503.971 71.8707 501.215 72.7007 498.355C77.1391 482.845 79.3758 469.486 79.3758 458.455C79.3758 456.802 79.3234 455.201 79.2273 453.661C78.9203 449.528 78.2537 445.43 77.2352 441.414L81.3155 424.469L92.6213 426.323C91.136 433.322 88.9168 441.676 88.8818 441.807V441.904L87.8334 456.907C87.8115 456.981 87.8115 457.06 87.8334 457.134L102.686 495.302L90.5855 506.464H92.1408L103.499 495.967L114.63 496.43C114.702 496.448 114.777 496.448 114.848 496.43L131.143 489.825L135.285 490.7L101.184 506.464H113.756L149.054 490.14L152.2 495.337L144.476 506.464H150.889L156.262 498.722L165.401 502.685C163.025 503.706 160.761 504.972 158.648 506.464H170.451C171.394 506.173 172.35 505.931 173.317 505.738C173.478 505.725 173.636 505.692 173.789 505.642C178.468 504.787 183.283 505.069 187.83 506.464H196.567L192.058 502.571C191.859 502.399 191.635 502.257 191.394 502.152C185.637 499.924 179.384 499.298 173.3 500.341L157.154 493.342L153.868 487.901L188.31 471.979L192.906 484.297C192.939 484.384 192.994 484.462 193.066 484.521C193.138 484.581 193.224 484.621 193.317 484.638L201.844 485.915L216.182 492.249L221.564 502.746C221.625 502.864 221.728 502.953 221.853 502.999C221.977 503.044 222.114 503.041 222.236 502.991L284.593 476.747L295.2 472.347L298.267 479.074L234.416 506.464H237.089L298.712 480.054L300.46 483.929L247.382 506.464H250.055L300.897 484.883C302.216 487.778 303.518 490.517 304.671 493.106L284.191 500.979C284.126 501.004 284.067 501.041 284.017 501.089C283.966 501.137 283.926 501.194 283.897 501.257C283.869 501.32 283.853 501.389 283.851 501.458C283.849 501.528 283.861 501.597 283.885 501.662C283.91 501.727 283.947 501.786 283.995 501.836C284.043 501.887 284.1 501.928 284.163 501.956C284.226 501.984 284.294 502 284.364 502.002C284.433 502.004 284.502 501.992 284.567 501.968L305.099 494.06L310.857 506.464H316.658L310.062 492.161L327.693 485.338L336.553 505.677L334.22 506.464H338.038L337.977 506.316L382.099 491.496L388.311 506.464H389.447L383.095 491.164L417.511 479.608ZM418.682 376.932L407.402 377.544L406.528 371.902L418.367 370.974L418.682 376.932ZM-10.4854 226.745L-13.2026 217.122L2.20965 207.543L8.413 218.714L-10.4854 226.745ZM397.433 423.017L417.153 478.61L382.693 490.184L375.704 473.292C375.653 473.164 375.554 473.061 375.428 473.005C375.302 472.949 375.16 472.945 375.031 472.994L365.892 476.546C365.867 476.557 365.843 476.572 365.822 476.59L349.658 431.415L348.986 429.551C359.61 430.251 374.751 427.863 397.433 423.017ZM35.4456 93.4509C35.3524 93.4415 35.2585 93.4577 35.1738 93.4978C35.0892 93.5379 35.017 93.6003 34.9651 93.6783C34.9183 93.7594 34.8937 93.8515 34.8937 93.9451C34.8937 94.0388 34.9183 94.1308 34.9651 94.2119L38.8793 102.129C32.7022 102.47 24.0262 102.768 14.861 103.004L15.4726 78.2905L16.8094 78.0718C17.3773 78.1243 21.2303 78.4829 26.7435 78.5354H26.8396C29.6704 78.5354 32.9555 78.5354 36.4504 78.2992C36.4504 78.2992 36.4941 78.2992 36.5116 78.2992C41.8245 78.0085 47.1048 77.2829 52.2995 76.1297C57.9612 74.8262 70.0184 71.4582 83.4561 67.5829L88.7944 97.8599L86.1733 98.0436L35.4456 93.4509ZM79.6816 98.5072C65.3615 99.557 51.2423 100.703 47.0223 101.438C45.7467 101.665 43.2916 101.875 40.0326 102.068L36.3368 94.5881L79.6816 98.5072ZM28.4647 24.6824L43.2042 23.0727L39.7093 34.4977H27.3114L28.4647 24.6824ZM26.2891 34.4977H11.2788L12.9126 26.3795L27.3463 24.7961L26.2891 34.4977ZM72.4298 47.4973L64.3917 50.2529L62.6443 20.9382L66.8992 20.4745L72.4298 47.4973ZM67.9477 20.3783L72.5609 19.8709L82.46 44.0681L73.4346 47.1649L67.9477 20.3783ZM63.3607 50.6291L59.5339 51.9413C59.4018 51.9877 59.2935 52.0847 59.2329 52.2111C59.1723 52.3374 59.1642 52.4827 59.2106 52.6149C59.2569 52.7472 59.3538 52.8556 59.48 52.9163C59.6062 52.977 59.7512 52.985 59.8833 52.9386L83.325 44.8816C83.3939 44.8592 83.4574 44.8228 83.5116 44.7747C83.5657 44.7265 83.6093 44.6676 83.6395 44.6017C83.6526 44.5294 83.6526 44.4553 83.6395 44.383C83.6517 44.3164 83.6517 44.2483 83.6395 44.1818L73.6443 19.7572H73.7666C84.1288 22.6003 95.3211 26.5457 99.8993 29.2839L107.64 59.4384C86.383 65.702 61.0192 73.0416 51.9937 75.1324C47.0268 76.2286 41.9817 76.9336 36.9047 77.2407V62.7539C36.9047 62.6147 36.8495 62.4812 36.7512 62.3828C36.6529 62.2843 36.5195 62.229 36.3805 62.229H32.1692L35.1748 52.4399L49.7308 57.2689C49.8629 57.3108 50.0062 57.2995 50.1301 57.2375C50.2541 57.1754 50.349 57.0674 50.3948 56.9365V56.7703C50.3949 56.6578 50.3594 56.5481 50.2935 56.4569C50.2276 56.3658 50.1346 56.2979 50.0279 56.2628L35.4631 51.4339L37.0969 46.1851H51.0763C51.2177 46.1851 51.3532 46.1289 51.4532 46.0288C51.5531 45.9287 51.6093 45.793 51.6093 45.6515V22.1454L61.5958 21.0519L63.3607 50.6291ZM115.303 -2.14795L108.89 0.625214C108.765 0.679406 108.665 0.779385 108.612 0.904633C108.558 1.02988 108.555 1.17086 108.601 1.29877L110.585 6.37268C110.619 6.46597 110.679 6.54754 110.758 6.60794C110.837 6.66834 110.931 6.70507 111.03 6.71384L120.292 7.43994L124.241 22.0492C124.28 22.1776 124.364 22.2871 124.479 22.3565C124.593 22.426 124.73 22.4505 124.861 22.4254L134.472 20.4571C134.592 20.4331 134.699 20.3687 134.777 20.2747C134.855 20.1808 134.899 20.063 134.9 19.9409V19.8359L129.911 -4.65866C134 -4.79863 137.347 -4.91234 139.173 -4.97357C138.954 6.99378 138.5 21.0869 137.233 23.4052C135.486 26.5457 121.165 43.9368 111.957 54.8982L96.9112 -3.47763C100.703 -3.6176 107.702 -3.8713 115.023 -4.14249L115.303 -2.14795ZM116.08 -4.13373C120.493 -4.29119 124.949 -4.45744 128.845 -4.59741L133.756 19.5473L125.132 21.2969L121.209 6.79257C121.181 6.68624 121.12 6.59135 121.036 6.52087C120.951 6.4504 120.847 6.40777 120.737 6.3989L111.441 5.66409L109.772 1.37753L116.098 -1.35187C116.203 -1.39858 116.29 -1.47876 116.346 -1.57996C116.401 -1.68116 116.421 -1.79775 116.404 -1.91174L116.08 -4.13373ZM309.878 -45.792C309.913 -45.7831 309.949 -45.7831 309.983 -45.792C314.298 -45.8913 318.616 -45.7453 322.914 -45.3546C322.582 -44.2086 321.77 -41.4267 320.625 -37.7C320.584 -37.7049 320.543 -37.7049 320.503 -37.7L305.816 -35.9504C305.677 -35.933 305.55 -35.861 305.464 -35.7503C305.378 -35.6396 305.34 -35.4991 305.357 -35.3599C305.374 -35.2207 305.446 -35.0941 305.557 -35.008C305.667 -34.9219 305.808 -34.8833 305.947 -34.9007L320.293 -36.6503C318.17 -29.8181 315.051 -20.3264 311.774 -11.9808C307.458 -15.9087 304.592 -18.7955 303.762 -20.1777C301.342 -24.2105 297.839 -33.6322 294.431 -43.7362C298.808 -45.1534 304.61 -45.687 309.878 -45.8095V-45.792ZM294.09 -44.7072C290.735 -54.715 287.511 -65.239 285.545 -71.7825L308.769 -46.8068C303.692 -46.6406 298.267 -46.0719 294.09 -44.7247V-44.7072ZM319.262 100.782C319.135 100.82 319.028 100.907 318.963 101.022C318.898 101.138 318.88 101.274 318.913 101.403L320.896 109.775C320.925 109.905 321.003 110.019 321.113 110.094C321.224 110.168 321.358 110.198 321.49 110.177L328.392 109.049L330.646 116.187L317.017 120.517L310.586 94.6143L322.573 92.7335L325.195 98.9184L319.262 100.782ZM325.509 99.907L328.078 108.025L321.805 109.049L320.057 101.63L325.509 99.907ZM349.326 110.247L341.148 112.872L335.033 90.0304L343.525 87.7471L349.326 110.247ZM344.521 87.4497L355.774 84.4316L360.956 107.964L350.392 109.993L344.521 87.4497ZM350.06 111.113L361.209 108.979L368.583 127.953L353.293 141.172L324.714 119.17L331.459 117.027L340.921 114.035L350.06 111.113ZM369.151 128.854L381.383 143.289L369.867 153.917L354.141 141.819L369.151 128.854ZM323.491 119.564L369.081 154.661L346.6 175.481L303.448 130.586L310.839 123.737L327.554 138.171C327.606 138.216 327.667 138.25 327.733 138.271C327.799 138.292 327.869 138.3 327.938 138.294C328.006 138.289 328.074 138.269 328.135 138.238C328.197 138.206 328.251 138.163 328.296 138.11C328.341 138.057 328.375 137.996 328.396 137.93C328.417 137.864 328.425 137.794 328.419 137.725C328.414 137.656 328.395 137.589 328.363 137.527C328.331 137.466 328.288 137.411 328.235 137.366L311.888 123.229L323.491 119.564ZM346.539 176.925L350.532 181.036L337.61 192.146L321.368 175.726L334.377 164.24L345.893 176.216C345.849 176.312 345.836 176.419 345.854 176.523C345.872 176.627 345.921 176.723 345.995 176.799C346.069 176.875 346.163 176.926 346.267 176.947C346.37 176.968 346.477 176.957 346.574 176.916L346.539 176.925ZM340.921 259.988C340.89 260.049 340.871 260.116 340.866 260.185C340.861 260.253 340.87 260.322 340.892 260.387C340.914 260.453 340.949 260.513 340.994 260.564C341.04 260.616 341.095 260.658 341.157 260.688L350.768 265.403L351.45 270.905L344.46 275.358L336.675 268.989V259.253C336.685 259.178 336.678 259.101 336.656 259.029C336.634 258.956 336.597 258.889 336.547 258.832C336.497 258.775 336.435 258.73 336.366 258.698C336.297 258.667 336.222 258.651 336.146 258.651C336.071 258.651 335.996 258.667 335.927 258.698C335.858 258.73 335.796 258.775 335.746 258.832C335.696 258.889 335.659 258.956 335.637 259.029C335.615 259.101 335.608 259.178 335.618 259.253V268.71H328.078L329.283 260.294V260.215C329.284 260.147 329.271 260.08 329.246 260.017C329.22 259.954 329.183 259.896 329.135 259.848C329.079 259.788 329.008 259.743 328.931 259.717C328.853 259.692 328.77 259.685 328.689 259.699L316.885 261.309C316.793 261.32 316.706 261.357 316.632 261.414C316.558 261.47 316.501 261.546 316.466 261.632L313.731 268.631L293.156 263.749L294.3 259.375C294.332 259.248 294.316 259.113 294.254 258.997C294.193 258.881 294.091 258.791 293.968 258.745L277.481 252.622L278.687 251.598V251.555L316.912 206.257L328.069 218.049L303.946 246.043C303.9 246.095 303.865 246.156 303.843 246.222C303.821 246.287 303.812 246.357 303.817 246.426C303.822 246.495 303.841 246.563 303.872 246.625C303.903 246.686 303.946 246.742 303.998 246.787L309.468 251.616C309.519 251.662 309.58 251.697 309.645 251.72C309.71 251.742 309.779 251.752 309.848 251.748C309.917 251.744 309.985 251.726 310.047 251.696C310.109 251.666 310.164 251.624 310.21 251.572C310.256 251.52 310.292 251.46 310.314 251.395C310.337 251.329 310.346 251.26 310.342 251.191C310.338 251.122 310.321 251.055 310.291 250.992C310.26 250.93 310.218 250.874 310.167 250.828L305.082 246.341L315.566 234.207L321.106 239.99C321.154 240.039 321.212 240.077 321.276 240.104C321.34 240.13 321.408 240.144 321.477 240.144C321.546 240.144 321.614 240.13 321.678 240.104C321.742 240.077 321.8 240.039 321.848 239.99L336.072 226.474L342.276 233.026L354.56 246L347.806 251.8C347.754 251.845 347.711 251.9 347.68 251.962C347.649 252.024 347.63 252.091 347.625 252.16C347.62 252.229 347.629 252.299 347.651 252.365C347.673 252.43 347.708 252.491 347.754 252.543C347.845 252.648 347.974 252.714 348.113 252.725C348.251 252.737 348.389 252.693 348.496 252.604L355.285 246.769L361.899 253.768L351.126 264.423L341.603 259.751C341.481 259.694 341.341 259.686 341.214 259.73C341.087 259.775 340.982 259.867 340.921 259.988ZM317.331 366.049L331.739 362.812L333.311 366.959L319.035 371.998L317.331 366.049ZM318.205 372.829L323.631 392.398L307.904 396.956C307.808 396.981 307.722 397.034 307.656 397.107C307.589 397.179 307.545 397.27 307.528 397.367L306.401 403.753C305.44 403.85 304.514 403.99 303.64 404.164C303.337 404.223 302.953 404.319 302.487 404.453L291.993 371.744L316.256 366.277L318.205 372.829ZM290.491 369.942C290.348 369.974 290.213 370.035 290.096 370.123C289.978 370.21 289.881 370.322 289.809 370.449C289.764 370.535 289.732 370.626 289.713 370.721L282.776 372.794L273.646 345.929L299.219 337.443L301.657 343.567C301.704 343.686 301.793 343.784 301.907 343.842C302.022 343.9 302.153 343.914 302.277 343.882L328.296 336.962L331.022 360.827L290.491 369.942ZM273.287 332.378L270.299 324.758L290.246 314.934L294.038 324.505L273.287 332.378ZM294.431 325.493L298.8 336.472L277.612 343.47L273.637 333.323L294.431 325.493ZM276.642 343.864L272.815 345.133L267.128 347.022L261.073 329.334L269.347 325.248L276.642 343.864ZM302.478 342.709L291.12 314.462L314.5 302.932L321.062 302.057L323.805 317.69V317.804L326.942 325.108L328.165 335.868L302.478 342.709ZM290.77 313.482L280.758 288.498L281.448 288.454L320.118 296.423L320.922 300.981L314.317 301.856C314.263 301.866 314.21 301.88 314.16 301.9L290.77 313.482ZM321.114 295.986L321.988 290.51L325.483 288.323L329.406 295.741L336.771 309.012L324.67 316.693L321.114 295.986ZM337.986 308.872L330.629 295.636L341.201 288.638L350.043 306.711L341.795 312.686L337.986 308.872ZM330.122 294.735L326.426 287.737L341.183 278.595L340.921 287.632L330.122 294.735ZM325.937 286.862L323.832 282.89C323.79 282.813 323.729 282.747 323.656 282.698C323.583 282.65 323.499 282.619 323.412 282.61L312.596 281.639L309.398 274.203C309.342 274.073 309.237 273.971 309.106 273.919C308.975 273.866 308.829 273.868 308.699 273.923C308.573 273.981 308.474 274.085 308.424 274.214C308.373 274.343 308.375 274.487 308.428 274.614L311.757 282.348C311.792 282.437 311.852 282.515 311.929 282.572C312.006 282.629 312.098 282.664 312.194 282.671L323.045 283.607L325.046 287.395L321.245 289.749C321.181 289.787 321.126 289.84 321.084 289.901C321.042 289.963 321.014 290.033 321.001 290.107L320.127 295.356L281.579 287.413C281.532 287.409 281.486 287.409 281.439 287.413L280.198 287.492C280.128 287.457 280.05 287.439 279.971 287.439C279.892 287.439 279.815 287.457 279.744 287.492C279.744 287.492 279.674 287.544 279.639 287.562L270.579 288.104C270.502 288.107 270.427 288.128 270.36 288.165L258.487 294.717L254.782 266.138L265.267 263.041C265.335 263.015 265.4 262.979 265.459 262.936L276.529 253.47L293.129 259.594L291.993 263.994C291.961 264.131 291.983 264.276 292.055 264.397C292.091 264.458 292.139 264.511 292.196 264.553C292.253 264.595 292.318 264.625 292.387 264.642L313.941 269.751C313.979 269.755 314.017 269.755 314.055 269.751H335.897L343.542 275.944L325.937 286.862ZM199.45 191.692C199.531 191.647 199.599 191.581 199.647 191.501C199.694 191.421 199.72 191.33 199.721 191.237C199.721 191.145 199.696 191.054 199.651 190.974L199.52 190.747C200.603 189.942 201.687 189.137 202.726 188.376C202.722 188.493 202.759 188.608 202.831 188.7L212.538 201.253L203.277 207.683C197.44 202.854 192.355 198.734 190.713 197.404C193.098 195.576 195.885 193.459 198.664 191.385L198.734 191.499C198.805 191.618 198.919 191.705 199.053 191.741C199.187 191.777 199.329 191.759 199.45 191.692ZM203.661 188.035C203.593 187.951 203.502 187.89 203.399 187.86C207.855 184.606 211.577 181.999 212.547 181.631C213.508 182.506 218.078 188.114 222.865 194.054L213.403 200.632L203.661 188.035ZM223.529 194.876C225.661 197.5 227.811 200.203 229.645 202.539C229.715 202.623 229.809 202.684 229.914 202.713C230.019 202.742 230.13 202.739 230.233 202.702C230.336 202.666 230.425 202.599 230.489 202.511C230.553 202.422 230.587 202.316 230.589 202.207C230.59 202.089 230.55 201.974 230.475 201.883C226.605 197.028 213.919 181.133 212.931 180.608C212.643 180.459 211.953 180.1 198.952 189.793L191.884 177.458L195.326 176.19C195.391 176.167 195.451 176.131 195.502 176.084C195.552 176.037 195.594 175.981 195.623 175.919C195.652 175.856 195.669 175.788 195.672 175.719C195.675 175.65 195.664 175.581 195.641 175.516C195.59 175.386 195.49 175.28 195.363 175.222C195.236 175.163 195.091 175.156 194.959 175.201L190.94 176.68C190.868 176.706 190.803 176.747 190.748 176.801C190.694 176.854 190.652 176.919 190.626 176.991C190.599 177.063 190.588 177.139 190.594 177.215C190.6 177.292 190.623 177.366 190.66 177.432L194.688 184.431L191.324 186.285L185.147 176.89C185.109 176.832 185.06 176.783 185.002 176.745C184.945 176.706 184.88 176.68 184.812 176.666C184.745 176.653 184.675 176.653 184.607 176.667C184.54 176.68 184.475 176.707 184.418 176.746C184.36 176.784 184.311 176.833 184.273 176.891C184.235 176.948 184.208 177.013 184.195 177.081C184.181 177.149 184.181 177.218 184.195 177.286C184.208 177.354 184.235 177.419 184.274 177.476L190.704 187.274C190.777 187.383 190.888 187.461 191.016 187.494C191.143 187.526 191.278 187.51 191.394 187.449L195.239 185.384L198.131 190.441C195.737 192.234 192.95 194.351 189.699 196.844L169.604 195.34L151.71 171.72L178.455 158.291L206.108 152.037L207.034 157.242C207.051 157.333 207.093 157.418 207.156 157.487L245.066 202.644L259.719 240.357L247.006 243.506C246.904 243.53 246.811 243.585 246.741 243.663C246.671 243.742 246.626 243.839 246.613 243.944L243.747 264.327L223.346 262.691C225.093 254.678 227.199 243.218 227.199 235.336C227.199 231.635 226.736 228.731 225.539 227.331C222.673 224.007 212.739 215.539 204.116 208.383L223.529 194.876ZM171.028 205.977L160.614 219.038C155.563 211.532 147.263 199.224 140.378 189.146L150.863 179.401L171.028 205.977ZM280.067 32.8793L293.339 32.6956V32.7481C271.007 58.9923 257.63 74.7388 251.724 81.7372L239.903 72.7617L252.633 48.2059C252.67 48.1295 252.691 48.0461 252.694 47.961C252.696 47.8415 252.657 47.7251 252.583 47.6308C252.51 47.5366 252.407 47.4702 252.291 47.4427C252.174 47.4151 252.052 47.4281 251.945 47.4794C251.837 47.5307 251.75 47.6172 251.698 47.7247L232.319 85.0965L208.388 90.3453L197.571 80.6087L209.707 43.132L225.679 48.0484C225.745 48.0686 225.814 48.0757 225.883 48.069C225.951 48.0624 226.018 48.0422 226.079 48.0097C226.14 47.9772 226.194 47.933 226.238 47.8796C226.281 47.8262 226.314 47.7646 226.334 47.6985V47.5411C226.332 47.429 226.294 47.3205 226.227 47.231C226.159 47.1414 226.065 47.0755 225.958 47.0424L209.865 42.0472V29.8787L230.877 33.5791L280.067 32.8793ZM316.553 205.111L310.813 211.908L282.619 180.739C282.57 180.685 282.51 180.642 282.444 180.612C282.378 180.582 282.307 180.565 282.234 180.564H268.989L256.591 160.146C256.556 160.084 256.508 160.03 256.451 159.989L246.954 153.226L244.743 143.525L247.557 133.718L251.811 132.695L272.37 127.752L311.853 167.652L337.147 193.222L347.474 205.435L335.967 209.03C335.876 209.06 335.794 209.115 335.731 209.188L328.82 217.201L317.331 205.085C317.224 204.979 317.08 204.919 316.929 204.919C316.857 204.924 316.787 204.944 316.722 204.977C316.658 205.01 316.6 205.056 316.553 205.111ZM182.718 142.213L193.736 138.171L196.357 153.095L185.811 155.475L182.718 142.213ZM184.789 155.755L178.673 157.146L174.916 145.064L181.749 142.58L184.789 155.755ZM194.741 137.847L211.088 131.907L214.443 148.529C214.463 148.637 214.519 148.736 214.601 148.811C214.683 148.885 214.787 148.93 214.897 148.94L197.423 152.903L194.741 137.847ZM237.509 133.167L226.151 145.878L222.097 127.918L233.691 123.71L237.509 133.167ZM234.626 123.326L247.329 118.164L251.034 131.794L247.067 132.747H238.479L234.626 123.326ZM225.259 146.595L215.247 148.861C215.32 148.815 215.38 148.75 215.422 148.673C215.463 148.597 215.484 148.511 215.483 148.424V148.319L212.093 131.54L221.066 128.286L225.259 146.595ZM223.346 148.117L228.78 159.228L226.36 161.231C226.307 161.275 226.263 161.329 226.23 161.391C226.198 161.452 226.178 161.519 226.172 161.588C226.165 161.657 226.172 161.727 226.193 161.793C226.213 161.859 226.246 161.921 226.29 161.974C226.335 162.028 226.389 162.072 226.45 162.104C226.511 162.137 226.578 162.157 226.647 162.163C226.716 162.17 226.786 162.163 226.852 162.142C226.918 162.122 226.98 162.089 227.033 162.044L229.768 159.779C229.828 159.731 229.877 159.669 229.91 159.6C229.944 159.53 229.961 159.454 229.96 159.376C229.959 159.295 229.942 159.214 229.908 159.14L224.403 147.873L225.827 147.549L234.329 151.774L247.382 176.094L238.365 181.343L236.373 177.791C236.338 177.728 236.291 177.673 236.234 177.629C236.177 177.585 236.111 177.554 236.041 177.537C235.973 177.519 235.903 177.514 235.834 177.525C235.764 177.535 235.698 177.561 235.639 177.598L229.2 181.623C229.128 181.673 229.069 181.739 229.025 181.815L208.056 156.874L207.182 151.765L223.346 148.117ZM235.683 178.806L237.666 182.349C237.736 182.469 237.848 182.559 237.981 182.602C238.119 182.638 238.266 182.619 238.391 182.55L247.845 177.03L253.69 187.912C253.612 187.87 253.525 187.847 253.437 187.847C253.348 187.847 253.261 187.87 253.183 187.912L240.75 195.322C240.65 195.386 240.573 195.482 240.532 195.593L229.602 182.567C229.639 182.572 229.678 182.572 229.715 182.567L235.683 178.806ZM253.716 188.831C253.785 188.788 253.844 188.729 253.886 188.659C253.929 188.589 253.954 188.51 253.961 188.429L283.772 243.953L278.136 250.627L263.921 248.283L246.01 202.181C245.995 202.124 245.965 202.073 245.923 202.032L241.117 196.302C241.177 196.285 241.235 196.265 241.292 196.241L253.716 188.831ZM235.132 151.127C235.082 151.031 235.003 150.954 234.905 150.908L226.745 146.832L238.356 133.797H246.429L243.695 143.359C243.673 143.445 243.673 143.535 243.695 143.621L245.984 153.646C246.012 153.774 246.087 153.886 246.194 153.961L255.752 160.776L268.246 181.36C268.294 181.438 268.361 181.502 268.44 181.546C268.52 181.591 268.609 181.614 268.7 181.614H282.007L310.14 212.713L284.515 243.078L235.132 151.127ZM305.178 159.402L311.337 154.154L317.89 161.318L312.255 166.567L305.178 159.402ZM313.041 167.276L319.035 161.659C319.089 161.611 319.133 161.552 319.163 161.486C319.194 161.419 319.209 161.347 319.21 161.275C319.207 161.145 319.157 161.02 319.07 160.925L312.176 153.393L318.642 147.846L333.661 163.462L320.634 174.957L313.041 167.276ZM304.479 158.615L289.521 143.499L298.73 134.969L302.714 131.277L317.917 147.076L304.479 158.615ZM288.752 142.746L273.506 127.323L286.55 122.206L297.611 134.54L288.752 142.746ZM252.056 131.514L248.308 117.77L264.908 111.052L271.846 126.798L252.056 131.514ZM234.25 122.311L230.834 112.609L260.645 101.429L264.445 110.072L234.25 122.311ZM230.458 111.586L228.58 106.276L257.788 94.903L260.217 100.414L230.458 111.586ZM228.221 105.278L226.081 99.2159L250.999 90.2054C251.437 90.0504 251.826 89.7817 252.126 89.4268L254.258 86.8898L257.368 93.9583L228.221 105.278ZM255.009 86.0325C260.505 79.5152 274.047 63.4975 297.314 36.1686C298.293 35.0226 299.245 33.8678 300.18 32.7218L316.344 33.1679L264.507 90.3191L258.329 93.5558L255.009 86.0325ZM208.834 42.3534L196.462 80.5737C196.433 80.6711 196.432 80.7746 196.46 80.8722C196.488 80.9698 196.543 81.0575 196.619 81.1248L207.881 91.2726C207.942 91.3304 208.016 91.3718 208.097 91.3932C208.178 91.4146 208.263 91.4153 208.344 91.3951L232.808 86.0763C232.884 86.0568 232.955 86.0219 233.017 85.9737C233.078 85.9256 233.129 85.8652 233.167 85.7963L239.405 73.7677L251.034 82.6033L248.57 85.5251L196.759 104.263C196.641 104.302 196.527 104.352 196.418 104.412L185.855 110.02L170.757 88.307V69.7786C170.757 69.6394 170.702 69.5059 170.604 69.4074C170.505 69.309 170.372 69.2537 170.233 69.2537H145.551L141.182 50.4716L160.718 43.4032C160.787 43.3823 160.849 43.3464 160.902 43.2982L172.313 32.8005L195.204 31.4446C195.28 31.4378 195.353 31.4148 195.42 31.3771C195.486 31.3393 195.543 31.2878 195.588 31.2259L198.768 26.9744L208.834 25.4084V42.3534ZM198.681 109.162L225.085 99.6095L227.243 105.733L169.621 128.111L168.372 124.087C174.155 121.819 179.803 119.22 185.287 116.301L198.681 109.162ZM227.592 106.678L229.471 111.979L171.421 133.753L169.98 129.082L227.592 106.678ZM229.82 112.968L233.315 122.713L174.619 144.041L171.736 134.75L229.82 112.968ZM173.588 144.417L140.841 157.067C138.997 154.241 137.559 151.169 136.569 147.943L170.749 135.135L173.588 144.417ZM173.903 145.423L177.642 157.487L151.038 170.862L142.169 159.166L141.374 157.968L173.903 145.423ZM247.6 244.442L260.103 241.346L263.047 248.948C263.082 249.033 263.138 249.108 263.21 249.164C263.282 249.221 263.367 249.258 263.458 249.271L277.14 251.537L264.908 262.035L254.171 265.193L244.822 264.44L247.6 244.442ZM314.832 268.71L317.331 262.306L328.139 260.836L327.012 268.71H314.832ZM328.864 218.802L335.382 225.652L321.542 238.774L316.3 233.306L328.864 218.802ZM356.115 246.078L361.882 241.127C361.984 241.034 362.05 240.906 362.065 240.768L362.388 236.77C362.378 236.64 362.32 236.519 362.227 236.428C362.133 236.338 362.009 236.285 361.879 236.28C361.749 236.274 361.622 236.317 361.521 236.399C361.42 236.482 361.352 236.598 361.331 236.727L361.025 240.506L355.39 245.352L343.438 232.65L350.322 226.071C350.374 226.024 350.416 225.965 350.444 225.901C350.473 225.836 350.488 225.766 350.488 225.695C350.486 225.559 350.433 225.428 350.34 225.328C350.291 225.279 350.233 225.24 350.17 225.214C350.106 225.187 350.038 225.173 349.969 225.173C349.9 225.173 349.831 225.187 349.768 225.214C349.704 225.24 349.646 225.279 349.597 225.328L342.712 231.898L329.563 217.997L336.439 210.019L348.217 206.301L376.901 240.191L362.703 253.033L356.115 246.078ZM362.231 221.278L373.397 210.946L377.364 216.317L374.271 218.898C374.21 218.946 374.162 219.007 374.128 219.077C374.095 219.147 374.078 219.223 374.079 219.3C374.079 219.377 374.096 219.452 374.128 219.521C374.159 219.591 374.205 219.652 374.262 219.703L383.515 227.637L373.589 234.706L362.231 221.278ZM361.55 220.473L349.265 205.96L365.866 200.711L372.786 210.071L361.55 220.473ZM348.531 205.085L338.3 192.943L351.249 181.815L354.141 184.824L365.237 199.836L348.531 205.085ZM302.295 130.193L298.328 133.867L287.625 121.83L302.094 116.143L310.079 123.054L302.295 130.193ZM286.489 121.112L272.824 126.484L265.835 110.667L297.41 100.169L301.491 115.216L286.489 121.112ZM265.406 109.74L261.58 101.044L293.409 85.4202L297.14 99.1808L265.406 109.74ZM261.151 100.117L258.723 94.5881L265.039 91.2901C265.093 91.2572 265.142 91.2191 265.188 91.1764L305.973 46.2201L315.016 53.2185L299.691 72.6217C299.604 72.7308 299.564 72.8699 299.579 73.0085C299.595 73.1472 299.665 73.274 299.774 73.361C299.883 73.448 300.022 73.4881 300.16 73.4725C300.299 73.4569 300.425 73.3869 300.512 73.2778L331.31 34.314L333.792 47.4361L302.198 80.9849L293.627 84.1604L261.151 100.117ZM332.193 33.6841L358.867 34.419L364.022 38.583L359.121 44.8904L334.805 47.0161L332.193 33.6841ZM315.592 52.4662L306.602 45.4678L317.681 33.2205L330.472 33.5704L315.592 52.4662ZM318.615 32.2582L334.622 14.6221C341.612 20.3958 349.309 26.6944 357.504 33.3255L318.615 32.2582ZM317.226 32.2582L300.958 31.8033C308.311 22.7307 314.852 13.0265 320.503 2.80347C324.513 6.22396 328.978 9.97685 333.809 13.9835L317.226 32.2582ZM303.588 4.32562C298.66 10.7554 290.928 19.5472 285.589 25.4784C285.573 25.4313 285.549 25.3871 285.519 25.3472L282.636 21.7605L285.572 9.28577L298.354 1.91992L303.588 4.32562ZM298.922 1.01883L301.788 -14.3777C303.623 -12.4357 306.287 -9.88997 309.651 -6.84564C308.193 -3.23973 306.375 0.209836 304.225 3.45081L298.922 1.01883ZM304.828 4.43936C307.083 1.15182 308.981 -2.36738 310.49 -6.05835C312.29 -4.44871 314.273 -2.69906 316.414 -0.809479C310.143 10.751 302.71 21.6405 294.23 31.6896L281.264 31.8733C284.681 28.1028 297.882 13.6336 304.828 4.45688V4.43936ZM323.098 -2.07797C329.594 -14.504 334.404 -27.7431 337.4 -41.4442L342.643 -39.9833L330.236 4.03693C327.763 1.9024 325.361 -0.127134 323.098 -2.06046V-2.07797ZM331.162 4.74551L334.735 -7.92163L340.135 -6.3645L335.766 8.62091L331.162 4.74551ZM335.024 -8.94519L343.7 -39.7383C345.587 -39.2222 347.474 -38.6973 349.309 -38.1899L340.423 -7.38806L335.024 -8.94519ZM343.481 -40.8931C341.489 -41.4355 339.506 -41.9866 337.601 -42.5115L337.758 -43.2988C339.55 -50.9359 340.974 -56.1497 342.38 -59.7364L362.939 -35.5043L343.481 -40.8931ZM332.254 -42.9139C331.875 -41.3101 331.488 -39.6129 331.092 -37.8225C328.2 -26.7025 324.119 -15.9269 318.921 -5.68219C316.606 -7.69424 314.492 -9.55756 312.622 -11.2372C318.1 -25.0241 323.045 -42.0041 323.98 -45.1971C325.116 -44.8472 328.226 -43.9899 332.254 -42.9139ZM299.245 -17.4483C299.731 -16.6944 300.284 -15.9859 300.897 -15.3312L297.856 1.01013L284.847 8.49847C284.783 8.53312 284.728 8.58057 284.685 8.63782C284.641 8.69507 284.61 8.76086 284.593 8.8309L281.553 21.8217C281.535 21.9006 281.535 21.9825 281.553 22.0613C281.571 22.1401 281.607 22.2138 281.658 22.2767L284.698 26.0645C284.768 26.1436 284.859 26.2012 284.96 26.2307C282.295 29.1876 280.338 31.3134 279.814 31.882L230.991 32.5644L209.865 28.8202V24.7961L210.459 -20.4751C221.913 -23.0995 234.923 -26.0214 249.662 -29.3719C258.688 -31.419 264.646 -32.7749 265.433 -32.9411C268.464 -33.606 283.658 -38.8985 289.748 -41.033C293.19 -31.0077 296.712 -21.6824 299.245 -17.4483ZM141.313 -7.23059L141.418 -14.7101C141.479 -19.8453 141.532 -23.8956 141.636 -25.4178V-25.7239C141.636 -31.7863 132.253 -66.6211 129.544 -76.5677L176.725 -87.4066L176.865 -87.459C176.865 -87.459 176.934 -87.459 176.961 -87.459L224.796 -103.328L242.943 -29.993C210.179 -22.5834 148.915 -8.68277 141.313 -7.23059ZM133.24 -54.4701C136.604 -41.348 139.732 -28.2259 139.54 -25.6015C139.426 -24.0181 139.374 -19.9415 139.312 -14.7714L139.208 -7.10809C132.55 -6.90689 104.914 -5.89214 96.3957 -5.57721L88.0955 -37.665L91.3282 -46.5531L115.478 -54.4263L133.24 -54.4701ZM209.428 -20.2564L208.842 24.3587L198.358 25.9771C198.221 25.9992 198.098 26.0747 198.017 26.187L194.854 30.4211L172.059 31.812C171.939 31.8145 171.824 31.8612 171.736 31.9433L160.264 42.5284L140.405 49.7018C140.038 49.8155 127.972 53.446 112.699 57.96L112.568 57.4701C118.282 50.6903 136.962 28.3128 139.094 24.4462C140.536 21.8217 141.025 9.66194 141.287 -5.06979C145.21 -5.80463 165.655 -10.3449 209.428 -20.2564ZM99.1916 26.5019C92.7087 23.0814 81.4553 19.6872 75.7499 18.0863L92.167 -0.74823L99.1916 26.5019ZM107.929 60.4357L108.986 64.521L112.629 96.2502C108.357 96.5302 99.611 97.125 89.8079 97.7811L84.4434 67.3116C92.1757 65.0634 100.319 62.6752 107.937 60.4357H107.929ZM16.6608 77.057L15.4551 77.2495L15.9793 56.1316L24.7165 39.8253L36.0223 46.0889L34.4583 51.1453L30.0898 49.6931C29.9577 49.649 29.8135 49.6592 29.689 49.7216C29.5645 49.7839 29.4698 49.8932 29.4258 50.0255C29.3817 50.1577 29.392 50.3021 29.4542 50.4268C29.5165 50.5515 29.6257 50.6463 29.7578 50.6903L34.1263 52.1512L26.2629 77.5207C20.6187 77.4507 16.8181 77.0658 16.7395 77.057C16.7166 77.047 16.6933 77.0382 16.6696 77.0307L16.6608 77.057ZM36.363 45.0566L25.2407 38.933L26.9881 35.6175H39.3074L38.556 38.0494L36.363 45.0566ZM50.5434 38.1806V45.1791H37.4377L39.4297 38.7405L50.5434 38.1806ZM31.8285 63.2875H35.8737V77.2845C32.8332 77.4594 29.9675 77.5119 27.425 77.5031L31.8285 63.2875ZM50.5434 30.045H42.112L44.2876 23.0027L50.5346 22.3204L50.5434 30.045ZM41.8062 31.0772C41.8469 31.0813 41.8879 31.0813 41.9286 31.0772H50.5521V37.1309L39.7705 37.5683L41.8062 31.0772ZM25.8348 35.6087L15.1318 55.4668L8.21205 56.2104L5.31132 36.536L9.22555 35.5475L25.8348 35.6087ZM7.16359 56.3153L0.0603199 57.0764L-4.19465 38.933L4.26287 36.7984L7.16359 56.3153ZM14.9309 56.5515L14.4067 77.3982L5.13658 78.9203L0.304958 58.1087L14.9309 56.5515ZM14.3804 78.4742L13.7689 103.047C11.7069 103.1 9.62746 103.152 7.54803 103.205L5.37248 79.9526L14.3804 78.4742ZM114.211 63.7337C114.199 63.6157 114.178 63.4988 114.15 63.3838L113.005 58.9398C126.617 54.9157 137.687 51.5914 140.221 50.8303L144.59 69.9361C144.618 70.0518 144.685 70.1549 144.778 70.2292C144.871 70.3035 144.986 70.345 145.105 70.3472H169.674V88.4995C169.674 88.609 169.707 88.7159 169.77 88.8057L184.859 110.518L182.78 111.621C171.999 117.35 160.587 121.798 148.775 124.874C135.468 127.901 127.185 128.093 123.437 125.46C121.812 124.305 120.903 122.451 120.58 119.643L114.211 63.7337ZM167.393 124.428L170.399 134.121L136.254 146.919C135.592 144.448 135.677 141.836 136.499 139.413C138.517 134.033 145.009 131.321 150.094 130C155.958 128.47 161.73 126.609 167.385 124.428H167.393ZM134.725 132.458C133.361 133.94 132.29 135.668 131.571 137.55C130.834 139.573 130.501 141.723 130.593 143.875L122.153 132.73L121.908 130.621C124.949 132.196 129.116 132.808 134.725 132.458ZM150.26 178.569L139.775 188.28C133.852 179.611 129.107 172.787 128.671 172.533C127.98 172.14 123.874 170.784 121.113 169.909C121.541 162.193 121.646 151.862 121.646 143.324V140.795L150.26 178.569ZM128.085 173.408C128.609 173.889 133.109 180.407 138.998 189.015L120.746 205.925L114.429 207.053C116.928 196.468 119.82 183.285 120.632 176.015C120.79 174.563 120.93 172.866 121.043 170.985C124.241 172.008 127.605 173.163 128.076 173.408H128.085ZM121.096 206.931C121.194 206.914 121.285 206.869 121.358 206.799L125.307 203.143L129.483 213.684L111.004 221.164C111.651 218.592 112.839 213.807 114.176 208.173L121.096 206.931ZM129.833 214.664L138.299 236.07L136.604 237.138L115.888 232.195L110.803 222.362L129.833 214.664ZM126.102 202.373L139.557 189.889C145.883 199.162 153.676 210.684 159.888 219.913L153.667 227.506H152.872C152.334 227.48 151.8 227.62 151.343 227.909L139.208 235.537L126.102 202.373ZM155.013 227.576L160.989 220.28L171.683 206.878L188.633 229.238L155.013 227.576ZM170.425 196.468L189.647 197.911C191.788 199.661 219.729 222.214 224.726 228.022C227.968 231.793 225.181 249.385 222.228 262.91C222.19 262.974 222.166 263.045 222.158 263.119V263.189L221.529 265.998L220.515 262.875C220.426 262.592 220.29 262.326 220.113 262.087L170.425 196.468ZM223.119 263.732L234.197 264.607L237.544 293.335L231.192 295.234C227.138 283.118 223.958 273.425 222.166 267.905C222.446 266.715 222.769 265.307 223.119 263.732ZM238.278 294.228C238.386 294.194 238.481 294.127 238.549 294.036C238.616 293.944 238.653 293.834 238.653 293.72V293.659L235.272 264.703L253.751 266.19L257.508 295.199L235.316 307.446L231.541 296.257L238.278 294.228ZM270.771 289.084L279.639 288.559L289.809 313.928L245.154 335.956C241.781 326.333 238.575 317.025 235.657 308.434L270.771 289.084ZM260.12 329.753L266.132 347.302L250.929 352.358C249.077 347.197 247.251 342.053 245.468 336.979L260.12 329.753ZM266.97 348.124L272.65 346.235L281.684 373.1L260.881 379.32C257.683 370.869 254.468 362.121 251.322 353.373L266.97 348.124ZM289.792 371.744L300.364 405.048C295.453 406.658 286.384 410.122 275.026 414.601C270.657 404.523 266.009 392.731 261.291 380.274L289.792 371.744ZM310.927 444.519C307.921 437.713 305.484 432.272 303.509 427.898L318.449 423.025L325.955 439.227L310.927 444.519ZM335.81 436.865L337.846 442.603L330.201 445.77L327.396 439.848L335.81 436.865ZM326.4 440.18L329.458 446.654C329.517 446.776 329.62 446.871 329.747 446.92C329.874 446.969 330.014 446.968 330.14 446.916L338.711 443.373C338.808 443.333 338.891 443.265 338.949 443.178C339.008 443.091 339.041 442.988 339.043 442.883C339.051 442.825 339.051 442.766 339.043 442.708L336.806 436.48L348.863 432.228L354.901 449.208L331.398 457.851L318.816 462.47C316.003 456.058 313.522 450.424 311.337 445.482L326.4 440.18ZM326.951 438.868L319.463 422.693L329.03 419.57C329.38 419.981 329.72 420.383 330.061 420.812C334.168 425.938 339.576 428.685 347.867 429.464L348.505 431.266L326.951 438.868ZM319.017 421.722L313.295 409.361C318.607 410.472 323.666 413.621 328.27 418.721L319.017 421.722ZM318.004 422.054L303.072 426.918C299.237 418.415 297.244 414.225 296.161 412.151C298.916 411.076 301.724 410.145 304.575 409.361C307.03 408.87 309.551 408.804 312.028 409.168L318.004 422.054ZM295.217 412.501C296.449 414.925 298.887 420.2 302.067 427.251L283.318 433.374L277.298 419.928L277.105 419.491C283.807 416.84 290.246 414.356 295.217 412.501ZM272.501 422.063C275.908 429.7 279.281 437.188 282.54 444.423L273.916 447.546C273.792 447.59 273.689 447.679 273.627 447.796C273.566 447.913 273.55 448.048 273.584 448.176L274.843 452.891L228.073 472.811L218.855 454.658C220.276 452.874 221.933 450.768 223.827 448.342C227.19 444.038 231.69 438.247 233.07 436.882C234.695 436.349 238.95 434.66 252.292 429.324C258.076 427.006 265.127 424.189 272.169 421.451L272.501 422.063ZM283.772 434.31L302.522 428.187C304.706 433.059 307.231 438.684 309.94 444.808L291.452 451.352C288.953 445.875 286.384 440.171 283.754 434.319L283.772 434.31ZM310.341 445.84C312.735 451.238 315.26 456.977 317.838 462.838L299.682 469.512L291.88 452.349L310.341 445.84ZM331.31 459.024L334.351 467.71L323.124 472.146L320.581 466.354L319.306 463.441L331.31 459.024ZM335.207 468.506C335.305 468.468 335.39 468.4 335.449 468.313C335.508 468.225 335.54 468.122 335.539 468.017C335.548 467.959 335.548 467.9 335.539 467.842L332.333 458.665L340.249 455.726L343.918 464.29C343.962 464.405 344.046 464.502 344.154 464.561C344.262 464.621 344.388 464.641 344.51 464.617C344.631 464.593 344.74 464.526 344.817 464.43C344.894 464.333 344.935 464.212 344.932 464.089C344.944 464.019 344.944 463.948 344.932 463.879L341.28 455.358L355.32 450.206L362.651 470.72C362.61 470.715 362.569 470.715 362.528 470.72L328.253 483.991L323.5 473.108L335.207 468.506ZM366.836 401.645L352.28 405.774L349.955 401.173L364.145 396.799L366.836 401.645ZM360.519 390.071L363.638 395.871L349.658 400.175L349.536 400.237L347.037 395.364L360.519 390.071ZM351.546 406.526C351.672 412.584 352.645 418.594 354.438 424.381C343.778 424.661 338.134 422.404 334.22 417.514C324.819 405.748 314.998 403.211 307.423 403.666L308.454 397.875L342.241 388.103L351.546 406.526ZM338.064 379.46L341.751 387.097L324.592 392.057L319.297 372.969L333.67 367.895L338.064 379.46ZM345.657 370.484C345.551 370.442 345.434 370.433 345.323 370.46C345.212 370.486 345.112 370.547 345.036 370.633L338.728 378.244L332.778 362.576L369.203 354.371L372.244 366.784L365.883 379.276L345.657 370.484ZM385.716 387.893L366.853 379.696L373.039 367.554L390.338 376.118L385.716 387.893ZM404.702 367.143L393.711 368.394C393.616 368.404 393.526 368.44 393.449 368.497C393.372 368.554 393.312 368.63 393.274 368.717L390.723 375.173L373.249 366.495L370.217 354.152L402.081 346.961L404.702 367.143ZM383.218 280.589V280.712L390.81 299.319C390.753 299.306 390.693 299.306 390.635 299.319L381.846 302.739C381.735 302.783 381.642 302.863 381.582 302.966C381.522 303.069 381.498 303.19 381.514 303.308L383.759 318.049L358.002 321.793L354.647 317.217C354.585 317.127 354.495 317.06 354.391 317.025C354.287 316.99 354.175 316.99 354.071 317.025L343.542 320.279C343.409 320.32 343.298 320.412 343.232 320.535C343.166 320.658 343.152 320.802 343.193 320.935C343.234 321.069 343.325 321.181 343.448 321.246C343.571 321.312 343.715 321.326 343.848 321.285L354.106 318.18L357.426 322.703C357.483 322.78 357.561 322.842 357.65 322.88C357.739 322.918 357.836 322.933 357.932 322.921L384.52 319.055C384.589 319.045 384.655 319.022 384.715 318.986C384.775 318.95 384.828 318.903 384.869 318.847C384.911 318.79 384.941 318.726 384.957 318.659C384.973 318.591 384.976 318.52 384.965 318.451L382.711 303.579L391.099 300.307C391.163 300.277 391.22 300.232 391.265 300.176L408.809 343.278L332.062 360.564L327.99 324.916C327.999 324.867 327.999 324.816 327.99 324.767L325.046 317.769L337.505 309.895L341.393 313.78C341.481 313.868 341.598 313.923 341.723 313.934C341.847 313.945 341.972 313.912 342.075 313.841L351.056 307.393C351.124 307.344 351.179 307.28 351.217 307.205C351.254 307.131 351.274 307.048 351.275 306.965C351.275 306.886 351.257 306.808 351.222 306.737L341.944 287.763L342.267 277.904L344.678 276.408L351.886 271.833L358.203 280.441L352.961 284.482C352.907 284.525 352.861 284.578 352.827 284.638C352.793 284.698 352.771 284.764 352.762 284.833C352.754 284.901 352.759 284.971 352.777 285.038C352.796 285.104 352.827 285.167 352.869 285.221C352.912 285.276 352.965 285.322 353.025 285.356C353.085 285.39 353.151 285.412 353.219 285.421C353.288 285.429 353.358 285.424 353.424 285.406C353.491 285.387 353.553 285.356 353.608 285.313L358.85 281.298L362.257 285.934C362.304 286.002 362.367 286.058 362.44 286.096C362.513 286.134 362.594 286.154 362.677 286.153H370.846C370.972 286.153 371.093 286.107 371.187 286.022L382.545 276.067L383.218 280.589ZM382.344 274.877L370.628 285.138H362.939L352.533 270.966L351.816 265.245L363.026 254.161L377.25 241.293L382.344 274.877ZM406.589 214.629L414.234 221.234L398.106 235.388L388.355 246.577L379.688 250.505L378.115 240.165C378.102 240.087 378.069 240.015 378.019 239.955L374.323 235.581L384.703 228.18L406.589 214.629ZM397.092 219.23L384.432 227.025L375.433 219.309L378.43 216.807L387.455 208.847L397.092 219.23ZM386.747 208.059L378.176 215.626L374.184 210.229L382.047 202.977L386.747 208.059ZM381.077 202.425L373.554 209.38L366.914 200.396L371.606 198.917L381.077 202.425ZM384.956 184.999L388.975 188.35L381.82 201.577L372.06 197.964L368.609 184.702L371.755 182.174L384.956 184.999ZM418.551 153.506L399.661 171.79L391.955 174.327C391.872 174.355 391.798 174.402 391.737 174.464C391.676 174.526 391.631 174.602 391.605 174.685L389.526 182.165L385.157 183.915L371.737 181.045C371.661 181.031 371.583 181.034 371.508 181.052C371.432 181.07 371.362 181.103 371.3 181.15L367.701 184.055C367.62 184.117 367.559 184.201 367.527 184.298C367.494 184.394 367.491 184.498 367.517 184.597L371.012 197.964L366.259 199.504L354.901 184.142L347.317 176.269L396.682 130.551L418.551 153.506ZM395.965 129.764L382.134 142.545L369.981 128.172L384.345 117.517L395.965 129.764ZM383.567 116.817L369.457 127.315L362.152 108.576L367.998 103.415L376.84 111.043L383.567 116.817ZM407.551 87.6422L397.713 91.6663C397.603 91.7118 397.511 91.7916 397.45 91.8937L384.257 116.03L377.905 110.536L400.622 82.4021L407.551 87.6422ZM399.809 81.7635L377.093 109.853L368.705 102.61L390.548 74.7387L399.809 81.7635ZM389.709 74.1002L368.251 101.499L364.293 85.0615L377.748 65.0284L389.709 74.1002ZM396.961 64.836L390.356 73.2691L378.334 64.1536L384.528 54.9331C388.635 58.2137 392.794 61.5205 396.961 64.836ZM383.733 54.2683L363.288 84.6678C363.249 84.7279 363.223 84.7954 363.211 84.8661C363.199 84.9369 363.201 85.0093 363.218 85.079L367.404 102.496L361.855 107.395L356.613 83.6705C356.599 83.6006 356.571 83.5344 356.53 83.4759C356.489 83.4173 356.437 83.3677 356.376 83.33C356.316 83.2924 356.248 83.2675 356.178 83.2568C356.107 83.2462 356.036 83.25 355.967 83.2681L334.211 89.1293C334.077 89.1682 333.964 89.2571 333.894 89.3777C333.824 89.4982 333.803 89.6411 333.836 89.7767L340.117 113.169L331.625 115.872L326.33 99.1021L323.377 91.9987C323.332 91.89 323.251 91.7997 323.148 91.7426C323.045 91.6855 322.925 91.6647 322.809 91.6837L309.843 93.7133H309.8L305.746 94.7281C305.678 94.7445 305.615 94.774 305.559 94.8151C305.503 94.8561 305.456 94.9078 305.421 94.9672C305.385 95.0265 305.361 95.0924 305.351 95.161C305.341 95.2296 305.344 95.2995 305.361 95.3667C305.396 95.5015 305.483 95.6173 305.602 95.6892C305.721 95.7611 305.864 95.7835 305.999 95.7516L309.494 94.8768L315.959 120.902L310.953 122.424L302.618 115.216L294.422 84.939L302.661 81.8859C302.735 81.8537 302.803 81.8093 302.862 81.7547L334.578 48.0659L359.47 45.8352C359.617 45.8186 359.751 45.7466 359.846 45.6339L364.878 39.1516C370.977 44.0943 377.285 49.1419 383.733 54.2683ZM377.477 19.1011L390.583 26.4669L392.112 27.3418L382.501 46.5875C376.324 41.6361 369.85 36.4397 363.376 31.1996L364.477 16.9491L377.477 19.1011ZM362.345 30.3161C353.52 23.1777 344.722 15.9955 336.728 9.32077L341.323 -6.60944L350.357 -37.9275C357.347 -36.0117 363.166 -34.4283 364.188 -34.1133L367.071 -30.7103L362.345 30.3161ZM384.921 -30.1768L374.996 -23.9218L364.835 -34.9007L342.835 -60.8299C343.536 -62.6808 344.637 -64.3538 346.059 -65.7289C349.484 -68.7032 366.355 -84.0998 372.89 -90.066L407.839 -55.2749L384.921 -30.1768ZM417.642 -65.9038L408.59 -56.036L401.601 -62.9644L409.944 -73.051L417.642 -65.9038ZM409.167 -73.7771L400.902 -63.743L394.183 -70.4266L399.748 -82.5251L409.167 -73.7771ZM393.344 -71.2051L373.659 -90.7833C374.402 -91.4569 374.952 -91.9556 375.241 -92.2267C376.211 -92.7954 379.408 -94.6674 383.821 -97.2744L401.496 -88.9374L393.344 -71.2051ZM377.731 -99.7763L372.375 -96.6357C372.214 -96.5428 372.064 -96.4313 371.929 -96.3033L369.929 -94.5275L369.78 -94.6761L372.663 -101.78L377.731 -99.7763ZM373.056 -102.716L376.027 -110.029H376.071L387.56 -105.611C384.537 -103.862 381.619 -102.112 378.893 -100.485L373.056 -102.716ZM410.006 -107.431L401.941 -89.8823L384.93 -97.9042C390.382 -101.123 397.424 -105.305 404.396 -109.504C406.222 -108.848 408.101 -108.148 410.006 -107.448V-107.431ZM398.071 -111.857C394.952 -109.977 391.798 -108.096 388.722 -106.276L376.49 -110.983C376.476 -110.987 376.461 -110.987 376.446 -110.983L379.644 -118.856C384.1 -117.124 390.522 -114.692 398.071 -111.875V-111.857ZM415.187 -133.894L409.158 -118.611C407.411 -117.561 405.663 -116.476 403.829 -115.383C399.687 -116.914 395.843 -118.348 392.392 -119.634L401.129 -139.659L415.187 -133.894ZM400.168 -140.017L391.431 -119.976C387.508 -121.445 384.161 -122.722 381.566 -123.737L389.884 -144.251L400.168 -140.017ZM379.697 -148.424L388.879 -144.654L384.755 -134.48C384.714 -134.54 384.66 -134.591 384.598 -134.629L375.311 -139.003L379.697 -148.424ZM374.384 -138.311L384.144 -133.675C384.232 -133.65 384.326 -133.65 384.415 -133.675L380.562 -124.166C378.037 -125.154 376.385 -125.846 375.844 -126.143C374.865 -126.817 371.475 -128.479 366.818 -130.657L371.187 -139.886L374.384 -138.311ZM362.152 -144.435C362.159 -144.342 362.19 -144.253 362.242 -144.176C362.294 -144.099 362.366 -144.038 362.45 -143.998L370.243 -140.297L365.875 -131.059C363.524 -132.144 360.886 -133.351 358.09 -134.62L362.152 -144.435ZM372.829 -121.804C374.706 -120.835 376.644 -119.99 378.631 -119.276L368.967 -95.4548L338.877 -125.382C338.608 -129.356 338.734 -133.347 339.253 -137.297C354.307 -130.622 371.047 -123.055 372.829 -121.813V-121.804ZM314.623 -148.004C315.243 -147.768 315.767 -147.558 316.152 -147.392C319.035 -146.185 326.068 -143.114 334.246 -139.519C333.467 -134.64 333.259 -129.687 333.626 -124.761C329.056 -136.719 322.11 -143.298 314.623 -148.013V-148.004ZM339.812 -118.261C339.446 -120.088 339.178 -121.934 339.008 -123.79L368.539 -94.4225L367.797 -92.5854C360.484 -85.9106 345.692 -72.4648 342.608 -69.7354C341.646 -68.8901 340.803 -67.9191 340.1 -66.8486C341.105 -84.4759 341.699 -108.787 339.812 -118.235V-118.261ZM283.396 -101.762L316.213 -77.6437C316.259 -77.6073 316.313 -77.5805 316.37 -77.5649L335.102 -71.9138C334.657 -62.7545 334.063 -54.6538 333.512 -50.1748C333.372 -48.9588 333.058 -46.8243 332.49 -43.9374C327.597 -45.2846 324.041 -46.2644 323.753 -46.3431C319.252 -46.8159 314.726 -46.9942 310.202 -46.8768L284.864 -74.1094L283.623 -78.3348C283.475 -78.8498 283.169 -79.3055 282.75 -79.6382L271.304 -88.9811L283.396 -101.762ZM278.792 -76.0691C279.875 -72.3687 284.314 -57.3045 289.093 -43.0801C283.073 -40.9631 267.897 -35.6792 265.005 -35.0494C264.218 -34.8744 258.251 -33.5185 249.225 -31.4714C247.88 -31.1653 246.456 -30.8416 244.97 -30.5092L226.771 -104.037L239.352 -108.218L278.792 -76.0691ZM166.738 -145.362L233.07 -111.682L178.027 -93.434L166.738 -145.362ZM100.756 -97.6943C105.57 -102.838 141.942 -132.686 148.644 -138.189L163.846 -133.894L172.977 -91.9643L86.9859 -72.2024C90.8564 -80.688 97.2956 -93.9763 100.756 -97.668V-97.6943ZM127.491 -76.1216C128.959 -70.7765 130.986 -63.2006 132.969 -55.5198H115.399C115.344 -55.529 115.288 -55.529 115.233 -55.5198L91.7913 -47.8566L99.777 -69.7267L127.491 -76.1216ZM-14.6792 13.8435L-12.0581 -20.1689L2.8562 -25.4178L4.19297 -5.53345C4.18893 -5.49565 4.18893 -5.45754 4.19297 -5.41974L9.90705 13.826L-14.6792 13.8435ZM11.0341 13.8435L5.24143 -5.66467L3.86096 -25.8376L8.83238 -27.5873L29.0588 13.8435H11.0341ZM30.2558 13.8435L9.84589 -27.946L15.1406 -29.7918H15.2192C17.421 -30.6054 25.8785 -34.9706 36.3019 -40.4907L58.1446 3.42456C58.1753 3.4869 58.218 3.54251 58.2703 3.5882C58.3226 3.63388 58.3834 3.66873 58.4492 3.6907C58.515 3.71268 58.5846 3.72139 58.6538 3.71625C58.723 3.71111 58.7905 3.69223 58.8524 3.66077C58.9758 3.59877 59.0699 3.49045 59.1141 3.35941C59.1582 3.22836 59.149 3.08518 59.0883 2.96094L37.2455 -40.9893C53.5577 -49.6412 74.2471 -60.8999 83.3862 -65.8863L93.661 -68.2833L82.8969 -38.6536C82.7137 -38.1545 82.6863 -37.6115 82.8183 -37.0964L91.5554 -3.19769L73.356 17.6839L56.0914 19.5385L50.3773 8.05231C50.3224 7.93909 50.2286 7.84943 50.1132 7.79965C49.9977 7.74987 49.8682 7.74329 49.7483 7.78113L31.4003 13.8435H30.2558ZM-14.7404 14.8933H29.6966C29.7699 14.9347 29.8527 14.9564 29.9369 14.9564C30.0211 14.9564 30.1038 14.9347 30.1771 14.8933H31.4528C31.5078 14.9011 31.5637 14.9011 31.6188 14.8933L49.626 8.95334L54.9556 19.6872L-4.981 26.1958L-4.93731 26.0995L-3.41705 19.2935H2.64651L2.06985 24.6998C2.06297 24.7688 2.06971 24.8384 2.0897 24.9047C2.10968 24.971 2.14252 25.0328 2.18633 25.0864C2.23014 25.14 2.28407 25.1844 2.34504 25.2172C2.40601 25.2499 2.47282 25.2704 2.54166 25.2773C2.6105 25.2841 2.68003 25.2774 2.74626 25.2574C2.8125 25.2374 2.87415 25.2045 2.9277 25.1606C2.98124 25.1167 3.02564 25.0628 3.05834 25.0017C3.09105 24.9407 3.11142 24.8737 3.11831 24.8048L3.75612 18.8212V18.7599C3.75524 18.6298 3.70531 18.5048 3.61633 18.41C3.56896 18.3544 3.50998 18.3099 3.44354 18.2797C3.37711 18.2495 3.30486 18.2342 3.23189 18.235H-3.84517C-3.96361 18.2362 -4.07817 18.2774 -4.17019 18.3521C-4.26221 18.4268 -4.32627 18.5304 -4.35192 18.6462L-5.94208 25.8896C-5.95781 25.9624 -5.95735 26.0377 -5.94074 26.1103C-5.92413 26.1829 -5.89178 26.2509 -5.84597 26.3095L-15.7102 27.3855L-14.7404 14.8933ZM11.8117 26.5019L10.2041 34.4977H9.15565C9.11538 34.4886 9.07361 34.4886 9.03333 34.4977L-4.40435 37.8919L-6.58862 28.4965L11.8117 26.5019ZM-15.6315 29.5026L-7.64581 28.6277L-5.42659 38.1631L-13.8666 40.2976L-15.6315 29.5026ZM-13.7006 41.3387L-5.18195 39.1954L-0.996872 57.1902L-10.9397 58.2399L-13.7006 41.3387ZM-10.765 59.2897L-0.760969 58.2224L4.09686 79.0953L-7.26138 80.9586L-10.765 59.2897ZM-7.06043 82.0346L4.29782 80.1626L6.49083 103.179C3.0921 103.266 -0.289165 103.336 -3.55685 103.397L-7.06043 82.0346ZM39.3948 104.211V121.261L31.0945 122.424L30.4917 104.622C33.803 104.5 36.8174 104.36 39.3948 104.211ZM1.50194 105.453L-3.32094 107.115L-3.32094 105.558C-1.73953 105.523 -0.123159 105.488 1.50194 105.453ZM-17.51 105.803C-13.6045 105.733 -9.12239 105.654 -4.40435 105.558L-4.40435 107.457L-17.3003 111.927L-17.51 105.803ZM-16.514 130.796L-17.2217 113.012L-4.3694 108.594V131.444L-16.514 130.796ZM7.53055 154.25C4.83952 150.357 -2.3686 140.524 -3.31221 139.229L-3.31221 108.226L4.97931 105.374C13.4368 105.182 22.1041 104.946 29.4432 104.666L30.0723 123.037C30.0731 123.112 30.0898 123.186 30.1215 123.254C30.1531 123.321 30.1989 123.382 30.2558 123.43C30.3127 123.477 30.3786 123.511 30.4493 123.53C30.5199 123.55 30.5938 123.555 30.6664 123.544L39.9977 122.232C40.1235 122.213 40.2385 122.15 40.3218 122.054C40.4051 121.957 40.4513 121.834 40.452 121.707V104.132C43.6498 103.94 46.0525 103.73 47.3456 103.502C55.375 102.103 101.437 99.0759 112.874 98.3323L116.255 127.735C116.255 128.837 116.395 136.937 116.36 146.447H93.5911C93.5332 146.438 93.4743 146.438 93.4164 146.447L15.7959 175.035C14.8435 172.105 10.1866 158.09 7.53055 154.25ZM44.7943 237.295C42.3392 234.837 32.2216 229.422 30.6926 228.591L15.3503 186.906L15.9706 176.094L93.7309 147.523H116.447C116.395 157.67 116.177 169.157 115.478 175.429C114.219 186.801 107.396 214.2 105.806 220.516L69.5466 234.207C69.1954 234.339 68.8766 234.545 68.6117 234.811L53.2169 250.146C50.7443 245.938 46.5942 239.097 44.7943 237.295ZM29.8801 380.247L-4.01991 378.743L2.14849 355.28V355.14C2.14943 355.044 2.12208 354.95 2.06985 354.869C1.99165 354.747 1.86975 354.659 1.72911 354.624L-10.1272 352.236L-4.77131 331.451L1.54563 332.632C6.74421 336.061 10.7895 338.703 12.3884 339.709L32.5012 369.995L29.8801 380.247ZM20.7411 342.736C26.3852 344.608 35.5942 347.661 44.8555 350.906L38.1367 368.954L20.7411 342.736ZM38.8356 369.995L45.8253 351.212C58.8174 355.779 71.6347 360.66 74.5355 363.101C75.3614 363.821 76.1297 364.605 76.8333 365.446L65.0382 384.149L57.0088 385.741L50.124 387.062L38.8356 369.995ZM77.541 366.303C83.1503 373.371 88.8993 386.065 90.1137 389.923C90.7012 391.288 91.3693 392.617 92.1145 393.903C92.1145 397.936 92.6213 403.325 93.0756 408.127C89.3886 403.158 79.7253 397.157 78.8254 396.606L66.0343 384.49L77.541 366.303ZM65.0382 385.269L70.0708 397.472L66.9779 399.371L58.0223 386.616L65.0382 385.269ZM33.7681 401.89L32.8332 408.267L15.6211 413.219L14.0921 408.6L33.7681 401.89ZM-7.93414 416.149L-1.98417 412.764C-1.63843 413.048 -1.22566 413.24 -0.785179 413.319C-0.344701 413.399 0.108805 413.364 0.532124 413.219L13.0874 408.941L14.6076 413.507L10.4051 414.723C10.3032 414.75 10.2117 414.806 10.143 414.886C10.0743 414.966 10.0316 415.065 10.0206 415.17L9.4265 420.418L0.802973 426.455L-7.93414 416.149ZM1.49321 427.312L10.2303 421.188C10.2904 421.146 10.341 421.091 10.3786 421.028C10.4162 420.964 10.4401 420.894 10.4487 420.821L11.0429 415.677L33.4536 409.238C33.552 409.21 33.64 409.154 33.7068 409.076C33.7736 408.998 33.8161 408.903 33.8293 408.801L34.8952 401.549L50.0541 396.387C51.4083 398.382 53.8809 402.144 56.7467 407.043L55.1041 417.068C55.0235 417.05 54.9401 417.05 54.8595 417.068L18.5218 424.924C18.452 424.938 18.3858 424.966 18.3272 425.007C18.2686 425.047 18.2189 425.099 18.1811 425.16C18.1447 425.223 18.1213 425.292 18.1123 425.364C18.1033 425.437 18.1089 425.51 18.1287 425.58L21.5274 438.002L13.3669 441.3L1.49321 427.312ZM35.8912 422.238L54.9207 418.109L51.8452 436.926L39.8229 439.69L35.8912 422.238ZM38.7919 439.927L24.0524 443.33L19.2645 425.833L34.8602 422.483L38.7919 439.927ZM52.9199 436.856L57.568 408.486C62.0938 416.359 67.3623 426.857 70.6737 437.661L52.9199 436.856ZM-1.35509 451.518L0.0253716 446.033L15.0969 445.228L16.6958 460.021L2.97851 463.161L-1.35509 451.518ZM3.14452 464.202L16.7744 461.079L19.2907 483.982L1.44078 483.203L3.14452 464.202ZM-15.8238 485.583L-14.6792 480.115L0.296221 484.104L-0.105686 488.601L-15.8238 485.583ZM5.91418 499.518L0.90782 489.134L1.34468 484.262L19.2033 485.032L15.1318 500.664L5.91418 499.518ZM29.8015 505.458L15.3328 504.094L17.9015 494.217L31.6887 495.897L29.8015 505.458ZM52.518 487.682L34.5632 486.081L33.8555 472.084L52.2034 469.224L52.518 487.682ZM33.2089 471.061C33.0818 471.086 32.9674 471.154 32.8859 471.255C32.8043 471.356 32.761 471.482 32.7633 471.612L33.5235 486.484L31.8896 494.856L18.1636 493.193L20.3828 484.673V484.577V484.48L16.0754 444.659C16.0578 444.581 16.0252 444.507 15.9793 444.441L14.0921 442.219L21.7895 439.095L23.17 444.091C23.205 444.221 23.2891 444.333 23.4047 444.403C23.5203 444.474 23.6584 444.496 23.7903 444.467L51.7491 438.019L52.2034 468.122L33.2089 471.061ZM73.9676 453.976C74.173 457.555 74.135 461.144 73.854 464.719L53.2868 467.973L52.8325 437.932L71.0406 438.737C72.574 443.693 73.5556 448.804 73.9676 453.976ZM76.6761 439.2C70.2368 415.581 54.2916 393.159 53.2431 391.716L50.753 387.963L56.869 386.791L66.3925 400.342C66.4686 400.45 66.583 400.526 66.7127 400.554C66.8424 400.581 66.9778 400.559 67.0914 400.49L70.9969 398.102C71.1058 398.039 71.1875 397.938 71.2263 397.819C71.265 397.699 71.258 397.569 71.2066 397.455L66.7769 386.712L78.1352 397.463L78.2225 397.533C78.3623 397.621 91.8349 405.888 93.3203 410.796V410.997L93.3902 411.749H83.7007C83.5816 411.751 83.4665 411.793 83.3733 411.867C83.2801 411.941 83.214 412.044 83.1852 412.16L76.6761 439.2ZM81.5601 423.401L84.1201 412.86H93.53C93.7222 414.89 93.8794 416.595 93.9231 417.619C93.8032 420.208 93.4375 422.78 92.831 425.3L81.5601 423.401ZM136.91 489.887L131.248 488.662C131.145 488.636 131.037 488.636 130.934 488.662L114.63 495.372L103.709 494.926L88.908 456.854L89.9477 442.026C90.306 440.688 95.19 422.159 95.0153 417.532C94.9541 416.193 94.7095 413.744 94.4386 410.909C94.0018 406.491 93.4251 400.63 93.2591 395.976C102.809 413.096 131.798 461.394 146.355 485.574L136.91 489.887ZM151.134 483.317C127.316 443.758 96.5268 392.145 95.1551 388.4C93.7222 383.746 85.5442 365.489 77.9255 359.059C72.7618 354.685 46.7252 345.727 21.938 337.531C18.7927 336.489 16.0667 335.588 15.4202 335.343C14.4853 334.784 9.40029 331.451 2.40187 326.832L5.97534 286.888L38.6871 271.868C38.9719 271.735 39.232 271.554 39.456 271.334L71.8619 238.887L106.679 225.765L111.799 235.659C111.974 235.999 112.221 236.297 112.523 236.531C112.825 236.765 113.174 236.93 113.547 237.015L136.473 242.527C137.163 242.687 137.889 242.568 138.491 242.194L153.458 232.781L192.775 234.732L215.64 264.922C217.955 272.095 248.168 365.656 270.072 416.569C263.956 418.992 257.29 421.643 250.344 424.442C241.528 427.942 233.167 431.301 231.472 431.878C230.065 431.957 229.182 432.928 219.659 445.105C215.771 450.083 210.922 456.285 209.716 457.353C208.143 458.726 199.494 462.059 192.041 464.491C191.945 464.491 191.849 464.561 191.753 464.605L151.134 483.317ZM222.28 501.88L217.038 491.61C216.98 491.504 216.887 491.421 216.776 491.374L202.202 484.927C202.159 484.919 202.114 484.919 202.071 484.927L193.78 483.684L189.271 471.577L193.841 469.469C196.864 468.48 210.092 464.054 213.202 461.324C214.971 459.527 216.62 457.616 218.139 455.603L227.339 473.729C227.397 473.849 227.5 473.942 227.626 473.988C227.751 474.033 227.89 474.028 228.012 473.974L263.301 458.936L271.898 481.025L222.28 501.88ZM272.85 480.623L264.288 458.525L275.157 453.888L283.728 476.047L272.85 480.623ZM284.698 475.636L275.961 453.031L274.72 448.368L282.959 445.385C287.118 454.597 291.094 463.354 294.763 471.402L284.698 475.636ZM309.616 491.199C306.829 485.075 303.623 478.138 300.128 470.475L318.266 463.8L327.274 484.367L309.616 491.199ZM337.575 505.345L328.689 484.953L362.869 471.726C362.869 471.726 362.921 471.726 362.956 471.665L370.977 494.121L337.575 505.345ZM371.99 493.788L366.18 477.543C366.218 477.547 366.256 477.547 366.294 477.543L374.917 474.184L381.706 490.543L371.99 493.788Z" fill="#2C5DEB"/>
</g>
</svg>
