<svg width="440" height="440" viewBox="0 0 440 440" fill="none" xmlns="http://www.w3.org/2000/svg">
<mask id="mask0" mask-type="alpha" maskUnits="userSpaceOnUse" x="0" y="0" width="440" height="440">
<rect y="220" width="311.127" height="311.127" rx="55" transform="rotate(-45 0 220)" fill="#2C5DEB"/>
</mask>
<g mask="url(#mask0)">
<path d="M441.72 617.143L442.891 620.45L442.891 617.301L442.716 616.802L442.891 616.75L442.891 615.639L442.366 615.814L422.682 560.325C428.844 559.007 435.581 557.508 442.891 555.828L442.891 550.396C411.734 557.473 392.32 561.34 379.686 561.864C377.918 556.193 376.934 550.307 376.759 544.368L391.927 539.994C392.036 539.961 392.132 539.894 392.201 539.803C392.271 539.712 392.309 539.601 392.311 539.487C392.309 539.399 392.288 539.313 392.25 539.233L385.383 526.671C385.321 526.558 385.221 526.472 385.1 526.428C384.979 526.385 384.847 526.387 384.728 526.435L370.801 532.025L367.149 524.799L363.339 516.926L369.761 509.184L442.891 540.913L442.891 539.758L410.852 525.849L418.366 506.944L429.077 505.728L431.829 523.487C431.85 523.605 431.91 523.713 431.998 523.793C432.087 523.874 432.199 523.923 432.319 523.933L442.891 524.641L442.891 523.583L432.808 522.909L431.76 516.13L442.891 515.526L442.891 507.425L430.563 508.405L430.047 505.09L428.396 492.449L442.891 489.623L442.891 488.547L428.256 491.381L427.321 484.26L434.485 482.651L442.891 487.9L442.891 486.649L435.945 482.275L442.891 480.709L442.891 478.548L434.057 480.534L425.906 460.562L439.457 455.549C439.576 455.504 439.676 455.417 439.737 455.305C439.797 455.192 439.816 455.062 439.789 454.937L438.382 448.979L442.891 447.659L442.891 446.556L437.648 448.148C437.519 448.187 437.409 448.274 437.341 448.391C437.272 448.508 437.251 448.646 437.281 448.778L438.697 454.762L425.591 459.626L408.562 417.906L404.194 389.125L413.132 385.057C413.202 385.027 413.264 384.982 413.315 384.926L423.084 373.685L439.623 359.189L442.891 356.32L442.891 354.912L439.273 358.087L431.76 351.587L441.292 345.376C441.366 345.33 441.428 345.266 441.471 345.189C441.513 345.113 441.536 345.027 441.536 344.939C441.534 344.836 441.504 344.737 441.449 344.65C441.372 344.532 441.252 344.45 441.114 344.42C440.977 344.391 440.833 344.417 440.715 344.493L430.606 351.08L422.245 356.189L412.485 345.691L418.601 340.311L429.514 340.442C429.584 340.443 429.653 340.431 429.717 340.405C429.782 340.379 429.841 340.341 429.89 340.292C429.94 340.243 429.979 340.185 430.006 340.12C430.033 340.056 430.047 339.987 430.047 339.917C430.048 339.849 430.036 339.781 430.01 339.717C429.985 339.654 429.947 339.596 429.899 339.547C429.851 339.498 429.794 339.459 429.731 339.433C429.668 339.406 429.6 339.392 429.532 339.392L418.392 339.253C418.263 339.251 418.138 339.298 418.042 339.384L411.769 344.913L406.937 339.664L414.346 325.99C414.388 325.913 414.409 325.825 414.408 325.737C414.408 325.659 414.391 325.583 414.358 325.513C414.325 325.444 414.276 325.382 414.215 325.334L410.441 322.185L414.399 320.584C414.475 320.554 414.543 320.507 414.598 320.447C414.652 320.386 414.692 320.313 414.713 320.234L416.784 312.772L424.342 310.288C424.417 310.263 424.486 310.221 424.543 310.165L442.891 292.407L442.891 289.625L421.319 266.959L409.27 254.3L422.533 230.094L432.747 225.913L442.891 233.62L442.891 232.299L425.521 219.115C425.597 219.021 425.64 218.904 425.644 218.783C425.643 218.704 425.625 218.626 425.59 218.554C425.555 218.483 425.505 218.421 425.443 218.372C425.389 218.328 425.327 218.295 425.26 218.275C425.194 218.255 425.124 218.248 425.055 218.256C424.986 218.263 424.919 218.284 424.858 218.317C424.797 218.351 424.743 218.396 424.7 218.451L415.43 211.452L422.026 203.036C424.939 205.369 427.851 207.676 430.763 209.956C432.511 211.382 434.337 212.799 436.128 214.208L442.891 219.614L442.891 210.096C438.522 208.478 435.516 207.026 433.987 205.818L433.315 205.285L439.702 196.213C439.767 196.128 439.801 196.023 439.798 195.916C439.799 195.833 439.781 195.75 439.744 195.676C439.708 195.601 439.654 195.537 439.588 195.487L435.115 192.11C434.999 192.025 434.854 191.99 434.712 192.013C434.571 192.035 434.443 192.112 434.359 192.228C434.274 192.344 434.239 192.489 434.261 192.631C434.283 192.773 434.361 192.9 434.477 192.985L438.522 196.029L432.467 204.629C425.591 199.179 416.898 192.268 407.462 184.718L417.169 165.35L442.891 179.53L442.891 178.332L437.526 175.366L442.891 165.534L442.891 163.338L436.6 174.859L415.264 163.075L402.088 155.666C402.036 155.64 401.98 155.623 401.922 155.613L388.72 153.356L392.215 107.639L398.698 114.637C398.784 114.726 398.897 114.784 399.019 114.8C399.142 114.816 399.266 114.789 399.371 114.725L409.41 108.374L442.891 128.914L442.891 127.681L410.249 107.656L442.646 72.2967L442.891 72.4455L442.891 69.3924L442.358 70.7046L424.385 54.0046L435.211 30.4548C437.709 31.3733 440.287 32.3268 442.891 33.2804L442.891 27.6379C439.99 26.5794 437.142 25.5296 434.389 24.5148C437.377 22.704 440.261 20.9369 442.891 19.266L442.891 13.0549C440.505 14.5508 437.806 16.2217 434.896 18.0063L440.601 3.53697L442.891 -1.87807L442.891 -4.58126L439.833 2.66215L414.495 -7.73928L416.242 -12.1133L415.107 -12.1133L413.49 -8.11544L403.775 -12.1046L400.952 -12.1046L402.927 -11.291L398.558 -1.96553L392.818 -4.69496L395.605 -12.1046L394.478 -12.1046L391.857 -5.1061L387.052 -7.38936C386.961 -7.43221 386.861 -7.44838 386.762 -7.43599C386.663 -7.4236 386.569 -7.38313 386.493 -7.31941L388.45 -12.0696L387.305 -12.0696L381.311 2.50474L376.366 0.273971L381.582 -12.1046L380.438 -12.1046L375.458 -0.189713C371.963 -1.77309 368.319 -3.37404 364.842 -4.91365L367.751 -12.1046L362.064 -12.1046L360.019 -7.04817C355.65 -8.95522 351.754 -10.6787 348.661 -12.0171L348.705 -12.1046L333.851 -12.1046C343.707 -6.79445 353.23 0.553879 358.315 17.7351C358.446 18.6098 358.595 19.4847 358.77 20.3595C360.307 28.0665 360.063 47.8809 359.285 64.5897L340.937 59.0434L321.908 45.0466L334.585 27.3492C334.653 27.2616 334.69 27.1539 334.69 27.043C334.69 26.9584 334.67 26.875 334.63 26.8003C334.59 26.7256 334.533 26.6617 334.463 26.6144C334.349 26.535 334.208 26.5033 334.071 26.5262C333.934 26.5491 333.811 26.6247 333.729 26.7369L321.095 44.4079L308.19 34.9162L327.622 -12.1046L326.486 -12.1046L307.098 34.8113L294.692 47.9334L267.406 25.6871L286.19 -12.1046L280.31 -12.1046L262.906 22.8352L194.127 -12.1046L184.621 -12.1046L186.78 -2.193L176.12 -5.19355C177.242 -7.44306 178.245 -9.74989 179.126 -12.1046L173.464 -12.1046C172.511 -9.76582 171.423 -7.48457 170.205 -5.27229C165.636 -1.53687 126.432 30.5947 121.12 36.2635C115.808 41.9322 106.739 62.254 104.581 67.2054C79.2432 81.0098 41.2804 101.48 37.838 102.661C35.8197 103.072 20.5997 104.726 6.03492 106.257L6.03493 111.558C8.99681 111.252 12.2208 110.911 15.471 110.561L6.03493 113.868L6.03493 119.458L11.0413 117.708L9.17155 142.281L6.03493 141.818L6.03493 142.885L9.08418 143.34L7.43287 165.035L6.03493 165.192L6.03493 167.309L7.52897 167.152L9.2764 178.087L5.99998 178.962L5.99998 180.055L9.49482 179.181L12.2208 195.889L6.03493 196.545L6.03493 197.613L12.3955 196.93L15.9428 218.661L6.03493 220.288L6.03493 221.364L16.1176 219.719L19.6124 241.021C14.9118 241.117 10.4734 241.196 6.61158 241.257L6.03493 237.933L6.03493 253.075L6.63779 268.28L6.03493 268.28L6.03493 269.338L19.8396 270.064L19.8396 276.975C19.8396 277.089 19.8764 277.199 19.9444 277.29C20.0056 277.369 24.5401 283.554 28 288.374L20.6871 289.502L17.1922 281.507C17.1533 281.424 17.0948 281.352 17.0217 281.297C16.9486 281.242 16.8631 281.206 16.7728 281.192L6.9698 279.923C6.83621 279.908 6.70163 279.943 6.59306 280.022C6.48449 280.102 6.40996 280.22 6.38442 280.352L6.03493 282.268L6.03493 288.024L7.3455 281.025L16.3622 282.198L19.857 290.29C19.905 290.397 19.9863 290.485 20.0887 290.542C20.191 290.599 20.309 290.621 20.425 290.605L28.6641 289.319C29.5378 290.526 30.2892 291.593 30.8483 292.407C33.5568 296.326 38.7117 311.985 39.1136 313.35L38.4933 324.302L16.5894 343.942L8.35901 346.566L6.03494 343.067L6.03494 344.965L7.31055 346.898L6.03494 347.292L6.03494 348.394L17.0087 344.895C17.0804 344.876 17.1464 344.84 17.201 344.79L38.7991 325.439L53.9231 366.555C53.7134 367.518 52.2281 373.554 48.5934 374.717C47.213 375.155 40.1359 378.321 30.927 382.45L21.089 362.33L33.5743 357.02C33.642 356.991 33.7028 356.948 33.7526 356.894C33.8023 356.839 33.8398 356.775 33.8626 356.705C33.8757 356.647 33.8757 356.588 33.8626 356.53C33.8612 356.441 33.8372 356.354 33.7927 356.276L27.0302 344.108C26.9959 344.046 26.9493 343.991 26.8933 343.948C26.8373 343.904 26.773 343.872 26.7044 343.854C26.6358 343.836 26.5642 343.832 26.4941 343.843C26.424 343.853 26.3567 343.878 26.2963 343.915L10.1152 353.958C10.0185 354.02 9.94416 354.111 9.90324 354.218C9.86232 354.325 9.85698 354.443 9.888 354.553L12.745 364.692L6.03494 367.561L6.03494 368.707L20.1104 362.724L29.9746 382.844L28.8039 383.369C21.9277 386.475 13.8022 390.123 6.03494 393.543L6.03494 394.68C13.776 391.277 21.9802 387.594 29.232 384.331C39.4282 379.756 47.4838 376.143 48.908 375.688C52.6911 374.472 54.3512 369.18 54.8317 367.273C57.2257 368.559 66.1026 373.396 68.2607 375.557C70.0081 377.307 74.2194 384.305 76.657 388.434L60.2749 404.854L6.03494 429.76L6.03494 435.56L29.0834 424.975L25.5886 463.755C19.8658 459.967 12.9635 455.392 6.03494 450.79L6.03494 457.124C11.9937 461.078 18.1883 465.181 23.5092 468.671L6.03494 465.417L6.03494 466.484L18.398 468.794L13.0246 489.562L6.03494 488.127L6.03494 489.159L25.1954 493.078L19.1406 516.278L6.03494 515.316L6.03494 516.375L19.4726 517.363L54.4211 518.885C54.5416 518.891 54.6604 518.855 54.7575 518.783C54.8546 518.712 54.924 518.609 54.954 518.492L57.4441 508.729L71.1963 529.4L24.3829 545.339C18.8362 541.244 12.6308 538.128 6.03494 536.128L6.03494 541.648C11.5099 543.495 16.6673 546.177 21.3249 549.6L15.2089 553.099C15.1394 553.135 15.0795 553.187 15.0339 553.251C14.9884 553.315 14.9585 553.389 14.9468 553.466C14.9345 553.542 14.9391 553.62 14.9602 553.694C14.9814 553.768 15.0186 553.837 15.0691 553.895L21.1851 561.112L6.03495 580.489L6.03495 582.239L21.8841 561.969L38.6855 581.775L23.8324 582.536C23.7209 582.542 23.6141 582.583 23.5277 582.654C23.4413 582.725 23.3797 582.821 23.3519 582.93L21.7617 588.957C21.7312 589.06 21.7312 589.169 21.7617 589.272L26.3225 601.388L24.5751 620.573L9.65211 616.592L9.65211 609.139C9.65388 609.021 9.61608 608.906 9.54477 608.813C9.47346 608.719 9.37279 608.652 9.25894 608.623L6.03495 607.783L6.03495 608.877L8.60366 609.541L8.60366 616.942L7.35425 622.917L6.03495 622.663L6.03495 623.739L7.13582 623.949L6.03495 629.207L6.03495 634.377L8.1668 624.151L24.2169 627.239L29.2232 637.614L27.9738 644L29.0485 644L30.1931 638.13L39.0787 639.232L37.838 644L38.9214 644L39.2709 642.662L53.4687 644L64.7134 644L55.1026 643.125L58.6935 624.667L76.7269 626.276L76.1328 644L77.19 644L77.8016 625.813L77.5045 606.567L97.9668 603.383C96.7349 617.756 92.3838 633.345 88.8803 644L94.4458 644C95.2496 641.507 96.0796 638.751 96.9097 635.891C101.348 620.38 103.585 607.022 103.585 595.991C103.585 594.337 103.532 592.736 103.436 591.197C103.129 587.064 102.463 582.966 101.444 578.949L105.524 562.004L116.83 563.859C115.345 570.857 113.126 579.212 113.091 579.343L113.091 579.439L112.042 594.442C112.02 594.516 112.02 594.595 112.042 594.67L126.895 632.837L114.795 644L116.35 644L127.708 633.502L138.839 633.966C138.911 633.984 138.986 633.984 139.057 633.966L155.352 627.361L159.494 628.236L125.393 644L137.965 644L173.263 627.676L176.409 632.872L168.685 644L175.098 644L180.471 636.258L189.61 640.221C187.234 641.241 184.97 642.508 182.857 644L194.66 644C195.603 643.709 196.559 643.466 197.526 643.274C197.687 643.26 197.845 643.228 197.998 643.178C202.676 642.323 207.492 642.605 212.039 644L220.776 644L216.267 640.107C216.068 639.935 215.844 639.793 215.603 639.687C209.846 637.46 203.593 636.834 197.509 637.876L181.363 630.878L178.077 625.437L212.519 609.515L217.115 621.832C217.148 621.92 217.203 621.997 217.275 622.057C217.347 622.117 217.433 622.157 217.525 622.174L226.053 623.451L240.391 629.784L245.773 640.282C245.834 640.399 245.937 640.489 246.062 640.534C246.186 640.58 246.323 640.577 246.445 640.527L308.802 614.283L319.409 609.883L322.476 616.61L258.625 644L261.298 644L322.921 617.59L324.669 621.465L271.591 644L274.264 644L325.106 622.419C326.425 625.314 327.727 628.052 328.88 630.642L308.4 638.515C308.335 638.54 308.276 638.577 308.226 638.625C308.175 638.672 308.135 638.729 308.106 638.793C308.078 638.856 308.062 638.924 308.06 638.994C308.058 639.063 308.07 639.132 308.094 639.197C308.119 639.262 308.156 639.322 308.204 639.372C308.251 639.423 308.309 639.463 308.372 639.492C308.435 639.52 308.503 639.536 308.573 639.538C308.642 639.54 308.711 639.528 308.776 639.503L329.308 631.595L335.066 644L340.867 644L334.271 629.697L351.902 622.873L360.762 643.213L358.429 644L362.247 644L362.186 643.851L406.308 629.032L412.52 644L413.656 644L407.304 628.7L441.72 617.143ZM442.891 514.467L431.611 515.08L430.737 509.437L442.576 508.51L442.891 514.467ZM13.7236 364.281L11.0064 354.658L26.4186 345.079L32.622 356.25L13.7236 364.281ZM421.642 560.552L441.362 616.146L406.902 627.72L399.913 610.827C399.862 610.699 399.763 610.596 399.637 610.541C399.511 610.485 399.369 610.481 399.24 610.53L390.101 614.082C390.076 614.093 390.052 614.108 390.031 614.125L373.867 568.95L373.195 567.087C383.819 567.787 398.96 565.399 421.642 560.552ZM59.6546 230.987C59.5614 230.977 59.4675 230.993 59.3828 231.034C59.2981 231.074 59.226 231.136 59.1741 231.214C59.1273 231.295 59.1026 231.387 59.1026 231.481C59.1026 231.575 59.1273 231.667 59.1741 231.748L63.0883 239.665C56.9111 240.006 48.2352 240.303 39.07 240.539L39.6815 215.826L41.0183 215.607C41.5862 215.66 45.4393 216.019 50.9524 216.071L51.0485 216.071C53.8794 216.071 57.1645 216.071 60.6594 215.835C60.6594 215.835 60.703 215.835 60.7205 215.835C66.0335 215.544 71.3138 214.819 76.5085 213.665C82.1701 212.362 94.2273 208.994 107.665 205.119L113.003 235.396L110.382 235.579L59.6546 230.987ZM103.891 236.043C89.5705 237.093 75.4513 238.239 71.2313 238.974C69.9557 239.201 67.5005 239.411 64.2416 239.603L60.5458 232.124L103.891 236.043ZM52.6736 162.218L67.4131 160.608L63.9183 172.033L51.5203 172.033L52.6736 162.218ZM50.4981 172.033L35.4877 172.033L37.1216 163.915L51.5553 162.332L50.4981 172.033ZM96.6388 185.033L88.6006 187.789L86.8532 158.474L91.1082 158.01L96.6388 185.033ZM92.1566 157.914L96.7698 157.407L106.669 181.604L97.6436 184.701L92.1566 157.914ZM87.5697 188.165L83.7428 189.477C83.6107 189.523 83.5025 189.62 83.4418 189.747C83.3812 189.873 83.3732 190.018 83.4195 190.151C83.4659 190.283 83.5628 190.391 83.689 190.452C83.8151 190.513 83.9602 190.521 84.0923 190.474L107.534 182.417C107.603 182.395 107.666 182.359 107.721 182.31C107.775 182.262 107.818 182.203 107.849 182.137C107.862 182.065 107.862 181.991 107.849 181.919C107.861 181.852 107.861 181.784 107.849 181.717L97.8532 157.293L97.9756 157.293C108.338 160.136 119.53 164.081 124.108 166.82L131.849 196.974C110.592 203.238 85.2281 210.577 76.2027 212.668C71.2357 213.764 66.1906 214.469 61.1137 214.776L61.1137 200.29C61.1137 200.15 61.0585 200.017 60.9601 199.918C60.8618 199.82 60.7285 199.765 60.5895 199.765L56.3782 199.765L59.3837 189.976L73.9398 194.805C74.0719 194.847 74.2151 194.835 74.3391 194.773C74.4631 194.711 74.558 194.603 74.6038 194.472L74.6038 194.306C74.6039 194.193 74.5684 194.084 74.5025 193.993C74.4366 193.902 74.3436 193.834 74.2368 193.799L59.6721 188.97L61.3059 183.721L75.2853 183.721C75.4266 183.721 75.5622 183.665 75.6622 183.564C75.7621 183.464 75.8183 183.329 75.8183 183.187L75.8183 159.681L85.8048 158.588L87.5697 188.165ZM139.512 135.388L133.099 138.161C132.974 138.215 132.874 138.315 132.821 138.44C132.767 138.566 132.764 138.707 132.81 138.834L134.794 143.908C134.828 144.002 134.888 144.083 134.967 144.144C135.046 144.204 135.14 144.241 135.239 144.25L144.501 144.976L148.45 159.585C148.489 159.713 148.573 159.823 148.688 159.892C148.802 159.962 148.939 159.986 149.07 159.961L158.681 157.993C158.801 157.969 158.908 157.904 158.986 157.81C159.064 157.717 159.108 157.599 159.109 157.477L159.109 157.372L154.12 132.877C158.209 132.737 161.556 132.623 163.382 132.562C163.163 144.529 162.709 158.623 161.442 160.941C159.695 164.081 145.374 181.473 136.165 192.434L121.12 134.058C124.912 133.918 131.911 133.664 139.232 133.393L139.512 135.388ZM140.289 133.402C144.702 133.245 149.158 133.078 153.054 132.938L157.965 157.083L149.341 158.833L145.418 144.328C145.39 144.222 145.329 144.127 145.245 144.057C145.16 143.986 145.056 143.943 144.946 143.935L135.65 143.2L133.981 138.913L140.307 136.184C140.412 136.137 140.499 136.057 140.554 135.956C140.61 135.855 140.63 135.738 140.613 135.624L140.289 133.402ZM334.087 91.7437C334.122 91.7526 334.158 91.7526 334.192 91.7437C338.507 91.6443 342.825 91.7904 347.123 92.1811C346.791 93.3271 345.979 96.109 344.834 99.8357C344.793 99.8308 344.752 99.8308 344.712 99.8357L330.025 101.585C329.886 101.603 329.759 101.675 329.673 101.785C329.587 101.896 329.548 102.037 329.566 102.176C329.583 102.315 329.655 102.442 329.766 102.528C329.876 102.614 330.017 102.652 330.156 102.635L344.502 100.885C342.379 107.718 339.26 117.209 335.983 125.555C331.667 121.627 328.801 118.74 327.971 117.358C325.551 113.325 322.048 103.903 318.64 93.7995C323.017 92.3823 328.819 91.8487 334.087 91.7262L334.087 91.7437ZM318.299 92.8285C314.944 82.8207 311.72 72.2967 309.754 65.7532L332.978 90.7289C327.901 90.8951 322.476 91.4637 318.299 92.811L318.299 92.8285ZM343.471 238.317C343.344 238.356 343.237 238.442 343.172 238.558C343.107 238.674 343.089 238.81 343.122 238.939L345.105 247.31C345.134 247.441 345.212 247.555 345.322 247.629C345.433 247.704 345.567 247.734 345.699 247.713L352.601 246.584L354.855 253.723L341.226 258.053L334.795 232.15L346.782 230.269L349.403 236.454L343.471 238.317ZM349.718 237.443L352.287 245.561L346.013 246.584L344.266 239.166L349.718 237.443ZM373.535 247.783L365.357 250.407L359.241 227.566L367.734 225.283L373.535 247.783ZM368.73 224.985L379.983 221.967L385.164 245.5L374.601 247.529L368.73 224.985ZM374.269 248.649L385.418 246.514L392.792 265.489L377.502 278.707L348.923 256.706L355.668 254.563L365.13 251.571L374.269 248.649ZM393.36 266.39L405.592 280.824L394.076 291.453L378.35 279.355L393.36 266.39ZM347.7 257.1L393.29 292.197L370.809 313.017L327.657 268.122L335.048 261.272L351.762 275.707C351.815 275.751 351.876 275.785 351.942 275.807C352.008 275.828 352.078 275.836 352.146 275.83C352.215 275.824 352.283 275.805 352.344 275.773C352.406 275.742 352.46 275.698 352.505 275.645C352.55 275.593 352.584 275.531 352.605 275.465C352.626 275.399 352.634 275.33 352.628 275.261C352.623 275.192 352.603 275.125 352.572 275.063C352.54 275.001 352.497 274.947 352.444 274.902L336.097 260.765L347.7 257.1ZM370.748 314.461L374.741 318.572L361.819 329.682L345.577 313.262L358.586 301.776L370.102 313.752C370.058 313.848 370.045 313.955 370.063 314.059C370.081 314.163 370.13 314.259 370.204 314.335C370.278 314.41 370.372 314.462 370.476 314.483C370.579 314.504 370.686 314.493 370.783 314.452L370.748 314.461ZM365.13 397.523C365.099 397.585 365.08 397.652 365.075 397.72C365.07 397.789 365.079 397.858 365.101 397.923C365.123 397.988 365.158 398.048 365.203 398.1C365.249 398.152 365.304 398.193 365.366 398.223L374.977 402.938L375.658 408.441L368.669 412.894L360.884 406.525L360.884 396.789C360.894 396.713 360.887 396.637 360.865 396.564C360.843 396.492 360.806 396.425 360.756 396.368C360.706 396.311 360.644 396.265 360.575 396.234C360.506 396.203 360.431 396.187 360.355 396.187C360.28 396.187 360.205 396.203 360.136 396.234C360.067 396.265 360.005 396.311 359.955 396.368C359.905 396.425 359.868 396.492 359.846 396.564C359.824 396.637 359.817 396.713 359.827 396.789L359.827 406.245L352.287 406.245L353.492 397.83L353.492 397.751C353.493 397.683 353.48 397.615 353.455 397.552C353.429 397.489 353.392 397.432 353.344 397.383C353.288 397.324 353.217 397.279 353.14 397.253C353.062 397.227 352.979 397.221 352.898 397.235L341.094 398.844C341.002 398.856 340.915 398.892 340.841 398.949C340.767 399.006 340.71 399.082 340.675 399.168L337.94 406.166L317.364 401.285L318.509 396.911C318.541 396.784 318.525 396.649 318.463 396.533C318.402 396.416 318.3 396.327 318.177 396.281L301.69 390.158L302.896 389.134L302.896 389.09L341.121 343.793L352.278 355.585L328.155 383.579C328.109 383.631 328.074 383.692 328.052 383.757C328.03 383.823 328.021 383.893 328.026 383.962C328.031 384.031 328.05 384.098 328.081 384.16C328.112 384.222 328.155 384.277 328.207 384.323L333.677 389.151C333.728 389.197 333.788 389.233 333.854 389.255C333.919 389.278 333.988 389.288 334.057 389.284C334.126 389.28 334.194 389.262 334.256 389.232C334.318 389.202 334.373 389.159 334.419 389.108C334.465 389.056 334.501 388.996 334.523 388.93C334.546 388.865 334.555 388.796 334.551 388.727C334.547 388.658 334.53 388.59 334.5 388.528C334.469 388.466 334.427 388.41 334.376 388.364L329.291 383.876L339.775 371.743L345.315 377.525C345.363 377.574 345.421 377.613 345.485 377.64C345.549 377.666 345.617 377.68 345.686 377.68C345.755 377.68 345.823 377.666 345.887 377.64C345.951 377.613 346.008 377.574 346.057 377.525L360.281 364.01L366.485 370.562L378.769 383.535L372.015 389.335C371.963 389.38 371.92 389.436 371.889 389.497C371.858 389.559 371.839 389.627 371.834 389.696C371.829 389.765 371.838 389.835 371.86 389.9C371.882 389.966 371.917 390.027 371.963 390.079C372.054 390.184 372.183 390.25 372.322 390.261C372.46 390.272 372.598 390.229 372.705 390.14L379.494 384.305L386.108 391.304L375.335 401.959L365.812 397.287C365.69 397.23 365.55 397.222 365.423 397.266C365.296 397.31 365.19 397.403 365.13 397.523ZM341.54 503.585L355.948 500.348L357.52 504.495L343.244 509.534L341.54 503.585ZM342.414 510.365L347.84 529.934L332.113 534.492C332.017 534.517 331.931 534.569 331.865 534.642C331.798 534.715 331.754 534.806 331.737 534.903L330.61 541.289C329.649 541.385 328.723 541.525 327.849 541.7C327.546 541.758 327.162 541.855 326.696 541.989L316.202 509.28L340.465 503.812L342.414 510.365ZM314.7 507.478C314.557 507.51 314.422 507.571 314.305 507.659C314.187 507.746 314.09 507.857 314.018 507.985C313.973 508.07 313.941 508.162 313.922 508.256L306.985 510.33L297.855 483.464L323.428 474.979L325.866 481.102C325.913 481.222 326.002 481.32 326.116 481.378C326.23 481.436 326.362 481.45 326.486 481.417L352.505 474.498L355.231 498.362L314.7 507.478ZM297.496 469.914L294.508 462.294L314.455 452.47L318.247 462.04L297.496 469.914ZM318.64 463.029L323.009 474.008L301.821 481.006L297.846 470.858L318.64 463.029ZM300.851 481.4L297.024 482.668L291.337 484.558L285.282 466.869L293.556 462.784L300.851 481.4ZM326.687 480.245L315.329 451.998L338.709 440.468L345.271 439.593L348.014 455.226L348.014 455.339L351.151 462.644L352.374 473.404L326.687 480.245ZM314.979 451.018L304.967 426.033L305.657 425.99L344.327 433.959L345.131 438.517L338.526 439.392C338.472 439.401 338.419 439.416 338.368 439.435L314.979 451.018ZM345.323 433.522L346.197 428.045L349.692 425.858L353.615 433.277L360.98 446.548L348.879 454.228L345.323 433.522ZM362.195 446.408L354.838 433.172L365.41 426.173L374.252 444.247L366.004 450.222L362.195 446.408ZM354.331 432.271L350.635 425.272L365.392 416.13L365.13 425.167L354.331 432.271ZM350.146 424.397L348.04 420.426C347.998 420.349 347.938 420.283 347.865 420.234C347.792 420.185 347.708 420.155 347.621 420.146L336.805 419.175L333.607 411.739C333.551 411.609 333.446 411.507 333.315 411.454C333.184 411.402 333.038 411.404 332.908 411.459C332.782 411.516 332.683 411.621 332.633 411.75C332.582 411.879 332.584 412.022 332.637 412.15L335.966 419.883C336.001 419.973 336.061 420.05 336.138 420.108C336.215 420.165 336.307 420.199 336.403 420.207L347.254 421.143L349.255 424.931L345.454 427.284C345.39 427.323 345.335 427.375 345.293 427.437C345.251 427.499 345.223 427.569 345.21 427.643L344.336 432.892L305.788 424.949C305.741 424.944 305.695 424.944 305.648 424.949L304.407 425.027C304.337 424.993 304.259 424.974 304.18 424.974C304.101 424.974 304.024 424.993 303.953 425.027C303.953 425.027 303.883 425.08 303.848 425.097L294.788 425.64C294.711 425.642 294.636 425.663 294.569 425.701L282.696 432.253L278.991 403.673L289.476 400.576C289.544 400.55 289.609 400.515 289.668 400.471L300.738 391.006L317.338 397.13L316.202 401.53C316.17 401.667 316.192 401.811 316.264 401.932C316.3 401.994 316.347 402.047 316.405 402.089C316.462 402.131 316.527 402.161 316.596 402.177L338.15 407.286C338.188 407.29 338.226 407.29 338.264 407.286L360.106 407.286L367.751 413.48L350.146 424.397ZM223.659 329.227C223.74 329.182 223.808 329.116 223.856 329.037C223.903 328.957 223.929 328.865 223.93 328.772C223.929 328.68 223.905 328.59 223.86 328.51L223.729 328.282C224.812 327.478 225.896 326.673 226.935 325.912C226.931 326.029 226.968 326.143 227.04 326.235L236.747 338.789L227.486 345.219C221.649 340.39 216.564 336.269 214.922 334.94C217.307 333.111 220.094 330.994 222.873 328.921L222.942 329.035C223.014 329.154 223.128 329.24 223.262 329.276C223.396 329.312 223.538 329.295 223.659 329.227ZM227.87 325.571C227.802 325.487 227.711 325.426 227.608 325.396C232.064 322.141 235.786 319.534 236.756 319.167C237.717 320.042 242.286 325.649 247.074 331.589L237.612 338.168L227.87 325.571ZM247.738 332.412C249.87 335.036 252.02 337.739 253.854 340.075C253.924 340.159 254.018 340.22 254.123 340.249C254.228 340.278 254.339 340.274 254.442 340.238C254.545 340.202 254.634 340.135 254.698 340.046C254.761 339.958 254.796 339.852 254.798 339.742C254.799 339.625 254.759 339.51 254.684 339.419C250.814 334.564 238.128 318.668 237.14 318.143C236.852 317.995 236.162 317.636 223.161 327.329L216.093 314.994L219.535 313.726C219.6 313.702 219.66 313.666 219.711 313.62C219.761 313.573 219.803 313.517 219.832 313.454C219.861 313.392 219.878 313.324 219.881 313.255C219.884 313.186 219.873 313.117 219.85 313.052C219.799 312.922 219.699 312.816 219.572 312.757C219.445 312.699 219.3 312.691 219.168 312.737L215.149 314.216C215.077 314.241 215.012 314.283 214.957 314.336C214.903 314.39 214.861 314.455 214.834 314.527C214.808 314.598 214.797 314.675 214.803 314.751C214.809 314.827 214.832 314.901 214.869 314.968L218.897 321.966L215.533 323.821L209.356 314.426C209.318 314.368 209.268 314.319 209.211 314.28C209.154 314.242 209.089 314.216 209.021 314.202C208.954 314.189 208.884 314.189 208.816 314.202C208.748 314.216 208.684 314.243 208.627 314.281C208.569 314.32 208.52 314.369 208.482 314.427C208.444 314.484 208.417 314.549 208.404 314.617C208.39 314.684 208.39 314.754 208.404 314.822C208.417 314.89 208.444 314.954 208.483 315.012L214.913 324.81C214.986 324.919 215.097 324.997 215.225 325.029C215.352 325.062 215.487 325.046 215.603 324.984L219.448 322.92L222.34 327.976C219.946 329.77 217.159 331.887 213.908 334.38L193.813 332.875L175.919 309.255L202.664 295.827L230.317 289.572L231.243 294.777C231.26 294.869 231.302 294.954 231.365 295.022L269.275 340.18L283.928 377.893L271.215 381.042C271.113 381.066 271.02 381.121 270.95 381.199C270.88 381.277 270.835 381.375 270.822 381.479L267.956 401.862L247.555 400.227C249.302 392.213 251.408 380.753 251.408 372.871C251.408 369.171 250.945 366.267 249.748 364.867C246.882 361.543 236.948 353.075 228.325 345.919L247.738 332.412ZM195.237 343.513L184.822 356.574C179.772 349.068 171.472 336.759 164.587 326.682L175.072 316.936L195.237 343.513ZM304.276 170.415L317.548 170.231L317.548 170.284C295.216 196.528 281.839 212.274 275.933 219.273L264.112 210.297L276.842 185.742C276.879 185.665 276.9 185.582 276.903 185.497C276.905 185.377 276.866 185.261 276.792 185.167C276.719 185.072 276.616 185.006 276.5 184.978C276.383 184.951 276.261 184.964 276.154 185.015C276.046 185.066 275.959 185.153 275.907 185.26L256.528 222.632L232.597 227.881L221.78 218.144L233.916 180.668L249.888 185.584C249.954 185.604 250.023 185.611 250.092 185.605C250.16 185.598 250.227 185.578 250.288 185.545C250.349 185.513 250.403 185.469 250.446 185.415C250.49 185.362 250.523 185.3 250.543 185.234L250.543 185.077C250.541 184.965 250.503 184.856 250.436 184.767C250.368 184.677 250.274 184.611 250.167 184.578L234.074 179.583L234.074 167.414L255.086 171.115L304.276 170.415ZM340.762 342.647L335.022 349.444L306.828 318.275C306.779 318.221 306.719 318.178 306.653 318.147C306.587 318.117 306.516 318.101 306.443 318.1L293.198 318.1L280.8 297.682C280.765 297.62 280.717 297.566 280.66 297.524L271.163 290.762L268.952 281.06L271.766 271.254L276.02 270.23L296.579 265.288L336.062 305.188L361.356 330.758L371.683 342.97L360.176 346.566C360.085 346.596 360.003 346.651 359.94 346.723L353.029 354.737L341.54 342.621C341.433 342.515 341.289 342.455 341.138 342.454C341.066 342.46 340.996 342.48 340.931 342.513C340.867 342.546 340.809 342.592 340.762 342.647ZM206.927 279.748L217.945 275.707L220.566 290.631L210.02 293.01L206.927 279.748ZM208.998 293.29L202.882 294.681L199.125 282.6L205.958 280.116L208.998 293.29ZM218.95 275.383L235.297 269.443L238.652 286.064C238.672 286.173 238.728 286.272 238.81 286.346C238.892 286.421 238.996 286.466 239.106 286.476L221.632 290.438L218.95 275.383ZM261.718 270.703L250.36 283.414L246.306 265.454L257.9 261.246L261.718 270.703ZM258.835 260.861L271.538 255.7L275.243 269.329L271.276 270.283L262.688 270.283L258.835 260.861ZM249.468 284.131L239.456 286.397C239.529 286.35 239.589 286.286 239.631 286.209C239.672 286.132 239.693 286.046 239.692 285.959L239.692 285.854L236.302 269.076L245.275 265.821L249.468 284.131ZM247.555 285.653L252.989 296.763L250.569 298.767C250.516 298.811 250.472 298.865 250.439 298.926C250.407 298.988 250.387 299.055 250.381 299.124C250.374 299.193 250.381 299.263 250.402 299.329C250.422 299.395 250.455 299.457 250.499 299.51C250.544 299.564 250.598 299.608 250.659 299.64C250.72 299.673 250.787 299.693 250.856 299.699C250.925 299.706 250.995 299.698 251.061 299.678C251.127 299.658 251.189 299.624 251.242 299.58L253.977 297.314C254.037 297.266 254.086 297.205 254.119 297.135C254.153 297.066 254.17 296.989 254.169 296.912C254.168 296.83 254.15 296.75 254.117 296.676L248.612 285.408L250.036 285.085L258.538 289.31L271.591 313.63L262.574 318.878L260.582 315.327C260.547 315.263 260.5 315.208 260.443 315.165C260.386 315.121 260.32 315.09 260.25 315.073C260.182 315.054 260.112 315.05 260.042 315.061C259.973 315.071 259.907 315.096 259.848 315.134L253.409 319.158C253.337 319.209 253.278 319.275 253.234 319.351L232.265 294.41L231.391 289.301L247.555 285.653ZM259.892 316.341L261.875 319.884C261.945 320.005 262.057 320.095 262.19 320.138C262.328 320.174 262.475 320.155 262.6 320.086L272.054 314.566L277.899 325.448C277.821 325.405 277.734 325.383 277.646 325.383C277.557 325.383 277.47 325.405 277.392 325.448L264.959 332.858C264.859 332.922 264.782 333.017 264.741 333.129L253.811 320.103C253.848 320.108 253.887 320.108 253.924 320.103L259.892 316.341ZM277.925 326.367C277.994 326.323 278.053 326.264 278.095 326.194C278.138 326.125 278.163 326.046 278.17 325.964L307.981 381.488L302.345 388.163L288.13 385.818L270.219 339.716C270.204 339.66 270.174 339.608 270.132 339.567L265.326 333.838C265.386 333.821 265.444 333.801 265.501 333.776L277.925 326.367ZM259.341 288.663C259.291 288.567 259.212 288.49 259.114 288.444L250.954 284.367L262.565 271.333L270.638 271.333L267.904 280.894C267.882 280.98 267.882 281.071 267.904 281.157L270.193 291.182C270.221 291.309 270.296 291.422 270.402 291.497L279.961 298.312L292.455 318.896C292.503 318.973 292.57 319.038 292.649 319.082C292.729 319.126 292.818 319.15 292.909 319.15L306.216 319.15L334.349 350.249L308.723 380.613L259.341 288.663ZM329.387 296.938L335.546 291.689L342.099 298.854L336.464 304.103L329.387 296.938ZM337.25 304.811L343.244 299.195C343.298 299.147 343.342 299.088 343.372 299.021C343.402 298.955 343.418 298.883 343.419 298.81C343.416 298.68 343.366 298.556 343.279 298.46L336.385 290.928L342.851 285.382L357.87 300.997L344.843 312.492L337.25 304.811ZM328.688 296.151L313.73 281.034L322.939 272.505L326.923 268.813L342.125 284.612L328.688 296.151ZM312.961 280.282L297.715 264.859L310.759 259.741L321.82 272.076L312.961 280.282ZM276.265 269.049L272.517 255.306L289.117 248.588L296.055 264.334L276.265 269.049ZM258.459 259.846L255.043 250.145L284.854 238.965L288.654 247.608L258.459 259.846ZM254.667 249.121L252.788 243.811L281.997 232.439L284.426 237.95L254.667 249.121ZM252.43 242.814L250.29 236.752L275.208 227.741C275.646 227.586 276.035 227.317 276.335 226.962L278.467 224.426L281.577 231.494L252.43 242.814ZM279.218 223.568C284.714 217.051 298.256 201.033 321.523 173.704C322.502 172.558 323.454 171.404 324.389 170.258L340.553 170.704L288.715 227.855L282.538 231.092L279.218 223.568ZM233.043 179.889L220.671 218.109C220.642 218.207 220.641 218.31 220.669 218.408C220.697 218.506 220.752 218.593 220.828 218.661L232.09 228.808C232.151 228.866 232.225 228.908 232.306 228.929C232.387 228.95 232.472 228.951 232.553 228.931L257.017 223.612C257.093 223.592 257.164 223.558 257.226 223.509C257.287 223.461 257.338 223.401 257.375 223.332L263.614 211.303L275.243 220.139L272.779 223.061L220.968 241.799C220.85 241.838 220.736 241.888 220.627 241.948L210.064 247.555L194.966 225.843L194.966 207.314C194.966 207.175 194.911 207.042 194.813 206.943C194.714 206.845 194.581 206.789 194.442 206.789L169.76 206.789L165.391 188.007L184.927 180.939C184.995 180.918 185.058 180.882 185.111 180.834L196.521 170.336L219.413 168.98C219.489 168.974 219.562 168.95 219.629 168.913C219.695 168.875 219.752 168.823 219.797 168.762L222.977 164.51L233.043 162.944L233.043 179.889ZM222.89 246.698L249.294 237.145L251.452 243.269L193.83 265.646L192.581 261.622C198.364 259.355 204.012 256.755 209.496 253.837L222.89 246.698ZM251.801 244.214L253.68 249.515L195.63 271.289L194.189 266.617L251.801 244.214ZM254.029 250.503L257.524 260.249L198.828 281.577L195.945 272.286L254.029 250.503ZM197.797 281.953L165.05 294.602C163.206 291.777 161.768 288.705 160.778 285.478L194.958 272.671L197.797 281.953ZM198.112 282.959L201.851 295.022L175.247 308.398L166.378 296.702L165.583 295.504L198.112 282.959ZM271.809 381.978L284.312 378.881L287.256 386.483C287.291 386.569 287.347 386.643 287.419 386.7C287.491 386.757 287.576 386.794 287.667 386.807L301.349 389.073L289.117 399.57L278.379 402.728L269.031 401.976L271.809 381.978ZM339.041 406.245L341.54 399.842L352.348 398.372L351.221 406.245L339.041 406.245ZM353.073 356.338L359.591 363.187L345.751 376.309L340.509 370.842L353.073 356.338ZM380.324 383.614L386.091 378.663C386.193 378.569 386.259 378.442 386.274 378.304L386.597 374.306C386.587 374.176 386.529 374.054 386.436 373.964C386.342 373.874 386.218 373.821 386.088 373.816C385.958 373.81 385.83 373.853 385.73 373.935C385.629 374.017 385.561 374.134 385.54 374.262L385.234 378.041L379.599 382.888L367.647 370.186L374.531 363.607C374.583 363.559 374.625 363.501 374.653 363.436C374.682 363.372 374.697 363.302 374.697 363.231C374.695 363.094 374.642 362.963 374.549 362.864C374.5 362.815 374.442 362.776 374.379 362.749C374.315 362.723 374.247 362.709 374.178 362.709C374.109 362.709 374.04 362.723 373.977 362.749C373.913 362.776 373.855 362.815 373.806 362.864L366.921 369.433L353.772 355.533L360.648 347.554L372.426 343.837L401.11 377.727L386.912 390.569L380.324 383.614ZM386.44 358.813L397.606 348.482L401.573 353.853L398.48 356.434C398.419 356.482 398.371 356.543 398.337 356.613C398.304 356.682 398.287 356.759 398.288 356.836C398.288 356.912 398.305 356.988 398.337 357.057C398.368 357.126 398.414 357.188 398.471 357.239L407.724 365.173L397.798 372.241L386.44 358.813ZM385.759 358.008L373.474 343.495L390.075 338.247L396.995 347.607L385.759 358.008ZM372.74 342.621L362.509 330.478L375.458 319.351L378.35 322.36L389.446 337.372L372.74 342.621ZM326.504 267.728L322.537 271.403L311.834 259.365L326.303 253.679L334.288 260.59L326.504 267.728ZM310.698 258.648L297.033 264.019L290.044 248.203L321.619 237.705L325.7 252.752L310.698 258.648ZM289.615 247.275L285.789 238.58L317.618 222.956L321.349 236.717L289.615 247.275ZM285.36 237.653L282.932 232.124L289.248 228.826C289.302 228.793 289.351 228.755 289.397 228.712L330.182 183.756L339.225 190.754L323.9 210.157C323.813 210.266 323.773 210.406 323.788 210.544C323.804 210.683 323.874 210.81 323.983 210.897C324.092 210.984 324.231 211.024 324.369 211.008C324.508 210.993 324.634 210.923 324.721 210.814L355.519 171.85L358.001 184.972L326.407 218.521L317.836 221.696L285.36 237.653ZM356.402 171.22L383.076 171.955L388.231 176.119L383.33 182.426L359.014 184.552L356.402 171.22ZM339.801 190.002L330.811 183.003L341.89 170.756L354.681 171.106L339.801 190.002ZM342.824 169.794L358.831 152.158C365.821 157.932 373.518 164.23 381.713 170.861L342.824 169.794ZM341.435 169.794L325.167 169.339C332.52 160.266 339.061 150.562 344.712 140.339C348.722 143.76 353.187 147.513 358.018 151.519L341.435 169.794ZM327.797 141.861C322.869 148.291 315.137 157.083 309.798 163.014C309.782 162.967 309.758 162.923 309.728 162.883L306.845 159.296L309.781 146.821L322.563 139.456L327.797 141.861ZM323.131 138.555L325.997 123.158C327.832 125.1 330.496 127.646 333.86 130.69C332.402 134.296 330.584 137.746 328.434 140.986L323.131 138.555ZM329.037 141.975C331.292 138.687 333.19 135.168 334.699 131.477C336.499 133.087 338.482 134.837 340.623 136.726C334.352 148.287 326.919 159.176 318.439 169.225L305.473 169.409C308.889 165.639 322.091 151.169 329.037 141.993L329.037 141.975ZM347.307 135.458C353.803 123.032 358.613 109.793 361.609 96.0915L366.851 97.5524L354.445 141.573C351.972 139.438 349.569 137.409 347.307 135.475L347.307 135.458ZM355.371 142.281L358.944 129.614L364.344 131.171L359.975 146.157L355.371 142.281ZM359.233 128.59L367.909 97.7973C369.796 98.3135 371.683 98.8384 373.518 99.3457L364.632 130.148L359.233 128.59ZM367.69 96.6426C365.698 96.1002 363.715 95.5491 361.81 95.0242L361.967 94.2369C363.759 86.5998 365.183 81.386 366.589 77.7993L387.148 102.031L367.69 96.6426ZM356.463 94.6218C356.084 96.2256 355.697 97.9227 355.301 99.7132C352.409 110.833 348.328 121.609 343.13 131.854C340.815 129.841 338.701 127.978 336.831 126.299C342.309 112.512 347.254 95.5316 348.189 92.3385C349.325 92.6885 352.435 93.5458 356.463 94.6218ZM323.454 120.087C323.94 120.841 324.493 121.55 325.106 122.204L322.065 138.546L309.055 146.034C308.992 146.069 308.937 146.116 308.894 146.174C308.85 146.231 308.819 146.297 308.802 146.367L305.762 159.357C305.743 159.436 305.744 159.518 305.762 159.597C305.78 159.676 305.816 159.749 305.866 159.812L308.907 163.6C308.977 163.679 309.068 163.737 309.169 163.766C306.504 166.723 304.547 168.849 304.023 169.418L255.2 170.1L234.074 166.356L234.074 162.332L234.668 117.061C246.122 114.436 259.132 111.514 273.871 108.164C282.897 106.117 288.855 104.761 289.642 104.595C292.673 103.93 307.867 98.6372 313.957 96.5027C317.399 106.528 320.92 115.853 323.454 120.087ZM165.522 130.305L165.627 122.826C165.688 117.69 165.741 113.64 165.845 112.118L165.845 111.812C165.845 105.749 156.462 70.9146 153.753 60.968L200.934 50.1291L201.073 50.0767C201.073 50.0767 201.143 50.0767 201.17 50.0767L249.005 34.2077L267.152 107.543C234.388 114.952 173.123 128.853 165.522 130.305ZM157.449 83.0656C160.813 96.1877 163.941 109.31 163.749 111.934C163.635 113.518 163.583 117.594 163.521 122.764L163.417 130.428C156.759 130.629 129.123 131.644 120.605 131.958L112.304 99.8707L115.537 90.9826L139.687 83.1094L157.449 83.0656ZM233.637 117.279L233.051 161.894L222.567 163.513C222.43 163.535 222.307 163.61 222.226 163.723L219.063 167.957L196.268 169.348C196.148 169.35 196.033 169.397 195.945 169.479L184.473 180.064L164.614 187.238C164.247 187.351 152.181 190.982 136.908 195.496L136.777 195.006C142.491 188.226 161.171 165.849 163.303 161.982C164.745 159.357 165.234 147.198 165.496 132.466C169.419 131.731 189.864 127.191 233.637 117.279ZM123.401 164.038C116.918 160.617 105.664 157.223 99.9589 155.622L116.376 136.787L123.401 164.038ZM132.138 197.971L133.195 202.057L136.838 233.786C132.566 234.066 123.82 234.661 114.017 235.317L108.652 204.847C116.385 202.599 124.528 200.211 132.146 197.971L132.138 197.971ZM40.8698 214.593L39.6641 214.785L40.1883 193.667L48.9254 177.361L60.2312 183.625L58.6673 188.681L54.2987 187.229C54.1667 187.185 54.0225 187.195 53.898 187.257C53.7734 187.32 53.6787 187.429 53.6347 187.561C53.5907 187.693 53.6009 187.838 53.6632 187.962C53.7255 188.087 53.8347 188.182 53.9667 188.226L58.3353 189.687L50.4719 215.056C44.8277 214.986 41.0271 214.601 40.9484 214.593C40.9256 214.583 40.9023 214.574 40.8785 214.566L40.8698 214.593ZM60.572 182.592L49.4496 176.469L51.1971 173.153L63.5164 173.153L62.765 175.585L60.572 182.592ZM74.7523 175.716L74.7523 182.715L61.6467 182.715L63.6387 176.276L74.7523 175.716ZM56.0374 200.823L60.0827 200.823L60.0827 214.82C57.0422 214.995 54.1764 215.048 51.6339 215.039L56.0374 200.823ZM74.7523 167.581L66.321 167.581L68.4965 160.538L74.7436 159.856L74.7523 167.581ZM66.0152 168.613C66.0559 168.617 66.0969 168.617 66.1375 168.613L74.7611 168.613L74.7611 174.667L63.9795 175.104L66.0152 168.613ZM50.0438 173.144L39.3408 193.003L32.421 193.746L29.5203 174.072L33.4345 173.083L50.0438 173.144ZM31.3726 193.851L24.2693 194.612L20.0143 176.469L28.4718 174.334L31.3726 193.851ZM39.1399 194.087L38.6156 214.934L29.3455 216.456L24.5139 195.644L39.1399 194.087ZM38.5894 216.01L37.9778 240.583C35.9159 240.636 33.8364 240.688 31.757 240.741L29.5814 217.488L38.5894 216.01ZM138.42 201.269C138.408 201.151 138.387 201.034 138.359 200.919L137.214 196.475C150.826 192.451 161.896 189.127 164.43 188.366L168.799 207.472C168.827 207.588 168.894 207.691 168.987 207.765C169.08 207.839 169.195 207.881 169.314 207.883L193.883 207.883L193.883 226.035C193.883 226.145 193.916 226.252 193.979 226.341L209.068 248.054L206.989 249.156C196.208 254.885 184.796 259.333 172.984 262.41C159.677 265.436 151.394 265.629 147.646 262.996C146.021 261.841 145.112 259.986 144.789 257.178L138.42 201.269ZM191.602 261.963L194.608 271.656L160.463 284.455C159.801 281.984 159.886 279.371 160.708 276.949C162.726 271.569 169.218 268.857 174.303 267.536C180.167 266.005 185.939 264.145 191.594 261.963L191.602 261.963ZM158.934 269.994C157.57 271.475 156.499 273.203 155.78 275.086C155.043 277.109 154.71 279.258 154.802 281.41L146.362 270.265L146.117 268.157C149.158 269.732 153.325 270.344 158.934 269.994ZM174.469 316.105L163.984 325.816C158.061 317.146 153.316 310.323 152.88 310.069C152.189 309.675 148.083 308.319 145.322 307.445C145.75 299.729 145.855 289.397 145.855 280.859L145.855 278.331L174.469 316.105ZM152.294 310.944C152.818 311.425 157.318 317.942 163.207 326.55L144.955 343.46L138.638 344.589C141.137 334.004 144.029 320.82 144.841 313.551C144.999 312.099 145.139 310.401 145.252 308.521C148.45 309.544 151.814 310.699 152.285 310.944L152.294 310.944ZM145.305 344.466C145.403 344.45 145.494 344.404 145.567 344.335L149.516 340.678L153.692 351.22L135.213 358.699C135.86 356.128 137.048 351.342 138.385 345.709L145.305 344.466ZM154.042 352.2L162.508 373.606L160.813 374.673L140.097 369.731L135.012 359.898L154.042 352.2ZM150.311 339.909L163.766 327.425C170.092 336.698 177.885 348.219 184.097 357.449L177.876 365.042L177.081 365.042C176.543 365.015 176.009 365.156 175.552 365.444L163.417 373.073L150.311 339.909ZM179.222 365.112L185.198 357.816L195.892 344.414L212.842 366.774L179.222 365.112ZM194.634 334.004L213.856 335.447C215.996 337.197 243.938 359.749 248.935 365.558C252.177 369.328 249.39 386.921 246.437 400.445C246.399 400.51 246.375 400.581 246.367 400.655L246.367 400.725L245.738 403.533L244.724 400.41C244.635 400.127 244.499 399.861 244.322 399.623L194.634 334.004ZM247.328 401.268L258.406 402.142L261.753 430.871L255.401 432.769C251.347 420.653 248.167 410.96 246.375 405.44C246.655 404.251 246.978 402.842 247.328 401.268ZM262.487 431.763C262.595 431.73 262.69 431.662 262.758 431.571C262.825 431.48 262.862 431.37 262.862 431.256L262.862 431.195L259.481 402.239L277.96 403.726L281.717 432.734L259.525 444.982L255.75 433.793L262.487 431.763ZM294.98 426.619L303.848 426.095L314.018 451.464L269.363 473.492C265.99 463.869 262.784 454.561 259.866 445.97L294.98 426.619ZM284.329 467.289L290.341 484.838L275.138 489.894C273.286 484.733 271.46 479.589 269.677 474.515L284.329 467.289ZM291.179 485.66L296.858 483.771L305.893 510.636L285.09 516.856C281.892 508.405 278.677 499.657 275.531 490.909L291.179 485.66ZM314.001 509.28L324.573 542.584C319.662 544.193 310.593 547.658 299.235 552.137C294.866 542.059 290.218 530.266 285.5 517.809L314.001 509.28ZM335.136 582.055C332.13 575.249 329.693 569.808 327.718 565.434L342.658 560.561L350.164 576.762L335.136 582.055ZM360.019 574.4L362.055 580.139L354.41 583.306L351.605 577.384L360.019 574.4ZM350.609 577.716L353.667 584.189C353.726 584.312 353.829 584.407 353.956 584.456C354.083 584.505 354.223 584.503 354.349 584.452L362.92 580.909C363.017 580.868 363.1 580.8 363.158 580.713C363.217 580.626 363.25 580.524 363.252 580.419C363.26 580.361 363.26 580.302 363.252 580.244L361.015 574.016L373.072 569.764L379.11 586.744L355.607 595.387L343.025 600.006C340.212 593.594 337.731 587.96 335.546 583.017L350.609 577.716ZM351.16 576.404L343.672 560.229L353.239 557.105C353.589 557.517 353.929 557.919 354.27 558.348C358.377 563.474 363.785 566.221 372.076 567L372.714 568.802L351.16 576.404ZM343.226 559.258L337.504 546.897C342.816 548.008 347.874 551.157 352.479 556.257L343.226 559.258ZM342.213 559.59L327.281 564.454C323.446 555.951 321.453 551.76 320.37 549.687C323.125 548.612 325.933 547.681 328.784 546.897C331.239 546.405 333.76 546.34 336.237 546.704L342.213 559.59ZM319.426 550.037C320.658 552.46 323.096 557.735 326.276 564.786L307.527 570.91L301.507 557.464L301.314 557.027C308.016 554.376 314.455 551.892 319.426 550.037ZM296.71 559.599C300.117 567.236 303.49 574.724 306.749 581.959L298.125 585.082C298.001 585.126 297.898 585.215 297.836 585.332C297.775 585.448 297.759 585.584 297.793 585.712L299.052 590.427L252.282 610.346L243.064 592.194C244.485 590.409 246.142 588.304 248.036 585.878C251.399 581.574 255.899 575.783 257.279 574.418C258.904 573.884 263.159 572.196 276.501 566.86C282.285 564.541 289.336 561.724 296.378 558.986L296.71 559.599ZM307.981 571.846L326.731 565.722C328.915 570.595 331.44 576.22 334.148 582.344L315.661 588.887C313.162 583.411 310.593 577.707 307.963 571.855L307.981 571.846ZM334.55 583.376C336.944 588.773 339.469 594.512 342.047 600.373L323.891 607.048L316.089 589.884L334.55 583.376ZM355.519 596.559L358.56 605.246L347.333 609.681L344.79 603.89L343.515 600.977L355.519 596.559ZM359.416 606.042C359.514 606.003 359.599 605.936 359.658 605.849C359.717 605.761 359.749 605.658 359.748 605.552C359.757 605.494 359.757 605.435 359.748 605.377L356.542 596.201L364.458 593.261L368.127 601.826C368.171 601.941 368.255 602.037 368.363 602.097C368.471 602.157 368.597 602.177 368.719 602.152C368.84 602.128 368.949 602.062 369.026 601.966C369.103 601.869 369.144 601.748 369.141 601.624C369.153 601.555 369.153 601.484 369.141 601.414L365.489 592.894L379.529 587.741L386.859 608.255C386.819 608.25 386.778 608.25 386.737 608.255L352.461 621.526L347.708 610.644L359.416 606.042ZM391.045 539.181L376.489 543.31L374.164 538.708L388.354 534.334L391.045 539.181ZM384.728 527.607L387.847 533.407L373.867 537.711L373.745 537.772L371.246 532.9L384.728 527.607ZM375.755 544.062C375.881 550.12 376.854 556.13 378.647 561.917C367.987 562.197 362.343 559.94 358.429 555.05C349.028 543.284 339.207 540.747 331.632 541.202L332.663 535.41L366.45 525.639L375.755 544.062ZM362.273 516.996L365.96 524.633L348.801 529.593L343.506 510.505L357.879 505.431L362.273 516.996ZM369.866 508.02C369.76 507.977 369.643 507.969 369.532 507.995C369.421 508.022 369.321 508.083 369.245 508.169L362.937 515.78L356.987 500.112L393.412 491.906L396.453 504.32L390.092 516.812L369.866 508.02ZM409.925 525.429L391.062 517.232L397.248 505.09L414.547 513.654L409.925 525.429ZM428.911 504.678L417.92 505.929C417.825 505.94 417.735 505.976 417.658 506.032C417.581 506.089 417.521 506.165 417.483 506.253L414.932 512.709L397.458 504.031L394.426 491.687L426.29 484.497L428.911 504.678ZM407.427 418.125L407.427 418.248L415.019 436.855C414.962 436.842 414.902 436.842 414.844 436.855L406.055 440.275C405.944 440.319 405.851 440.399 405.791 440.502C405.731 440.605 405.707 440.725 405.723 440.844L407.968 455.584L382.211 459.328L378.856 454.753C378.794 454.663 378.704 454.595 378.6 454.561C378.496 454.526 378.384 454.526 378.28 454.561L367.751 457.815C367.618 457.856 367.507 457.948 367.441 458.071C367.375 458.194 367.361 458.338 367.402 458.471C367.442 458.605 367.534 458.716 367.657 458.782C367.78 458.848 367.924 458.862 368.057 458.821L378.315 455.715L381.635 460.238C381.692 460.316 381.77 460.377 381.859 460.416C381.948 460.454 382.045 460.468 382.141 460.457L408.728 456.59C408.798 456.581 408.864 456.557 408.924 456.522C408.984 456.486 409.037 456.439 409.078 456.382C409.12 456.326 409.149 456.262 409.166 456.194C409.182 456.126 409.185 456.056 409.174 455.987L406.92 441.115L415.308 437.843C415.372 437.812 415.429 437.768 415.474 437.712L433.018 480.814L356.271 498.1L352.199 462.451C352.208 462.402 352.208 462.352 352.199 462.303L349.255 455.304L361.714 447.431L365.602 451.315C365.69 451.404 365.807 451.459 365.932 451.47C366.056 451.481 366.181 451.448 366.284 451.376L375.265 444.929C375.333 444.88 375.388 444.815 375.426 444.741C375.463 444.666 375.483 444.584 375.484 444.5C375.484 444.422 375.466 444.344 375.431 444.273L366.153 425.298L366.476 415.439L368.887 413.943L376.095 409.368L382.412 417.976L377.17 422.018C377.116 422.06 377.07 422.113 377.036 422.173C377.002 422.234 376.98 422.3 376.971 422.369C376.963 422.437 376.968 422.507 376.986 422.574C377.005 422.64 377.036 422.703 377.078 422.757C377.121 422.812 377.174 422.857 377.234 422.892C377.294 422.926 377.36 422.948 377.428 422.956C377.497 422.965 377.567 422.96 377.633 422.941C377.7 422.923 377.762 422.892 377.817 422.849L383.059 418.834L386.466 423.47C386.513 423.538 386.576 423.593 386.649 423.631C386.722 423.67 386.803 423.689 386.886 423.689L395.055 423.689C395.181 423.689 395.302 423.642 395.396 423.558L406.754 413.602L407.427 418.125ZM406.553 412.413L394.836 422.674L387.148 422.674L376.742 408.502L376.025 402.781L387.235 391.697L401.459 378.829L406.553 412.413ZM430.798 352.165L438.443 358.769L422.315 372.924L412.564 384.113L403.897 388.04L402.324 377.7C402.311 377.623 402.278 377.551 402.228 377.49L398.532 373.116L408.912 365.715L430.798 352.165ZM421.301 356.766L408.641 364.561L399.642 356.845L402.639 354.343L411.664 346.382L421.301 356.766ZM410.956 345.595L402.385 353.162L398.392 347.764L406.256 340.512L410.956 345.595ZM405.286 339.961L397.763 346.916L391.123 337.932L395.815 336.453L405.286 339.961ZM409.165 322.535L413.184 325.886L406.029 339.113L396.269 335.5L392.818 322.238L395.964 319.709L409.165 322.535ZM442.76 291.042L423.87 309.325L416.164 311.862C416.081 311.89 416.007 311.937 415.946 312C415.885 312.062 415.84 312.138 415.814 312.221L413.735 319.701L409.366 321.45L395.946 318.581C395.87 318.567 395.792 318.569 395.717 318.588C395.641 318.606 395.571 318.639 395.509 318.686L391.91 321.59C391.829 321.652 391.768 321.737 391.736 321.834C391.703 321.93 391.7 322.034 391.726 322.133L395.221 335.5L390.468 337.039L379.11 321.678L371.526 313.804L420.891 268.087L442.76 291.042ZM420.174 267.3L406.343 280.081L394.19 265.708L408.554 255.052L420.174 267.3ZM407.776 254.353L393.666 264.85L386.361 246.112L392.207 240.951L401.049 248.579L407.776 254.353ZM431.76 225.178L421.922 229.202C421.812 229.248 421.72 229.327 421.659 229.429L408.466 253.565L402.114 248.072L424.831 219.938L431.76 225.178ZM424.018 219.299L401.302 247.389L392.914 240.146L414.757 212.274L424.018 219.299ZM413.918 211.636L392.46 239.035L388.502 222.597L401.957 202.564L413.918 211.636ZM421.17 202.372L414.565 210.805L402.543 201.689L408.737 192.469C412.844 195.749 417.003 199.056 421.17 202.372ZM407.942 191.804L387.497 222.204C387.458 222.264 387.432 222.331 387.42 222.402C387.408 222.473 387.41 222.545 387.427 222.615L391.612 240.032L386.064 244.931L380.822 221.206C380.808 221.136 380.779 221.07 380.739 221.012C380.698 220.953 380.646 220.903 380.585 220.866C380.525 220.828 380.457 220.803 380.387 220.793C380.316 220.782 380.244 220.786 380.176 220.804L358.42 226.665C358.286 226.704 358.173 226.793 358.103 226.913C358.033 227.034 358.012 227.177 358.044 227.312L364.326 250.705L355.834 253.408L350.539 236.638L347.586 229.534C347.541 229.426 347.46 229.335 347.357 229.278C347.254 229.221 347.134 229.2 347.018 229.219L334.052 231.249L334.009 231.249L329.955 232.264C329.887 232.28 329.824 232.31 329.768 232.351C329.712 232.392 329.665 232.443 329.63 232.503C329.594 232.562 329.57 232.628 329.56 232.697C329.55 232.765 329.553 232.835 329.57 232.902C329.605 233.037 329.692 233.153 329.811 233.225C329.93 233.297 330.073 233.319 330.208 233.287L333.703 232.412L340.168 258.438L335.162 259.96L326.827 252.752L318.631 222.475L326.87 219.422C326.944 219.389 327.012 219.345 327.071 219.29L358.787 185.602L383.679 183.371C383.825 183.354 383.96 183.282 384.055 183.17L389.087 176.687C395.186 181.63 401.494 186.678 407.942 191.804ZM401.686 156.637L414.792 164.003L416.321 164.877L406.71 184.123C400.533 179.172 394.059 173.975 387.585 168.735L388.686 154.485L401.686 156.637ZM386.554 167.852C377.729 160.713 368.931 153.531 360.936 146.856L365.532 130.926L374.566 99.6082C381.556 101.524 387.375 103.107 388.397 103.422L391.28 106.825L386.554 167.852ZM409.13 107.359L399.205 113.614L389.044 102.635L367.044 76.7058C367.745 74.8548 368.846 73.1819 370.268 71.8068C373.693 68.8325 390.564 53.4359 397.099 47.4697L432.048 82.2608L409.13 107.359ZM441.851 71.6319L432.799 81.4997L425.81 74.5713L434.153 64.4847L441.851 71.6319ZM433.376 63.7586L425.111 73.7926L418.392 67.1091L423.957 55.0105L433.376 63.7586ZM417.553 66.3305L397.868 46.7524C398.611 46.0788 399.161 45.5802 399.45 45.3089C400.419 44.7403 403.617 42.8683 408.029 40.2613L425.705 48.5982L417.553 66.3305ZM401.94 37.7594L396.584 40.8999C396.423 40.9929 396.273 41.1044 396.138 41.2323L394.137 43.0082L393.989 42.8595L396.872 35.7561L401.94 37.7594ZM397.265 34.8201L400.236 27.5067L400.28 27.5067L411.769 31.9244C408.746 33.6741 405.828 35.4237 403.102 37.0508L397.265 34.8201ZM434.215 30.1048L426.15 47.6534L409.139 39.6315C414.591 36.4122 421.633 32.2306 428.605 28.0315C430.431 28.6877 432.31 29.3875 434.215 30.0873L434.215 30.1048ZM422.28 25.6783C419.161 27.5591 416.006 29.44 412.931 31.2596L400.699 26.5531C400.685 26.549 400.67 26.549 400.655 26.5531L403.853 18.6799C408.309 20.412 414.731 22.8439 422.28 25.6608L422.28 25.6783ZM439.396 3.64195L433.367 18.9248C431.62 19.9745 429.872 21.0593 428.037 22.1528C423.896 20.6219 420.052 19.1872 416.601 17.9013L425.338 -2.12307L439.396 3.64195ZM424.377 -2.48171L415.64 17.5601C411.717 16.0904 408.37 14.8132 405.775 13.7984L414.093 -6.71578L424.377 -2.48171ZM403.906 -10.8886L413.088 -7.11812L408.964 3.05583C408.923 2.99571 408.869 2.94499 408.807 2.90709L399.52 -1.46694L403.906 -10.8886ZM398.593 -0.775774L408.353 3.86064C408.441 3.88572 408.535 3.88572 408.624 3.86064L404.771 13.3698C402.246 12.3813 400.594 11.6902 400.053 11.3927C399.074 10.7191 395.684 9.05699 391.027 6.87877L395.396 -2.35042L398.593 -0.775774ZM386.361 -6.89943C386.368 -6.80672 386.399 -6.71736 386.451 -6.64052C386.503 -6.56368 386.575 -6.50209 386.659 -6.46205L394.452 -2.76161L390.083 6.4763C387.733 5.39158 385.095 4.18431 382.299 2.91588L386.361 -6.89943ZM397.038 15.7318C398.914 16.7011 400.853 17.5456 402.84 18.26L393.176 42.0809L363.086 12.1538C362.817 8.17949 362.943 4.18834 363.461 0.238937C378.516 6.91374 395.256 14.4808 397.038 15.723L397.038 15.7318ZM338.832 -10.4686C339.452 -10.2325 339.976 -10.0225 340.361 -9.85628C343.244 -8.64906 350.277 -5.57851 358.455 -1.98305C357.676 2.89543 357.468 7.84819 357.835 12.7749C353.265 0.81633 346.319 -5.76222 338.832 -10.4774L338.832 -10.4686ZM364.021 19.2748C363.655 17.4474 363.387 15.6018 363.217 13.746L392.748 43.1132L392.006 44.9503C384.693 51.625 369.901 65.0708 366.817 67.8003C365.855 68.6456 365.012 69.6166 364.309 70.6871C365.314 53.0597 365.908 28.7489 364.021 19.301L364.021 19.2748ZM307.605 35.7735L340.422 59.892C340.468 59.9284 340.522 59.9552 340.579 59.9707L359.311 65.6219C358.866 74.7812 358.272 82.8819 357.721 87.3609C357.581 88.5769 357.267 90.7114 356.699 93.5983C351.806 92.2511 348.25 91.2713 347.962 91.1926C343.461 90.7198 338.934 90.5415 334.411 90.6589L309.073 63.4263L307.832 59.2009C307.684 58.6858 307.378 58.2302 306.959 57.8974L295.513 48.5546L307.605 35.7735ZM303.001 61.4666C304.084 65.167 308.522 80.2312 313.302 94.4556C307.282 96.5726 292.105 101.856 289.213 102.486C288.427 102.661 282.46 104.017 273.434 106.064C272.089 106.37 270.665 106.694 269.179 107.027L250.98 33.4991L263.561 29.3175L303.001 61.4666ZM190.947 -7.82673L257.279 25.8533L202.236 44.1017L190.947 -7.82673ZM124.964 39.8414C129.779 34.6976 166.151 4.84924 172.853 -0.653328L188.055 3.64196L197.185 45.5714L111.195 65.3333C115.065 56.8477 121.505 43.5593 124.964 39.8677L124.964 39.8414ZM151.7 61.4141C153.168 66.7592 155.195 74.3351 157.178 82.0159L139.608 82.0159C139.553 82.0067 139.497 82.0067 139.442 82.0159L116 89.6791L123.986 67.809L151.7 61.4141ZM9.52977 151.379L12.1509 117.367L27.0652 112.118L28.4019 132.002C28.3979 132.04 28.3979 132.078 28.4019 132.116L34.116 151.362L9.52977 151.379ZM35.2431 151.379L29.4504 131.871L28.0699 111.698L33.0413 109.948L53.2678 151.379L35.2431 151.379ZM54.4647 151.379L34.0548 109.59L39.3495 107.744L39.4282 107.744C41.6299 106.93 50.0874 102.565 60.5108 97.045L82.3536 140.96C82.3843 141.023 82.427 141.078 82.4792 141.124C82.5315 141.17 82.5923 141.204 82.6582 141.226C82.724 141.248 82.7935 141.257 82.8627 141.252C82.9319 141.247 82.9994 141.228 83.0613 141.196C83.1848 141.134 83.2788 141.026 83.323 140.895C83.3672 140.764 83.3579 140.621 83.2972 140.497L61.4544 96.5464C77.7666 87.8945 98.4561 76.6358 107.595 71.6494L117.87 69.2524L107.106 98.8821C106.923 99.3812 106.895 99.9243 107.027 100.439L115.764 134.338L97.5649 155.22L80.3004 157.074L74.5863 145.588C74.5314 145.475 74.4376 145.385 74.3221 145.335C74.2067 145.286 74.0771 145.279 73.9572 145.317L55.6093 151.379L54.4647 151.379ZM9.46861 152.429L53.9056 152.429C53.9789 152.47 54.0617 152.492 54.1458 152.492C54.23 152.492 54.3128 152.47 54.3861 152.429L55.6617 152.429C55.7168 152.437 55.7727 152.437 55.8277 152.429L73.8349 146.489L79.1646 157.223L19.228 163.731L19.2717 163.635L20.7919 156.829L26.8555 156.829L26.2788 162.236C26.2719 162.304 26.2787 162.374 26.2987 162.44C26.3186 162.507 26.3515 162.568 26.3953 162.622C26.4391 162.676 26.493 162.72 26.554 162.753C26.615 162.786 26.6818 162.806 26.7506 162.813C26.8195 162.82 26.889 162.813 26.9552 162.793C27.0215 162.773 27.0831 162.74 27.1367 162.696C27.1902 162.652 27.2346 162.598 27.2673 162.537C27.3 162.476 27.3204 162.409 27.3273 162.341L27.9651 156.357L27.9651 156.296C27.9642 156.166 27.9143 156.041 27.8253 155.946C27.7779 155.89 27.7189 155.846 27.6525 155.815C27.5861 155.785 27.5138 155.77 27.4409 155.771L20.3638 155.771C20.2454 155.772 20.1308 155.813 20.0388 155.888C19.9468 155.962 19.8827 156.066 19.857 156.182L18.2669 163.425C18.2512 163.498 18.2516 163.573 18.2682 163.646C18.2848 163.719 18.3172 163.787 18.363 163.845L8.49879 164.921L9.46861 152.429ZM36.0207 164.038L34.4131 172.033L33.3646 172.033C33.3243 172.024 33.2826 172.024 33.2423 172.033L19.8046 175.428L17.6203 166.032L36.0207 164.038ZM8.57743 167.038L16.5631 166.163L18.7824 175.699L10.3423 177.833L8.57743 167.038ZM10.5083 178.874L19.027 176.731L23.2121 194.726L13.2693 195.776L10.5083 178.874ZM13.444 196.825L23.448 195.758L28.3058 216.631L16.9476 218.494L13.444 196.825ZM17.1485 219.57L28.5068 217.698L30.6998 240.714C27.3011 240.802 23.9198 240.872 20.6521 240.933L17.1485 219.57ZM63.6038 241.747L63.6038 258.797L55.3035 259.96L54.7007 242.158C58.012 242.035 61.0263 241.895 63.6038 241.747ZM25.7109 242.989L20.888 244.651L20.888 243.094C22.4694 243.059 24.0858 243.024 25.7109 242.989ZM6.69895 243.339C10.6044 243.269 15.0866 243.19 19.8046 243.094L19.8046 244.992L6.90864 249.462L6.69895 243.339ZM7.69498 268.332L6.98728 250.547L19.8396 246.129L19.8396 268.979L7.69498 268.332ZM31.7395 291.786C29.0485 287.893 21.8404 278.06 20.8968 276.765L20.8968 245.762L29.1883 242.91C37.6458 242.718 46.313 242.482 53.6522 242.202L54.2813 260.573C54.282 260.647 54.2988 260.721 54.3304 260.789C54.3621 260.857 54.4079 260.917 54.4648 260.966C54.5217 261.012 54.5876 261.046 54.6582 261.066C54.7289 261.085 54.8028 261.09 54.8754 261.08L64.2066 259.768C64.3325 259.749 64.4474 259.686 64.5308 259.589C64.6141 259.493 64.6603 259.37 64.661 259.243L64.661 241.668C67.8587 241.475 70.2614 241.266 71.5545 241.038C79.5839 239.638 125.646 236.612 137.083 235.868L140.464 265.27C140.464 266.372 140.604 274.473 140.569 283.982L117.8 283.982C117.742 283.973 117.683 283.973 117.625 283.982L40.0048 312.571C39.0525 309.64 34.3956 295.626 31.7395 291.786ZM69.0033 374.831C66.5482 372.373 56.4306 366.958 54.9016 366.127L39.5592 324.442L40.1796 313.63L117.94 285.058L140.656 285.058C140.604 295.206 140.386 306.692 139.687 312.965C138.428 324.337 131.605 351.736 130.015 358.052L93.7555 371.743C93.4044 371.875 93.0856 372.081 92.8207 372.346L77.4259 387.682C74.9533 383.474 70.8032 376.633 69.0033 374.831ZM54.0891 517.783L20.1891 516.278L26.3575 492.816L26.3575 492.676C26.3584 492.58 26.3311 492.486 26.2788 492.405C26.2006 492.283 26.0787 492.195 25.9381 492.16L14.0818 489.772L19.4377 468.986L25.7546 470.167C30.9532 473.597 34.9985 476.238 36.5974 477.244L56.7102 507.53L54.0891 517.783ZM44.95 480.271C50.5942 482.143 59.8031 485.196 69.0645 488.442L62.3456 506.489L44.95 480.271ZM63.0446 507.53L70.0343 488.748C83.0264 493.315 95.8437 498.196 98.7444 500.637C99.5704 501.357 100.339 502.141 101.042 502.981L89.2472 521.685L81.2178 523.277L74.333 524.598L63.0446 507.53ZM101.75 503.839C107.359 510.907 113.108 523.6 114.323 527.458C114.91 528.824 115.578 530.153 116.324 531.439C116.324 535.472 116.83 540.86 117.285 545.663C113.598 540.694 103.934 534.693 103.034 534.142L90.2432 522.026L101.75 503.839ZM89.2472 522.804L94.2798 535.008L91.1868 536.906L82.2313 524.152L89.2472 522.804ZM57.9771 539.426L57.0422 545.803L39.8301 550.754L38.3011 546.135L57.9771 539.426ZM16.2748 553.685L22.2248 550.3C22.5706 550.584 22.9833 550.775 23.4238 550.855C23.8643 550.935 24.3178 550.9 24.7411 550.754L37.2963 546.477L38.8166 551.043L34.614 552.259C34.5121 552.285 34.4207 552.342 34.352 552.422C34.2833 552.502 34.2406 552.6 34.2296 552.705L33.6355 557.954L25.012 563.99L16.2748 553.685ZM25.7022 564.848L34.4393 558.724C34.4994 558.681 34.5499 558.627 34.5876 558.563C34.6252 558.5 34.6491 558.43 34.6577 558.356L35.2518 553.213L57.6625 546.774C57.761 546.746 57.849 546.689 57.9158 546.612C57.9826 546.534 58.0251 546.438 58.0382 546.337L59.1042 539.085L74.2631 533.923C75.6173 535.918 78.0899 539.679 80.9557 544.578L79.3131 554.604C79.2325 554.586 79.1491 554.586 79.0685 554.604L42.7308 562.459C42.661 562.473 42.5947 562.502 42.5361 562.542C42.4776 562.583 42.4279 562.635 42.3901 562.696C42.3537 562.758 42.3303 562.828 42.3213 562.9C42.3123 562.972 42.3178 563.045 42.3377 563.115L45.7364 575.538L37.5759 578.836L25.7022 564.848ZM60.1002 559.774L79.1296 555.645L76.0542 574.462L64.0319 577.226L60.1002 559.774ZM63.0009 577.462L48.2614 580.865L43.4735 563.369L59.0692 560.019L63.0009 577.462ZM77.1288 574.392L81.777 546.022C86.3028 553.895 91.5713 564.393 94.8826 575.196L77.1288 574.392ZM22.8539 589.053L24.2344 583.568L39.3059 582.764L40.9048 597.557L27.1875 600.697L22.8539 589.053ZM27.3535 601.738L40.9834 598.615L43.4997 621.517L25.6498 620.739L27.3535 601.738ZM8.38523 623.118L9.52979 617.651L24.5052 621.64L24.1033 626.136L8.38523 623.118ZM30.1232 637.054L25.1168 626.67L25.5537 621.797L43.4123 622.567L39.3408 638.2L30.1232 637.054ZM54.0104 642.994L39.5418 641.629L42.1105 631.753L55.8977 633.432L54.0104 642.994ZM76.7269 625.218L58.7722 623.617L58.0645 609.62L76.4124 606.76L76.7269 625.218ZM57.4179 608.597C57.2907 608.621 57.1763 608.69 57.0948 608.791C57.0133 608.892 56.9699 609.018 56.9723 609.148L57.7324 624.019L56.0986 632.391L42.3726 630.729L44.5918 622.209L44.5918 622.112L44.5918 622.016L40.2844 582.195C40.2668 582.117 40.2342 582.042 40.1883 581.976L38.3011 579.754L45.9985 576.631L47.379 581.626C47.414 581.757 47.4981 581.869 47.6137 581.939C47.7293 582.009 47.8674 582.032 47.9993 582.002L75.9581 575.555L76.4124 605.657L57.4179 608.597ZM98.1765 591.512C98.382 595.091 98.344 598.68 98.063 602.254L77.4958 605.509L77.0415 575.468L95.2496 576.273C96.783 581.229 97.7646 586.339 98.1765 591.512ZM100.885 576.736C94.4458 553.116 78.5006 530.695 77.4521 529.252L74.962 525.499L81.078 524.327L90.6015 537.877C90.6776 537.986 90.792 538.062 90.9217 538.089C91.0514 538.117 91.1867 538.094 91.3004 538.026L95.2059 535.638C95.3148 535.575 95.3965 535.474 95.4352 535.355C95.474 535.235 95.467 535.105 95.4156 534.99L90.9859 524.248L102.344 534.999L102.432 535.069C102.571 535.157 116.044 543.424 117.529 548.331L117.529 548.532L117.599 549.285L107.91 549.285C107.791 549.287 107.675 549.328 107.582 549.403C107.489 549.477 107.423 549.58 107.394 549.696L100.885 576.736ZM105.769 560.937L108.329 550.396L117.739 550.396C117.931 552.425 118.088 554.131 118.132 555.155C118.012 557.744 117.646 560.316 117.04 562.835L105.769 560.937ZM161.119 627.422L155.457 626.198C155.354 626.171 155.246 626.171 155.143 626.198L138.839 632.907L127.918 632.461L113.117 594.39L114.157 579.562C114.515 578.223 119.399 559.695 119.224 555.067C119.163 553.729 118.918 551.279 118.648 548.445C118.211 544.027 117.634 538.166 117.468 533.512C127.018 550.632 156.007 598.93 170.564 623.11L161.119 627.422ZM175.343 620.853C151.525 581.294 120.736 529.68 119.364 525.936C117.931 521.282 109.753 503.025 102.134 496.595C96.9708 492.221 70.9342 483.263 46.147 475.066C43.0017 474.025 40.2757 473.124 39.6291 472.879C38.6943 472.319 33.6093 468.986 26.6108 464.367L30.1843 424.424L62.8961 409.403C63.1809 409.271 63.4409 409.09 63.6649 408.87L96.0709 376.423L130.888 363.301L136.008 373.195C136.183 373.535 136.43 373.832 136.732 374.066C137.034 374.301 137.383 374.466 137.756 374.551L160.682 380.062C161.372 380.223 162.098 380.103 162.7 379.73L177.667 370.317L216.984 372.268L239.849 402.457C242.164 409.631 272.377 503.191 294.281 554.105C288.165 556.528 281.499 559.179 274.553 561.978C265.737 565.477 257.375 568.837 255.68 569.414C254.274 569.493 253.391 570.464 243.868 582.641C239.98 587.619 235.131 593.821 233.925 594.888C232.352 596.262 223.703 599.595 216.25 602.027C216.154 602.027 216.058 602.097 215.962 602.141L175.343 620.853ZM246.489 639.416L241.247 629.146C241.189 629.04 241.096 628.956 240.985 628.91L226.411 622.462C226.368 622.454 226.323 622.454 226.28 622.462L217.989 621.22L213.48 609.113L218.05 607.004C221.073 606.016 234.301 601.589 237.411 598.86C239.18 597.063 240.829 595.152 242.348 593.139L251.548 611.265C251.606 611.385 251.709 611.478 251.835 611.523C251.96 611.569 252.099 611.564 252.221 611.51L287.51 596.472L296.107 618.561L246.489 639.416ZM297.059 618.158L288.497 596.061L299.366 591.424L307.937 613.583L297.059 618.158ZM308.907 613.172L300.17 590.567L298.929 585.904L307.168 582.921C311.327 592.133 315.303 600.89 318.972 608.938L308.907 613.172ZM333.825 628.735C331.038 622.611 327.832 615.674 324.337 608.01L342.475 601.336L351.483 621.902L333.825 628.735ZM361.784 642.88L352.898 622.489L387.078 609.261C387.078 609.261 387.13 609.261 387.165 609.2L395.186 631.656L361.784 642.88ZM396.199 631.324L390.389 615.079C390.427 615.082 390.465 615.082 390.503 615.079L399.126 611.72L405.915 628.079L396.199 631.324Z" fill="#2C5DEB"/>
</g>
</svg>
