<svg width="441" height="441" viewBox="0 0 441 441" fill="none" xmlns="http://www.w3.org/2000/svg">
<mask id="mask0" mask-type="alpha" maskUnits="userSpaceOnUse" x="0" y="0" width="441" height="441">
<rect x="0.126831" y="220.127" width="311.127" height="311.127" rx="55" transform="rotate(-45 0.126831 220.127)" fill="#2C5DEB"/>
</mask>
<g mask="url(#mask0)">
<path d="M441.847 617.27L443.018 620.577L443.018 617.428L442.843 616.929L443.018 616.877L443.018 615.766L442.493 615.941L422.809 560.452C428.971 559.134 435.707 557.635 443.018 555.955L443.018 550.523C411.861 557.6 392.447 561.467 379.813 561.991C378.045 556.32 377.061 550.434 376.886 544.495L392.054 540.121C392.163 540.088 392.259 540.021 392.328 539.93C392.397 539.839 392.436 539.728 392.438 539.614C392.436 539.526 392.415 539.44 392.377 539.36L385.51 526.798C385.448 526.685 385.348 526.599 385.227 526.555C385.106 526.512 384.974 526.514 384.855 526.562L370.928 532.152L367.276 524.926L363.466 517.053L369.888 509.311L443.018 541.04L443.018 539.885L410.979 525.976L418.492 507.071L429.204 505.855L431.956 523.614C431.977 523.732 432.037 523.84 432.125 523.92C432.214 524.001 432.326 524.05 432.446 524.06L443.018 524.768L443.018 523.71L432.935 523.036L431.886 516.257L443.018 515.653L443.018 507.552L430.69 508.532L430.174 505.217L428.523 492.576L443.018 489.75L443.018 488.674L428.383 491.508L427.448 484.387L434.612 482.778L443.018 488.027L443.018 486.776L436.072 482.402L443.018 480.836L443.018 478.675L434.184 480.661L426.033 460.689L439.584 455.676C439.703 455.631 439.803 455.544 439.863 455.432C439.924 455.319 439.943 455.189 439.916 455.064L438.509 449.106L443.018 447.786L443.018 446.683L437.775 448.275C437.646 448.314 437.536 448.401 437.468 448.518C437.399 448.635 437.378 448.773 437.408 448.905L438.824 454.889L425.718 459.753L408.689 418.033L404.321 389.252L413.259 385.184C413.329 385.154 413.391 385.109 413.442 385.053L423.21 373.812L439.75 359.316L443.018 356.447L443.018 355.039L439.4 358.214L431.886 351.714L441.419 345.503C441.493 345.457 441.555 345.393 441.598 345.316C441.64 345.24 441.663 345.154 441.663 345.066C441.661 344.963 441.631 344.864 441.576 344.777C441.499 344.659 441.379 344.577 441.241 344.547C441.104 344.518 440.96 344.544 440.842 344.62L430.733 351.207L422.372 356.316L412.612 345.818L418.728 340.438L429.641 340.569C429.711 340.57 429.78 340.558 429.844 340.532C429.909 340.506 429.968 340.468 430.017 340.419C430.067 340.37 430.106 340.312 430.133 340.247C430.16 340.183 430.174 340.114 430.174 340.044C430.175 339.976 430.163 339.908 430.137 339.844C430.112 339.781 430.074 339.723 430.026 339.674C429.978 339.625 429.921 339.586 429.858 339.56C429.795 339.533 429.727 339.52 429.658 339.52L418.519 339.38C418.39 339.378 418.265 339.425 418.169 339.511L411.896 345.04L407.064 339.791L414.473 326.118C414.515 326.04 414.536 325.952 414.535 325.864C414.535 325.787 414.518 325.71 414.485 325.64C414.452 325.571 414.403 325.509 414.342 325.461L410.568 322.312L414.526 320.711C414.602 320.681 414.67 320.634 414.724 320.574C414.779 320.513 414.819 320.44 414.84 320.361L416.911 312.899L424.469 310.415C424.544 310.39 424.613 310.348 424.67 310.292L443.018 292.534L443.018 289.752L421.446 267.086L409.397 254.427L422.66 230.221L432.874 226.04L443.018 233.747L443.018 232.426L425.648 219.242C425.724 219.148 425.767 219.031 425.77 218.91C425.77 218.831 425.752 218.753 425.717 218.681C425.682 218.61 425.632 218.548 425.57 218.499C425.516 218.455 425.454 218.422 425.387 218.402C425.321 218.382 425.251 218.375 425.182 218.383C425.113 218.39 425.046 218.411 424.985 218.444C424.924 218.478 424.87 218.523 424.827 218.578L415.557 211.579L422.153 203.163C425.066 205.496 427.978 207.803 430.89 210.083C432.638 211.509 434.464 212.926 436.255 214.335L443.018 219.741L443.018 210.223C438.649 208.605 435.643 207.153 434.114 205.945L433.442 205.412L439.829 196.34C439.894 196.255 439.928 196.15 439.925 196.043C439.926 195.96 439.908 195.878 439.871 195.803C439.835 195.728 439.781 195.664 439.715 195.614L435.241 192.237C435.126 192.153 434.981 192.117 434.839 192.14C434.697 192.162 434.57 192.239 434.486 192.355C434.401 192.471 434.366 192.616 434.388 192.758C434.41 192.9 434.488 193.027 434.604 193.112L438.649 196.156L432.594 204.756C425.718 199.306 417.025 192.395 407.589 184.845L417.295 165.477L443.018 179.657L443.018 178.459L437.653 175.493L443.018 165.661L443.018 163.465L436.727 174.986L415.391 163.202L402.215 155.793C402.163 155.767 402.107 155.75 402.049 155.74L388.847 153.483L392.342 107.766L398.825 114.764C398.911 114.853 399.024 114.911 399.146 114.927C399.269 114.943 399.393 114.916 399.498 114.852L409.537 108.501L443.018 129.041L443.018 127.808L410.376 107.783L442.773 72.4237L443.018 72.5725L443.018 69.5194L442.485 70.8316L424.512 54.1316L435.338 30.5818C437.836 31.5003 440.414 32.4538 443.018 33.4074L443.018 27.7649C440.117 26.7064 437.268 25.6566 434.516 24.6418C437.504 22.831 440.388 21.0639 443.018 19.393L443.018 13.1819C440.632 14.6778 437.933 16.3487 435.023 18.1333L440.728 3.66398L443.018 -1.75106L443.018 -4.45424L439.96 2.78917L414.622 -7.61226L416.369 -11.9863L415.234 -11.9863L413.617 -7.98842L403.901 -11.9776L401.079 -11.9776L403.054 -11.164L398.685 -1.83852L392.945 -4.56795L395.732 -11.9776L394.605 -11.9776L391.984 -4.97908L387.179 -7.26235C387.088 -7.30519 386.988 -7.32137 386.889 -7.30898C386.79 -7.29659 386.696 -7.25612 386.619 -7.1924L388.577 -11.9426L387.432 -11.9426L381.438 2.63176L376.493 0.400985L381.709 -11.9776L380.565 -11.9776L375.585 -0.0626993C372.09 -1.64607 368.446 -3.24703 364.969 -4.78664L367.878 -11.9776L362.19 -11.9776L360.146 -6.92116C355.777 -8.8282 351.881 -10.5517 348.788 -11.8901L348.831 -11.9776L333.978 -11.9776C343.834 -6.66743 353.357 0.680893 358.442 17.8621C358.573 18.7369 358.722 19.6117 358.897 20.4865C360.434 28.1935 360.19 48.0079 359.412 64.7167L341.064 59.1705L322.035 45.1736L334.712 27.4762C334.78 27.3887 334.817 27.2809 334.817 27.17C334.817 27.0854 334.797 27.0021 334.757 26.9273C334.717 26.8526 334.66 26.7887 334.59 26.7414C334.476 26.662 334.335 26.6303 334.198 26.6532C334.061 26.6761 333.938 26.7517 333.856 26.8639L321.222 44.5349L308.317 35.0433L327.749 -11.9776L326.613 -11.9776L307.225 34.9383L294.819 48.0604L267.533 25.8141L286.317 -11.9776L280.437 -11.9776L263.033 22.9622L194.254 -11.9775L184.748 -11.9775L186.907 -2.06599L176.247 -5.06654C177.369 -7.31605 178.372 -9.62287 179.253 -11.9775L173.591 -11.9775C172.638 -9.6388 171.55 -7.35755 170.332 -5.14527C165.763 -1.40986 126.559 30.7217 121.247 36.3905C115.935 42.0592 106.866 62.381 104.708 67.3324C79.3701 81.1368 41.4074 101.607 37.965 102.788C35.9467 103.199 20.7266 104.853 6.16188 106.384L6.16188 111.685C9.12376 111.379 12.3478 111.038 15.598 110.688L6.16188 113.995L6.16188 119.585L11.1682 117.835L9.2985 142.408L6.16188 141.945L6.16188 143.012L9.21113 143.467L7.55982 165.162L6.16188 165.319L6.16188 167.436L7.65593 167.279L9.40335 178.214L6.12693 179.089L6.12693 180.182L9.62178 179.308L12.3478 196.016L6.16188 196.672L6.16188 197.74L12.5225 197.057L16.0698 218.788L6.16188 220.415L6.16188 221.491L16.2445 219.846L19.7394 241.148C15.0388 241.244 10.6003 241.323 6.73853 241.384L6.16188 238.06L6.16188 253.202L6.76475 268.407L6.16189 268.407L6.16189 269.465L19.9665 270.191L19.9665 277.102C19.9665 277.216 20.0033 277.326 20.0714 277.417C20.1325 277.496 24.6671 283.681 28.127 288.501L20.814 289.629L17.3192 281.634C17.2803 281.551 17.2217 281.479 17.1486 281.424C17.0755 281.369 16.9901 281.333 16.8998 281.319L7.09676 280.05C6.96317 280.035 6.82859 280.07 6.72002 280.15C6.61145 280.229 6.53691 280.347 6.51137 280.479L6.16189 282.395L6.16189 288.151L7.47245 281.152L16.4892 282.325L19.984 290.417C20.032 290.524 20.1132 290.612 20.2156 290.669C20.318 290.726 20.436 290.748 20.5519 290.732L28.791 289.446C29.6647 290.653 30.4161 291.72 30.9753 292.534C33.6838 296.453 38.8387 312.112 39.2406 313.477L38.6203 324.429L16.7163 344.069L8.48596 346.693L6.16189 343.194L6.16189 345.092L7.43751 347.025L6.16189 347.419L6.16189 348.521L17.1357 345.022C17.2074 345.003 17.2734 344.967 17.3279 344.917L38.9261 325.566L54.05 366.682C53.8403 367.645 52.355 373.681 48.7204 374.844C47.3399 375.282 40.2628 378.448 31.0539 382.577L21.2159 362.457L33.7013 357.147C33.769 357.118 33.8298 357.075 33.8795 357.021C33.9292 356.966 33.9668 356.902 33.9896 356.832C34.0027 356.774 34.0027 356.715 33.9896 356.657C33.9882 356.568 33.9641 356.481 33.9197 356.403L27.1572 344.235C27.1228 344.173 27.0762 344.118 27.0202 344.075C26.9642 344.031 26.9 343.999 26.8314 343.981C26.7627 343.963 26.6912 343.959 26.6211 343.97C26.5509 343.98 26.4836 344.005 26.4233 344.042L10.2421 354.085C10.1454 354.147 10.0711 354.238 10.0302 354.345C9.98927 354.452 9.98393 354.57 10.015 354.68L12.872 364.819L6.16189 367.688L6.16189 368.834L20.2374 362.851L30.1016 382.971L28.9308 383.496C22.0547 386.602 13.9292 390.25 6.16189 393.67L6.16189 394.807C13.903 391.404 22.1071 387.721 29.3589 384.458C39.5551 379.883 47.6108 376.27 49.0349 375.815C52.8181 374.599 54.4781 369.307 54.9587 367.4C57.3526 368.686 66.2295 373.523 68.3876 375.684C70.135 377.434 74.3463 384.432 76.784 388.561L60.4019 404.981L6.16189 429.887L6.16189 435.687L29.2104 425.102L25.7156 463.882C19.9927 460.094 13.0904 455.519 6.16189 450.917L6.16189 457.251C12.1206 461.205 18.3152 465.308 23.6361 468.798L6.16189 465.544L6.16189 466.611L18.5249 468.921L13.1516 489.689L6.16189 488.254L6.16189 489.286L25.3224 493.205L19.2676 516.405L6.1619 515.443L6.1619 516.502L19.5996 517.49L54.548 519.012C54.6685 519.018 54.7874 518.982 54.8845 518.91C54.9816 518.839 55.051 518.736 55.081 518.619L57.5711 508.856L71.3233 529.527L24.5098 545.466C18.9632 541.371 12.7577 538.255 6.1619 536.255L6.1619 541.775C11.6369 543.622 16.7943 546.304 21.4518 549.727L15.3359 553.226C15.2664 553.262 15.2064 553.314 15.1609 553.378C15.1153 553.442 15.0855 553.516 15.0738 553.593C15.0615 553.669 15.0661 553.747 15.0872 553.821C15.1083 553.895 15.1455 553.964 15.1961 554.022L21.3121 561.239L6.1619 580.616L6.1619 582.366L22.011 562.096L38.8125 581.902L23.9594 582.663C23.8479 582.669 23.7411 582.71 23.6547 582.781C23.5682 582.852 23.5066 582.948 23.4789 583.057L21.8887 589.084C21.8581 589.187 21.8581 589.296 21.8887 589.399L26.4495 601.515L24.7021 620.7L9.77906 616.719L9.77906 609.266C9.78084 609.148 9.74303 609.033 9.67172 608.94C9.60041 608.846 9.49975 608.779 9.38589 608.75L6.1619 607.91L6.1619 609.004L8.73061 609.668L8.73061 617.069L7.4812 623.044L6.1619 622.79L6.1619 623.867L7.26278 624.076L6.1619 629.334L6.1619 634.504L8.29376 624.278L24.3438 627.366L29.3502 637.741L28.1008 644.127L29.1755 644.127L30.32 638.257L39.2057 639.359L37.965 644.127L39.0484 644.127L39.3979 642.789L53.5957 644.127L64.8404 644.127L55.2295 643.252L58.8205 624.794L76.8539 626.403L76.2598 644.127L77.317 644.127L77.9285 625.94L77.6315 606.694L98.0938 603.51C96.8619 617.883 92.5108 633.472 89.0072 644.127L94.5727 644.127C95.3766 641.634 96.2066 638.878 97.0366 636.018C101.475 620.507 103.712 607.149 103.712 596.118C103.712 594.464 103.659 592.863 103.563 591.324C103.256 587.191 102.59 583.093 101.571 579.076L105.651 562.131L116.957 563.986C115.472 570.984 113.253 579.339 113.218 579.47L113.218 579.566L112.169 594.569C112.147 594.643 112.147 594.722 112.169 594.797L127.022 632.964L114.921 644.127L116.477 644.127L127.835 633.629L138.966 634.093C139.038 634.111 139.113 634.111 139.184 634.093L155.479 627.488L159.621 628.363L125.52 644.127L138.092 644.127L173.39 627.803L176.536 632.999L168.812 644.127L175.225 644.127L180.598 636.385L189.737 640.348C187.361 641.368 185.097 642.635 182.984 644.127L194.787 644.127C195.73 643.836 196.686 643.593 197.653 643.401C197.814 643.387 197.972 643.355 198.125 643.305C202.803 642.45 207.619 642.732 212.166 644.127L220.903 644.127L216.394 640.234C216.195 640.062 215.971 639.92 215.73 639.814C209.973 637.587 203.72 636.961 197.636 638.003L181.49 631.005L178.204 625.564L212.646 609.642L217.242 621.959C217.275 622.047 217.33 622.124 217.402 622.184C217.474 622.244 217.56 622.284 217.652 622.301L226.18 623.578L240.518 629.911L245.9 640.409C245.961 640.526 246.064 640.616 246.189 640.661C246.313 640.707 246.45 640.704 246.572 640.654L308.929 614.41L319.536 610.01L322.603 616.737L258.752 644.127L261.425 644.127L323.048 617.717L324.796 621.592L271.718 644.127L274.391 644.127L325.233 622.546C326.552 625.441 327.854 628.179 329.007 630.769L308.527 638.642C308.462 638.667 308.403 638.704 308.353 638.752C308.302 638.799 308.262 638.856 308.233 638.92C308.205 638.983 308.189 639.051 308.187 639.121C308.185 639.19 308.197 639.259 308.221 639.324C308.246 639.389 308.283 639.449 308.331 639.499C308.378 639.55 308.436 639.59 308.499 639.619C308.562 639.647 308.63 639.663 308.7 639.665C308.769 639.667 308.838 639.655 308.903 639.63L329.435 631.722L335.193 644.127L340.994 644.127L334.398 629.824L352.029 623L360.889 643.34L358.556 644.127L362.374 644.127L362.313 643.978L406.435 629.159L412.647 644.127L413.783 644.127L407.431 628.827L441.847 617.27ZM443.018 514.594L431.738 515.207L430.864 509.564L442.703 508.637L443.018 514.594ZM13.8505 364.408L11.1333 354.785L26.5456 345.206L32.7489 356.377L13.8505 364.408ZM421.769 560.679L441.489 616.273L407.029 627.847L400.04 610.954C399.989 610.826 399.89 610.723 399.764 610.668C399.638 610.612 399.496 610.608 399.367 610.657L390.228 614.209C390.203 614.22 390.179 614.235 390.158 614.252L373.994 569.077L373.322 567.214C383.946 567.914 399.087 565.526 421.769 560.679ZM59.7815 231.114C59.6884 231.104 59.5944 231.12 59.5097 231.161C59.4251 231.201 59.3529 231.263 59.301 231.341C59.2542 231.422 59.2296 231.514 59.2296 231.608C59.2296 231.702 59.2542 231.794 59.301 231.875L63.2152 239.792C57.0381 240.133 48.3621 240.43 39.1969 240.666L39.8085 215.953L41.1453 215.734C41.7132 215.787 45.5663 216.146 51.0794 216.198L51.1755 216.198C54.0063 216.198 57.2915 216.198 60.7863 215.962C60.7863 215.962 60.83 215.962 60.8475 215.962C66.1604 215.671 71.4407 214.946 76.6354 213.792C82.2971 212.489 94.3543 209.121 107.792 205.246L113.13 235.523L110.509 235.706L59.7815 231.114ZM104.018 236.17C89.6974 237.22 75.5783 238.366 71.3582 239.101C70.0826 239.328 67.6275 239.538 64.3685 239.73L60.6727 232.251L104.018 236.17ZM52.8006 162.345L67.5401 160.735L64.0453 172.16L51.6473 172.16L52.8006 162.345ZM50.625 172.16L35.6147 172.16L37.2485 164.042L51.6822 162.459L50.625 172.16ZM96.7657 185.16L88.7276 187.916L86.9802 158.601L91.2352 158.137L96.7657 185.16ZM92.2836 158.041L96.8968 157.534L106.796 181.731L97.7705 184.828L92.2836 158.041ZM87.6966 188.292L83.8698 189.604C83.7377 189.65 83.6294 189.747 83.5688 189.874C83.5082 190 83.5001 190.145 83.5465 190.278C83.5928 190.41 83.6898 190.518 83.8159 190.579C83.9421 190.64 84.0872 190.648 84.2192 190.601L107.661 182.544C107.73 182.522 107.793 182.486 107.847 182.437C107.902 182.389 107.945 182.33 107.975 182.264C107.989 182.192 107.989 182.118 107.975 182.046C107.988 181.979 107.988 181.911 107.975 181.845L97.9802 157.42L98.1025 157.42C108.465 160.263 119.657 164.208 124.235 166.947L131.976 197.101C110.719 203.365 85.3551 210.704 76.3296 212.795C71.3627 213.891 66.3176 214.596 61.2406 214.903L61.2406 200.417C61.2406 200.277 61.1854 200.144 61.0871 200.045C60.9888 199.947 60.8554 199.892 60.7164 199.892L56.5051 199.892L59.5107 190.103L74.0667 194.932C74.1988 194.974 74.3421 194.962 74.4661 194.9C74.59 194.838 74.685 194.73 74.7307 194.599L74.7307 194.433C74.7308 194.32 74.6954 194.211 74.6295 194.12C74.5635 194.029 74.4706 193.961 74.3638 193.926L59.799 189.097L61.4329 183.848L75.4122 183.848C75.5536 183.848 75.6892 183.792 75.7891 183.691C75.8891 183.591 75.9452 183.456 75.9452 183.314L75.9452 159.808L85.9317 158.715L87.6966 188.292ZM139.639 135.515L133.226 138.288C133.101 138.342 133.001 138.442 132.948 138.567C132.894 138.693 132.89 138.834 132.937 138.961L134.921 144.035C134.955 144.129 135.015 144.21 135.094 144.271C135.173 144.331 135.267 144.368 135.366 144.377L144.628 145.103L148.577 159.712C148.615 159.84 148.7 159.95 148.815 160.019C148.929 160.089 149.066 160.113 149.197 160.088L158.808 158.12C158.928 158.096 159.035 158.031 159.113 157.937C159.191 157.844 159.234 157.726 159.236 157.604L159.236 157.499L154.247 133.004C158.336 132.864 161.682 132.75 163.509 132.689C163.29 144.656 162.836 158.75 161.569 161.068C159.821 164.208 145.501 181.6 136.292 192.561L121.247 134.185C125.039 134.045 132.037 133.791 139.359 133.52L139.639 135.515ZM140.416 133.529C144.829 133.372 149.285 133.205 153.181 133.065L158.092 157.21L149.468 158.96L145.545 144.455C145.517 144.349 145.456 144.254 145.371 144.184C145.287 144.113 145.183 144.07 145.073 144.062L135.777 143.327L134.108 139.04L140.434 136.311C140.539 136.264 140.626 136.184 140.681 136.083C140.737 135.982 140.757 135.865 140.74 135.751L140.416 133.529ZM334.214 91.8707C334.249 91.8796 334.285 91.8796 334.319 91.8707C338.634 91.7713 342.951 91.9174 347.25 92.3081C346.918 93.4541 346.105 96.236 344.961 99.9627C344.92 99.9578 344.879 99.9578 344.839 99.9627L330.152 101.712C330.012 101.73 329.886 101.802 329.8 101.912C329.714 102.023 329.675 102.164 329.693 102.303C329.71 102.442 329.782 102.569 329.893 102.655C330.003 102.741 330.144 102.779 330.283 102.762L344.629 101.012C342.506 107.845 339.387 117.336 336.11 125.682C331.794 121.754 328.928 118.867 328.098 117.485C325.678 113.452 322.175 104.031 318.767 93.9265C323.144 92.5093 328.946 91.9757 334.214 91.8532L334.214 91.8707ZM318.426 92.9555C315.071 82.9477 311.847 72.4238 309.881 65.8802L333.105 90.8559C328.028 91.0221 322.603 91.5907 318.426 92.938L318.426 92.9555ZM343.598 238.444C343.471 238.483 343.364 238.569 343.299 238.685C343.234 238.801 343.216 238.937 343.248 239.066L345.232 247.437C345.261 247.568 345.339 247.682 345.449 247.756C345.56 247.831 345.694 247.861 345.826 247.84L352.728 246.711L354.982 253.85L341.352 258.18L334.922 232.277L346.909 230.396L349.53 236.581L343.598 238.444ZM349.845 237.57L352.414 245.688L346.14 246.711L344.393 239.293L349.845 237.57ZM373.662 247.91L365.484 250.534L359.368 227.693L367.861 225.41L373.662 247.91ZM368.857 225.112L380.11 222.094L385.291 245.627L374.728 247.656L368.857 225.112ZM374.396 248.776L385.545 246.641L392.919 265.616L377.629 278.834L349.05 256.833L355.795 254.69L365.257 251.698L374.396 248.776ZM393.487 266.517L405.719 280.951L394.203 291.58L378.476 279.482L393.487 266.517ZM347.827 257.227L393.417 292.324L370.936 313.144L327.784 268.249L335.175 261.399L351.889 275.834C351.942 275.878 352.003 275.912 352.069 275.934C352.135 275.955 352.204 275.963 352.273 275.957C352.342 275.951 352.41 275.932 352.471 275.9C352.533 275.869 352.587 275.825 352.632 275.772C352.677 275.72 352.711 275.658 352.732 275.592C352.753 275.526 352.761 275.457 352.755 275.388C352.75 275.319 352.73 275.252 352.699 275.19C352.667 275.128 352.624 275.074 352.571 275.029L336.224 260.892L347.827 257.227ZM370.875 314.588L374.868 318.699L361.946 329.809L345.704 313.389L358.713 301.903L370.229 313.879C370.185 313.975 370.172 314.082 370.19 314.186C370.208 314.29 370.257 314.386 370.331 314.462C370.405 314.537 370.499 314.589 370.602 314.61C370.706 314.631 370.813 314.62 370.91 314.579L370.875 314.588ZM365.257 397.65C365.226 397.712 365.207 397.779 365.202 397.847C365.197 397.916 365.206 397.985 365.228 398.05C365.25 398.115 365.285 398.175 365.33 398.227C365.376 398.279 365.431 398.32 365.493 398.35L375.104 403.065L375.785 408.568L368.796 413.021L361.011 406.652L361.011 396.916C361.021 396.84 361.014 396.764 360.992 396.691C360.97 396.619 360.933 396.552 360.883 396.495C360.833 396.438 360.771 396.392 360.702 396.361C360.633 396.33 360.558 396.314 360.482 396.314C360.407 396.314 360.332 396.33 360.263 396.361C360.194 396.392 360.132 396.438 360.082 396.495C360.032 396.552 359.995 396.619 359.973 396.691C359.951 396.764 359.944 396.84 359.954 396.916L359.954 406.372L352.414 406.372L353.619 397.957L353.619 397.878C353.62 397.81 353.607 397.742 353.582 397.679C353.556 397.616 353.519 397.559 353.471 397.51C353.415 397.451 353.344 397.406 353.267 397.38C353.189 397.354 353.106 397.348 353.025 397.362L341.221 398.971C341.129 398.983 341.042 399.019 340.968 399.076C340.894 399.133 340.837 399.209 340.802 399.295L338.067 406.293L317.491 401.412L318.636 397.038C318.668 396.911 318.652 396.776 318.59 396.66C318.529 396.543 318.427 396.454 318.304 396.408L301.817 390.285L303.023 389.261L303.023 389.217L341.248 343.92L352.405 355.712L328.282 383.706C328.236 383.758 328.201 383.819 328.179 383.884C328.157 383.95 328.148 384.02 328.153 384.089C328.158 384.158 328.177 384.225 328.208 384.287C328.239 384.349 328.282 384.404 328.334 384.45L333.804 389.278C333.855 389.324 333.915 389.36 333.981 389.382C334.046 389.405 334.115 389.415 334.184 389.411C334.253 389.407 334.32 389.389 334.383 389.359C334.445 389.329 334.5 389.286 334.546 389.235C334.592 389.183 334.627 389.123 334.65 389.057C334.673 388.992 334.682 388.923 334.678 388.854C334.674 388.785 334.657 388.717 334.626 388.655C334.596 388.593 334.554 388.537 334.503 388.491L329.418 384.003L339.902 371.87L345.441 377.652C345.49 377.701 345.548 377.74 345.612 377.767C345.675 377.793 345.744 377.807 345.813 377.807C345.882 377.807 345.95 377.793 346.014 377.767C346.078 377.74 346.135 377.701 346.184 377.652L360.408 364.137L366.611 370.689L378.896 383.662L372.142 389.462C372.09 389.507 372.047 389.563 372.016 389.625C371.985 389.686 371.966 389.754 371.961 389.823C371.956 389.892 371.965 389.962 371.987 390.027C372.009 390.093 372.044 390.154 372.09 390.206C372.181 390.311 372.31 390.377 372.449 390.388C372.587 390.399 372.725 390.356 372.832 390.267L379.621 384.432L386.235 391.431L375.462 402.086L365.939 397.414C365.817 397.357 365.677 397.349 365.55 397.393C365.422 397.437 365.317 397.53 365.257 397.65ZM341.667 503.712L356.075 500.475L357.647 504.622L343.371 509.661L341.667 503.712ZM342.541 510.492L347.966 530.061L332.24 534.619C332.144 534.644 332.058 534.696 331.992 534.769C331.925 534.842 331.881 534.933 331.864 535.03L330.737 541.416C329.776 541.512 328.85 541.652 327.976 541.827C327.673 541.885 327.289 541.982 326.823 542.116L316.329 509.407L340.592 503.939L342.541 510.492ZM314.827 507.605C314.684 507.637 314.549 507.698 314.432 507.786C314.314 507.873 314.217 507.984 314.145 508.112C314.1 508.197 314.068 508.289 314.049 508.383L307.112 510.457L297.981 483.591L323.555 475.106L325.993 481.229C326.04 481.349 326.129 481.447 326.243 481.505C326.357 481.563 326.489 481.577 326.613 481.544L352.632 474.625L355.358 498.489L314.827 507.605ZM297.623 470.041L294.635 462.421L314.582 452.597L318.374 462.167L297.623 470.041ZM318.767 463.156L323.136 474.135L301.948 481.133L297.973 470.985L318.767 463.156ZM300.978 481.527L297.151 482.795L291.464 484.685L285.409 466.996L293.683 462.911L300.978 481.527ZM326.814 480.372L315.456 452.125L338.836 440.595L345.398 439.72L348.141 455.353L348.141 455.466L351.278 462.771L352.501 473.531L326.814 480.372ZM315.106 451.145L305.093 426.16L305.784 426.117L344.454 434.086L345.258 438.644L338.653 439.519C338.599 439.528 338.546 439.543 338.495 439.562L315.106 451.145ZM345.45 433.649L346.324 428.172L349.819 425.985L353.742 433.404L361.107 446.675L349.006 454.355L345.45 433.649ZM362.322 446.535L354.965 433.299L365.537 426.3L374.379 444.374L366.131 450.349L362.322 446.535ZM354.458 432.398L350.762 425.399L365.519 416.258L365.257 425.294L354.458 432.398ZM350.273 424.524L348.167 420.553C348.125 420.476 348.065 420.41 347.992 420.361C347.919 420.312 347.835 420.282 347.748 420.273L336.932 419.302L333.734 411.866C333.678 411.736 333.573 411.634 333.442 411.581C333.311 411.529 333.165 411.531 333.035 411.586C332.909 411.644 332.81 411.748 332.76 411.877C332.709 412.006 332.711 412.149 332.764 412.277L336.093 420.01C336.128 420.1 336.188 420.177 336.265 420.235C336.342 420.292 336.434 420.326 336.53 420.334L347.381 421.27L349.382 425.058L345.581 427.411C345.517 427.45 345.462 427.502 345.42 427.564C345.378 427.626 345.349 427.696 345.337 427.77L344.463 433.019L305.915 425.076C305.868 425.071 305.821 425.071 305.775 425.076L304.534 425.154C304.464 425.12 304.386 425.101 304.307 425.101C304.228 425.101 304.151 425.12 304.08 425.154C304.08 425.154 304.01 425.207 303.975 425.224L294.915 425.767C294.838 425.769 294.763 425.79 294.696 425.828L282.823 432.38L279.118 403.8L289.603 400.703C289.671 400.677 289.736 400.642 289.795 400.598L300.865 391.133L317.465 397.257L316.329 401.657C316.297 401.794 316.319 401.938 316.391 402.059C316.427 402.121 316.474 402.174 316.532 402.216C316.589 402.258 316.654 402.288 316.723 402.304L338.277 407.413C338.315 407.417 338.353 407.417 338.391 407.413L360.233 407.413L367.878 413.607L350.273 424.524ZM223.786 329.354C223.867 329.309 223.935 329.243 223.983 329.164C224.03 329.084 224.056 328.992 224.057 328.899C224.056 328.807 224.032 328.717 223.987 328.637L223.856 328.41C224.939 327.605 226.023 326.8 227.062 326.039C227.058 326.156 227.095 326.27 227.167 326.362L236.874 338.916L227.613 345.346C221.776 340.517 216.691 336.396 215.049 335.067C217.434 333.238 220.221 331.121 223 329.048L223.069 329.162C223.141 329.281 223.255 329.367 223.389 329.403C223.522 329.439 223.665 329.422 223.786 329.354ZM227.997 325.698C227.929 325.614 227.838 325.553 227.735 325.523C232.191 322.268 235.913 319.661 236.883 319.294C237.844 320.169 242.413 325.776 247.201 331.716L237.739 338.295L227.997 325.698ZM247.865 332.539C249.997 335.163 252.147 337.866 253.981 340.202C254.051 340.286 254.144 340.347 254.25 340.376C254.355 340.405 254.466 340.401 254.569 340.365C254.672 340.329 254.761 340.262 254.825 340.173C254.888 340.085 254.923 339.979 254.925 339.869C254.926 339.752 254.886 339.637 254.811 339.546C250.941 334.691 238.255 318.795 237.267 318.27C236.979 318.122 236.289 317.763 223.288 327.456L216.22 315.121L219.662 313.853C219.727 313.829 219.786 313.793 219.837 313.747C219.888 313.7 219.93 313.644 219.959 313.581C219.988 313.519 220.005 313.451 220.008 313.382C220.011 313.313 220 313.244 219.977 313.179C219.926 313.049 219.826 312.943 219.699 312.884C219.572 312.826 219.427 312.818 219.295 312.864L215.276 314.343C215.204 314.368 215.139 314.41 215.084 314.463C215.03 314.517 214.988 314.582 214.961 314.654C214.935 314.725 214.924 314.802 214.93 314.878C214.936 314.954 214.959 315.028 214.996 315.095L219.024 322.093L215.66 323.948L209.483 314.553C209.445 314.495 209.395 314.446 209.338 314.407C209.281 314.369 209.216 314.343 209.148 314.329C209.081 314.316 209.011 314.316 208.943 314.329C208.875 314.343 208.811 314.37 208.754 314.408C208.696 314.447 208.647 314.496 208.609 314.554C208.57 314.611 208.544 314.676 208.531 314.744C208.517 314.811 208.517 314.881 208.531 314.949C208.544 315.017 208.571 315.081 208.61 315.139L215.04 324.937C215.113 325.046 215.224 325.124 215.352 325.156C215.479 325.189 215.614 325.173 215.73 325.111L219.575 323.047L222.467 328.103C220.073 329.897 217.285 332.014 214.035 334.507L193.94 333.002L176.046 309.382L202.791 295.954L230.444 289.699L231.37 294.904C231.387 294.996 231.429 295.081 231.492 295.149L269.402 340.307L284.054 378.02L271.342 381.169C271.24 381.193 271.147 381.248 271.077 381.326C271.007 381.404 270.962 381.502 270.949 381.606L268.083 401.989L247.682 400.354C249.429 392.34 251.535 380.88 251.535 372.998C251.535 369.298 251.072 366.394 249.875 364.994C247.009 361.67 237.075 353.202 228.452 346.046L247.865 332.539ZM195.364 343.64L184.949 356.701C179.899 349.195 171.599 336.886 164.714 326.809L175.199 317.063L195.364 343.64ZM304.403 170.542L317.675 170.358L317.675 170.411C295.343 196.655 281.966 212.401 276.06 219.4L264.239 210.424L276.969 185.869C277.006 185.792 277.027 185.709 277.03 185.624C277.032 185.504 276.993 185.388 276.919 185.294C276.846 185.199 276.743 185.133 276.627 185.105C276.51 185.078 276.388 185.091 276.281 185.142C276.173 185.193 276.086 185.28 276.034 185.387L256.655 222.759L232.724 228.008L221.907 218.271L234.043 180.795L250.015 185.711C250.081 185.731 250.15 185.738 250.219 185.732C250.287 185.725 250.354 185.705 250.415 185.672C250.476 185.64 250.53 185.596 250.573 185.542C250.617 185.489 250.65 185.427 250.67 185.361L250.67 185.204C250.668 185.092 250.63 184.983 250.563 184.894C250.495 184.804 250.401 184.738 250.294 184.705L234.201 179.71L234.201 167.541L255.213 171.242L304.403 170.542ZM340.889 342.774L335.149 349.571L306.954 318.402C306.906 318.348 306.846 318.305 306.78 318.274C306.714 318.244 306.643 318.228 306.57 318.227L293.325 318.227L280.927 297.809C280.892 297.747 280.844 297.693 280.787 297.651L271.29 290.889L269.079 281.187L271.892 271.381L276.147 270.357L296.706 265.415L336.189 305.315L361.483 330.885L371.81 343.097L360.303 346.693C360.212 346.723 360.13 346.778 360.067 346.85L353.156 354.864L341.667 342.748C341.56 342.642 341.416 342.582 341.265 342.581C341.193 342.587 341.123 342.607 341.058 342.64C340.994 342.673 340.936 342.719 340.889 342.774ZM207.054 279.875L218.072 275.834L220.693 290.758L210.147 293.137L207.054 279.875ZM209.125 293.417L203.009 294.808L199.252 282.727L206.085 280.243L209.125 293.417ZM219.077 275.51L235.424 269.57L238.779 286.191C238.799 286.3 238.855 286.399 238.937 286.473C239.019 286.548 239.123 286.593 239.233 286.603L221.759 290.565L219.077 275.51ZM261.845 270.83L250.487 283.541L246.432 265.581L258.027 261.373L261.845 270.83ZM258.962 260.988L271.665 255.827L275.37 269.456L271.403 270.41L262.815 270.41L258.962 260.988ZM249.595 284.258L239.583 286.524C239.656 286.477 239.716 286.413 239.758 286.336C239.799 286.259 239.82 286.173 239.818 286.086L239.818 285.981L236.428 269.203L245.402 265.948L249.595 284.258ZM247.682 285.78L253.116 296.89L250.696 298.894C250.643 298.938 250.599 298.992 250.566 299.053C250.534 299.115 250.514 299.182 250.507 299.251C250.501 299.32 250.508 299.39 250.529 299.456C250.549 299.522 250.582 299.584 250.626 299.637C250.67 299.691 250.725 299.735 250.786 299.767C250.847 299.8 250.914 299.82 250.983 299.826C251.052 299.833 251.122 299.825 251.188 299.805C251.254 299.785 251.316 299.751 251.369 299.707L254.104 297.441C254.164 297.393 254.213 297.332 254.246 297.262C254.28 297.193 254.297 297.116 254.296 297.039C254.295 296.957 254.277 296.877 254.243 296.803L248.739 285.535L250.163 285.212L258.664 289.437L271.718 313.757L262.701 319.005L260.709 315.454C260.674 315.39 260.627 315.335 260.57 315.292C260.513 315.248 260.447 315.217 260.377 315.2C260.309 315.181 260.239 315.177 260.169 315.188C260.1 315.198 260.034 315.223 259.975 315.261L253.536 319.285C253.464 319.336 253.405 319.402 253.361 319.478L232.392 294.537L231.518 289.428L247.682 285.78ZM260.019 316.468L262.002 320.011C262.072 320.132 262.184 320.222 262.317 320.265C262.455 320.301 262.602 320.282 262.727 320.213L272.181 314.693L278.026 325.575C277.948 325.532 277.861 325.51 277.773 325.51C277.684 325.51 277.597 325.532 277.519 325.575L265.086 332.985C264.986 333.049 264.909 333.144 264.868 333.256L253.938 320.23C253.975 320.235 254.014 320.235 254.051 320.23L260.019 316.468ZM278.052 326.494C278.121 326.45 278.18 326.391 278.222 326.321C278.265 326.252 278.29 326.173 278.297 326.091L308.108 381.615L302.472 388.29L288.257 385.945L270.346 339.843C270.331 339.787 270.301 339.735 270.259 339.695L265.453 333.965C265.513 333.948 265.571 333.928 265.628 333.903L278.052 326.494ZM259.468 288.79C259.418 288.694 259.338 288.617 259.241 288.571L251.081 284.494L262.692 271.46L270.765 271.46L268.031 281.021C268.009 281.107 268.009 281.198 268.031 281.284L270.32 291.309C270.348 291.436 270.423 291.549 270.529 291.624L280.088 298.439L292.582 319.023C292.63 319.1 292.697 319.165 292.776 319.209C292.856 319.253 292.945 319.277 293.036 319.277L306.343 319.277L334.476 350.376L308.85 380.74L259.468 288.79ZM329.514 297.065L335.673 291.816L342.226 298.981L336.591 304.23L329.514 297.065ZM337.377 304.938L343.371 299.322C343.425 299.274 343.469 299.215 343.499 299.148C343.529 299.082 343.545 299.01 343.546 298.937C343.543 298.808 343.493 298.683 343.406 298.587L336.512 291.055L342.978 285.509L357.997 301.124L344.97 312.619L337.377 304.938ZM328.815 296.278L313.857 281.161L323.066 272.632L327.05 268.94L342.252 284.739L328.815 296.278ZM313.088 280.409L297.842 264.986L310.886 259.868L321.947 272.203L313.088 280.409ZM276.392 269.176L272.644 255.433L289.244 248.715L296.182 264.461L276.392 269.176ZM258.586 259.973L255.17 250.272L284.981 239.092L288.781 247.735L258.586 259.973ZM254.794 249.248L252.915 243.938L282.124 232.566L284.553 238.077L254.794 249.248ZM252.557 242.941L250.417 236.879L275.335 227.868C275.773 227.713 276.162 227.444 276.462 227.089L278.594 224.553L281.704 231.621L252.557 242.941ZM279.345 223.695C284.841 217.178 298.383 201.16 321.65 173.831C322.629 172.685 323.581 171.531 324.516 170.385L340.68 170.831L288.842 227.982L282.665 231.219L279.345 223.695ZM233.17 180.016L220.798 218.236C220.769 218.334 220.768 218.437 220.796 218.535C220.824 218.633 220.879 218.72 220.955 218.788L232.217 228.935C232.278 228.993 232.352 229.035 232.433 229.056C232.514 229.077 232.599 229.078 232.68 229.058L257.144 223.739C257.22 223.72 257.291 223.685 257.353 223.636C257.414 223.588 257.465 223.528 257.502 223.459L263.741 211.43L275.37 220.266L272.906 223.188L221.095 241.926C220.977 241.965 220.863 242.015 220.754 242.075L210.191 247.682L195.093 225.97L195.093 207.441C195.093 207.302 195.038 207.169 194.94 207.07C194.841 206.972 194.708 206.916 194.569 206.916L169.887 206.916L165.518 188.134L185.054 181.066C185.122 181.045 185.185 181.009 185.238 180.961L196.648 170.463L219.54 169.107C219.616 169.101 219.689 169.078 219.756 169.04C219.822 169.002 219.879 168.95 219.924 168.889L223.104 164.637L233.17 163.071L233.17 180.016ZM223.017 246.825L249.421 237.272L251.579 243.396L193.957 265.773L192.708 261.749C198.491 259.482 204.139 256.882 209.623 253.964L223.017 246.825ZM251.928 244.341L253.807 249.642L195.757 271.416L194.316 266.744L251.928 244.341ZM254.156 250.631L257.651 260.376L198.955 281.704L196.072 272.413L254.156 250.631ZM197.924 282.08L165.177 294.729C163.333 291.904 161.895 288.832 160.905 285.605L195.084 272.798L197.924 282.08ZM198.239 283.086L201.978 295.149L175.374 308.525L166.505 296.829L165.71 295.631L198.239 283.086ZM271.936 382.105L284.439 379.008L287.383 386.61C287.418 386.696 287.473 386.77 287.546 386.827C287.618 386.884 287.703 386.921 287.794 386.934L301.476 389.2L289.244 399.697L278.506 402.856L269.158 402.103L271.936 382.105ZM339.168 406.372L341.667 399.969L352.475 398.499L351.348 406.372L339.168 406.372ZM353.2 356.465L359.718 363.314L345.878 376.436L340.636 370.969L353.2 356.465ZM380.451 383.741L386.218 378.79C386.32 378.696 386.386 378.569 386.401 378.431L386.724 374.433C386.714 374.303 386.656 374.182 386.563 374.091C386.469 374.001 386.345 373.948 386.215 373.943C386.085 373.937 385.957 373.98 385.857 374.062C385.756 374.144 385.688 374.261 385.667 374.389L385.361 378.168L379.726 383.015L367.774 370.313L374.658 363.734C374.71 363.686 374.752 363.628 374.78 363.563C374.809 363.499 374.824 363.429 374.824 363.358C374.822 363.221 374.769 363.09 374.676 362.991C374.627 362.942 374.569 362.903 374.506 362.876C374.442 362.85 374.374 362.836 374.305 362.836C374.236 362.836 374.167 362.85 374.103 362.876C374.04 362.903 373.982 362.942 373.933 362.991L367.048 369.56L353.899 355.66L360.775 347.681L372.553 343.964L401.237 377.854L387.039 390.696L380.451 383.741ZM386.567 358.94L397.733 348.609L401.7 353.98L398.607 356.561C398.546 356.609 398.497 356.67 398.464 356.74C398.431 356.809 398.414 356.886 398.415 356.963C398.415 357.039 398.432 357.115 398.463 357.184C398.495 357.253 398.541 357.315 398.598 357.366L407.851 365.3L397.925 372.369L386.567 358.94ZM385.886 358.135L373.601 343.622L390.202 338.374L397.121 347.734L385.886 358.135ZM372.867 342.748L362.636 330.605L375.585 319.478L378.476 322.487L389.573 337.499L372.867 342.748ZM326.63 267.855L322.664 271.53L311.961 259.492L326.429 253.806L334.415 260.717L326.63 267.855ZM310.825 258.775L297.16 264.146L290.17 248.33L321.746 237.832L325.827 252.879L310.825 258.775ZM289.742 247.402L285.916 238.707L317.745 223.083L321.476 236.844L289.742 247.402ZM285.487 237.78L283.058 232.251L289.375 228.953C289.429 228.92 289.478 228.882 289.524 228.839L330.309 183.883L339.352 190.881L324.027 210.284C323.94 210.393 323.9 210.533 323.915 210.671C323.931 210.81 324.001 210.937 324.11 211.024C324.219 211.111 324.358 211.151 324.496 211.135C324.635 211.12 324.761 211.05 324.848 210.941L355.646 171.977L358.128 185.099L326.534 218.648L317.963 221.823L285.487 237.78ZM356.529 171.347L383.203 172.082L388.358 176.246L383.457 182.553L359.141 184.679L356.529 171.347ZM339.928 190.129L330.938 183.13L342.016 170.883L354.808 171.233L339.928 190.129ZM342.951 169.921L358.958 152.285C365.947 158.059 373.645 164.357 381.84 170.988L342.951 169.921ZM341.562 169.921L325.294 169.466C332.647 160.393 339.188 150.689 344.839 140.466C348.849 143.887 353.314 147.64 358.145 151.646L341.562 169.921ZM327.924 141.988C322.996 148.418 315.263 157.21 309.925 163.141C309.909 163.094 309.885 163.05 309.855 163.01L306.972 159.423L309.908 146.948L322.69 139.583L327.924 141.988ZM323.258 138.682L326.124 123.285C327.958 125.227 330.623 127.773 333.987 130.817C332.529 134.423 330.711 137.873 328.561 141.114L323.258 138.682ZM329.164 142.102C331.419 138.814 333.317 135.295 334.826 131.604C336.626 133.214 338.609 134.964 340.75 136.853C334.479 148.414 327.046 159.303 318.566 169.352L305.6 169.536C309.016 165.766 322.218 151.296 329.164 142.12L329.164 142.102ZM347.434 135.585C353.93 123.159 358.74 109.92 361.736 96.2185L366.978 97.6794L354.572 141.7C352.099 139.565 349.696 137.536 347.434 135.602L347.434 135.585ZM355.498 142.408L359.071 129.741L364.471 131.298L360.102 146.284L355.498 142.408ZM359.36 128.718L368.036 97.9244C369.923 98.4405 371.81 98.9654 373.645 99.4728L364.759 130.275L359.36 128.718ZM367.817 96.7696C365.825 96.2272 363.842 95.6761 361.937 95.1512L362.094 94.3639C363.886 86.7269 365.31 81.513 366.716 77.9263L387.275 102.158L367.817 96.7696ZM356.59 94.7488C356.211 96.3526 355.824 98.0497 355.428 99.8402C352.536 110.96 348.455 121.736 343.257 131.981C340.942 129.968 338.827 128.105 336.958 126.426C342.436 112.639 347.381 95.6586 348.316 92.4656C349.452 92.8155 352.562 93.6728 356.59 94.7488ZM323.581 120.214C324.067 120.968 324.62 121.677 325.233 122.331L322.192 138.673L309.182 146.161C309.119 146.196 309.064 146.243 309.021 146.301C308.977 146.358 308.946 146.424 308.929 146.494L305.889 159.484C305.87 159.563 305.87 159.645 305.889 159.724C305.907 159.803 305.943 159.876 305.993 159.939L309.034 163.727C309.104 163.806 309.195 163.864 309.296 163.893C306.631 166.85 304.674 168.976 304.15 169.545L255.327 170.227L234.201 166.483L234.201 162.459L234.795 117.188C246.249 114.563 259.259 111.641 273.998 108.291C283.024 106.244 288.982 104.888 289.769 104.722C292.8 104.057 307.994 98.7642 314.084 96.6297C317.526 106.655 321.047 115.98 323.581 120.214ZM165.649 130.432L165.754 122.953C165.815 117.817 165.868 113.767 165.972 112.245L165.972 111.939C165.972 105.876 156.589 71.0416 153.88 61.095L201.061 50.2562L201.2 50.2037C201.2 50.2037 201.27 50.2037 201.297 50.2037L249.132 34.3347L267.279 107.67C234.515 115.079 173.25 128.98 165.649 130.432ZM157.576 83.1926C160.94 96.3147 164.068 109.437 163.875 112.061C163.762 113.645 163.709 117.721 163.648 122.891L163.543 130.555C156.886 130.756 129.25 131.771 120.732 132.086L112.431 99.9977L115.664 91.1096L139.813 83.2364L157.576 83.1926ZM233.764 117.406L233.178 162.021L222.694 163.64C222.557 163.662 222.434 163.737 222.353 163.85L219.19 168.084L196.395 169.475C196.275 169.477 196.16 169.524 196.072 169.606L184.6 180.191L164.74 187.365C164.374 187.478 152.308 191.109 137.035 195.623L136.904 195.133C142.618 188.353 161.298 165.976 163.43 162.109C164.872 159.484 165.361 147.325 165.623 132.593C169.546 131.858 189.991 127.318 233.764 117.406ZM123.528 164.165C117.045 160.744 105.791 157.35 100.086 155.749L116.503 136.914L123.528 164.165ZM132.265 198.098L133.322 202.184L136.965 233.913C132.693 234.193 123.947 234.788 114.144 235.444L108.779 204.974C116.512 202.726 124.655 200.338 132.273 198.098L132.265 198.098ZM40.9968 214.72L39.791 214.912L40.3153 193.794L49.0524 177.488L60.3582 183.752L58.7943 188.808L54.4257 187.356C54.2936 187.312 54.1495 187.322 54.0249 187.384C53.9004 187.447 53.8057 187.556 53.7617 187.688C53.7176 187.82 53.7279 187.965 53.7902 188.09C53.8524 188.214 53.9616 188.309 54.0937 188.353L58.4622 189.814L50.5988 215.183C44.9547 215.113 41.154 214.728 41.0754 214.72C41.0526 214.71 41.0292 214.701 41.0055 214.693L40.9968 214.72ZM60.6989 182.719L49.5766 176.596L51.324 173.28L63.6433 173.28L62.892 175.712L60.6989 182.719ZM74.8793 175.843L74.8793 182.842L61.7736 182.842L63.7657 176.403L74.8793 175.843ZM56.1644 200.95L60.2097 200.95L60.2097 214.947C57.1691 215.122 54.3034 215.175 51.7609 215.166L56.1644 200.95ZM74.8793 167.708L66.448 167.708L68.6235 160.665L74.8705 159.983L74.8793 167.708ZM66.1422 168.74C66.1828 168.744 66.2238 168.744 66.2645 168.74L74.888 168.74L74.888 174.794L64.1064 175.231L66.1422 168.74ZM50.1707 173.271L39.4678 193.13L32.548 193.873L29.6472 174.199L33.5615 173.21L50.1707 173.271ZM31.4995 193.978L24.3962 194.739L20.1413 176.596L28.5988 174.461L31.4995 193.978ZM39.2668 194.214L38.7426 215.061L29.4725 216.583L24.6409 195.771L39.2668 194.214ZM38.7164 216.137L38.1048 240.71C36.0428 240.763 33.9634 240.815 31.8839 240.868L29.7084 217.615L38.7164 216.137ZM138.547 201.396C138.535 201.278 138.514 201.161 138.485 201.047L137.341 196.602C150.953 192.578 162.023 189.254 164.557 188.493L168.926 207.599C168.954 207.715 169.02 207.818 169.114 207.892C169.207 207.966 169.322 208.008 169.441 208.01L194.01 208.01L194.01 226.162C194.01 226.272 194.043 226.379 194.106 226.468L209.195 248.181L207.115 249.283C196.335 255.012 184.923 259.46 173.111 262.537C159.804 265.563 151.521 265.756 147.773 263.123C146.148 261.968 145.239 260.113 144.916 257.305L138.547 201.396ZM191.729 262.09L194.735 271.783L160.59 284.582C159.928 282.111 160.013 279.498 160.835 277.076C162.853 271.696 169.345 268.984 174.43 267.663C180.294 266.132 186.066 264.272 191.721 262.09L191.729 262.09ZM159.061 270.121C157.697 271.602 156.626 273.33 155.907 275.213C155.17 277.236 154.837 279.385 154.929 281.537L146.489 270.392L146.244 268.284C149.285 269.859 153.452 270.471 159.061 270.121ZM174.596 316.232L164.111 325.943C158.188 317.273 153.443 310.45 153.007 310.196C152.316 309.802 148.21 308.446 145.449 307.572C145.877 299.856 145.982 289.524 145.982 280.986L145.982 278.458L174.596 316.232ZM152.421 311.071C152.945 311.552 157.445 318.069 163.334 326.677L145.082 343.587L138.765 344.716C141.264 334.131 144.156 320.947 144.968 313.678C145.126 312.226 145.265 310.528 145.379 308.648C148.577 309.671 151.941 310.826 152.412 311.071L152.421 311.071ZM145.431 344.593C145.53 344.577 145.621 344.531 145.694 344.462L149.643 340.806L153.819 351.347L135.34 358.827C135.987 356.255 137.175 351.469 138.512 345.836L145.431 344.593ZM154.169 352.327L162.635 373.733L160.94 374.8L140.224 369.858L135.139 360.025L154.169 352.327ZM150.438 340.036L163.893 327.552C170.219 336.825 178.012 348.346 184.224 357.576L178.003 365.169L177.208 365.169C176.669 365.142 176.136 365.283 175.679 365.571L163.544 373.2L150.438 340.036ZM179.349 365.239L185.325 357.943L196.019 344.541L212.969 366.901L179.349 365.239ZM194.761 334.131L213.983 335.574C216.123 337.324 244.065 359.876 249.062 365.685C252.304 369.455 249.517 387.048 246.564 400.572C246.526 400.637 246.502 400.708 246.494 400.782L246.494 400.852L245.865 403.66L244.851 400.537C244.761 400.254 244.626 399.988 244.449 399.75L194.761 334.131ZM247.455 401.395L258.533 402.269L261.88 430.998L255.528 432.896C251.474 420.78 248.293 411.087 246.502 405.567C246.782 404.378 247.105 402.969 247.455 401.395ZM262.614 431.89C262.722 431.857 262.817 431.79 262.885 431.698C262.952 431.607 262.989 431.497 262.989 431.383L262.989 431.322L259.608 402.366L278.087 403.853L281.844 432.861L259.652 445.109L255.877 433.92L262.614 431.89ZM295.107 426.746L303.975 426.222L314.145 451.591L269.49 473.619C266.117 463.996 262.911 454.688 259.992 446.097L295.107 426.746ZM284.456 467.416L290.468 484.965L275.265 490.021C273.413 484.86 271.587 479.716 269.804 474.642L284.456 467.416ZM291.306 485.787L296.985 483.898L306.02 510.763L285.217 516.983C282.019 508.532 278.804 499.784 275.658 491.036L291.306 485.787ZM314.128 509.407L324.7 542.711C319.789 544.32 310.72 547.785 299.362 552.264C294.993 542.186 290.345 530.393 285.627 517.936L314.128 509.407ZM335.263 582.182C332.257 575.376 329.82 569.935 327.845 565.561L342.785 560.688L350.291 576.889L335.263 582.182ZM360.146 574.527L362.182 580.266L354.537 583.433L351.732 577.511L360.146 574.527ZM350.736 577.843L353.794 584.317C353.853 584.439 353.956 584.534 354.083 584.583C354.21 584.632 354.35 584.63 354.476 584.579L363.047 581.036C363.144 580.995 363.226 580.927 363.285 580.84C363.344 580.753 363.377 580.651 363.379 580.546C363.387 580.488 363.387 580.429 363.379 580.371L361.142 574.143L373.199 569.891L379.237 586.871L355.734 595.514L343.152 600.133C340.339 593.721 337.858 588.087 335.673 583.144L350.736 577.843ZM351.287 576.531L343.799 560.356L353.366 557.233C353.716 557.644 354.056 558.046 354.397 558.475C358.503 563.601 363.912 566.348 372.203 567.127L372.841 568.929L351.287 576.531ZM343.353 559.385L337.63 547.024C342.943 548.135 348.001 551.284 352.606 556.384L343.353 559.385ZM342.34 559.717L327.408 564.581C323.572 556.078 321.58 551.887 320.497 549.814C323.252 548.739 326.06 547.808 328.911 547.024C331.366 546.532 333.887 546.467 336.364 546.831L342.34 559.717ZM319.553 550.164C320.785 552.587 323.223 557.862 326.403 564.913L307.653 571.037L301.634 557.591L301.441 557.154C308.143 554.503 314.582 552.019 319.553 550.164ZM296.837 559.726C300.244 567.363 303.617 574.851 306.876 582.086L298.252 585.209C298.128 585.253 298.025 585.342 297.963 585.459C297.902 585.575 297.886 585.711 297.92 585.839L299.178 590.554L252.409 610.473L243.191 592.321C244.612 590.536 246.269 588.431 248.162 586.005C251.526 581.701 256.026 575.91 257.406 574.545C259.031 574.011 263.286 572.323 276.628 566.987C282.412 564.668 289.463 561.851 296.505 559.113L296.837 559.726ZM308.108 571.973L326.858 565.849C329.042 570.722 331.567 576.347 334.275 582.471L315.788 589.014C313.289 583.538 310.72 577.834 308.09 571.982L308.108 571.973ZM334.677 583.503C337.071 588.9 339.596 594.639 342.174 600.5L324.018 607.175L316.216 590.011L334.677 583.503ZM355.646 596.686L358.687 605.373L347.46 609.808L344.917 604.017L343.642 601.104L355.646 596.686ZM359.543 606.169C359.641 606.13 359.725 606.063 359.785 605.976C359.844 605.888 359.875 605.785 359.875 605.679C359.884 605.621 359.884 605.562 359.875 605.504L356.669 596.328L364.585 593.388L368.254 601.953C368.298 602.068 368.382 602.164 368.49 602.224C368.598 602.284 368.724 602.304 368.845 602.279C368.967 602.255 369.076 602.189 369.153 602.093C369.23 601.996 369.271 601.875 369.268 601.751C369.28 601.682 369.28 601.611 369.268 601.541L365.615 593.021L379.656 587.868L386.986 608.382C386.946 608.377 386.905 608.377 386.864 608.382L352.588 621.653L347.835 610.771L359.543 606.169ZM391.172 539.308L376.616 543.437L374.291 538.835L388.48 534.461L391.172 539.308ZM384.855 527.734L387.974 533.534L373.994 537.838L373.872 537.899L371.373 533.027L384.855 527.734ZM375.882 544.189C376.008 550.247 376.981 556.257 378.774 562.044C368.114 562.324 362.47 560.067 358.556 555.177C349.155 543.411 339.334 540.874 331.759 541.329L332.79 535.537L366.577 525.766L375.882 544.189ZM362.4 517.123L366.087 524.76L348.928 529.72L343.633 510.632L358.005 505.558L362.4 517.123ZM369.993 508.147C369.887 508.104 369.77 508.096 369.659 508.122C369.548 508.149 369.448 508.21 369.372 508.296L363.064 515.907L357.114 500.239L393.539 492.033L396.58 504.447L390.219 516.939L369.993 508.147ZM410.052 525.556L391.189 517.359L397.375 505.217L414.674 513.781L410.052 525.556ZM429.038 504.805L418.047 506.056C417.952 506.067 417.862 506.103 417.785 506.159C417.708 506.216 417.648 506.292 417.61 506.38L415.059 512.836L397.585 504.158L394.553 491.815L426.417 484.624L429.038 504.805ZM407.554 418.252L407.554 418.375L415.146 436.982C415.089 436.969 415.029 436.969 414.971 436.982L406.182 440.402C406.071 440.446 405.978 440.526 405.918 440.629C405.858 440.732 405.834 440.852 405.85 440.971L408.095 455.711L382.338 459.455L378.983 454.88C378.921 454.79 378.831 454.723 378.727 454.688C378.623 454.653 378.511 454.653 378.407 454.688L367.878 457.942C367.745 457.983 367.633 458.075 367.568 458.198C367.502 458.321 367.488 458.465 367.529 458.598C367.569 458.732 367.661 458.843 367.784 458.909C367.907 458.975 368.051 458.989 368.184 458.948L378.442 455.842L381.762 460.365C381.819 460.443 381.897 460.504 381.986 460.543C382.075 460.581 382.172 460.595 382.268 460.584L408.855 456.717C408.925 456.708 408.991 456.684 409.051 456.649C409.111 456.613 409.164 456.566 409.205 456.509C409.247 456.453 409.276 456.389 409.293 456.321C409.309 456.253 409.312 456.183 409.301 456.114L407.047 441.242L415.434 437.97C415.499 437.939 415.556 437.895 415.6 437.839L433.145 480.941L356.398 498.227L352.326 462.579C352.335 462.529 352.335 462.479 352.326 462.43L349.382 455.431L361.841 447.558L365.729 451.442C365.817 451.531 365.934 451.586 366.059 451.597C366.183 451.608 366.308 451.575 366.411 451.503L375.392 445.056C375.46 445.007 375.515 444.942 375.552 444.868C375.59 444.793 375.61 444.711 375.611 444.627C375.611 444.549 375.593 444.471 375.558 444.4L366.28 425.425L366.603 415.566L369.014 414.07L376.222 409.495L382.539 418.103L377.297 422.145C377.242 422.187 377.197 422.24 377.163 422.3C377.129 422.361 377.107 422.427 377.098 422.496C377.09 422.564 377.095 422.634 377.113 422.701C377.131 422.767 377.163 422.83 377.205 422.884C377.248 422.939 377.3 422.984 377.361 423.019C377.421 423.053 377.487 423.075 377.555 423.083C377.624 423.092 377.694 423.087 377.76 423.068C377.827 423.05 377.889 423.019 377.944 422.976L383.186 418.961L386.593 423.597C386.64 423.665 386.703 423.72 386.776 423.758C386.849 423.797 386.93 423.816 387.013 423.816L395.182 423.816C395.308 423.816 395.429 423.769 395.523 423.685L406.881 413.729L407.554 418.252ZM406.68 412.54L394.963 422.801L387.275 422.801L376.869 408.629L376.152 402.908L387.362 391.824L401.586 378.956L406.68 412.54ZM430.925 352.292L438.57 358.896L422.442 373.051L412.691 384.24L404.024 388.167L402.451 377.827C402.438 377.75 402.405 377.678 402.355 377.617L398.659 373.243L409.039 365.842L430.925 352.292ZM421.428 356.893L408.768 364.688L399.769 356.972L402.766 354.47L411.791 346.509L421.428 356.893ZM411.083 345.722L402.512 353.289L398.519 347.891L406.383 340.639L411.083 345.722ZM405.413 340.088L397.89 347.043L391.25 338.059L395.942 336.58L405.413 340.088ZM409.292 322.662L413.311 326.013L406.156 339.24L396.396 335.627L392.945 322.365L396.091 319.836L409.292 322.662ZM442.886 291.169L423.997 309.452L416.291 311.989C416.208 312.017 416.134 312.064 416.073 312.127C416.012 312.189 415.967 312.265 415.941 312.348L413.862 319.828L409.493 321.577L396.073 318.708C395.997 318.694 395.919 318.696 395.844 318.715C395.768 318.733 395.698 318.766 395.636 318.813L392.036 321.717C391.956 321.779 391.895 321.864 391.863 321.961C391.83 322.057 391.827 322.161 391.853 322.26L395.348 335.627L390.595 337.166L379.237 321.805L371.653 313.931L421.018 268.214L442.886 291.169ZM420.301 267.427L406.47 280.208L394.317 265.835L408.681 255.179L420.301 267.427ZM407.903 254.48L393.793 264.977L386.488 246.239L392.334 241.078L401.175 248.706L407.903 254.48ZM431.886 225.305L422.048 229.329C421.939 229.375 421.847 229.454 421.786 229.556L408.593 253.692L402.241 248.199L424.958 220.065L431.886 225.305ZM424.145 219.426L401.429 247.516L393.041 240.273L414.884 212.401L424.145 219.426ZM414.045 211.763L392.587 239.162L388.629 222.724L402.084 202.691L414.045 211.763ZM421.297 202.499L414.692 210.932L402.67 201.816L408.864 192.596C412.971 195.876 417.129 199.183 421.297 202.499ZM408.069 191.931L387.624 222.331C387.585 222.391 387.559 222.458 387.547 222.529C387.535 222.6 387.537 222.672 387.554 222.742L391.739 240.159L386.191 245.058L380.949 221.333C380.935 221.263 380.906 221.197 380.866 221.139C380.825 221.08 380.773 221.03 380.712 220.993C380.652 220.955 380.584 220.93 380.514 220.92C380.443 220.909 380.371 220.913 380.303 220.931L358.547 226.792C358.413 226.831 358.3 226.92 358.23 227.04C358.16 227.161 358.139 227.304 358.171 227.439L364.453 250.832L355.961 253.535L350.666 236.765L347.713 229.661C347.668 229.553 347.587 229.462 347.484 229.405C347.381 229.348 347.261 229.327 347.145 229.346L334.179 231.376L334.136 231.376L330.082 232.391C330.014 232.407 329.951 232.437 329.895 232.478C329.839 232.519 329.792 232.57 329.756 232.63C329.721 232.689 329.697 232.755 329.687 232.824C329.677 232.892 329.68 232.962 329.697 233.029C329.732 233.164 329.819 233.28 329.938 233.352C330.057 233.424 330.2 233.446 330.335 233.414L333.83 232.54L340.295 258.565L335.289 260.087L326.954 252.879L318.758 222.602L326.997 219.549C327.071 219.516 327.139 219.472 327.198 219.417L358.914 185.729L383.806 183.498C383.952 183.481 384.087 183.409 384.182 183.297L389.214 176.814C395.313 181.757 401.621 186.805 408.069 191.931ZM401.813 156.764L414.919 164.13L416.448 165.004L406.837 184.25C400.66 179.299 394.186 174.102 387.712 168.862L388.812 154.612L401.813 156.764ZM386.681 167.979C377.856 160.84 369.058 153.658 361.063 146.983L365.659 131.053L374.693 99.7352C381.683 101.651 387.502 103.234 388.524 103.549L391.407 106.952L386.681 167.979ZM409.257 107.486L399.332 113.741L389.171 102.762L367.171 76.8328C367.872 74.9819 368.972 73.3089 370.395 71.9338C373.82 68.9595 390.691 53.5629 397.226 47.5967L432.175 82.3878L409.257 107.486ZM441.978 71.7589L432.926 81.6267L425.936 74.6983L434.28 64.6117L441.978 71.7589ZM433.503 63.8856L425.237 73.9197L418.519 67.2361L424.084 55.1376L433.503 63.8856ZM417.68 66.4576L397.995 46.8794C398.738 46.2059 399.288 45.7072 399.577 45.436C400.546 44.8674 403.744 42.9953 408.156 40.3883L425.832 48.7253L417.68 66.4576ZM402.067 37.8864L396.711 41.027C396.55 41.1199 396.4 41.2314 396.265 41.3594L394.264 43.1352L394.116 42.9866L396.999 35.8831L402.067 37.8864ZM397.392 34.9471L400.363 27.6337L400.407 27.6337L411.896 32.0514C408.873 33.8011 405.955 35.5507 403.229 37.1778L397.392 34.9471ZM434.342 30.2319L426.277 47.7804L409.266 39.7585C414.718 36.5392 421.76 32.3576 428.732 28.1586C430.558 28.8147 432.437 29.5145 434.342 30.2143L434.342 30.2319ZM422.407 25.8053C419.288 27.6861 416.133 29.567 413.058 31.3866L400.826 26.6802C400.812 26.676 400.797 26.676 400.782 26.6802L403.98 18.8069C408.436 20.539 414.858 22.9709 422.407 25.7878L422.407 25.8053ZM439.523 3.76896L433.494 19.0518C431.747 20.1015 429.999 21.1863 428.164 22.2798C424.023 20.7489 420.179 19.3143 416.728 18.0283L425.465 -1.99605L439.523 3.76896ZM424.504 -2.35469L415.766 17.6871C411.844 16.2175 408.497 14.9402 405.902 13.9255L414.22 -6.58876L424.504 -2.35469ZM404.033 -10.7616L413.215 -6.99111L409.091 3.18284C409.05 3.12272 408.996 3.072 408.934 3.0341L399.646 -1.33992L404.033 -10.7616ZM398.72 -0.64876L408.48 3.98765C408.568 4.01274 408.662 4.01274 408.751 3.98765L404.897 13.4968C402.372 12.5083 400.721 11.8172 400.179 11.5198C399.201 10.8461 395.811 9.184 391.154 7.00578L395.523 -2.22341L398.72 -0.64876ZM386.488 -6.77242C386.495 -6.6797 386.526 -6.59035 386.578 -6.51351C386.63 -6.43666 386.702 -6.37508 386.785 -6.33504L394.579 -2.6346L390.21 6.60332C387.86 5.5186 385.222 4.31132 382.426 3.04289L386.488 -6.77242ZM397.165 15.8588C399.041 16.8281 400.979 17.6727 402.967 18.387L393.303 42.2079L363.213 12.2808C362.944 8.3065 363.07 4.31535 363.588 0.365951C378.642 7.04076 395.383 14.6078 397.165 15.85L397.165 15.8588ZM338.958 -10.3416C339.579 -10.1055 340.103 -9.89546 340.487 -9.72926C343.371 -8.52205 350.404 -5.45149 358.582 -1.85603C357.803 3.02245 357.595 7.9752 357.962 12.902C353.392 0.943344 346.446 -5.63521 338.958 -10.3504L338.958 -10.3416ZM364.148 19.4018C363.782 17.5744 363.514 15.7288 363.344 13.873L392.875 43.2402L392.133 45.0773C384.82 51.7521 370.028 65.1979 366.943 67.9273C365.982 68.7726 365.139 69.7436 364.436 70.8141C365.441 53.1868 366.035 28.8759 364.148 19.428L364.148 19.4018ZM307.732 35.9006L340.549 60.019C340.595 60.0554 340.649 60.0822 340.706 60.0978L359.438 65.7489C358.993 74.9082 358.399 83.0089 357.848 87.4879C357.708 88.7039 357.394 90.8384 356.826 93.7253C351.933 92.3781 348.377 91.3983 348.089 91.3196C343.588 90.8468 339.061 90.6685 334.538 90.7859L309.2 63.5533L307.959 59.3279C307.811 58.8129 307.505 58.3572 307.086 58.0245L295.64 48.6816L307.732 35.9006ZM303.128 61.5936C304.211 65.2941 308.649 80.3583 313.429 94.5826C307.409 96.6996 292.232 101.983 289.34 102.613C288.554 102.788 282.587 104.144 273.561 106.191C272.216 106.497 270.792 106.821 269.306 107.154L251.107 33.6261L263.688 29.4445L303.128 61.5936ZM191.074 -7.69972L257.406 25.9803L202.362 44.2288L191.074 -7.69972ZM125.091 39.9684C129.906 34.8246 166.278 4.97625 172.98 -0.526313L188.182 3.76897L197.312 45.6984L111.322 65.4603C115.192 56.9747 121.632 43.6863 125.091 39.9947L125.091 39.9684ZM151.827 61.5411C153.295 66.8862 155.322 74.4621 157.305 82.1429L139.735 82.1429C139.68 82.1337 139.624 82.1337 139.569 82.1429L116.127 89.8061L124.113 67.936L151.827 61.5411ZM9.65673 151.506L12.2779 117.494L27.1921 112.245L28.5289 132.129C28.5248 132.167 28.5248 132.205 28.5289 132.243L34.243 151.489L9.65673 151.506ZM35.37 151.506L29.5773 131.998L28.1969 111.825L33.1683 110.075L53.3947 151.506L35.37 151.506ZM54.5917 151.506L34.1818 109.717L39.4765 107.871L39.5551 107.871C41.7569 107.057 50.2144 102.692 60.6378 97.1721L82.4806 141.087C82.5112 141.15 82.5539 141.205 82.6062 141.251C82.6585 141.297 82.7193 141.331 82.7851 141.353C82.851 141.375 82.9205 141.384 82.9897 141.379C83.0589 141.374 83.1264 141.355 83.1883 141.323C83.3118 141.261 83.4058 141.153 83.45 141.022C83.4941 140.891 83.4849 140.748 83.4242 140.624L61.5814 96.6734C77.8936 88.0215 98.5831 76.7628 107.722 71.7764L117.997 69.3795L107.233 99.0091C107.05 99.5082 107.022 100.051 107.154 100.566L115.891 134.465L97.6919 155.347L80.4273 157.201L74.7133 145.715C74.6583 145.602 74.5646 145.512 74.4491 145.462C74.3336 145.413 74.2041 145.406 74.0842 145.444L55.7363 151.506L54.5917 151.506ZM9.59557 152.556L54.0325 152.556C54.1059 152.597 54.1886 152.619 54.2728 152.619C54.357 152.619 54.4397 152.597 54.5131 152.556L55.7887 152.556C55.8437 152.564 55.8996 152.564 55.9547 152.556L73.9619 146.616L79.2915 157.35L19.3549 163.858L19.3986 163.762L20.9189 156.956L26.9824 156.956L26.4058 162.363C26.3989 162.431 26.4056 162.501 26.4256 162.567C26.4456 162.634 26.4784 162.695 26.5222 162.749C26.5661 162.803 26.62 162.847 26.681 162.88C26.7419 162.913 26.8087 162.933 26.8776 162.94C26.9464 162.947 27.0159 162.94 27.0822 162.92C27.1484 162.9 27.2101 162.867 27.2636 162.823C27.3172 162.779 27.3616 162.725 27.3943 162.664C27.427 162.603 27.4473 162.536 27.4542 162.468L28.092 156.484L28.092 156.423C28.0912 156.293 28.0412 156.168 27.9522 156.073C27.9049 156.017 27.8459 155.973 27.7795 155.942C27.713 155.912 27.6408 155.897 27.5678 155.898L20.4907 155.898C20.3723 155.899 20.2578 155.94 20.1657 156.015C20.0737 156.089 20.0096 156.193 19.984 156.309L18.3938 163.552C18.3781 163.625 18.3786 163.7 18.3952 163.773C18.4118 163.846 18.4441 163.914 18.4899 163.972L8.62575 165.048L9.59557 152.556ZM36.1477 164.165L34.54 172.16L33.4916 172.16C33.4513 172.151 33.4095 172.151 33.3693 172.16L19.9316 175.555L17.7473 166.159L36.1477 164.165ZM8.70438 167.165L16.6901 166.29L18.9093 175.826L10.4693 177.96L8.70438 167.165ZM10.6353 179.001L19.154 176.858L23.339 194.853L13.3962 195.903L10.6353 179.001ZM13.571 196.952L23.5749 195.885L28.4328 216.758L17.0745 218.621L13.571 196.952ZM17.2755 219.697L28.6337 217.825L30.8268 240.841C27.428 240.929 24.0468 240.999 20.7791 241.06L17.2755 219.697ZM63.7307 241.874L63.7307 258.924L55.4305 260.087L54.8276 242.285C58.139 242.162 61.1533 242.022 63.7307 241.874ZM25.8379 243.116L21.015 244.778L21.015 243.221C22.5964 243.186 24.2128 243.151 25.8379 243.116ZM6.8259 243.466C10.7314 243.396 15.2135 243.317 19.9316 243.221L19.9316 245.119L7.0356 249.589L6.8259 243.466ZM7.82194 268.459L7.11423 250.674L19.9665 246.256L19.9665 269.106L7.82194 268.459ZM31.8665 291.913C29.1754 288.02 21.9673 278.187 21.0237 276.892L21.0237 245.889L29.3152 243.037C37.7728 242.845 46.44 242.609 53.7791 242.329L54.4082 260.7C54.409 260.774 54.4257 260.848 54.4574 260.916C54.489 260.984 54.5348 261.044 54.5917 261.093C54.6487 261.139 54.7145 261.173 54.7852 261.193C54.8558 261.212 54.9298 261.217 55.0023 261.207L64.3336 259.895C64.4594 259.876 64.5744 259.813 64.6577 259.716C64.741 259.62 64.7872 259.497 64.7879 259.37L64.7879 241.795C67.9857 241.603 70.3884 241.393 71.6815 241.165C79.7109 239.765 125.773 236.739 137.21 235.995L140.591 265.397C140.591 266.499 140.731 274.6 140.696 284.109L117.927 284.109C117.869 284.1 117.81 284.1 117.752 284.109L40.1318 312.698C39.1794 309.767 34.5226 295.753 31.8665 291.913ZM69.1303 374.958C66.6751 372.5 56.5576 367.085 55.0286 366.254L39.6862 324.569L40.3065 313.757L118.067 285.185L140.783 285.185C140.731 295.333 140.512 306.819 139.813 313.092C138.555 324.464 131.732 351.863 130.142 358.179L93.8825 371.87C93.5313 372.002 93.2125 372.208 92.9476 372.473L77.5528 387.809C75.0802 383.601 70.9301 376.76 69.1303 374.958ZM54.216 517.91L20.316 516.405L26.4844 492.943L26.4844 492.803C26.4854 492.707 26.458 492.613 26.4058 492.532C26.3276 492.41 26.2057 492.322 26.065 492.287L14.2088 489.899L19.5646 469.113L25.8816 470.294C31.0801 473.724 35.1254 476.365 36.7243 477.371L56.8372 507.657L54.216 517.91ZM45.077 480.398C50.7212 482.27 59.9301 485.323 69.1914 488.569L62.4726 506.616L45.077 480.398ZM63.1716 507.657L70.1612 488.875C83.1533 493.442 95.9707 498.323 98.8714 500.764C99.6973 501.484 100.466 502.268 101.169 503.108L89.3742 521.812L81.3448 523.404L74.4599 524.725L63.1716 507.657ZM101.877 503.966C107.486 511.034 113.235 523.727 114.45 527.585C115.037 528.951 115.705 530.28 116.45 531.566C116.45 535.599 116.957 540.987 117.412 545.79C113.724 540.821 104.061 534.82 103.161 534.269L90.3702 522.153L101.877 503.966ZM89.3742 522.931L94.4067 535.135L91.3138 537.033L82.3583 524.279L89.3742 522.931ZM58.104 539.553L57.1692 545.93L39.9571 550.881L38.4281 546.262L58.104 539.553ZM16.4018 553.812L22.3518 550.427C22.6975 550.711 23.1103 550.902 23.5508 550.982C23.9912 551.062 24.4447 551.027 24.8681 550.881L37.4233 546.604L38.9435 551.17L34.741 552.386C34.6391 552.412 34.5477 552.469 34.4789 552.549C34.4102 552.629 34.3675 552.727 34.3566 552.832L33.7624 558.081L25.1389 564.117L16.4018 553.812ZM25.8291 564.975L34.5663 558.851C34.6264 558.808 34.6769 558.754 34.7145 558.69C34.7522 558.627 34.7761 558.557 34.7847 558.483L35.3788 553.34L57.7895 546.901C57.8879 546.873 57.976 546.816 58.0427 546.739C58.1095 546.661 58.1521 546.565 58.1652 546.464L59.2311 539.212L74.39 534.05C75.7443 536.045 78.2169 539.806 81.0826 544.705L79.4401 554.731C79.3595 554.713 79.276 554.713 79.1954 554.731L42.8578 562.586C42.7879 562.6 42.7217 562.629 42.6631 562.669C42.6045 562.71 42.5548 562.762 42.517 562.823C42.4806 562.885 42.4572 562.955 42.4482 563.027C42.4392 563.099 42.4448 563.173 42.4646 563.242L45.8633 575.665L37.7029 578.963L25.8291 564.975ZM60.2272 559.901L79.2566 555.772L76.1811 574.589L64.1589 577.353L60.2272 559.901ZM63.1279 577.589L48.3884 580.992L43.6004 563.496L59.1962 560.146L63.1279 577.589ZM77.2558 574.519L81.9039 546.149C86.4298 554.022 91.6982 564.52 95.0096 575.324L77.2558 574.519ZM22.9808 589.18L24.3613 583.695L39.4328 582.891L41.0317 597.684L27.3144 600.824L22.9808 589.18ZM27.4805 601.865L41.1104 598.742L43.6266 621.644L25.7767 620.866L27.4805 601.865ZM8.51218 623.245L9.65675 617.778L24.6322 621.767L24.2303 626.263L8.51218 623.245ZM30.2501 637.181L25.2438 626.797L25.6806 621.924L43.5393 622.694L39.4678 638.327L30.2501 637.181ZM54.1374 643.121L39.6687 641.756L42.2374 631.88L56.0246 633.559L54.1374 643.121ZM76.8539 625.345L58.8991 623.744L58.1914 609.747L76.5394 606.887L76.8539 625.345ZM57.5449 608.724C57.4177 608.748 57.3033 608.817 57.2218 608.918C57.1403 609.019 57.0969 609.145 57.0993 609.275L57.8594 624.146L56.2256 632.518L42.4996 630.856L44.7188 622.336L44.7188 622.239L44.7188 622.143L40.4114 582.322C40.3938 582.244 40.3611 582.169 40.3153 582.103L38.4281 579.881L46.1255 576.758L47.5059 581.753C47.541 581.884 47.6251 581.996 47.7406 582.066C47.8562 582.136 47.9944 582.159 48.1263 582.13L76.085 575.682L76.5394 605.784L57.5449 608.724ZM98.3035 591.639C98.5089 595.218 98.471 598.807 98.1899 602.381L77.6227 605.636L77.1684 575.595L95.3766 576.4C96.9099 581.356 97.8915 586.466 98.3035 591.639ZM101.012 576.863C94.5727 553.243 78.6275 530.822 77.5791 529.379L75.089 525.626L81.205 524.454L90.7284 538.004C90.8045 538.113 90.919 538.189 91.0487 538.216C91.1784 538.244 91.3137 538.221 91.4274 538.153L95.3329 535.765C95.4417 535.702 95.5234 535.601 95.5622 535.482C95.6009 535.362 95.5939 535.232 95.5426 535.117L91.1128 524.375L102.471 535.126L102.558 535.196C102.698 535.284 116.171 543.551 117.656 548.458L117.656 548.659L117.726 549.412L108.037 549.412C107.918 549.414 107.802 549.455 107.709 549.53C107.616 549.604 107.55 549.707 107.521 549.823L101.012 576.863ZM105.896 561.064L108.456 550.523L117.866 550.523C118.058 552.552 118.215 554.258 118.259 555.282C118.139 557.871 117.773 560.443 117.167 562.963L105.896 561.064ZM161.246 627.549L155.584 626.325C155.481 626.298 155.373 626.298 155.269 626.325L138.966 633.034L128.045 632.588L113.244 594.517L114.284 579.689C114.642 578.35 119.526 559.822 119.351 555.194C119.29 553.856 119.045 551.406 118.775 548.572C118.338 544.154 117.761 538.293 117.595 533.639C127.145 550.759 156.134 599.057 170.69 623.237L161.246 627.549ZM175.47 620.98C151.652 581.421 120.863 529.807 119.491 526.063C118.058 521.409 109.88 503.152 102.261 496.722C97.0978 492.348 71.0612 483.39 46.274 475.193C43.1286 474.152 40.4026 473.251 39.7561 473.006C38.8212 472.446 33.7362 469.113 26.7378 464.494L30.3113 424.551L63.023 409.53C63.3079 409.398 63.5679 409.217 63.7919 408.997L96.1978 376.55L131.015 363.428L136.135 373.322C136.31 373.662 136.557 373.959 136.859 374.194C137.161 374.428 137.51 374.593 137.883 374.678L160.809 380.189C161.499 380.35 162.225 380.23 162.827 379.857L177.794 370.444L217.111 372.395L239.976 402.584C242.291 409.758 272.504 503.318 294.408 554.232C288.292 556.655 281.626 559.306 274.68 562.105C265.864 565.604 257.502 568.964 255.807 569.541C254.401 569.62 253.518 570.591 243.995 582.768C240.107 587.746 235.258 593.948 234.052 595.015C232.479 596.389 223.83 599.722 216.377 602.154C216.281 602.154 216.185 602.224 216.089 602.268L175.47 620.98ZM246.616 639.543L241.374 629.273C241.316 629.167 241.223 629.083 241.112 629.037L226.538 622.589C226.495 622.581 226.45 622.581 226.407 622.589L218.116 621.347L213.607 609.24L218.177 607.131C221.2 606.143 234.428 601.716 237.538 598.987C239.307 597.19 240.956 595.279 242.475 593.266L251.675 611.392C251.733 611.512 251.836 611.605 251.962 611.65C252.087 611.696 252.226 611.691 252.348 611.637L287.637 596.599L296.234 618.688L246.616 639.543ZM297.186 618.285L288.624 596.188L299.493 591.551L308.064 613.71L297.186 618.285ZM309.034 613.299L300.297 590.694L299.056 586.031L307.295 583.048C311.454 592.26 315.43 601.017 319.099 609.065L309.034 613.299ZM333.952 628.862C331.165 622.738 327.959 615.801 324.464 608.137L342.602 601.463L351.61 622.029L333.952 628.862ZM361.911 643.007L353.025 622.616L387.205 609.388C387.205 609.388 387.257 609.388 387.292 609.327L395.313 631.783L361.911 643.007ZM396.326 631.451L390.516 615.206C390.554 615.209 390.592 615.209 390.63 615.206L399.253 611.847L406.042 628.206L396.326 631.451Z" fill="#2C5DEB"/>
</g>
</svg>
