<svg width="180" height="52" viewBox="0 0 180 52" fill="none" xmlns="http://www.w3.org/2000/svg">
<path d="M173.095 52.0003H6.6575C2.99754 52.0003 0 49.0737 0 45.5003V6.50031C0 2.92693 2.99754 0.000307924 6.6575 0.000307924H173.095C176.755 0.000307924 179.753 2.92693 179.753 6.50031V45.5003C179.753 49.0737 176.755 52.0003 173.095 52.0003Z" fill="black"/>
<path d="M173.095 1.04193C176.177 1.04193 178.686 3.49081 178.686 6.50031V45.5003C178.686 48.5098 176.177 50.9587 173.095 50.9587H6.6575C3.57508 50.9587 1.06686 48.5098 1.06686 45.5003V6.50031C1.06686 3.49081 3.57508 1.04193 6.6575 1.04193H173.095ZM173.095 0.000307924H6.6575C2.99754 0.000307924 0 2.92693 0 6.50031V45.5003C0 49.0737 2.99754 52.0003 6.6575 52.0003H173.095C176.755 52.0003 179.753 49.0737 179.753 45.5003V6.50031C179.753 2.92693 176.755 0.000307924 173.095 0.000307924Z" fill="#A6A6A6"/>
<path d="M63.1364 13.3172C63.1364 14.4027 62.8036 15.2721 62.1478 15.9205C61.3938 16.6891 60.4119 17.0759 59.2085 17.0759C58.0584 17.0759 57.0764 16.6826 56.2709 15.9075C55.4637 15.121 55.0609 14.1557 55.0609 13.0004C55.0609 11.845 55.4637 10.8797 56.2709 10.0997C57.0764 9.31812 58.0584 8.92487 59.2085 8.92487C59.7811 8.92487 60.327 9.04024 60.8479 9.25474C61.3672 9.47087 61.79 9.76337 62.0962 10.1241L61.4005 10.8099C60.8662 10.194 60.1389 9.89012 59.2085 9.89012C58.3697 9.89012 57.6423 10.1761 57.0249 10.753C56.414 11.3315 56.1078 12.0806 56.1078 13.0004C56.1078 13.9201 56.414 14.6757 57.0249 15.2542C57.6423 15.8246 58.3697 16.1171 59.2085 16.1171C60.099 16.1171 60.8479 15.8246 61.4388 15.2477C61.8282 14.8659 62.0496 14.3394 62.1079 13.6666H59.2085V12.7274H63.0765C63.1231 12.9305 63.1364 13.1271 63.1364 13.3172Z" fill="white"/>
<path d="M69.273 10.0607H65.6396V12.5307H68.9151V13.47H65.6396V15.94H69.273V16.8971H64.6111V9.10361H69.273V10.0607Z" fill="white"/>
<path d="M73.6037 16.8971H72.5751V10.0607H70.3465V9.10361H75.8339V10.0607H73.6037V16.8971Z" fill="white"/>
<path d="M79.8052 16.8971V9.10361H80.8321V16.8971H79.8052Z" fill="white"/>
<path d="M85.3841 16.8971H84.3639V10.0607H82.127V9.10361H87.621V10.0607H85.3841V16.8971Z" fill="white"/>
<path d="M98.0101 15.8945C97.2229 16.6826 96.2475 17.0759 95.0841 17.0759C93.9141 17.0759 92.9388 16.6826 92.1515 15.8945C91.3659 15.108 90.9748 14.1427 90.9748 13.0004C90.9748 11.858 91.3659 10.8927 92.1515 10.1062C92.9388 9.31812 93.9141 8.92487 95.0841 8.92487C96.2409 8.92487 97.2162 9.31812 98.0035 10.1127C98.7957 10.9057 99.1868 11.8645 99.1868 13.0004C99.1868 14.1427 98.7957 15.108 98.0101 15.8945ZM92.9121 15.2412C93.5046 15.8246 94.2253 16.1171 95.0841 16.1171C95.9363 16.1171 96.6636 15.8246 97.2495 15.2412C97.8403 14.6579 98.1399 13.9087 98.1399 13.0004C98.1399 12.092 97.8403 11.3429 97.2495 10.7595C96.6636 10.1761 95.9363 9.88362 95.0841 9.88362C94.2253 9.88362 93.5046 10.1761 92.9121 10.7595C92.3213 11.3429 92.0217 12.092 92.0217 13.0004C92.0217 13.9087 92.3213 14.6579 92.9121 15.2412Z" fill="white"/>
<path d="M100.63 16.8971V9.10361H101.878L105.759 15.1649H105.804L105.759 13.6666V9.10361H106.786V16.8971H105.714L101.65 10.5369H101.605L101.65 12.0416V16.8971H100.63Z" fill="white"/>
<path d="M90.7218 28.2786C87.5944 28.2786 85.0396 30.6024 85.0396 33.8085C85.0396 36.9886 87.5944 39.3367 90.7218 39.3367C93.8558 39.3367 96.4106 36.9886 96.4106 33.8085C96.4106 30.6024 93.8558 28.2786 90.7218 28.2786ZM90.7218 37.1592C89.0058 37.1592 87.5295 35.7764 87.5295 33.8085C87.5295 31.8146 89.0058 30.4561 90.7218 30.4561C92.4377 30.4561 93.9207 31.8146 93.9207 33.8085C93.9207 35.7764 92.4377 37.1592 90.7218 37.1592ZM78.3238 28.2786C75.1898 28.2786 72.6417 30.6024 72.6417 33.8085C72.6417 36.9886 75.1898 39.3367 78.3238 39.3367C81.4562 39.3367 84.006 36.9886 84.006 33.8085C84.006 30.6024 81.4562 28.2786 78.3238 28.2786ZM78.3238 37.1592C76.6062 37.1592 75.1249 35.7764 75.1249 33.8085C75.1249 31.8146 76.6062 30.4561 78.3238 30.4561C80.0398 30.4561 81.5161 31.8146 81.5161 33.8085C81.5161 35.7764 80.0398 37.1592 78.3238 37.1592ZM63.5708 29.9735V32.3232H69.3179C69.1498 33.6362 68.7004 34.6015 68.0114 35.2742C67.1725 36.0867 65.866 36.9886 63.5708 36.9886C60.034 36.9886 57.2645 34.2017 57.2645 30.7486C57.2645 27.2955 60.034 24.5086 63.5708 24.5086C65.4832 24.5086 66.8746 25.2382 67.9015 26.184L69.5975 24.5281C68.1612 23.1891 66.2505 22.1605 63.5708 22.1605C58.7208 22.1605 54.6448 26.0134 54.6448 30.7486C54.6448 35.4839 58.7208 39.3367 63.5708 39.3367C66.1922 39.3367 68.1612 38.4982 69.709 36.9252C71.2952 35.3766 71.7895 33.1991 71.7895 31.4409C71.7895 30.8949 71.7429 30.3927 71.6597 29.9735H63.5708ZM123.898 31.7951C123.43 30.5585 121.987 28.2786 119.048 28.2786C116.135 28.2786 113.71 30.5195 113.71 33.8085C113.71 36.9057 116.11 39.3367 119.327 39.3367C121.929 39.3367 123.43 37.7881 124.048 36.8862L122.117 35.6301C121.473 36.5499 120.596 37.1592 119.327 37.1592C118.067 37.1592 117.164 36.5954 116.584 35.4839L124.159 32.424L123.898 31.7951ZM116.175 33.6362C116.11 31.5042 117.871 30.4122 119.133 30.4122C120.121 30.4122 120.96 30.8949 121.24 31.5855L116.175 33.6362ZM110.019 39.0003H112.508V22.7504H110.019V39.0003ZM105.941 29.5104H105.858C105.298 28.8636 104.232 28.2786 102.88 28.2786C100.044 28.2786 97.4508 30.7096 97.4508 33.8264C97.4508 36.9252 100.044 39.3367 102.88 39.3367C104.232 39.3367 105.298 38.7468 105.858 38.0806H105.941V38.8736C105.941 40.9877 104.784 42.1236 102.918 42.1236C101.397 42.1236 100.453 41.0511 100.064 40.1492L97.8986 41.0316C98.5227 42.4974 100.175 44.3011 102.918 44.3011C105.838 44.3011 108.301 42.6241 108.301 38.5437V28.615H105.941V29.5104ZM103.093 37.1592C101.377 37.1592 99.9407 35.7569 99.9407 33.8264C99.9407 31.878 101.377 30.4561 103.093 30.4561C104.784 30.4561 106.117 31.878 106.117 33.8264C106.117 35.7569 104.784 37.1592 103.093 37.1592ZM135.555 22.7504H129.6V39.0003H132.083V32.8432H135.555C138.313 32.8432 141.018 30.8949 141.018 27.796C141.018 24.6987 138.306 22.7504 135.555 22.7504ZM135.62 30.5829H132.083V25.0107H135.62C137.474 25.0107 138.533 26.5139 138.533 27.796C138.533 29.0537 137.474 30.5829 135.62 30.5829ZM150.97 28.2477C149.176 28.2477 147.311 29.0212 146.543 30.7356L148.747 31.6375C149.221 30.7356 150.093 30.4431 151.015 30.4431C152.304 30.4431 153.61 31.1987 153.63 32.5329V32.7035C153.181 32.45 152.219 32.0746 151.035 32.0746C148.662 32.0746 146.244 33.3502 146.244 35.7309C146.244 37.9084 148.188 39.3107 150.373 39.3107C152.044 39.3107 152.966 38.5746 153.545 37.7182H153.63V38.9743H156.029V32.7409C156.029 29.8597 153.825 28.2477 150.97 28.2477ZM150.671 37.1527C149.859 37.1527 148.727 36.7595 148.727 35.7764C148.727 34.5186 150.138 34.036 151.36 34.036C152.453 34.036 152.966 34.2716 153.63 34.582C153.435 36.0867 152.109 37.1527 150.671 37.1527ZM164.766 28.6036L161.912 35.648H161.827L158.876 28.6036H156.198L160.632 38.4478L158.102 43.9257H160.697L167.529 28.6036H164.766ZM142.382 39.0003H144.872V22.7504H142.382V39.0003Z" fill="white"/>
<path d="M35.9854 31.561L30.4913 26.1904V25.8102L35.9921 20.4395L36.1153 20.5094L42.6296 24.1283C44.4887 25.1553 44.4887 26.8453 42.6296 27.8788L36.1153 31.4912L35.9854 31.561Z" fill="url(#paint0_linear)"/>
<path d="M36.1153 20.5094L16.6637 9.71781C15.5186 9.09056 14.5117 9.16693 13.8942 9.80068L30.4913 26.0003L36.1153 20.5094Z" fill="url(#paint1_linear)"/>
<path d="M13.8942 9.80069C13.5031 10.2004 13.2767 10.8228 13.2767 11.6288V40.3783C13.2767 41.1843 13.5031 41.8067 13.8942 42.2064L13.9908 42.2942L30.4914 26.1904V25.8102L13.9908 9.70644L13.8942 9.80069Z" fill="url(#paint2_linear)"/>
<path d="M36.1153 31.4912L30.4913 26.0003L13.8942 42.2065C14.5117 42.8402 15.5186 42.9166 16.6637 42.2828L36.1153 31.4912Z" fill="url(#paint3_linear)"/>
<defs>
<linearGradient id="paint0_linear" x1="45.0505" y1="25.9985" x2="12.8323" y2="25.9985" gradientUnits="userSpaceOnUse">
<stop stop-color="#FFE000"/>
<stop offset="0.4087" stop-color="#FFBD00"/>
<stop offset="0.7754" stop-color="#FFA500"/>
<stop offset="1" stop-color="#FF9C00"/>
</linearGradient>
<linearGradient id="paint1_linear" x1="9.71635" y1="51.7713" x2="22.9239" y2="38.2437" gradientUnits="userSpaceOnUse">
<stop stop-color="#32A071"/>
<stop offset="0.0685" stop-color="#2DA771"/>
<stop offset="0.4762" stop-color="#15CF74"/>
<stop offset="0.8009" stop-color="#06E775"/>
<stop offset="1" stop-color="#00F076"/>
</linearGradient>
<linearGradient id="paint2_linear" x1="29.0263" y1="40.6777" x2="7.21544" y2="18.3383" gradientUnits="userSpaceOnUse">
<stop stop-color="#00A0FF"/>
<stop offset="0.0066" stop-color="#00A1FF"/>
<stop offset="0.2601" stop-color="#00BEFF"/>
<stop offset="0.5122" stop-color="#00D2FF"/>
<stop offset="0.7604" stop-color="#00DFFF"/>
<stop offset="1" stop-color="#00E3FF"/>
</linearGradient>
<linearGradient id="paint3_linear" x1="33.0571" y1="23.0154" x2="3.47984" y2="-7.2786" gradientUnits="userSpaceOnUse">
<stop stop-color="#FF3A44"/>
<stop offset="1" stop-color="#C31162"/>
</linearGradient>
</defs>
</svg>
