<svg width="44" height="66" viewBox="0 0 44 66" fill="none" xmlns="http://www.w3.org/2000/svg">
<path d="M41.8333 27.3333V33C41.8333 38.2601 39.7437 43.3048 36.0243 47.0243C32.3048 50.7438 27.2601 52.8333 22 52.8333M22 52.8333C16.7399 52.8333 11.6952 50.7438 7.97571 47.0243C4.25623 43.3048 2.16666 38.2601 2.16666 33V27.3333M22 52.8333L22 64.1667M10.6667 64.1667H33.3333M22 1.83333C19.7457 1.83333 17.5836 2.72886 15.9896 4.32292C14.3955 5.91698 13.5 8.07899 13.5 10.3333V33C13.5 35.2543 14.3955 37.4163 15.9896 39.0104C17.5836 40.6045 19.7457 41.5 22 41.5C24.2543 41.5 26.4163 40.6045 28.0104 39.0104C29.6045 37.4163 30.5 35.2543 30.5 33V10.3333C30.5 8.07899 29.6045 5.91698 28.0104 4.32292C26.4163 2.72886 24.2543 1.83333 22 1.83333Z" stroke="#F9F9F9" stroke-width="3" stroke-linecap="round" stroke-linejoin="round"/>
</svg>
