<svg width="81" height="66" viewBox="0 0 81 66" fill="none" xmlns="http://www.w3.org/2000/svg">
<path d="M54.3334 46.6667V2.25H2.4584V46.6667H54.3334ZM54.3334 46.6667H78.5417V29.5833L68.1667 19.3333H54.3334V46.6667ZM26.6667 55.2083C26.6667 59.9258 22.7959 63.75 18.0209 63.75C13.2459 63.75 9.37507 59.9258 9.37507 55.2083C9.37507 50.4909 13.2459 46.6667 18.0209 46.6667C22.7959 46.6667 26.6667 50.4909 26.6667 55.2083ZM71.6251 55.2083C71.6251 59.9258 67.7542 63.75 62.9792 63.75C58.2043 63.75 54.3334 59.9258 54.3334 55.2083C54.3334 50.4909 58.2043 46.6667 62.9792 46.6667C67.7542 46.6667 71.6251 50.4909 71.6251 55.2083Z" stroke="#F9F9F9" stroke-width="3" stroke-linecap="round" stroke-linejoin="round"/>
</svg>
