<svg width="72" height="69" viewBox="0 0 72 69" fill="none" xmlns="http://www.w3.org/2000/svg">
<path d="M2.08333 2.08301H14.4167L22.68 43.3688C22.9619 44.7884 23.7342 46.0636 24.8616 46.9711C25.989 47.8786 27.3996 48.3607 28.8467 48.333H58.8167C60.2637 48.3607 61.6743 47.8786 62.8017 46.9711C63.9291 46.0636 64.7014 44.7884 64.9833 43.3688L69.9167 17.4997H17.5M29.8333 63.7497C29.8333 65.4526 28.4529 66.8331 26.75 66.8331C25.0471 66.8331 23.6667 65.4526 23.6667 63.7497C23.6667 62.0469 25.0471 60.6664 26.75 60.6664C28.4529 60.6664 29.8333 62.0469 29.8333 63.7497ZM63.75 63.7497C63.75 65.4526 62.3695 66.8331 60.6667 66.8331C58.9638 66.8331 57.5833 65.4526 57.5833 63.7497C57.5833 62.0469 58.9638 60.6664 60.6667 60.6664C62.3695 60.6664 63.75 62.0469 63.75 63.7497Z" stroke="#F9F9F9" stroke-width="3" stroke-linecap="round" stroke-linejoin="round"/>
</svg>
