<svg width="70" height="70" viewBox="0 0 70 70" fill="none" xmlns="http://www.w3.org/2000/svg">
<path d="M42.45 17.0501C41.8087 17.7043 41.4495 18.5839 41.4495 19.5001C41.4495 20.4162 41.8087 21.2958 42.45 21.9501L48.05 27.5501C48.7042 28.1913 49.5839 28.5506 50.5 28.5506C51.4161 28.5506 52.2957 28.1913 52.95 27.5501L66.145 14.3551C67.9049 18.2442 68.4378 22.5774 67.6726 26.7771C66.9074 30.9768 64.8805 34.8435 61.862 37.862C58.8435 40.8805 54.9767 42.9075 50.777 43.6727C46.5773 44.4378 42.2442 43.905 38.355 42.1451L14.17 66.33C12.7776 67.7224 10.8891 68.5047 8.91998 68.5047C6.95085 68.5047 5.06237 67.7224 3.66998 66.33C2.2776 64.9377 1.49536 63.0492 1.49536 61.08C1.49536 59.1109 2.2776 57.2224 3.66998 55.83L27.855 31.6451C26.0951 27.7559 25.5622 23.4227 26.3274 19.223C27.0926 15.0234 29.1195 11.1566 32.138 8.13808C35.1565 5.11956 39.0233 3.09264 43.223 2.32745C47.4227 1.56226 51.7558 2.09513 55.645 3.85505L42.45 17.0501Z" stroke="#F9F9F9" stroke-width="2" stroke-linecap="round" stroke-linejoin="round"/>
</svg>
