<svg width="212" height="44" viewBox="0 0 212 44" fill="none" xmlns="http://www.w3.org/2000/svg">
<path d="M59.472 15.368H54.096V12.2H68.736V15.368H63.36V29H59.472V15.368ZM73.8587 17.792C74.3067 17.168 74.9067 16.696 75.6587 16.376C76.4267 16.056 77.3067 15.896 78.2987 15.896V19.352C77.8827 19.32 77.6027 19.304 77.4587 19.304C76.3867 19.304 75.5467 19.608 74.9387 20.216C74.3307 20.808 74.0267 21.704 74.0267 22.904V29H70.2827V16.088H73.8587V17.792ZM93.6266 16.088V29H90.0746V27.464C89.5786 28.024 88.9866 28.456 88.2986 28.76C87.6106 29.048 86.8666 29.192 86.0666 29.192C84.3706 29.192 83.0266 28.704 82.0346 27.728C81.0426 26.752 80.5466 25.304 80.5466 23.384V16.088H84.2906V22.832C84.2906 24.912 85.1626 25.952 86.9066 25.952C87.8026 25.952 88.5226 25.664 89.0666 25.088C89.6106 24.496 89.8826 23.624 89.8826 22.472V16.088H93.6266ZM103.335 29.192C101.959 29.192 100.719 28.912 99.6152 28.352C98.5272 27.776 97.6712 26.984 97.0472 25.976C96.4392 24.968 96.1352 23.824 96.1352 22.544C96.1352 21.264 96.4392 20.12 97.0472 19.112C97.6712 18.104 98.5272 17.32 99.6152 16.76C100.719 16.184 101.959 15.896 103.335 15.896C104.695 15.896 105.879 16.184 106.887 16.76C107.911 17.32 108.655 18.128 109.119 19.184L106.215 20.744C105.543 19.56 104.575 18.968 103.311 18.968C102.335 18.968 101.527 19.288 100.887 19.928C100.247 20.568 99.9272 21.44 99.9272 22.544C99.9272 23.648 100.247 24.52 100.887 25.16C101.527 25.8 102.335 26.12 103.311 26.12C104.591 26.12 105.559 25.528 106.215 24.344L109.119 25.928C108.655 26.952 107.911 27.752 106.887 28.328C105.879 28.904 104.695 29.192 103.335 29.192ZM116.725 23.936L114.925 25.712V29H111.181V11.192H114.925V21.272L120.397 16.088H124.861L119.485 21.56L125.341 29H120.805L116.725 23.936ZM132.606 29.192C131.246 29.192 130.022 28.912 128.934 28.352C127.862 27.776 127.022 26.984 126.414 25.976C125.806 24.968 125.502 23.824 125.502 22.544C125.502 21.264 125.806 20.12 126.414 19.112C127.022 18.104 127.862 17.32 128.934 16.76C130.022 16.184 131.246 15.896 132.606 15.896C133.966 15.896 135.182 16.184 136.254 16.76C137.326 17.32 138.166 18.104 138.774 19.112C139.382 20.12 139.686 21.264 139.686 22.544C139.686 23.824 139.382 24.968 138.774 25.976C138.166 26.984 137.326 27.776 136.254 28.352C135.182 28.912 133.966 29.192 132.606 29.192ZM132.606 26.12C133.566 26.12 134.35 25.8 134.958 25.16C135.582 24.504 135.894 23.632 135.894 22.544C135.894 21.456 135.582 20.592 134.958 19.952C134.35 19.296 133.566 18.968 132.606 18.968C131.646 18.968 130.854 19.296 130.23 19.952C129.606 20.592 129.294 21.456 129.294 22.544C129.294 23.632 129.606 24.504 130.23 25.16C130.854 25.8 131.646 26.12 132.606 26.12ZM150.037 15.896C151.637 15.896 152.925 16.376 153.901 17.336C154.893 18.296 155.389 19.72 155.389 21.608V29H151.645V22.184C151.645 21.16 151.421 20.4 150.973 19.904C150.525 19.392 149.877 19.136 149.029 19.136C148.085 19.136 147.333 19.432 146.773 20.024C146.213 20.6 145.933 21.464 145.933 22.616V29H142.189V16.088H145.765V17.6C146.261 17.056 146.877 16.64 147.613 16.352C148.349 16.048 149.157 15.896 150.037 15.896ZM166.631 15.896C168.231 15.896 169.519 16.376 170.495 17.336C171.487 18.296 171.983 19.72 171.983 21.608V29H168.239V22.184C168.239 21.16 168.015 20.4 167.567 19.904C167.119 19.392 166.471 19.136 165.623 19.136C164.679 19.136 163.927 19.432 163.367 20.024C162.807 20.6 162.527 21.464 162.527 22.616V29H158.783V16.088H162.359V17.6C162.855 17.056 163.471 16.64 164.207 16.352C164.943 16.048 165.751 15.896 166.631 15.896ZM181.661 29.192C180.301 29.192 179.077 28.912 177.989 28.352C176.917 27.776 176.077 26.984 175.469 25.976C174.861 24.968 174.557 23.824 174.557 22.544C174.557 21.264 174.861 20.12 175.469 19.112C176.077 18.104 176.917 17.32 177.989 16.76C179.077 16.184 180.301 15.896 181.661 15.896C183.021 15.896 184.237 16.184 185.309 16.76C186.381 17.32 187.221 18.104 187.829 19.112C188.437 20.12 188.741 21.264 188.741 22.544C188.741 23.824 188.437 24.968 187.829 25.976C187.221 26.984 186.381 27.776 185.309 28.352C184.237 28.912 183.021 29.192 181.661 29.192ZM181.661 26.12C182.621 26.12 183.405 25.8 184.013 25.16C184.637 24.504 184.949 23.632 184.949 22.544C184.949 21.456 184.637 20.592 184.013 19.952C183.405 19.296 182.621 18.968 181.661 18.968C180.701 18.968 179.909 19.296 179.285 19.952C178.661 20.592 178.349 21.456 178.349 22.544C178.349 23.632 178.661 24.504 179.285 25.16C179.909 25.8 180.701 26.12 181.661 26.12ZM211.628 16.088L206.948 29H203.348L200.444 20.984L197.444 29H193.844L189.188 16.088H192.716L195.764 24.824L198.932 16.088H202.1L205.172 24.824L208.316 16.088H211.628Z" fill="#08112B"/>
<g clip-path="url(#clip0)">
<path d="M28.7207 31.7146C28.3807 31.715 28.0485 31.8157 27.766 32.0041C27.4835 32.1924 27.2633 32.4599 27.1334 32.7728C27.0035 33.0856 26.9696 33.4298 27.036 33.7619C27.1024 34.0939 27.2662 34.3989 27.5066 34.6383C27.747 34.8778 28.0532 35.0408 28.3867 35.107C28.7201 35.1731 29.0657 35.1394 29.3799 35.01C29.6941 34.8806 29.9627 34.6614 30.1518 34.38C30.3409 34.0987 30.4421 33.7678 30.4425 33.4292C30.4427 33.204 30.3984 32.9809 30.3119 32.7728C30.2255 32.5646 30.0987 32.3755 29.9387 32.2162C29.7788 32.057 29.5889 31.9307 29.3799 31.8446C29.1709 31.7585 28.9469 31.7143 28.7207 31.7146Z" fill="white"/>
<path d="M44 9.52917V34.4686C44 39.5171 40.0589 43.6478 35.0738 43.9786C34.8612 43.9922 34.6439 43.9996 34.4293 43.9996H9.57032C4.28466 43.9996 0 39.7327 0 34.4686V9.52917C0 4.26656 4.28466 -0.00035224 9.57071 -0.00035224H34.4297C36.8622 -0.00450649 39.2043 0.91796 40.9759 2.57801C41.1115 2.70413 41.2436 2.83414 41.3703 2.96726C41.8834 3.50493 42.3319 4.10035 42.7066 4.74144C42.7488 4.81346 42.7899 4.88508 42.8298 4.95825C43.6003 6.35936 44.0029 7.93168 44 9.52917Z" fill="url(#paint0_linear)"/>
<g opacity="0.4">
<path opacity="0.4" d="M27.8499 32.5577L29.9722 30.4441V32.5577H27.8499Z" fill="#D4DFFF"/>
<path opacity="0.4" d="M29.9723 30.4441L32.0943 32.5577H29.9723V30.4441Z" fill="#E9F0FF"/>
<path opacity="0.4" d="M32.0943 32.5577L29.9723 34.6713V32.5577H32.0943Z" fill="#AAD0FF"/>
<path opacity="0.4" d="M29.9722 34.6713L27.8499 32.5577H29.9722V34.6713Z" fill="#7FB8FF"/>
<path opacity="0.4" d="M32.0943 28.3309L34.2167 30.4441H32.0943V28.3309Z" fill="#D4DFFF"/>
<path opacity="0.4" d="M34.2167 30.4441L32.0943 32.5577V30.4441H34.2167Z" fill="#E9F0FF"/>
<path opacity="0.4" d="M32.0943 32.5577L29.9723 30.4441H32.0943V32.5577Z" fill="#AAD0FF"/>
<path opacity="0.4" d="M29.9723 30.4441L32.0943 28.3309V30.4441H29.9723Z" fill="#7FB8FF"/>
<path opacity="0.4" d="M27.8499 36.7849L25.7275 34.6713H27.8499V36.7849Z" fill="#D4DFFF"/>
<path opacity="0.4" d="M25.7275 34.6713L27.8499 32.5577V34.6713H25.7275Z" fill="#E9F0FF"/>
<path opacity="0.4" d="M27.8499 32.5577L29.9722 34.6713H27.8499V32.5577Z" fill="#AAD0FF"/>
<path opacity="0.4" d="M29.9722 34.6713L27.8499 36.7849V34.6713H29.9722Z" fill="#7FB8FF"/>
<path opacity="0.4" d="M27.8499 36.7849L25.7275 38.8982V36.7849H27.8499Z" fill="#D4DFFF"/>
<path opacity="0.4" d="M25.7274 38.8982L23.6051 36.7849H25.7274V38.8982Z" fill="#E9F0FF"/>
<path opacity="0.4" d="M23.6051 36.7849L25.7274 34.6713V36.7849H23.6051Z" fill="#AAD0FF"/>
<path opacity="0.4" d="M25.7275 34.6713L27.8499 36.7849H25.7275V34.6713Z" fill="#7FB8FF"/>
<path opacity="0.4" d="M32.0943 28.3309L34.2167 26.2173V28.3309H32.0943Z" fill="#D4DFFF"/>
<path opacity="0.4" d="M34.2167 26.2173L36.3391 28.3309H34.2167V26.2173Z" fill="#E9F0FF"/>
<path opacity="0.4" d="M36.3391 28.3309L34.2167 30.4441V28.3309H36.3391Z" fill="#AAD0FF"/>
<path opacity="0.4" d="M34.2167 30.4441L32.0943 28.3309H34.2167V30.4441Z" fill="#7FB8FF"/>
<path opacity="0.4" d="M36.3391 28.3309L34.2167 26.2173H36.3391V28.3309Z" fill="#D4DFFF"/>
<path opacity="0.4" d="M34.2167 26.2173L36.3391 24.1037V26.2173H34.2167Z" fill="#E9F0FF"/>
<path opacity="0.4" d="M36.3391 24.1037L38.4615 26.2173H36.3391V24.1037Z" fill="#AAD0FF"/>
<path opacity="0.4" d="M38.4615 26.2173L36.3391 28.3309V26.2173H38.4615Z" fill="#7FB8FF"/>
<path opacity="0.4" d="M23.6051 36.7849L25.7274 38.8982H23.6051V36.7849Z" fill="#D4DFFF"/>
<path opacity="0.4" d="M25.7274 38.8982L23.6051 41.0118V38.8982H25.7274Z" fill="#E9F0FF"/>
<path opacity="0.4" d="M23.6051 41.0118L21.4831 38.8982H23.6051V41.0118Z" fill="#AAD0FF"/>
<path opacity="0.4" d="M21.4831 38.8982L23.6051 36.7849V38.8982H21.4831Z" fill="#7FB8FF"/>
<path opacity="0.4" d="M18.1162 44H17.2375V43.1254L18.1162 44Z" fill="#D4DFFF"/>
<path opacity="0.4" d="M17.2375 43.1254V44H16.3592L17.2375 43.1254Z" fill="#7FB8FF"/>
<path opacity="0.4" d="M17.2383 43.1254L19.3607 41.0117V43.1254H17.2383Z" fill="#D4DFFF"/>
<path opacity="0.4" d="M19.3607 41.0117L21.4831 43.1254H19.3607V41.0117Z" fill="#E9F0FF"/>
<path opacity="0.4" d="M21.4823 43.1254L20.604 44H19.3599V43.1254H21.4823Z" fill="#AAD0FF"/>
<path opacity="0.4" d="M19.3599 43.1254V44H18.1161L17.2375 43.1254H19.3599Z" fill="#7FB8FF"/>
<path opacity="0.4" d="M21.4831 43.1254L19.3607 41.0117H21.4831V43.1254Z" fill="#D4DFFF"/>
<path opacity="0.4" d="M19.3607 41.0118L21.4831 38.8982V41.0118H19.3607Z" fill="#E9F0FF"/>
<path opacity="0.4" d="M21.4831 38.8982L23.6051 41.0118H21.4831V38.8982Z" fill="#AAD0FF"/>
<path opacity="0.4" d="M23.6051 41.0117L21.4831 43.1254V41.0117H23.6051Z" fill="#7FB8FF"/>
<path opacity="0.4" d="M36.3399 7.19561L38.4619 5.082V7.19561H36.3399Z" fill="#D4DFFF"/>
<path opacity="0.4" d="M38.4619 5.082L40.5842 7.19561H38.4619V5.082Z" fill="#E9F0FF"/>
<path opacity="0.4" d="M40.5842 7.19562L38.4619 9.30922V7.19562H40.5842Z" fill="#AAD0FF"/>
<path opacity="0.4" d="M38.4619 9.30922L36.3399 7.19562H38.4619V9.30922Z" fill="#7FB8FF"/>
<path opacity="0.4" d="M40.5843 2.96838L42.7066 5.08199H40.5843V2.96838Z" fill="#D4DFFF"/>
<path opacity="0.4" d="M42.7066 5.082L40.5843 7.19561V5.082H42.7066Z" fill="#E9F0FF"/>
<path opacity="0.4" d="M40.5842 7.19561L38.4619 5.082H40.5842V7.19561Z" fill="#AAD0FF"/>
<path opacity="0.4" d="M38.4619 5.08199L40.5842 2.96838V5.08199H38.4619Z" fill="#7FB8FF"/>
<path opacity="0.4" d="M36.3398 11.4224L34.2174 9.3092H36.3398V11.4224Z" fill="#D4DFFF"/>
<path opacity="0.4" d="M34.2174 9.30922L36.3398 7.19562V9.30922H34.2174Z" fill="#E9F0FF"/>
<path opacity="0.4" d="M36.3399 7.19562L38.4619 9.30922H36.3399V7.19562Z" fill="#AAD0FF"/>
<path opacity="0.4" d="M38.4619 9.3092L36.3399 11.4224V9.3092H38.4619Z" fill="#7FB8FF"/>
<path opacity="0.4" d="M36.3398 11.4224L34.2174 13.536V11.4224H36.3398Z" fill="#D4DFFF"/>
<path opacity="0.4" d="M34.2174 13.536L32.095 11.4224H34.2174V13.536Z" fill="#E9F0FF"/>
<path opacity="0.4" d="M32.095 11.4224L34.2174 9.3092V11.4224H32.095Z" fill="#AAD0FF"/>
<path opacity="0.4" d="M34.2174 9.3092L36.3398 11.4224H34.2174V9.3092Z" fill="#7FB8FF"/>
<path opacity="0.4" d="M41.3699 2.96838H40.5839L40.9747 2.57913C41.1111 2.70447 41.2433 2.83448 41.3699 2.96838Z" fill="#D4DFFF"/>
<path opacity="0.4" d="M42.8294 4.95939L42.7062 5.08201V4.74258C42.7485 4.81459 42.7895 4.88622 42.8294 4.95939Z" fill="#AAD0FF"/>
<path opacity="0.4" d="M42.7063 4.74257V5.08199L40.5839 2.96838H41.3699C41.8831 3.50606 42.3315 4.10147 42.7063 4.74257Z" fill="#7FB8FF"/>
<path opacity="0.4" d="M32.095 11.4224L34.2174 13.536H32.095V11.4224Z" fill="#D4DFFF"/>
<path opacity="0.4" d="M34.2174 13.536L32.095 15.6496V13.536H34.2174Z" fill="#E9F0FF"/>
<path opacity="0.4" d="M32.095 15.6496L29.9727 13.536H32.095V15.6496Z" fill="#AAD0FF"/>
<path opacity="0.4" d="M29.9727 13.536L32.095 11.4224V13.536H29.9727Z" fill="#7FB8FF"/>
<path opacity="0.4" d="M27.8506 15.6496L25.7282 13.536H27.8506V15.6496Z" fill="#D4DFFF"/>
<path opacity="0.4" d="M25.7282 13.536L27.8506 11.4224V13.536H25.7282Z" fill="#E9F0FF"/>
<path opacity="0.4" d="M27.8506 11.4224L29.9726 13.536H27.8506V11.4224Z" fill="#AAD0FF"/>
<path opacity="0.4" d="M29.9726 13.536L27.8506 15.6496V13.536H29.9726Z" fill="#7FB8FF"/>
<path opacity="0.4" d="M23.6059 11.4224L25.7283 9.3092V11.4224H23.6059Z" fill="#D4DFFF"/>
<path opacity="0.4" d="M25.7282 9.3092L27.8506 11.4224H25.7282V9.3092Z" fill="#E9F0FF"/>
<path opacity="0.4" d="M27.8506 11.4224L25.7282 13.536V11.4224H27.8506Z" fill="#AAD0FF"/>
<path opacity="0.4" d="M25.7283 13.536L23.6059 11.4224H25.7283V13.536Z" fill="#7FB8FF"/>
<path opacity="0.4" d="M32.095 15.6496L29.9727 17.7632V15.6496H32.095Z" fill="#D4DFFF"/>
<path opacity="0.4" d="M29.9726 17.7632L27.8506 15.6496H29.9726V17.7632Z" fill="#E9F0FF"/>
<path opacity="0.4" d="M27.8506 15.6496L29.9726 13.536V15.6496H27.8506Z" fill="#AAD0FF"/>
<path opacity="0.4" d="M29.9727 13.536L32.095 15.6496H29.9727V13.536Z" fill="#7FB8FF"/>
<path opacity="0.4" d="M32.095 15.6496L34.2174 17.7632H32.095V15.6496Z" fill="#D4DFFF"/>
<path opacity="0.4" d="M34.2174 17.7632L32.095 19.8765V17.7632H34.2174Z" fill="#E9F0FF"/>
<path opacity="0.4" d="M32.095 19.8765L29.9727 17.7632H32.095V19.8765Z" fill="#AAD0FF"/>
<path opacity="0.4" d="M29.9727 17.7632L32.095 15.6496V17.7632H29.9727Z" fill="#7FB8FF"/>
<path opacity="0.4" d="M23.6059 11.4224L21.4835 9.3092H23.6059V11.4224Z" fill="#D4DFFF"/>
<path opacity="0.4" d="M21.4835 9.30922L23.6059 7.19562V9.30922H21.4835Z" fill="#E9F0FF"/>
<path opacity="0.4" d="M23.6059 7.19562L25.7283 9.30922H23.6059V7.19562Z" fill="#AAD0FF"/>
<path opacity="0.4" d="M25.7283 9.3092L23.6059 11.4224V9.3092H25.7283Z" fill="#7FB8FF"/>
<path opacity="0.4" d="M23.6059 7.19562L21.4835 9.30922V7.19562H23.6059Z" fill="#D4DFFF"/>
<path opacity="0.4" d="M21.4834 9.30922L19.3615 7.19562H21.4834V9.30922Z" fill="#E9F0FF"/>
<path opacity="0.4" d="M19.3615 7.19561L21.4834 5.082V7.19561H19.3615Z" fill="#AAD0FF"/>
<path opacity="0.4" d="M21.4835 5.082L23.6059 7.19561H21.4835V5.082Z" fill="#7FB8FF"/>
<path opacity="0.4" d="M32.095 19.8765L34.2174 17.7632V19.8765H32.095Z" fill="#D4DFFF"/>
<path opacity="0.4" d="M34.2174 17.7632L36.3398 19.8765H34.2174V17.7632Z" fill="#E9F0FF"/>
<path opacity="0.4" d="M36.3398 19.8765L34.2174 21.9901V19.8765H36.3398Z" fill="#AAD0FF"/>
<path opacity="0.4" d="M34.2174 21.9901L32.095 19.8765H34.2174V21.9901Z" fill="#7FB8FF"/>
<path opacity="0.4" d="M42.7066 30.4441L40.5843 28.3305H42.7066V30.4441Z" fill="#D4DFFF"/>
<path opacity="0.4" d="M40.5843 28.3305L42.7066 26.2173V28.3305H40.5843Z" fill="#E9F0FF"/>
<path opacity="0.4" d="M44 27.5049V28.3301H42.7062V26.2165L44 27.5049Z" fill="#AAD0FF"/>
<path opacity="0.4" d="M44 28.3301V29.1553L42.7062 30.4437V28.3301H44Z" fill="#7FB8FF"/>
<path opacity="0.4" d="M38.4619 26.2173L40.5842 24.1037V26.2173H38.4619Z" fill="#D4DFFF"/>
<path opacity="0.4" d="M40.5843 24.1037L42.7066 26.2173H40.5843V24.1037Z" fill="#E9F0FF"/>
<path opacity="0.4" d="M42.7066 26.2173L40.5843 28.3305V26.2173H42.7066Z" fill="#AAD0FF"/>
<path opacity="0.4" d="M40.5842 28.3305L38.4619 26.2173H40.5842V28.3305Z" fill="#7FB8FF"/>
<path opacity="0.4" d="M44 30.4437V31.7321L42.7062 30.4437H44Z" fill="#E9F0FF"/>
<path opacity="0.4" d="M44 29.1553V30.4437H42.7062L44 29.1553Z" fill="#AAD0FF"/>
<path opacity="0.4" d="M38.4619 26.2173L36.3399 24.1037H38.4619V26.2173Z" fill="#D4DFFF"/>
<path opacity="0.4" d="M36.3399 24.1037L38.4619 21.9901V24.1037H36.3399Z" fill="#E9F0FF"/>
<path opacity="0.4" d="M38.4619 21.9901L40.5842 24.1037H38.4619V21.9901Z" fill="#AAD0FF"/>
<path opacity="0.4" d="M40.5842 24.1037L38.4619 26.2173V24.1037H40.5842Z" fill="#7FB8FF"/>
<path opacity="0.4" d="M38.4619 21.9901L36.3399 24.1037V21.9901H38.4619Z" fill="#D4DFFF"/>
<path opacity="0.4" d="M36.3398 24.1037L34.2174 21.9901H36.3398V24.1037Z" fill="#E9F0FF"/>
<path opacity="0.4" d="M34.2174 21.9901L36.3398 19.8765V21.9901H34.2174Z" fill="#AAD0FF"/>
<path opacity="0.4" d="M36.3399 19.8765L38.4619 21.9901H36.3399V19.8765Z" fill="#7FB8FF"/>
<path opacity="0.4" d="M15.1159 28.3309L12.9935 26.2173H15.1159V28.3309Z" fill="#D4DFFF"/>
<path opacity="0.4" d="M12.9935 26.2173L15.1159 24.1037V26.2173H12.9935Z" fill="#E9F0FF"/>
<path opacity="0.4" d="M15.1159 24.1037L17.2383 26.2173H15.1159V24.1037Z" fill="#AAD0FF"/>
<path opacity="0.4" d="M17.2383 26.2173L15.1159 28.3309V26.2173H17.2383Z" fill="#7FB8FF"/>
<path opacity="0.4" d="M10.8715 24.1037L12.9935 21.9901V24.1037H10.8715Z" fill="#D4DFFF"/>
<path opacity="0.4" d="M12.9935 21.9901L15.1159 24.1037H12.9935V21.9901Z" fill="#E9F0FF"/>
<path opacity="0.4" d="M15.1159 24.1037L12.9935 26.2173V24.1037H15.1159Z" fill="#AAD0FF"/>
<path opacity="0.4" d="M12.9935 26.2173L10.8715 24.1037H12.9935V26.2173Z" fill="#7FB8FF"/>
<path opacity="0.4" d="M19.3607 28.3309L17.2383 30.4441V28.3309H19.3607Z" fill="#D4DFFF"/>
<path opacity="0.4" d="M17.2383 30.4441L15.1159 28.3309H17.2383V30.4441Z" fill="#E9F0FF"/>
<path opacity="0.4" d="M15.1159 28.3309L17.2383 26.2173V28.3309H15.1159Z" fill="#AAD0FF"/>
<path opacity="0.4" d="M17.2383 26.2173L19.3607 28.3309H17.2383V26.2173Z" fill="#7FB8FF"/>
<path opacity="0.4" d="M19.3607 28.3309L21.4831 30.4441H19.3607V28.3309Z" fill="#D4DFFF"/>
<path opacity="0.4" d="M21.4831 30.4441L19.3607 32.5577V30.4441H21.4831Z" fill="#E9F0FF"/>
<path opacity="0.4" d="M19.3607 32.5577L17.2383 30.4441H19.3607V32.5577Z" fill="#AAD0FF"/>
<path opacity="0.4" d="M17.2383 30.4441L19.3607 28.3309V30.4441H17.2383Z" fill="#7FB8FF"/>
<path opacity="0.4" d="M10.8715 24.1037L8.74911 21.9901H10.8715V24.1037Z" fill="#D4DFFF"/>
<path opacity="0.4" d="M8.74911 21.9901L10.8715 19.8765V21.9901H8.74911Z" fill="#E9F0FF"/>
<path opacity="0.4" d="M10.8715 19.8765L12.9935 21.9901H10.8715V19.8765Z" fill="#AAD0FF"/>
<path opacity="0.4" d="M12.9935 21.9901L10.8715 24.1037V21.9901H12.9935Z" fill="#7FB8FF"/>
<path opacity="0.4" d="M10.8715 19.8765L8.74911 21.9901V19.8765H10.8715Z" fill="#D4DFFF"/>
<path opacity="0.4" d="M8.74907 21.9901L6.62668 19.8765H8.74907V21.9901Z" fill="#E9F0FF"/>
<path opacity="0.4" d="M6.62668 19.8765L8.74907 17.7632V19.8765H6.62668Z" fill="#AAD0FF"/>
<path opacity="0.4" d="M8.74911 17.7632L10.8715 19.8765H8.74911V17.7632Z" fill="#7FB8FF"/>
<path opacity="0.4" d="M19.3607 32.5577L21.4831 30.4441V32.5577H19.3607Z" fill="#D4DFFF"/>
<path opacity="0.4" d="M21.4831 30.4441L23.6051 32.5577H21.4831V30.4441Z" fill="#E9F0FF"/>
<path opacity="0.4" d="M23.6051 32.5577L21.4831 34.6713V32.5577H23.6051Z" fill="#AAD0FF"/>
<path opacity="0.4" d="M21.4831 34.6713L19.3607 32.5577H21.4831V34.6713Z" fill="#7FB8FF"/>
<path opacity="0.4" d="M29.9722 43.1254L27.8499 41.0117H29.9722V43.1254Z" fill="#D4DFFF"/>
<path opacity="0.4" d="M27.8499 41.0118L29.9722 38.8982V41.0118H27.8499Z" fill="#E9F0FF"/>
<path opacity="0.4" d="M29.9723 38.8982L32.0943 41.0118H29.9723V38.8982Z" fill="#AAD0FF"/>
<path opacity="0.4" d="M32.0943 41.0117L29.9723 43.1254V41.0117H32.0943Z" fill="#7FB8FF"/>
<path opacity="0.4" d="M25.7275 38.8982L27.8499 36.7849V38.8982H25.7275Z" fill="#D4DFFF"/>
<path opacity="0.4" d="M27.8499 36.7849L29.9722 38.8982H27.8499V36.7849Z" fill="#E9F0FF"/>
<path opacity="0.4" d="M29.9722 38.8982L27.8499 41.0118V38.8982H29.9722Z" fill="#AAD0FF"/>
<path opacity="0.4" d="M27.8499 41.0118L25.7275 38.8982H27.8499V41.0118Z" fill="#7FB8FF"/>
<path opacity="0.4" d="M34.2167 43.1254L33.3384 44H32.0943V43.1254H34.2167Z" fill="#D4DFFF"/>
<path opacity="0.4" d="M32.0943 43.1254V44H30.8502L29.9719 43.1254H32.0943Z" fill="#E9F0FF"/>
<path opacity="0.4" d="M29.9723 43.1254L32.0943 41.0117V43.1254H29.9723Z" fill="#AAD0FF"/>
<path opacity="0.4" d="M32.0943 41.0117L34.2167 43.1254H32.0943V41.0117Z" fill="#7FB8FF"/>
<path opacity="0.4" d="M35.0738 43.979C34.8612 43.9926 34.6439 44 34.4293 44H34.2167V43.1254L35.0738 43.979Z" fill="#D4DFFF"/>
<path opacity="0.4" d="M34.2167 43.1254V44H33.3384L34.2167 43.1254Z" fill="#7FB8FF"/>
<path opacity="0.4" d="M25.7274 38.8982L23.6051 36.7849H25.7274V38.8982Z" fill="#D4DFFF"/>
<path opacity="0.4" d="M23.6051 36.7849L25.7274 34.6713V36.7849H23.6051Z" fill="#E9F0FF"/>
<path opacity="0.4" d="M25.7275 34.6713L27.8499 36.7849H25.7275V34.6713Z" fill="#AAD0FF"/>
<path opacity="0.4" d="M27.8499 36.7849L25.7275 38.8982V36.7849H27.8499Z" fill="#7FB8FF"/>
<path opacity="0.4" d="M25.7274 34.6713L23.6051 36.7849V34.6713H25.7274Z" fill="#D4DFFF"/>
<path opacity="0.4" d="M23.6051 36.7849L21.4831 34.6713H23.6051V36.7849Z" fill="#E9F0FF"/>
<path opacity="0.4" d="M21.4831 34.6713L23.6051 32.5577V34.6713H21.4831Z" fill="#AAD0FF"/>
<path opacity="0.4" d="M23.6051 32.5577L25.7274 34.6713H23.6051V32.5577Z" fill="#7FB8FF"/>
<path opacity="0.4" d="M15.1155 11.422L10.8707 15.6492L10.8449 11.3963L15.1155 11.422Z" fill="#D4DFFF"/>
<path opacity="0.4" d="M10.8707 15.6492L6.57394 11.3703L10.8449 11.3963L10.8707 15.6492Z" fill="#E9F0FF"/>
<path opacity="0.4" d="M6.57394 11.3703L10.8187 7.14304L10.8449 11.3963L6.57394 11.3703Z" fill="#AAD0FF"/>
<path opacity="0.4" d="M10.8188 7.14304L15.1155 11.422L10.8449 11.3963L10.8188 7.14304Z" fill="#7FB8FF"/>
<path opacity="0.4" d="M6.62597 19.8765L2.32919 15.5975L6.60017 15.6236L6.62597 19.8765Z" fill="#D4DFFF"/>
<path opacity="0.4" d="M2.32919 15.5975L6.57398 11.3703L6.60017 15.6236L2.32919 15.5975Z" fill="#E9F0FF"/>
<path opacity="0.4" d="M6.57394 11.3703L10.8707 15.6492L6.60013 15.6236L6.57394 11.3703Z" fill="#AAD0FF"/>
<path opacity="0.4" d="M10.8707 15.6493L6.62596 19.8765L6.60016 15.6236L10.8707 15.6493Z" fill="#7FB8FF"/>
<path opacity="0.4" d="M15.0635 2.91623L19.3603 7.19521L15.0893 7.16913L15.0635 2.91623Z" fill="#D4DFFF"/>
<path opacity="0.4" d="M19.3603 7.19521L15.1155 11.422L15.0893 7.16913L19.3603 7.19521Z" fill="#E9F0FF"/>
<path opacity="0.4" d="M15.1155 11.422L10.8188 7.14304L15.0893 7.16912L15.1155 11.422Z" fill="#AAD0FF"/>
<path opacity="0.4" d="M10.8188 7.14305L15.0635 2.91623L15.0893 7.16913L10.8188 7.14305Z" fill="#7FB8FF"/>
<path opacity="0.4" d="M19.3341 2.94231L15.0631 2.91623L17.9915 0H19.3154L19.3341 2.94231Z" fill="#D4DFFF"/>
<path opacity="0.4" d="M23.6047 2.96839L19.3341 2.94231L19.3154 0H20.624L23.6047 2.96839Z" fill="#E9F0FF"/>
<path opacity="0.4" d="M23.6047 2.968L19.3603 7.19522L19.3341 2.94193L23.6047 2.968Z" fill="#AAD0FF"/>
<path opacity="0.4" d="M19.3603 7.19521L15.0635 2.91623L19.3341 2.94192L19.3603 7.19521Z" fill="#7FB8FF"/>
<path opacity="0.4" d="M6.62594 19.8765L2.38153 24.1037L2.35535 19.8508L6.62594 19.8765Z" fill="#D4DFFF"/>
<path opacity="0.4" d="M2.38115 24.1029L0 21.7332V19.8364L2.35496 19.8512L2.38115 24.1029Z" fill="#E9F0FF"/>
<path opacity="0.4" d="M2.35496 19.8512L0 19.8364V17.917L2.32877 15.5979L2.35496 19.8512Z" fill="#AAD0FF"/>
<path opacity="0.4" d="M2.32919 15.5975L6.62597 19.8765L2.35538 19.8508L2.32919 15.5975Z" fill="#7FB8FF"/>
<path opacity="0.4" d="M2.38115 24.1029L0 24.0893V21.7332L2.38115 24.1029Z" fill="#D4DFFF"/>
<path opacity="0.4" d="M2.38115 24.1029L0 26.4742V24.0893L2.38115 24.1029Z" fill="#E9F0FF"/>
<path opacity="0.4" d="M23.6047 2.96839L20.624 0H23.5864L23.6047 2.96839Z" fill="#D4DFFF"/>
<path opacity="0.4" d="M26.5854 0L23.6047 2.96839L23.5863 0H26.5854Z" fill="#7FB8FF"/>
</g>
<path d="M21.2974 19.1731H20.862V23.9554H21.2974V19.1731Z" fill="#80EF80"/>
<path d="M21.1704 24.0784H20.5884V19.0855L20.8804 19.0937L21.1704 19.0855V24.0784ZM20.7158 23.9531H21.0469V19.214L20.8823 19.2187L20.7158 19.214V23.9531Z" fill="white"/>
<path d="M20.7135 24.0784H20.1315V19.112L20.5259 19.1019V19.084L20.7135 19.0878V24.0784ZM20.2569 23.953H20.588V19.2264L20.2569 19.2346V23.953Z" fill="white"/>
<path d="M33.3466 34.4568L30.6418 34.4541C30.3514 34.4051 29.8026 34.1166 29.8026 33.374V30.1798C28.4952 30.1884 21.7571 30.2323 20.5083 30.2152L20.5141 29.7816C21.8865 29.8003 29.9375 29.7454 30.0188 29.745H30.2381V33.374C30.2381 33.8827 30.609 34.0018 30.7005 34.0232H33.3466C33.5862 34.0232 33.7273 33.4109 33.7496 33.0832L33.7527 33.0571C34.0463 31.511 34.017 27.0958 34.0166 27.0514V27.0359L34.0189 27.0203C34.6353 22.5864 33.9904 20.031 33.9837 20.008C33.9669 19.9527 33.9446 19.8652 33.9208 19.755C33.8368 19.3934 33.6961 18.7881 33.4342 18.2759C33.1797 17.7761 32.165 17.3596 31.7953 17.2413L31.6182 17.1848L31.6467 17.0015C31.6823 16.7753 31.7101 16.2728 31.7105 16.2678L31.7222 16.0502L31.9407 16.063C32.4039 16.0777 32.8676 16.0559 33.3275 15.998C33.3536 15.9965 33.3791 15.9893 33.4022 15.977C33.4252 15.9647 33.4454 15.9476 33.4611 15.9268C33.5393 15.8221 33.537 15.6239 33.528 15.5426C33.4631 15.3451 33.3875 15.1512 33.3017 14.9618C33.2325 14.8166 33.0496 14.7182 32.9647 14.6839C32.8014 14.6613 31.8555 14.5302 31.6401 14.5138C31.6017 14.511 31.5634 14.5205 31.5308 14.5408C31.4981 14.561 31.4727 14.5911 31.4584 14.6267C31.4494 14.6843 31.4642 14.9537 31.4783 15.2137C31.4877 15.381 31.4982 15.5749 31.5076 15.7898C31.5248 16.1759 31.5013 16.462 31.44 16.6177L31.3806 16.7668L31.2105 16.7605C31.1621 16.7569 31.1162 16.7379 31.0795 16.7063C31.0427 16.6747 31.0172 16.6321 31.0065 16.585C30.9283 16.2444 30.2525 14.5504 29.5791 13.06C28.9494 11.6665 28.5445 10.7965 28.1665 10.4765C27.8147 10.1776 26.8461 10.0752 26.6863 10.0873C26.3873 10.1056 25.9436 10.1223 25.1596 10.0873C24.343 10.0511 20.7252 9.92304 20.6888 9.92187L20.7041 9.48825C20.7408 9.48825 24.3606 9.61787 25.1787 9.65407C25.6711 9.68113 26.1646 9.68087 26.657 9.65329C26.8493 9.642 27.9628 9.73737 28.4463 10.1469C28.8962 10.5279 29.2996 11.3905 29.9735 12.8825C30.3542 13.7248 30.763 14.6971 31.0519 15.432C31.0483 15.3643 31.0448 15.2993 31.0413 15.2374C31.0194 14.8377 31.0104 14.6567 31.0261 14.559C31.0601 14.341 31.3043 14.0529 31.671 14.0814C31.9192 14.1 32.9999 14.2515 33.0472 14.2581L33.0863 14.2678C33.1305 14.283 33.5249 14.4274 33.691 14.7762C33.7882 14.9889 33.8733 15.207 33.9458 15.4293L33.9536 15.4616C33.9607 15.5068 34.017 15.9081 33.8078 16.1868C33.7571 16.2539 33.6932 16.3101 33.6199 16.3518C33.5467 16.3935 33.4656 16.4198 33.3818 16.4293C32.9668 16.4798 32.5491 16.5041 32.131 16.5021C32.1232 16.6165 32.1123 16.7598 32.099 16.887C32.5137 17.0385 33.5061 17.4557 33.8219 18.0785C34.1076 18.639 34.2558 19.2762 34.3441 19.6573C34.3672 19.7562 34.3832 19.8344 34.4 19.8838C34.5513 20.3899 35.0027 23.0842 34.4516 27.0643C34.4516 27.4014 34.475 31.5597 34.1823 33.1252C34.169 33.314 34.0545 34.4568 33.3466 34.4568Z" fill="#80EF80"/>
<path d="M29.3777 15.9829C29.2996 15.9829 29.2194 15.9794 29.1319 15.9723C28.125 15.8898 22.1311 15.7092 20.5415 15.7275L20.5364 15.2939C22.1311 15.2744 28.1547 15.457 29.1674 15.5399C29.6201 15.5788 29.7404 15.494 29.7612 15.4753C29.2773 14.3924 28.0285 11.6217 27.8627 11.3493C27.7099 11.0982 27.3632 11.0939 27.3546 11.0939H27.3417H27.3288C25.967 10.948 20.5301 10.8849 20.4754 10.8841L20.4805 10.4505C20.7041 10.4532 25.9674 10.5143 27.3652 10.6619C27.4629 10.6642 27.9722 10.6969 28.2333 11.1262C28.4455 11.4766 29.9922 14.9354 30.1696 15.3301L30.1751 15.3437C30.1975 15.4098 30.2032 15.4804 30.1917 15.5492C30.1803 15.6181 30.152 15.683 30.1094 15.7384C29.984 15.9011 29.7447 15.9829 29.3777 15.9829Z" fill="#80EF80"/>
<path d="M30.5914 30.1861C30.3287 30.1861 30.1223 30.1814 30.0141 30.1783L30.0262 29.745C31.1054 29.775 32.7532 29.712 33.0401 29.48C33.492 29.1152 33.9047 28.524 34.0216 28.074L34.443 28.1814C34.3034 28.7198 33.8391 29.392 33.3145 29.8163C32.9186 30.1362 31.4575 30.1861 30.5914 30.1861Z" fill="#80EF80"/>
<path d="M28.3005 21.4619C27.5696 21.4619 27.4016 21.2571 27.2925 20.6795C27.2311 20.3502 27.2464 19.815 27.2698 19.4238C27.2859 19.161 27.5169 18.9563 27.7905 18.9524C28.6465 18.9473 31.4982 18.9325 32.2807 18.9543C32.6243 18.9641 32.8807 19.0633 33.0425 19.2498C33.3052 19.5522 33.2532 19.9971 33.211 20.3548C33.2059 20.4004 33.2004 20.4455 33.1957 20.4895C33.1371 21.0559 32.6036 21.2704 32.33 21.3046H32.3128C32.1752 21.3124 28.9189 21.4619 28.3005 21.4619ZM27.7924 19.386C27.7723 19.3841 27.7521 19.3896 27.7357 19.4014C27.7193 19.4132 27.7078 19.4306 27.7033 19.4502C27.6716 19.9683 27.6775 20.377 27.7193 20.5997C27.792 20.9889 27.7975 21.0279 28.299 21.0279C28.89 21.0279 32.07 20.8827 32.2811 20.8722C32.3382 20.8628 32.7263 20.7873 32.7619 20.444C32.7666 20.3981 32.772 20.351 32.7779 20.3031C32.8115 20.0158 32.8498 19.6904 32.7126 19.5324C32.6344 19.4417 32.484 19.3926 32.2678 19.3868C31.4919 19.365 28.6465 19.3798 27.7924 19.3868V19.386Z" fill="#80EF80"/>
<path d="M26.6015 24.5856H20.511V24.1519H26.166V18.7025C26.166 18.3786 25.8217 18.3424 25.7525 18.3385L25.7279 18.3358C23.1247 17.9014 20.5325 17.8415 20.5063 17.8411L20.5157 17.4075C20.5419 17.4075 23.1568 17.4682 25.7877 17.9061C26.0773 17.924 26.6015 18.1108 26.6015 18.7025V24.5856Z" fill="#80EF80"/>
<path d="M25.2471 23.971H20.2624V23.6596H25.2471C25.288 23.6611 25.3288 23.654 25.3667 23.6386C25.4047 23.6232 25.4389 23.6 25.4671 23.5704C25.6321 23.4015 25.659 23.034 25.6555 22.9068V19.4759C25.6555 19.4125 25.6415 19.3681 25.6133 19.3444C25.5652 19.3035 25.4718 19.3078 25.4429 19.3125L25.4284 19.3144H25.4128L20.2585 19.1898L20.2659 18.8784L25.4062 19.0046C25.4691 18.9964 25.6641 18.9835 25.8115 19.1062C25.8818 19.1649 25.9678 19.2766 25.9678 19.4759V22.9036C25.9678 22.9589 25.9776 23.4941 25.6923 23.7872C25.6347 23.8466 25.5654 23.8936 25.4889 23.9252C25.4123 23.9568 25.33 23.9724 25.2471 23.971Z" fill="#80EF80"/>
<path d="M27.7049 19.4623L27.2698 19.4491C27.2874 18.8839 27.4653 18.4448 27.8096 18.1058C27.9597 17.9586 28.17 17.8777 28.6304 17.7002C28.9205 17.5889 29.3176 17.4363 29.8671 17.2035C30.8943 16.7687 31.0077 16.548 31.012 16.5387C31.0014 16.5734 31.0039 16.6108 31.019 16.6438L31.4255 16.4854C31.5451 16.7909 31.0913 17.1564 30.0383 17.6021C29.4821 17.838 29.0807 17.9913 28.7876 18.1046C28.3967 18.2549 28.2013 18.3304 28.1145 18.4141C27.853 18.6714 27.7189 19.0139 27.7049 19.4623Z" fill="#80EF80"/>
<path d="M26.5936 18.7593L26.1738 18.6449C26.1867 18.5986 26.5057 17.5032 28.1493 16.9758C28.4709 16.8726 28.7528 16.7858 29.0041 16.7088C29.9543 16.4176 30.4315 16.2713 30.9193 15.8801L31.1929 16.2179C30.6403 16.6609 30.1048 16.8252 29.1331 17.1233C28.8833 17.2012 28.6031 17.286 28.2837 17.3884C26.861 17.8442 26.5964 18.7504 26.5936 18.7593Z" fill="#80EF80"/>
<path d="M27.0603 21.7702C28.086 21.7427 29.1105 21.701 30.1341 21.6452C30.6456 21.6172 31.1561 21.5825 31.6655 21.5413C32.1736 21.4988 32.6849 21.4494 33.1727 21.3626L33.2387 21.7908C32.7107 21.8465 32.1971 21.8589 31.6811 21.8659C31.1652 21.8729 30.652 21.8698 30.1384 21.8616C29.1112 21.845 28.0852 21.8145 27.0603 21.7702Z" fill="#80EF80"/>
<path d="M32.3577 18.9602C32.4973 18.9628 32.636 18.9844 32.7697 19.0244C32.9131 19.0652 33.0458 19.137 33.1582 19.2346C33.2799 19.344 33.361 19.491 33.3884 19.6519C33.4088 19.8204 33.3959 19.9142 33.4002 20.0337C33.4064 20.4977 33.4283 20.9699 33.4334 21.4428C33.4385 21.9157 33.4357 22.3918 33.3693 22.8729C33.3343 23.1152 33.2758 23.3535 33.1946 23.5844C33.1501 23.7168 33.0709 23.835 32.9651 23.9266C32.8404 24.0185 32.7021 24.0434 32.5836 24.0636L32.2319 24.1142C32.1087 24.1306 31.9911 24.1387 31.8727 24.1485C31.6362 24.166 31.4001 24.1796 31.1644 24.1928L29.7491 24.2602L26.9192 24.3688L29.7424 24.152L31.1519 24.0305C31.3864 24.0087 31.6209 23.9858 31.8555 23.9597C31.9727 23.9457 32.09 23.9324 32.199 23.9134L32.5457 23.8503C32.6579 23.8285 32.7572 23.7989 32.8221 23.746C32.8901 23.6776 32.9395 23.5931 32.9655 23.5004C33.0313 23.2845 33.0763 23.063 33.1 22.8386C33.1449 22.3856 33.1301 21.9181 33.1078 21.4529C33.0855 20.9878 33.0449 20.5187 33.0202 20.0446C33.0136 19.9279 33.0136 19.7874 33.0011 19.7235C32.9861 19.6509 32.9463 19.5857 32.8885 19.539C32.7744 19.4398 32.5504 19.3911 32.3675 19.3938L32.3577 18.9602Z" fill="#80EF80"/>
<path d="M27.0603 23.3458C28.0867 23.3071 29.1118 23.2532 30.1356 23.1839C30.6469 23.1473 31.1577 23.106 31.6663 23.0554C32.1748 23.0048 32.6872 22.9437 33.157 22.8304L33.254 23.2532C32.7169 23.3427 32.206 23.3594 31.6882 23.3801C31.1703 23.4007 30.6574 23.3999 30.1431 23.4003C29.1143 23.398 28.0867 23.3798 27.0603 23.3458Z" fill="#80EF80"/>
<path d="M25.4703 19.1556H25.2213V23.816H25.4703V19.1556Z" fill="#80EF80"/>
<path d="M24.9825 19.1439H24.7335V23.8157H24.9825V19.1439Z" fill="#80EF80"/>
<path d="M24.4951 19.1314H24.2461V23.816H24.4951V19.1314Z" fill="#80EF80"/>
<path d="M24.0073 19.1201H23.7583V23.816H24.0073V19.1201Z" fill="#80EF80"/>
<path d="M23.5195 19.1077H23.2705V23.816H23.5195V19.1077Z" fill="#80EF80"/>
<path d="M23.0317 19.0968H22.7827V23.816H23.0317V19.0968Z" fill="#80EF80"/>
<path d="M22.5443 19.1314H22.2953V23.816H22.5443V19.1314Z" fill="#80EF80"/>
<path d="M22.0565 19.0735H21.8075V23.816H22.0565V19.0735Z" fill="#80EF80"/>
<path d="M21.5687 19.0618H21.3197V23.816H21.5687V19.0618Z" fill="#80EF80"/>
<path d="M27.4461 30.1047C27.3152 29.9451 26.166 28.522 26.166 27.6766V24.368H26.6015V27.6766C26.6015 28.2624 27.4547 29.4282 27.7831 29.8299L27.4461 30.1047Z" fill="#80EF80"/>
<path d="M24.7808 28.8311C23.004 28.8311 20.658 28.8159 20.5095 28.8147L20.5126 28.3811C20.5677 28.3811 26.0304 28.4177 26.6777 28.3811L26.7023 28.814C26.476 28.8268 25.7052 28.8311 24.7808 28.8311Z" fill="#80EF80"/>
<path d="M24.5639 27.2262C23.4014 27.2262 21.8798 27.211 20.5083 27.1931L20.5137 26.7595C22.6244 26.7872 26.0679 26.8128 26.3302 26.7665C26.3225 26.7682 26.3149 26.7704 26.3075 26.7731L26.4615 27.1795C26.3681 27.2138 25.6118 27.2262 24.5639 27.2262Z" fill="#80EF80"/>
<path d="M24.9946 27.009H24.5592V28.6143H24.9946V27.009Z" fill="#80EF80"/>
<path d="M30.43 34.1369L30.0782 33.88C30.5433 33.2494 30.6195 30.8439 30.6094 29.97L31.0448 29.9653C31.0499 30.3013 31.0651 33.2755 30.43 34.1369Z" fill="#80EF80"/>
<path d="M26.9192 26.018C28.1059 25.9012 29.2929 25.8269 30.4792 25.7572C31.0714 25.7183 31.6659 25.6934 32.2537 25.6486L32.4718 25.6303C32.55 25.6256 32.6028 25.6159 32.6802 25.6081C32.7706 25.5961 32.8622 25.6186 32.9366 25.6712C32.9869 25.7076 33.0304 25.7525 33.0652 25.8039C33.1164 25.8808 33.1576 25.9638 33.1879 26.0511C33.2419 26.2041 33.2812 26.362 33.3052 26.5224C33.3173 26.6003 33.3263 26.6781 33.3329 26.7583L33.3474 26.981C33.3669 27.2737 33.3919 27.5839 33.3524 27.9078C33.3348 28.0816 33.2849 28.2507 33.2051 28.4064C33.158 28.4952 33.0944 28.5745 33.0179 28.6399C32.9384 28.7068 32.8449 28.7551 32.7443 28.7812C32.6618 28.7997 32.5783 28.8128 32.4941 28.8202L32.2682 28.842L31.8203 28.8774C31.522 28.8992 31.2238 28.914 30.9256 28.9241C30.3291 28.9482 29.7323 28.9531 29.135 28.9389C28.8364 28.928 28.5378 28.9151 28.2399 28.8883C27.9413 28.867 27.6451 28.8198 27.3546 28.7474C27.5023 28.764 27.6508 28.772 27.7994 28.7715C27.9472 28.7742 28.0957 28.7715 28.2435 28.768C28.5397 28.759 28.8356 28.7462 29.1315 28.7256C29.7229 28.6898 30.3135 28.6388 30.9033 28.5862L31.787 28.4986L32.2264 28.4488L32.4437 28.42C32.5074 28.4124 32.5705 28.4011 32.6329 28.3861C32.6774 28.3725 32.7186 28.3496 32.7537 28.3191C32.7889 28.2886 32.8172 28.2511 32.8369 28.209C32.8897 28.099 32.9218 27.9803 32.9315 27.8587C32.9616 27.5933 32.9373 27.3091 32.9151 27.0125L32.9033 26.7918C32.8983 26.7237 32.8912 26.6548 32.8815 26.5867C32.8636 26.4544 32.8334 26.3241 32.7912 26.1974C32.7736 26.1444 32.7499 26.0935 32.7204 26.046C32.7139 26.0358 32.7061 26.0264 32.6974 26.018C32.7115 26.0254 32.7277 26.028 32.7435 26.0254C32.6727 26.032 32.5793 26.0452 32.509 26.0483L32.2823 26.0608C31.6831 26.0826 31.0893 26.0997 30.4937 26.0997C29.2996 26.1005 28.1098 26.0822 26.9192 26.018Z" fill="#80EF80"/>
<path d="M26.8254 27.0581C27.8714 27.0256 28.9164 26.9785 29.9605 26.9168C30.4817 26.8854 31.0029 26.8465 31.524 26.8C32.0423 26.7529 32.5621 26.7011 33.0664 26.6159L33.1254 27.0441C32.5926 27.0962 32.0673 27.1118 31.5416 27.1219C31.0159 27.132 30.4917 27.1336 29.968 27.1289C28.9186 27.1232 27.8711 27.0996 26.8254 27.0581Z" fill="#80EF80"/>
<path d="M8.35316 26.3753C8.36115 26.3756 8.36911 26.3763 8.377 26.3776C8.38052 26.3726 8.38442 26.3702 8.3856 26.3679C8.37532 26.3723 8.36433 26.3748 8.35316 26.3753ZM8.35316 26.3753C8.36115 26.3756 8.36911 26.3763 8.377 26.3776C8.38052 26.3726 8.38442 26.3702 8.3856 26.3679C8.37532 26.3723 8.36433 26.3748 8.35316 26.3753ZM8.35316 26.3753C8.36115 26.3756 8.36911 26.3763 8.377 26.3776C8.38052 26.3726 8.38442 26.3702 8.3856 26.3679C8.37532 26.3723 8.36433 26.3748 8.35316 26.3753ZM8.35316 26.3753C8.36115 26.3756 8.36911 26.3763 8.377 26.3776C8.38052 26.3726 8.38442 26.3702 8.3856 26.3679C8.37532 26.3723 8.36433 26.3748 8.35316 26.3753ZM20.7436 10.4941V9.52601C20.509 9.51861 20.3715 9.51355 20.3715 9.51355C20.3715 9.51355 16.7263 9.64473 15.8992 9.68209C15.0721 9.71946 14.63 9.69572 14.3963 9.68209C14.2071 9.66964 13.1745 9.77629 12.7602 10.1328C12.3458 10.4894 11.9491 11.357 11.2909 12.8389C10.8035 13.9377 10.2746 15.2425 10.0108 15.9719C9.94863 16.1342 9.89488 16.2996 9.84978 16.4674C9.84956 16.4696 9.84862 16.4716 9.84712 16.4732C9.84561 16.4748 9.84362 16.4758 9.84146 16.4761C9.83931 16.4764 9.83711 16.476 9.83521 16.4749C9.83332 16.4738 9.83184 16.4722 9.83101 16.4702C9.80717 16.4055 9.75753 16.2125 9.77864 15.7181C9.80717 15.07 9.84469 14.6119 9.82593 14.4889C9.80413 14.3979 9.75039 14.3177 9.67441 14.2628C9.59843 14.2078 9.50522 14.1817 9.41162 14.1892C9.16772 14.2079 8.04945 14.3674 8.04945 14.3674C8.04945 14.3674 7.70237 14.4889 7.57065 14.7703C7.47751 14.9783 7.39608 15.1913 7.32675 15.4083C7.32675 15.4083 7.22199 16.0735 7.71097 16.1393C8.18449 16.1994 8.66211 16.2214 9.13918 16.2051C9.13918 16.2051 9.16772 16.7313 9.20524 16.9742C9.20524 16.9742 7.7907 17.4339 7.43853 18.1365C7.08636 18.8391 6.94604 19.6986 6.87491 19.938C6.80377 20.1773 6.2421 22.8355 6.83426 27.1694C6.83426 27.1694 6.83074 27.733 6.83816 28.5372C6.83816 28.6734 6.84051 28.817 6.84286 28.9654C6.86396 30.4184 6.9265 32.3759 7.10161 33.3226C7.10161 33.3226 7.17783 34.486 7.72269 34.486H10.3911C10.5538 34.4488 10.7021 34.3652 10.8179 34.2455C10.8457 34.217 10.8707 34.186 10.8926 34.1528C10.9845 34.024 11.0489 33.8481 11.0489 33.604V30.1315H11.1084L13.3789 30.1463C13.5545 30.1463 13.7361 30.1472 13.9238 30.149C16.3659 30.165 19.614 30.1798 20.5161 30.1701C20.581 30.1701 20.6568 30.1701 20.7451 30.1724V28.5683C20.6791 28.5683 18.2827 28.5847 16.4804 28.5847C15.5572 28.5847 14.7883 28.5808 14.5671 28.5683C14.7438 28.2375 14.8732 27.9066 14.8732 27.6478V26.9471C14.9388 26.9716 15.6107 26.9806 16.4804 26.9806C18.1936 26.9806 20.6677 26.9483 20.7451 26.9471V23.8763H15.8202C15.7874 23.876 15.7546 23.8731 15.7221 23.8678C15.7009 23.8638 15.68 23.8583 15.6596 23.8514C15.6294 23.8405 15.6007 23.826 15.574 23.8082C15.568 23.8053 15.5625 23.8015 15.5576 23.7969C15.5452 23.7893 15.5336 23.7806 15.5228 23.7709C15.501 23.7513 15.4806 23.7302 15.4618 23.7078C15.4544 23.6992 15.447 23.688 15.4407 23.6794C15.4204 23.6531 15.403 23.6248 15.3887 23.5949C15.3795 23.5785 15.3712 23.5616 15.3637 23.5443C15.3563 23.5268 15.3488 23.5097 15.3426 23.4922C15.3363 23.4746 15.3301 23.4563 15.325 23.4388C15.3199 23.4213 15.3141 23.4019 15.309 23.3832C15.3039 23.3645 15.3004 23.3497 15.2965 23.3326C15.2782 23.2484 15.2662 23.1631 15.2605 23.0772C15.2605 23.0671 15.2605 23.0574 15.2605 23.0461C15.2566 22.9869 15.2578 22.9484 15.2578 22.9484V19.4596C15.2578 19.0657 15.6522 19.1373 15.6522 19.1373H15.7233L16.1798 19.1264L17.0929 19.1038L17.5494 19.0929L18.0059 19.0816L18.919 19.0583L19.3755 19.047L19.8321 19.0357L20.2264 19.0259V19.0112H20.289L20.5165 19.0174L20.7455 19.0112V15.4219C20.6673 15.4219 20.595 15.4219 20.5301 15.4219C20.5256 15.4227 20.521 15.4227 20.5165 15.4219C20.5119 15.4227 20.5073 15.4227 20.5028 15.4219C18.8682 15.4048 12.8915 15.5905 11.9186 15.6734C10.9458 15.7563 11.0978 15.3254 11.0978 15.3254C11.0978 15.3254 12.8106 11.4251 13.0209 11.0721C13.2437 10.7004 13.7162 10.7054 13.7162 10.7054C14.9705 10.5692 19.5686 10.5034 20.4453 10.4925C20.4453 10.4925 20.4703 10.4925 20.5176 10.4925C20.5649 10.4925 20.5911 10.4925 20.5911 10.4925C20.6333 10.4937 20.6857 10.4948 20.7455 10.496L20.7436 10.4941ZM11.1162 27.1336C10.5912 27.1382 10.0675 27.1371 9.54256 27.1258C9.08485 27.116 8.62832 27.1036 8.16671 27.0639C8.14561 27.3453 8.12567 27.6166 8.15421 27.8704C8.16428 27.994 8.19631 28.1149 8.24879 28.2273C8.26815 28.2699 8.29634 28.3079 8.33151 28.3388C8.36668 28.3698 8.40802 28.3929 8.45283 28.4068C8.51521 28.4218 8.57836 28.4335 8.642 28.4418L8.85854 28.4702L9.29866 28.5208L10.182 28.6104C10.7718 28.6633 11.3628 28.7166 11.9538 28.7513C12.2497 28.7723 12.546 28.7847 12.8418 28.796C12.99 28.7999 13.1381 28.8023 13.2859 28.7984C13.4344 28.7995 13.5828 28.7913 13.7303 28.7738C13.4403 28.8476 13.1443 28.8956 12.8458 28.9175C12.5471 28.9459 12.2485 28.9583 11.9499 28.9681C11.3527 28.9834 10.7559 28.9788 10.1597 28.9545C9.86111 28.9447 9.56249 28.9299 9.26504 28.9062L8.8175 28.8704L8.5908 28.8482C8.50682 28.8403 8.42341 28.8273 8.34104 28.8093C8.2404 28.7818 8.14702 28.7328 8.06743 28.6656C7.99043 28.5992 7.92666 28.5189 7.87943 28.429C7.8004 28.2704 7.75075 28.099 7.73285 27.9229C7.69377 27.5933 7.718 27.2776 7.73794 26.9802L7.75279 26.7533C7.75904 26.6727 7.76764 26.5937 7.78015 26.5131C7.80407 26.3499 7.84332 26.1894 7.89741 26.0335C7.92732 25.9448 7.96871 25.8602 8.02053 25.7821C8.0549 25.7299 8.09831 25.6841 8.14873 25.647C8.2226 25.5936 8.31425 25.5705 8.40475 25.5824C8.48292 25.5902 8.53569 25.6011 8.61386 25.6062L8.83157 25.6233C9.41787 25.6704 10.0135 25.6941 10.6057 25.735C11.7924 25.8055 12.9794 25.8825 14.1661 26.0001C12.9755 26.0647 11.7849 26.083 10.5955 26.0779C9.99987 26.0779 9.40497 26.0631 8.80695 26.0409L8.58025 26.0285C8.52045 26.0262 8.44462 26.0149 8.38013 26.0086C8.34802 26.0639 8.32019 26.1216 8.29687 26.1811C8.25503 26.3102 8.22494 26.4428 8.20697 26.5773C8.20463 26.5995 8.20072 26.6205 8.19955 26.6419C8.64748 26.7112 9.10518 26.7556 9.56327 26.7976C10.0819 26.8447 10.6034 26.8841 11.1244 26.9144C12.1685 26.979 13.2136 27.0269 14.2595 27.058C13.2112 27.098 12.1634 27.1232 11.1162 27.1336ZM13.2761 18.7768C13.2789 18.7763 13.2819 18.7763 13.2847 18.7768C13.3556 18.7761 13.4244 18.8009 13.4783 18.8466C13.5323 18.8924 13.5678 18.9561 13.5782 19.0259C13.5788 19.0293 13.5788 19.0327 13.5782 19.0361C13.579 19.0397 13.579 19.0434 13.5782 19.047C13.5829 19.1275 13.588 19.2194 13.5919 19.3171C13.6044 19.6355 13.6056 20.022 13.5595 20.2711C13.47 20.7542 13.3851 20.8869 12.7656 20.8869C12.1461 20.8869 8.76239 20.7312 8.76239 20.7312C8.76239 20.7312 8.14287 20.6534 8.08541 20.0968C8.07799 20.0263 8.06939 19.9531 8.06079 19.8776L8.05805 19.9418C8.0346 20.3914 7.99864 20.8313 7.97597 21.2738C8.44266 21.3544 8.9289 21.4027 9.41435 21.4424C9.92248 21.4856 10.4345 21.5202 10.9458 21.5487C11.9683 21.6042 12.9925 21.6464 14.0183 21.6752C12.9935 21.7211 11.9676 21.7525 10.9407 21.7694C10.4271 21.7779 9.91284 21.7791 9.39794 21.7729C8.9203 21.7666 8.44384 21.7546 7.9576 21.7086C7.94245 22.0618 7.94989 22.4156 7.97988 22.7678C8.4325 22.8744 8.92773 22.9301 9.41318 22.9834C9.9213 23.0356 10.4318 23.0764 10.9446 23.1146C11.9671 23.1854 12.9917 23.2404 14.0183 23.2796C12.9925 23.3131 11.9653 23.3317 10.9368 23.3353C10.422 23.3353 9.90684 23.3302 9.39168 23.3131C8.94766 23.2956 8.50989 23.2808 8.05688 23.2189C8.07447 23.2968 8.09597 23.3746 8.11903 23.4482C8.15538 23.5509 8.19994 23.6428 8.26599 23.6922C8.33205 23.7417 8.43406 23.774 8.54585 23.795L8.89177 23.8581C9.00238 23.8779 9.12081 23.8915 9.23495 23.9051C9.46946 23.9312 9.70398 23.9534 9.93655 23.9772L11.3437 24.1009C12.263 24.1761 13.0545 24.2383 14.1602 24.3201C13.2203 24.2864 12.2799 24.25 11.339 24.2111L9.92795 24.1414C9.69343 24.1278 9.45891 24.1142 9.22127 24.0955C9.10401 24.0858 8.98675 24.0784 8.86284 24.062L8.51106 24.0114C8.39381 23.9916 8.257 23.9694 8.13154 23.8787C8.00607 23.788 7.94001 23.6533 7.89272 23.5369C7.80953 23.3022 7.74995 23.0598 7.71487 22.8133C7.64765 22.3252 7.64374 21.8402 7.64765 21.3614C7.65155 20.8827 7.67501 20.4012 7.68126 19.9302V19.7542C7.68126 19.7246 7.68126 19.6997 7.68126 19.6639L7.68869 19.5471C7.70909 19.3833 7.78345 19.2308 7.90014 19.1135C8.01698 19.007 8.15182 18.9218 8.29843 18.8621C8.4235 18.8247 8.55171 18.7986 8.68148 18.7842C8.68759 18.7836 8.69375 18.7836 8.69985 18.7842H8.70611C8.73347 18.7807 8.76356 18.7796 8.79327 18.778C9.56992 18.7558 12.3693 18.7694 13.2761 18.7768ZM8.3512 26.3753C8.35919 26.3756 8.36716 26.3763 8.37504 26.3776C8.37856 26.3726 8.38247 26.3702 8.38364 26.3679C8.37398 26.3721 8.36367 26.3746 8.35316 26.3753H8.3512ZM8.3512 26.3753C8.35919 26.3756 8.36716 26.3763 8.37504 26.3776C8.37856 26.3726 8.38247 26.3702 8.38364 26.3679C8.37398 26.3721 8.36367 26.3746 8.35316 26.3753H8.3512ZM8.3512 26.3753C8.35919 26.3756 8.36716 26.3763 8.37504 26.3776C8.37856 26.3726 8.38247 26.3702 8.38364 26.3679C8.37398 26.3721 8.36367 26.3746 8.35316 26.3753H8.3512ZM8.3512 26.3753C8.35919 26.3756 8.36716 26.3763 8.37504 26.3776C8.37856 26.3726 8.38247 26.3702 8.38364 26.3679C8.37398 26.3721 8.36367 26.3746 8.35316 26.3753H8.3512Z" fill="white"/>
<path d="M20.0815 24.0005H19.3744V18.9248L20.0815 18.9073V24.0005ZM19.6234 23.7522H19.8321V19.1618L19.6234 19.1669V23.7522Z" fill="white"/>
<path d="M19.6234 24.0005H18.9178V18.936L19.6249 18.9185L19.6234 24.0005ZM19.1653 23.7522H19.3744V19.1731L19.1653 19.1781V23.7522Z" fill="white"/>
<path d="M19.1652 24.0005H18.0001V18.959L19.1652 18.9298V24.0005ZM18.2494 23.7522H18.9178V19.1844L18.251 19.2011L18.2494 23.7522Z" fill="white"/>
<path d="M18.2495 24.0005H17.5424V18.9703L18.2495 18.9528V24.0005ZM17.7914 23.7522H18.0001V19.207L17.7914 19.2124V23.7522Z" fill="white"/>
<path d="M17.7914 24.0005H17.0843V18.9816L17.7914 18.9641V24.0005ZM17.3333 23.7522H17.5424V19.2186L17.3333 19.2237V23.7522Z" fill="white"/>
<path d="M17.3333 24.0005H16.6262V18.9929L17.3333 18.9753V24.0005ZM16.8756 23.7522H17.0843V19.2287L16.8756 19.2338V23.7522Z" fill="white"/>
<path d="M16.8756 24.0005H16.1681V19.0042L16.8756 18.9867V24.0005ZM16.4163 23.7522H16.625V19.2412L16.4163 19.2463V23.7522Z" fill="white"/>
<path d="M16.4163 24.0005H15.9336C15.8943 24.0002 15.8551 23.9967 15.8164 23.99L15.712 23.9729V19.0155L16.4191 18.998L16.4163 24.0005ZM15.9582 23.7522H16.167V19.2525L15.9582 19.2576V23.7522Z" fill="white"/>
<path d="M15.9594 24.0188L15.8105 23.9893C15.2222 23.8725 15.2426 22.9827 15.2437 22.9445V19.4596C15.2437 19.2685 15.3219 19.1626 15.3887 19.1093C15.5295 18.9925 15.7167 19.0077 15.7722 19.0151L15.9594 19.0119V24.0188ZM15.6948 19.2568C15.6425 19.2541 15.5907 19.2689 15.5478 19.2988C15.5111 19.3296 15.4927 19.3837 15.4927 19.4596V22.9484C15.4927 22.9574 15.4857 23.4673 15.7104 23.6701V19.2572L15.6948 19.2568Z" fill="white"/>
<path d="M18.7072 19.1089H18.4578V23.8764H18.7072V19.1089Z" fill="white"/>
<path d="M16.6989 26.9689H16.2627V28.6162H16.6989V26.9689Z" fill="white"/>
<path d="M33.39 8.00914C34.8702 8.00914 36.0701 9.24539 36.0701 10.7697V33.2292C36.0701 34.7539 34.8702 35.9897 33.39 35.9897H24.0092C22.529 35.9897 21.329 34.7539 21.329 33.2292V10.7697C21.329 9.24539 22.529 8.00914 24.0092 8.00914H33.39ZM33.39 6.62888H24.0092C21.7887 6.62888 19.9892 8.48285 19.9892 10.7697V33.2292C19.9892 35.5164 21.7871 37.37 24.0092 37.37H33.39C35.6101 37.37 37.41 35.5164 37.41 33.2292V10.7697C37.41 8.48285 35.6101 6.62888 33.39 6.62888Z" fill="white"/>
<path d="M29.9172 31.4375C29.6355 31.1567 29.2648 30.9818 28.8682 30.9427C28.4716 30.9036 28.0737 31.0026 27.7422 31.2229C27.4107 31.4433 27.1662 31.7712 27.0503 32.151C26.9345 32.5307 26.9544 32.9387 27.1067 33.3055C27.2591 33.6722 27.5344 33.975 27.8858 34.1622C28.2372 34.3495 28.6429 34.4096 29.0338 34.3323C29.4247 34.255 29.7766 34.0452 30.0296 33.7385C30.2825 33.4318 30.4208 33.0472 30.421 32.6503C30.4215 32.4251 30.3772 32.2019 30.2907 31.9938C30.2042 31.7856 30.0773 31.5966 29.9172 31.4375ZM29.823 33.1638C29.8229 33.258 29.7852 33.3484 29.7184 33.4151C29.6515 33.4818 29.5608 33.5193 29.4661 33.5195H27.9331C27.8385 33.5193 27.7477 33.4818 27.6808 33.4151C27.6138 33.3484 27.5761 33.258 27.5759 33.1638V32.2463C27.576 32.152 27.6137 32.0616 27.6807 31.995C27.7477 31.9284 27.8385 31.8909 27.9331 31.8909H28.2787V31.7395C28.2787 31.7207 28.2825 31.702 28.2898 31.6847C28.2971 31.6673 28.3078 31.6516 28.3212 31.6383C28.3347 31.6251 28.3506 31.6146 28.3681 31.6075C28.3856 31.6005 28.4044 31.5969 28.4233 31.597H28.9779C29.0159 31.597 29.0523 31.6121 29.0791 31.6388C29.1059 31.6655 29.121 31.7017 29.121 31.7395V31.8909H29.4669C29.5615 31.8909 29.6523 31.9284 29.7192 31.995C29.7862 32.0617 29.8238 32.1521 29.8238 32.2463L29.823 33.1638ZM28.6996 32.0871C28.578 32.0872 28.4591 32.1232 28.3581 32.1905C28.257 32.2579 28.1783 32.3536 28.1318 32.4655C28.0854 32.5775 28.0733 32.7006 28.0971 32.8194C28.1209 32.9381 28.1796 33.0472 28.2657 33.1327C28.3518 33.2183 28.4614 33.2765 28.5807 33.3C28.7 33.3235 28.8236 33.3113 28.9359 33.2648C29.0482 33.2183 29.1442 33.1397 29.2116 33.0389C29.2791 32.9382 29.315 32.8197 29.3148 32.6986C29.3149 32.6182 29.299 32.5386 29.2682 32.4643C29.2373 32.39 29.1921 32.3225 29.135 32.2657C29.078 32.2088 29.0102 32.1637 28.9356 32.1329C28.8611 32.1022 28.7811 32.0863 28.7004 32.0863L28.6996 32.0871ZM28.6996 33.1353C28.613 33.1353 28.5282 33.1097 28.4562 33.0618C28.3841 33.0138 28.3279 32.9456 28.2948 32.8659C28.2616 32.7861 28.253 32.6984 28.2699 32.6137C28.2869 32.5291 28.3286 32.4513 28.3899 32.3903C28.4513 32.3293 28.5294 32.2878 28.6144 32.271C28.6994 32.2542 28.7875 32.2629 28.8676 32.296C28.9476 32.3291 29.016 32.3851 29.0641 32.4569C29.1122 32.5287 29.1379 32.6131 29.1378 32.6994C29.1378 32.7566 29.1265 32.8132 29.1045 32.866C29.0825 32.9188 29.0503 32.9668 29.0097 33.0072C28.969 33.0477 28.9208 33.0797 28.8678 33.1015C28.8147 33.1234 28.7578 33.1346 28.7004 33.1346L28.6996 33.1353Z" fill="white"/>
</g>
<defs>
<linearGradient id="paint0_linear" x1="21.9998" y1="43.9996" x2="21.9998" y2="-0.000350475" gradientUnits="userSpaceOnUse">
<stop stop-color="#0052D4"/>
<stop offset="0.53" stop-color="#4364F7"/>
<stop offset="1" stop-color="#6FB1FC"/>
</linearGradient>
<clipPath id="clip0">
<rect width="44" height="44" fill="white"/>
</clipPath>
</defs>
</svg>
