<svg width="209" height="44" viewBox="0 0 209 44" fill="none" xmlns="http://www.w3.org/2000/svg">
<path d="M56.472 15.368H51.096V12.2H65.736V15.368H60.36V29H56.472V15.368ZM70.8587 17.792C71.3067 17.168 71.9067 16.696 72.6587 16.376C73.4267 16.056 74.3067 15.896 75.2987 15.896V19.352C74.8827 19.32 74.6027 19.304 74.4587 19.304C73.3867 19.304 72.5467 19.608 71.9387 20.216C71.3307 20.808 71.0267 21.704 71.0267 22.904V29H67.2827V16.088H70.8587V17.792ZM90.6266 16.088V29H87.0746V27.464C86.5786 28.024 85.9866 28.456 85.2986 28.76C84.6106 29.048 83.8666 29.192 83.0666 29.192C81.3706 29.192 80.0266 28.704 79.0346 27.728C78.0426 26.752 77.5466 25.304 77.5466 23.384V16.088H81.2906V22.832C81.2906 24.912 82.1626 25.952 83.9066 25.952C84.8026 25.952 85.5226 25.664 86.0666 25.088C86.6106 24.496 86.8826 23.624 86.8826 22.472V16.088H90.6266ZM100.335 29.192C98.9592 29.192 97.7192 28.912 96.6152 28.352C95.5272 27.776 94.6712 26.984 94.0472 25.976C93.4392 24.968 93.1352 23.824 93.1352 22.544C93.1352 21.264 93.4392 20.12 94.0472 19.112C94.6712 18.104 95.5272 17.32 96.6152 16.76C97.7192 16.184 98.9592 15.896 100.335 15.896C101.695 15.896 102.879 16.184 103.887 16.76C104.911 17.32 105.655 18.128 106.119 19.184L103.215 20.744C102.543 19.56 101.575 18.968 100.311 18.968C99.3352 18.968 98.5272 19.288 97.8872 19.928C97.2472 20.568 96.9272 21.44 96.9272 22.544C96.9272 23.648 97.2472 24.52 97.8872 25.16C98.5272 25.8 99.3352 26.12 100.311 26.12C101.591 26.12 102.559 25.528 103.215 24.344L106.119 25.928C105.655 26.952 104.911 27.752 103.887 28.328C102.879 28.904 101.695 29.192 100.335 29.192ZM113.725 23.936L111.925 25.712V29H108.181V11.192H111.925V21.272L117.397 16.088H121.861L116.485 21.56L122.341 29H117.805L113.725 23.936ZM129.606 29.192C128.246 29.192 127.022 28.912 125.934 28.352C124.862 27.776 124.022 26.984 123.414 25.976C122.806 24.968 122.502 23.824 122.502 22.544C122.502 21.264 122.806 20.12 123.414 19.112C124.022 18.104 124.862 17.32 125.934 16.76C127.022 16.184 128.246 15.896 129.606 15.896C130.966 15.896 132.182 16.184 133.254 16.76C134.326 17.32 135.166 18.104 135.774 19.112C136.382 20.12 136.686 21.264 136.686 22.544C136.686 23.824 136.382 24.968 135.774 25.976C135.166 26.984 134.326 27.776 133.254 28.352C132.182 28.912 130.966 29.192 129.606 29.192ZM129.606 26.12C130.566 26.12 131.35 25.8 131.958 25.16C132.582 24.504 132.894 23.632 132.894 22.544C132.894 21.456 132.582 20.592 131.958 19.952C131.35 19.296 130.566 18.968 129.606 18.968C128.646 18.968 127.854 19.296 127.23 19.952C126.606 20.592 126.294 21.456 126.294 22.544C126.294 23.632 126.606 24.504 127.23 25.16C127.854 25.8 128.646 26.12 129.606 26.12ZM147.037 15.896C148.637 15.896 149.925 16.376 150.901 17.336C151.893 18.296 152.389 19.72 152.389 21.608V29H148.645V22.184C148.645 21.16 148.421 20.4 147.973 19.904C147.525 19.392 146.877 19.136 146.029 19.136C145.085 19.136 144.333 19.432 143.773 20.024C143.213 20.6 142.933 21.464 142.933 22.616V29H139.189V16.088H142.765V17.6C143.261 17.056 143.877 16.64 144.613 16.352C145.349 16.048 146.157 15.896 147.037 15.896ZM163.631 15.896C165.231 15.896 166.519 16.376 167.495 17.336C168.487 18.296 168.983 19.72 168.983 21.608V29H165.239V22.184C165.239 21.16 165.015 20.4 164.567 19.904C164.119 19.392 163.471 19.136 162.623 19.136C161.679 19.136 160.927 19.432 160.367 20.024C159.807 20.6 159.527 21.464 159.527 22.616V29H155.783V16.088H159.359V17.6C159.855 17.056 160.471 16.64 161.207 16.352C161.943 16.048 162.751 15.896 163.631 15.896ZM178.661 29.192C177.301 29.192 176.077 28.912 174.989 28.352C173.917 27.776 173.077 26.984 172.469 25.976C171.861 24.968 171.557 23.824 171.557 22.544C171.557 21.264 171.861 20.12 172.469 19.112C173.077 18.104 173.917 17.32 174.989 16.76C176.077 16.184 177.301 15.896 178.661 15.896C180.021 15.896 181.237 16.184 182.309 16.76C183.381 17.32 184.221 18.104 184.829 19.112C185.437 20.12 185.741 21.264 185.741 22.544C185.741 23.824 185.437 24.968 184.829 25.976C184.221 26.984 183.381 27.776 182.309 28.352C181.237 28.912 180.021 29.192 178.661 29.192ZM178.661 26.12C179.621 26.12 180.405 25.8 181.013 25.16C181.637 24.504 181.949 23.632 181.949 22.544C181.949 21.456 181.637 20.592 181.013 19.952C180.405 19.296 179.621 18.968 178.661 18.968C177.701 18.968 176.909 19.296 176.285 19.952C175.661 20.592 175.349 21.456 175.349 22.544C175.349 23.632 175.661 24.504 176.285 25.16C176.909 25.8 177.701 26.12 178.661 26.12ZM208.628 16.088L203.948 29H200.348L197.444 20.984L194.444 29H190.844L186.188 16.088H189.716L192.764 24.824L195.932 16.088H199.1L202.172 24.824L205.316 16.088H208.628Z" fill="#F9F9F9"/>
<g clip-path="url(#clip0)">
<path d="M28.068 31.7144C27.7357 31.7147 27.411 31.8155 27.1349 32.0038C26.8588 32.1921 26.6437 32.4597 26.5167 32.7725C26.3898 33.0854 26.3566 33.4296 26.4215 33.7617C26.4865 34.0937 26.6465 34.3987 26.8814 34.6381C27.1164 34.8775 27.4157 35.0406 27.7415 35.1067C28.0674 35.1729 28.4051 35.1391 28.7122 35.0097C29.0192 34.8803 29.2817 34.6611 29.4665 34.3798C29.6514 34.0984 29.7502 33.7676 29.7506 33.429C29.7508 33.2038 29.7075 32.9807 29.623 32.7725C29.5385 32.5644 29.4146 32.3753 29.2583 32.216C29.102 32.0567 28.9164 31.9304 28.7122 31.8444C28.5079 31.7583 28.289 31.7141 28.068 31.7144Z" fill="white"/>
<path d="M43 9.52905V34.4684C43 39.517 39.1485 43.6476 34.2767 43.9785C34.0689 43.9921 33.8565 43.9995 33.6468 43.9995H9.35281C4.18728 43.9995 0 39.7326 0 34.4684V9.52905C0 4.26644 4.18728 -0.000474311 9.35319 -0.000474311H33.6472C36.0245 -0.00462856 38.3133 0.917838 40.0446 2.57789C40.1772 2.70401 40.3063 2.83402 40.43 2.96714C40.9315 3.50481 41.3698 4.10022 41.736 4.74132C41.7773 4.81333 41.8174 4.88495 41.8563 4.95813C42.6094 6.35924 43.0028 7.93155 43 9.52905Z" fill="url(#paint0_linear)"/>
<g opacity="0.4">
<path opacity="0.4" d="M27.2169 32.5579L29.2911 30.4443V32.5579H27.2169Z" fill="#D4DFFF"/>
<path opacity="0.4" d="M29.2911 30.4443L31.3649 32.5579H29.2911V30.4443Z" fill="#E9F0FF"/>
<path opacity="0.4" d="M31.3649 32.5576L29.2911 34.6712V32.5576H31.3649Z" fill="#AAD0FF"/>
<path opacity="0.4" d="M29.2911 34.6712L27.2169 32.5576H29.2911V34.6712Z" fill="#7FB8FF"/>
<path opacity="0.4" d="M31.3649 28.3311L33.439 30.4443H31.3649V28.3311Z" fill="#D4DFFF"/>
<path opacity="0.4" d="M33.439 30.4443L31.3649 32.5579V30.4443H33.439Z" fill="#E9F0FF"/>
<path opacity="0.4" d="M31.3649 32.5579L29.2911 30.4443H31.3649V32.5579Z" fill="#AAD0FF"/>
<path opacity="0.4" d="M29.2911 30.4443L31.3649 28.3311V30.4443H29.2911Z" fill="#7FB8FF"/>
<path opacity="0.4" d="M27.2169 36.785L25.1428 34.6714H27.2169V36.785Z" fill="#D4DFFF"/>
<path opacity="0.4" d="M25.1428 34.6712L27.2169 32.5576V34.6712H25.1428Z" fill="#E9F0FF"/>
<path opacity="0.4" d="M27.2169 32.5576L29.2911 34.6712H27.2169V32.5576Z" fill="#AAD0FF"/>
<path opacity="0.4" d="M29.2911 34.6714L27.2169 36.785V34.6714H29.2911Z" fill="#7FB8FF"/>
<path opacity="0.4" d="M27.2169 36.7852L25.1428 38.8984V36.7852H27.2169Z" fill="#D4DFFF"/>
<path opacity="0.4" d="M25.1427 38.8984L23.0686 36.7852H25.1427V38.8984Z" fill="#E9F0FF"/>
<path opacity="0.4" d="M23.0686 36.785L25.1427 34.6714V36.785H23.0686Z" fill="#AAD0FF"/>
<path opacity="0.4" d="M25.1428 34.6714L27.2169 36.785H25.1428V34.6714Z" fill="#7FB8FF"/>
<path opacity="0.4" d="M31.3649 28.3309L33.439 26.2173V28.3309H31.3649Z" fill="#D4DFFF"/>
<path opacity="0.4" d="M33.439 26.2173L35.5132 28.3309H33.439V26.2173Z" fill="#E9F0FF"/>
<path opacity="0.4" d="M35.5132 28.3311L33.439 30.4443V28.3311H35.5132Z" fill="#AAD0FF"/>
<path opacity="0.4" d="M33.439 30.4443L31.3649 28.3311H33.439V30.4443Z" fill="#7FB8FF"/>
<path opacity="0.4" d="M35.5132 28.3309L33.439 26.2173H35.5132V28.3309Z" fill="#D4DFFF"/>
<path opacity="0.4" d="M33.439 26.2171L35.5132 24.1035V26.2171H33.439Z" fill="#E9F0FF"/>
<path opacity="0.4" d="M35.5132 24.1035L37.5874 26.2171H35.5132V24.1035Z" fill="#AAD0FF"/>
<path opacity="0.4" d="M37.5874 26.2173L35.5132 28.3309V26.2173H37.5874Z" fill="#7FB8FF"/>
<path opacity="0.4" d="M23.0686 36.7852L25.1427 38.8984H23.0686V36.7852Z" fill="#D4DFFF"/>
<path opacity="0.4" d="M25.1427 38.8979L23.0686 41.0116V38.8979H25.1427Z" fill="#E9F0FF"/>
<path opacity="0.4" d="M23.0686 41.0116L20.9948 38.8979H23.0686V41.0116Z" fill="#AAD0FF"/>
<path opacity="0.4" d="M20.9948 38.8984L23.0686 36.7852V38.8984H20.9948Z" fill="#7FB8FF"/>
<path opacity="0.4" d="M17.7044 44.0001H16.8457V43.1255L17.7044 44.0001Z" fill="#D4DFFF"/>
<path opacity="0.4" d="M16.8457 43.1255V44.0001H15.9874L16.8457 43.1255Z" fill="#7FB8FF"/>
<path opacity="0.4" d="M16.8465 43.1253L18.9207 41.0117V43.1253H16.8465Z" fill="#D4DFFF"/>
<path opacity="0.4" d="M18.9207 41.0117L20.9948 43.1253H18.9207V41.0117Z" fill="#E9F0FF"/>
<path opacity="0.4" d="M20.994 43.1255L20.1357 44.0001H18.9199V43.1255H20.994Z" fill="#AAD0FF"/>
<path opacity="0.4" d="M18.9199 43.1255V44.0001H17.7044L16.8457 43.1255H18.9199Z" fill="#7FB8FF"/>
<path opacity="0.4" d="M20.9948 43.1253L18.9207 41.0117H20.9948V43.1253Z" fill="#D4DFFF"/>
<path opacity="0.4" d="M18.9207 41.0116L20.9948 38.8979V41.0116H18.9207Z" fill="#E9F0FF"/>
<path opacity="0.4" d="M20.9948 38.8979L23.0686 41.0116H20.9948V38.8979Z" fill="#AAD0FF"/>
<path opacity="0.4" d="M23.0686 41.0117L20.9948 43.1253V41.0117H23.0686Z" fill="#7FB8FF"/>
<path opacity="0.4" d="M35.5139 7.19564L37.5877 5.08203V7.19564H35.5139Z" fill="#D4DFFF"/>
<path opacity="0.4" d="M37.5877 5.08203L39.6619 7.19564H37.5877V5.08203Z" fill="#E9F0FF"/>
<path opacity="0.4" d="M39.6619 7.1958L37.5877 9.30941V7.1958H39.6619Z" fill="#AAD0FF"/>
<path opacity="0.4" d="M37.5877 9.30941L35.5139 7.1958H37.5877V9.30941Z" fill="#7FB8FF"/>
<path opacity="0.4" d="M39.6619 2.96826L41.736 5.08187H39.6619V2.96826Z" fill="#D4DFFF"/>
<path opacity="0.4" d="M41.736 5.08203L39.6619 7.19564V5.08203H41.736Z" fill="#E9F0FF"/>
<path opacity="0.4" d="M39.6619 7.19564L37.5877 5.08203H39.6619V7.19564Z" fill="#AAD0FF"/>
<path opacity="0.4" d="M37.5877 5.08187L39.6619 2.96826V5.08187H37.5877Z" fill="#7FB8FF"/>
<path opacity="0.4" d="M35.5139 11.4223L33.4398 9.30908H35.5139V11.4223Z" fill="#D4DFFF"/>
<path opacity="0.4" d="M33.4398 9.30941L35.5139 7.1958V9.30941H33.4398Z" fill="#E9F0FF"/>
<path opacity="0.4" d="M35.5139 7.1958L37.5877 9.30941H35.5139V7.1958Z" fill="#AAD0FF"/>
<path opacity="0.4" d="M37.5877 9.30908L35.5139 11.4223V9.30908H37.5877Z" fill="#7FB8FF"/>
<path opacity="0.4" d="M35.5139 11.4224L33.4398 13.536V11.4224H35.5139Z" fill="#D4DFFF"/>
<path opacity="0.4" d="M33.4398 13.536L31.3656 11.4224H33.4398V13.536Z" fill="#E9F0FF"/>
<path opacity="0.4" d="M31.3656 11.4223L33.4398 9.30908V11.4223H31.3656Z" fill="#AAD0FF"/>
<path opacity="0.4" d="M33.4398 9.30908L35.5139 11.4223H33.4398V9.30908Z" fill="#7FB8FF"/>
<path opacity="0.4" d="M40.4297 2.96835H39.6615L40.0435 2.5791C40.1768 2.70444 40.3059 2.83445 40.4297 2.96835Z" fill="#D4DFFF"/>
<path opacity="0.4" d="M41.856 4.95949L41.7357 5.0821V4.74268C41.7769 4.81469 41.817 4.88631 41.856 4.95949Z" fill="#AAD0FF"/>
<path opacity="0.4" d="M41.7357 4.74244V5.08187L39.6615 2.96826H40.4297C40.9312 3.50593 41.3695 4.10135 41.7357 4.74244Z" fill="#7FB8FF"/>
<path opacity="0.4" d="M31.3656 11.4224L33.4398 13.536H31.3656V11.4224Z" fill="#D4DFFF"/>
<path opacity="0.4" d="M33.4398 13.5361L31.3656 15.6497V13.5361H33.4398Z" fill="#E9F0FF"/>
<path opacity="0.4" d="M31.3656 15.6497L29.2914 13.5361H31.3656V15.6497Z" fill="#AAD0FF"/>
<path opacity="0.4" d="M29.2914 13.536L31.3656 11.4224V13.536H29.2914Z" fill="#7FB8FF"/>
<path opacity="0.4" d="M27.2177 15.6497L25.1435 13.5361H27.2177V15.6497Z" fill="#D4DFFF"/>
<path opacity="0.4" d="M25.1435 13.536L27.2177 11.4224V13.536H25.1435Z" fill="#E9F0FF"/>
<path opacity="0.4" d="M27.2177 11.4224L29.2915 13.536H27.2177V11.4224Z" fill="#AAD0FF"/>
<path opacity="0.4" d="M29.2915 13.5361L27.2177 15.6497V13.5361H29.2915Z" fill="#7FB8FF"/>
<path opacity="0.4" d="M23.0694 11.4223L25.1435 9.30908V11.4223H23.0694Z" fill="#D4DFFF"/>
<path opacity="0.4" d="M25.1435 9.30908L27.2177 11.4223H25.1435V9.30908Z" fill="#E9F0FF"/>
<path opacity="0.4" d="M27.2177 11.4224L25.1435 13.536V11.4224H27.2177Z" fill="#AAD0FF"/>
<path opacity="0.4" d="M25.1435 13.536L23.0694 11.4224H25.1435V13.536Z" fill="#7FB8FF"/>
<path opacity="0.4" d="M31.3656 15.6494L29.2914 17.763V15.6494H31.3656Z" fill="#D4DFFF"/>
<path opacity="0.4" d="M29.2915 17.763L27.2177 15.6494H29.2915V17.763Z" fill="#E9F0FF"/>
<path opacity="0.4" d="M27.2177 15.6497L29.2915 13.5361V15.6497H27.2177Z" fill="#AAD0FF"/>
<path opacity="0.4" d="M29.2914 13.5361L31.3656 15.6497H29.2914V13.5361Z" fill="#7FB8FF"/>
<path opacity="0.4" d="M31.3656 15.6494L33.4398 17.763H31.3656V15.6494Z" fill="#D4DFFF"/>
<path opacity="0.4" d="M33.4398 17.7632L31.3656 19.8764V17.7632H33.4398Z" fill="#E9F0FF"/>
<path opacity="0.4" d="M31.3656 19.8764L29.2914 17.7632H31.3656V19.8764Z" fill="#AAD0FF"/>
<path opacity="0.4" d="M29.2914 17.763L31.3656 15.6494V17.763H29.2914Z" fill="#7FB8FF"/>
<path opacity="0.4" d="M23.0694 11.4223L20.9952 9.30908H23.0694V11.4223Z" fill="#D4DFFF"/>
<path opacity="0.4" d="M20.9952 9.30941L23.0694 7.1958V9.30941H20.9952Z" fill="#E9F0FF"/>
<path opacity="0.4" d="M23.0694 7.1958L25.1435 9.30941H23.0694V7.1958Z" fill="#AAD0FF"/>
<path opacity="0.4" d="M25.1435 9.30908L23.0694 11.4223V9.30908H25.1435Z" fill="#7FB8FF"/>
<path opacity="0.4" d="M23.0694 7.1958L20.9952 9.30941V7.1958H23.0694Z" fill="#D4DFFF"/>
<path opacity="0.4" d="M20.9952 9.30941L18.9214 7.1958H20.9952V9.30941Z" fill="#E9F0FF"/>
<path opacity="0.4" d="M18.9214 7.19564L20.9952 5.08203V7.19564H18.9214Z" fill="#AAD0FF"/>
<path opacity="0.4" d="M20.9952 5.08203L23.0694 7.19564H20.9952V5.08203Z" fill="#7FB8FF"/>
<path opacity="0.4" d="M31.3656 19.8764L33.4398 17.7632V19.8764H31.3656Z" fill="#D4DFFF"/>
<path opacity="0.4" d="M33.4398 17.7632L35.5139 19.8764H33.4398V17.7632Z" fill="#E9F0FF"/>
<path opacity="0.4" d="M35.5139 19.8765L33.4398 21.9901V19.8765H35.5139Z" fill="#AAD0FF"/>
<path opacity="0.4" d="M33.4398 21.9901L31.3656 19.8765H33.4398V21.9901Z" fill="#7FB8FF"/>
<path opacity="0.4" d="M41.736 30.4442L39.6619 28.3306H41.736V30.4442Z" fill="#D4DFFF"/>
<path opacity="0.4" d="M39.6619 28.3305L41.736 26.2173V28.3305H39.6619Z" fill="#E9F0FF"/>
<path opacity="0.4" d="M43 27.5047V28.3299H41.7357V26.2163L43 27.5047Z" fill="#AAD0FF"/>
<path opacity="0.4" d="M43 28.3301V29.1553L41.7357 30.4437V28.3301H43Z" fill="#7FB8FF"/>
<path opacity="0.4" d="M37.5877 26.2171L39.6619 24.1035V26.2171H37.5877Z" fill="#D4DFFF"/>
<path opacity="0.4" d="M39.6619 24.1035L41.736 26.2171H39.6619V24.1035Z" fill="#E9F0FF"/>
<path opacity="0.4" d="M41.736 26.2173L39.6619 28.3305V26.2173H41.736Z" fill="#AAD0FF"/>
<path opacity="0.4" d="M39.6619 28.3305L37.5877 26.2173H39.6619V28.3305Z" fill="#7FB8FF"/>
<path opacity="0.4" d="M43 30.4438V31.7323L41.7357 30.4438H43Z" fill="#E9F0FF"/>
<path opacity="0.4" d="M43 29.1553V30.4437H41.7357L43 29.1553Z" fill="#AAD0FF"/>
<path opacity="0.4" d="M37.5877 26.2171L35.5139 24.1035H37.5877V26.2171Z" fill="#D4DFFF"/>
<path opacity="0.4" d="M35.5139 24.1038L37.5877 21.9902V24.1038H35.5139Z" fill="#E9F0FF"/>
<path opacity="0.4" d="M37.5877 21.9902L39.6619 24.1038H37.5877V21.9902Z" fill="#AAD0FF"/>
<path opacity="0.4" d="M39.6619 24.1035L37.5877 26.2171V24.1035H39.6619Z" fill="#7FB8FF"/>
<path opacity="0.4" d="M37.5877 21.9902L35.5139 24.1038V21.9902H37.5877Z" fill="#D4DFFF"/>
<path opacity="0.4" d="M35.5139 24.1038L33.4398 21.9902H35.5139V24.1038Z" fill="#E9F0FF"/>
<path opacity="0.4" d="M33.4398 21.9901L35.5139 19.8765V21.9901H33.4398Z" fill="#AAD0FF"/>
<path opacity="0.4" d="M35.5139 19.8765L37.5877 21.9901H35.5139V19.8765Z" fill="#7FB8FF"/>
<path opacity="0.4" d="M14.7724 28.3309L12.6982 26.2173H14.7724V28.3309Z" fill="#D4DFFF"/>
<path opacity="0.4" d="M12.6982 26.2171L14.7724 24.1035V26.2171H12.6982Z" fill="#E9F0FF"/>
<path opacity="0.4" d="M14.7724 24.1035L16.8466 26.2171H14.7724V24.1035Z" fill="#AAD0FF"/>
<path opacity="0.4" d="M16.8466 26.2173L14.7724 28.3309V26.2173H16.8466Z" fill="#7FB8FF"/>
<path opacity="0.4" d="M10.6245 24.1038L12.6982 21.9902V24.1038H10.6245Z" fill="#D4DFFF"/>
<path opacity="0.4" d="M12.6982 21.9902L14.7724 24.1038H12.6982V21.9902Z" fill="#E9F0FF"/>
<path opacity="0.4" d="M14.7724 24.1035L12.6982 26.2171V24.1035H14.7724Z" fill="#AAD0FF"/>
<path opacity="0.4" d="M12.6982 26.2171L10.6245 24.1035H12.6982V26.2171Z" fill="#7FB8FF"/>
<path opacity="0.4" d="M18.9207 28.3311L16.8465 30.4443V28.3311H18.9207Z" fill="#D4DFFF"/>
<path opacity="0.4" d="M16.8466 30.4443L14.7724 28.3311H16.8466V30.4443Z" fill="#E9F0FF"/>
<path opacity="0.4" d="M14.7724 28.3309L16.8466 26.2173V28.3309H14.7724Z" fill="#AAD0FF"/>
<path opacity="0.4" d="M16.8465 26.2173L18.9207 28.3309H16.8465V26.2173Z" fill="#7FB8FF"/>
<path opacity="0.4" d="M18.9207 28.3311L20.9948 30.4443H18.9207V28.3311Z" fill="#D4DFFF"/>
<path opacity="0.4" d="M20.9948 30.4443L18.9207 32.5579V30.4443H20.9948Z" fill="#E9F0FF"/>
<path opacity="0.4" d="M18.9207 32.5579L16.8465 30.4443H18.9207V32.5579Z" fill="#AAD0FF"/>
<path opacity="0.4" d="M16.8465 30.4443L18.9207 28.3311V30.4443H16.8465Z" fill="#7FB8FF"/>
<path opacity="0.4" d="M10.6244 24.1038L8.55026 21.9902H10.6244V24.1038Z" fill="#D4DFFF"/>
<path opacity="0.4" d="M8.55026 21.9901L10.6244 19.8765V21.9901H8.55026Z" fill="#E9F0FF"/>
<path opacity="0.4" d="M10.6245 19.8765L12.6982 21.9901H10.6245V19.8765Z" fill="#AAD0FF"/>
<path opacity="0.4" d="M12.6982 21.9902L10.6245 24.1038V21.9902H12.6982Z" fill="#7FB8FF"/>
<path opacity="0.4" d="M10.6244 19.8765L8.55026 21.9901V19.8765H10.6244Z" fill="#D4DFFF"/>
<path opacity="0.4" d="M8.55023 21.9901L6.47607 19.8765H8.55023V21.9901Z" fill="#E9F0FF"/>
<path opacity="0.4" d="M6.47607 19.8764L8.55023 17.7632V19.8764H6.47607Z" fill="#AAD0FF"/>
<path opacity="0.4" d="M8.55026 17.7632L10.6244 19.8764H8.55026V17.7632Z" fill="#7FB8FF"/>
<path opacity="0.4" d="M18.9207 32.5579L20.9948 30.4443V32.5579H18.9207Z" fill="#D4DFFF"/>
<path opacity="0.4" d="M20.9948 30.4443L23.0686 32.5579H20.9948V30.4443Z" fill="#E9F0FF"/>
<path opacity="0.4" d="M23.0686 32.5576L20.9948 34.6712V32.5576H23.0686Z" fill="#AAD0FF"/>
<path opacity="0.4" d="M20.9948 34.6712L18.9207 32.5576H20.9948V34.6712Z" fill="#7FB8FF"/>
<path opacity="0.4" d="M29.2911 43.1253L27.2169 41.0117H29.2911V43.1253Z" fill="#D4DFFF"/>
<path opacity="0.4" d="M27.2169 41.0116L29.2911 38.8979V41.0116H27.2169Z" fill="#E9F0FF"/>
<path opacity="0.4" d="M29.2911 38.8979L31.3649 41.0116H29.2911V38.8979Z" fill="#AAD0FF"/>
<path opacity="0.4" d="M31.3649 41.0117L29.2911 43.1253V41.0117H31.3649Z" fill="#7FB8FF"/>
<path opacity="0.4" d="M25.1428 38.8984L27.2169 36.7852V38.8984H25.1428Z" fill="#D4DFFF"/>
<path opacity="0.4" d="M27.2169 36.7852L29.2911 38.8984H27.2169V36.7852Z" fill="#E9F0FF"/>
<path opacity="0.4" d="M29.2911 38.8979L27.2169 41.0116V38.8979H29.2911Z" fill="#AAD0FF"/>
<path opacity="0.4" d="M27.2169 41.0116L25.1428 38.8979H27.2169V41.0116Z" fill="#7FB8FF"/>
<path opacity="0.4" d="M33.439 43.1255L32.5807 44.0001H31.3649V43.1255H33.439Z" fill="#D4DFFF"/>
<path opacity="0.4" d="M31.3649 43.1255V44.0001H30.149L29.2907 43.1255H31.3649Z" fill="#E9F0FF"/>
<path opacity="0.4" d="M29.2911 43.1253L31.3649 41.0117V43.1253H29.2911Z" fill="#AAD0FF"/>
<path opacity="0.4" d="M31.3649 41.0117L33.439 43.1253H31.3649V41.0117Z" fill="#7FB8FF"/>
<path opacity="0.4" d="M34.2767 43.9791C34.0689 43.9927 33.8565 44.0001 33.6468 44.0001H33.439V43.1255L34.2767 43.9791Z" fill="#D4DFFF"/>
<path opacity="0.4" d="M33.439 43.1255V44.0001H32.5807L33.439 43.1255Z" fill="#7FB8FF"/>
<path opacity="0.4" d="M25.1427 38.8984L23.0686 36.7852H25.1427V38.8984Z" fill="#D4DFFF"/>
<path opacity="0.4" d="M23.0686 36.785L25.1427 34.6714V36.785H23.0686Z" fill="#E9F0FF"/>
<path opacity="0.4" d="M25.1428 34.6714L27.2169 36.785H25.1428V34.6714Z" fill="#AAD0FF"/>
<path opacity="0.4" d="M27.2169 36.7852L25.1428 38.8984V36.7852H27.2169Z" fill="#7FB8FF"/>
<path opacity="0.4" d="M25.1427 34.6714L23.0686 36.785V34.6714H25.1427Z" fill="#D4DFFF"/>
<path opacity="0.4" d="M23.0686 36.785L20.9948 34.6714H23.0686V36.785Z" fill="#E9F0FF"/>
<path opacity="0.4" d="M20.9948 34.6712L23.0686 32.5576V34.6712H20.9948Z" fill="#AAD0FF"/>
<path opacity="0.4" d="M23.0686 32.5576L25.1427 34.6712H23.0686V32.5576Z" fill="#7FB8FF"/>
<path opacity="0.4" d="M14.772 11.4222L10.6237 15.6494L10.5985 11.3965L14.772 11.4222Z" fill="#D4DFFF"/>
<path opacity="0.4" d="M10.6236 15.6491L6.42453 11.3701L10.5984 11.3962L10.6236 15.6491Z" fill="#E9F0FF"/>
<path opacity="0.4" d="M6.42453 11.3703L10.5728 7.14307L10.5984 11.3964L6.42453 11.3703Z" fill="#AAD0FF"/>
<path opacity="0.4" d="M10.5729 7.14307L14.772 11.422L10.5985 11.3964L10.5729 7.14307Z" fill="#7FB8FF"/>
<path opacity="0.4" d="M6.47537 19.8766L2.27625 15.5977L6.45015 15.6237L6.47537 19.8766Z" fill="#D4DFFF"/>
<path opacity="0.4" d="M2.27625 15.5973L6.42456 11.3701L6.45015 15.6234L2.27625 15.5973Z" fill="#E9F0FF"/>
<path opacity="0.4" d="M6.42453 11.3701L10.6236 15.6491L6.45012 15.6234L6.42453 11.3701Z" fill="#AAD0FF"/>
<path opacity="0.4" d="M10.6237 15.6492L6.47535 19.8764L6.45013 15.6235L10.6237 15.6492Z" fill="#7FB8FF"/>
<path opacity="0.4" d="M14.7212 2.91602L18.9203 7.195L14.7464 7.16892L14.7212 2.91602Z" fill="#D4DFFF"/>
<path opacity="0.4" d="M18.9203 7.19503L14.772 11.4218L14.7464 7.16895L18.9203 7.19503Z" fill="#E9F0FF"/>
<path opacity="0.4" d="M14.772 11.422L10.5729 7.14307L14.7464 7.16915L14.772 11.422Z" fill="#AAD0FF"/>
<path opacity="0.4" d="M10.5729 7.14284L14.7212 2.91602L14.7464 7.16892L10.5729 7.14284Z" fill="#7FB8FF"/>
<path opacity="0.4" d="M18.8947 2.94231L14.7208 2.91623L17.5826 0H18.8764L18.8947 2.94231Z" fill="#D4DFFF"/>
<path opacity="0.4" d="M23.0682 2.96839L18.8947 2.94231L18.8764 0H20.1552L23.0682 2.96839Z" fill="#E9F0FF"/>
<path opacity="0.4" d="M23.0682 2.96797L18.9203 7.19519L18.8947 2.94189L23.0682 2.96797Z" fill="#AAD0FF"/>
<path opacity="0.4" d="M18.9203 7.195L14.7212 2.91602L18.8947 2.94171L18.9203 7.195Z" fill="#7FB8FF"/>
<path opacity="0.4" d="M6.47535 19.8763L2.32741 24.1035L2.30182 19.8506L6.47535 19.8763Z" fill="#D4DFFF"/>
<path opacity="0.4" d="M2.32703 24.103L0 21.7332V19.8364L2.30144 19.8512L2.32703 24.103Z" fill="#E9F0FF"/>
<path opacity="0.4" d="M2.30144 19.851L0 19.8362V17.9168L2.27584 15.5977L2.30144 19.851Z" fill="#AAD0FF"/>
<path opacity="0.4" d="M2.27625 15.5977L6.47537 19.8766L2.30184 19.851L2.27625 15.5977Z" fill="#7FB8FF"/>
<path opacity="0.4" d="M2.32703 24.1031L0 24.0895V21.7334L2.32703 24.1031Z" fill="#D4DFFF"/>
<path opacity="0.4" d="M2.32703 24.103L0 26.4743V24.0894L2.32703 24.103Z" fill="#E9F0FF"/>
<path opacity="0.4" d="M23.0682 2.96839L20.1552 0H23.0503L23.0682 2.96839Z" fill="#D4DFFF"/>
<path opacity="0.4" d="M25.9812 0L23.0682 2.96839L23.0503 0H25.9812Z" fill="#7FB8FF"/>
</g>
<path d="M20.8134 19.1729H20.3878V23.9551H20.8134V19.1729Z" fill="#80EF80"/>
<path d="M20.6893 24.0783H20.1205V19.0854L20.4058 19.0936L20.6893 19.0854V24.0783ZM20.245 23.953H20.5685V19.2139L20.4077 19.2186L20.245 19.2139V23.953Z" fill="white"/>
<path d="M20.2427 24.0784H19.6739V19.112L20.0593 19.1019V19.084L20.2427 19.0879V24.0784ZM19.7965 23.9531H20.1201V19.2264L19.7965 19.2346V23.9531Z" fill="white"/>
<path d="M32.5887 34.4569L29.9454 34.4541C29.6616 34.4051 29.1253 34.1167 29.1253 33.374V30.1798C27.8476 30.1884 21.2626 30.2324 20.0422 30.2153L20.0479 29.7816C21.389 29.8003 29.2571 29.7454 29.3366 29.745H29.5508V33.374C29.5508 33.8827 29.9133 34.0018 30.0027 34.0232H32.5887C32.8229 34.0232 32.9608 33.411 32.9826 33.0832L32.9856 33.0571C33.2725 31.5111 33.2438 27.0958 33.2435 27.0515V27.0359L33.2457 27.0203C33.8481 22.5864 33.2179 20.031 33.2114 20.008C33.1949 19.9528 33.1732 19.8652 33.1499 19.755C33.0677 19.3934 32.9302 18.7881 32.6743 18.2759C32.4256 17.7761 31.434 17.3596 31.0727 17.2413L30.8996 17.1848L30.9275 17.0015C30.9623 16.7754 30.9894 16.2728 30.9898 16.2678L31.0012 16.0502L31.2148 16.063C31.6675 16.0777 32.1206 16.056 32.57 15.998C32.5956 15.9965 32.6205 15.9893 32.643 15.977C32.6656 15.9647 32.6852 15.9476 32.7007 15.9268C32.7771 15.8221 32.7748 15.624 32.766 15.5426C32.7026 15.3451 32.6287 15.1512 32.5448 14.9619C32.4772 14.8167 32.2984 14.7182 32.2155 14.6839C32.0559 14.6614 31.1315 14.5302 30.921 14.5138C30.8835 14.5111 30.8461 14.5205 30.8141 14.5408C30.7822 14.5611 30.7575 14.5912 30.7434 14.6267C30.7346 14.6843 30.7491 14.9537 30.7629 15.2137C30.772 15.3811 30.7824 15.5749 30.7915 15.7898C30.8083 16.1759 30.7854 16.462 30.7254 16.6177L30.6674 16.7668L30.5012 16.7606C30.4539 16.7569 30.409 16.7379 30.3731 16.7063C30.3372 16.6747 30.3122 16.6322 30.3018 16.585C30.2254 16.2444 29.565 14.5504 28.9068 13.06C28.2914 11.6665 27.8957 10.7965 27.5263 10.4766C27.1826 10.1776 26.236 10.0753 26.0798 10.0873C25.7876 10.1056 25.354 10.1224 24.5878 10.0873C23.7898 10.0511 20.2542 9.92307 20.2187 9.9219L20.2335 9.48828C20.2695 9.48828 23.807 9.6179 24.6065 9.6541C25.0877 9.68116 25.57 9.6809 26.0511 9.65332C26.2391 9.64203 27.3273 9.7374 27.7998 10.1469C28.2395 10.528 28.6337 11.3905 29.2922 12.8825C29.6643 13.7248 30.0638 14.6972 30.3461 15.4321C30.3427 15.3643 30.3393 15.2993 30.3358 15.2374C30.3144 14.8377 30.3056 14.6567 30.3209 14.559C30.3542 14.341 30.5929 14.053 30.9512 14.0814C31.1937 14.1001 32.2499 14.2515 32.2961 14.2581L32.3343 14.2678C32.3775 14.283 32.7629 14.4274 32.9253 14.7762C33.0203 14.989 33.1034 15.207 33.1743 15.4293L33.182 15.4617C33.1888 15.5068 33.2438 15.9081 33.0395 16.1868C32.9899 16.254 32.9274 16.3101 32.8558 16.3518C32.7842 16.3935 32.7051 16.4199 32.6231 16.4293C32.2176 16.4798 31.8093 16.5041 31.4008 16.5021C31.3931 16.6165 31.3824 16.7598 31.3695 16.8871C31.7747 17.0385 32.7446 17.4558 33.0532 18.0786C33.3325 18.6391 33.4772 19.2763 33.5636 19.6573C33.5861 19.7562 33.6018 19.8344 33.6182 19.8839C33.766 20.3899 34.2072 23.0843 33.6686 27.0643C33.6686 27.4014 33.6915 31.5597 33.4054 33.1253C33.3924 33.314 33.2805 34.4569 32.5887 34.4569Z" fill="#80EF80"/>
<path d="M28.7101 15.9826C28.6337 15.9826 28.5554 15.979 28.4698 15.972C27.4858 15.8895 21.6281 15.7089 20.0746 15.7272L20.0697 15.2936C21.6281 15.2741 27.5148 15.4567 28.5046 15.5396C28.9469 15.5785 29.0645 15.4937 29.0848 15.475C28.6119 14.3921 27.3915 11.6214 27.2295 11.349C27.0802 11.0979 26.7413 11.0936 26.7329 11.0936H26.7203H26.7077C25.3769 10.9477 20.0635 10.8846 20.0101 10.8838L20.015 10.4502C20.2335 10.4529 25.3773 10.514 26.7432 10.6616C26.8387 10.6639 27.3365 10.6966 27.5916 11.1259C27.799 11.4762 29.3105 14.9351 29.484 15.3298L29.4893 15.3434C29.5112 15.4095 29.5168 15.4801 29.5056 15.5489C29.4944 15.6178 29.4668 15.6827 29.4251 15.7381C29.3025 15.9008 29.0687 15.9826 28.7101 15.9826Z" fill="#80EF80"/>
<path d="M29.8961 30.1858C29.6394 30.1858 29.4377 30.1811 29.3319 30.178L29.3438 29.7448C30.3984 29.7747 32.0089 29.7117 32.2892 29.4797C32.7308 29.115 33.1342 28.5237 33.2484 28.0737L33.6602 28.1812C33.5238 28.7195 33.07 29.3917 32.5574 29.816C32.1704 30.136 30.7426 30.1858 29.8961 30.1858Z" fill="#80EF80"/>
<path d="M27.6574 21.462C26.9431 21.462 26.7788 21.2572 26.6722 20.6796C26.6123 20.3503 26.6272 19.8151 26.6501 19.4239C26.6657 19.1611 26.8915 18.9564 27.1589 18.9525C27.9954 18.9474 30.7823 18.9326 31.5471 18.9544C31.8828 18.9642 32.1334 19.0634 32.2916 19.2499C32.5482 19.5523 32.4974 19.9972 32.4562 20.3549C32.4512 20.4005 32.4459 20.4456 32.4413 20.4896C32.384 21.056 31.8626 21.2704 31.5952 21.3047H31.5784C31.4439 21.3125 28.2616 21.462 27.6574 21.462ZM27.1608 19.3861C27.1411 19.3842 27.1214 19.3896 27.1053 19.4015C27.0893 19.4133 27.0781 19.4307 27.0737 19.4503C27.0427 19.9684 27.0485 20.3771 27.0893 20.5998C27.1604 20.989 27.1657 21.0279 27.6558 21.0279C28.2334 21.0279 31.3412 20.8828 31.5475 20.8722C31.6032 20.8629 31.9825 20.7874 32.0173 20.4441C32.0219 20.3981 32.0272 20.351 32.0329 20.3032C32.0658 20.0159 32.1032 19.6905 31.9692 19.5325C31.8928 19.4418 31.7457 19.3927 31.5345 19.3869C30.7762 19.3651 27.9954 19.3799 27.1608 19.3869V19.3861Z" fill="#80EF80"/>
<path d="M25.9969 24.5853H20.0449V24.1517H25.5714V18.7023C25.5714 18.3784 25.2348 18.3422 25.1672 18.3383L25.1432 18.3356C22.5992 17.9012 20.0659 17.8412 20.0403 17.8408L20.0495 17.4072C20.075 17.4072 22.6305 17.4679 25.2016 17.9059C25.4847 17.9238 25.9969 18.1106 25.9969 18.7023V24.5853Z" fill="#80EF80"/>
<path d="M24.6733 23.9709H19.8019V23.6595H24.6733C24.7133 23.6611 24.7532 23.6539 24.7902 23.6386C24.8273 23.6232 24.8608 23.6 24.8883 23.5704C25.0495 23.4015 25.0759 23.034 25.0725 22.9067V19.4759C25.0725 19.4125 25.0587 19.3681 25.0312 19.3443C24.9842 19.3035 24.8929 19.3078 24.8647 19.3124L24.8505 19.3144H24.8352L19.7981 19.1898L19.8053 18.8784L24.8287 19.0045C24.8902 18.9964 25.0809 18.9835 25.2249 19.1061C25.2936 19.1649 25.3777 19.2766 25.3777 19.4759V22.9036C25.3777 22.9589 25.3872 23.4941 25.1084 23.7872C25.0521 23.8466 24.9844 23.8936 24.9096 23.9252C24.8347 23.9568 24.7543 23.9724 24.6733 23.9709Z" fill="#80EF80"/>
<path d="M27.0752 19.4623L26.6501 19.4491C26.6673 18.8839 26.8411 18.4448 27.1776 18.1058C27.3243 17.9586 27.5298 17.8777 27.9798 17.7002C28.2632 17.5889 28.6513 17.4363 29.1884 17.2035C30.1922 16.7687 30.303 16.548 30.3072 16.5387C30.2968 16.5734 30.2993 16.6108 30.3141 16.6438L30.7113 16.4854C30.8282 16.7909 30.3847 17.1564 29.3557 17.6021C28.8121 17.838 28.4198 17.9913 28.1333 18.1046C27.7513 18.2549 27.5603 18.3304 27.4755 18.4141C27.22 18.6714 27.089 19.0139 27.0752 19.4623Z" fill="#80EF80"/>
<path d="M25.9892 18.7591L25.5789 18.6447C25.5916 18.5984 25.9033 17.503 27.5095 16.9756C27.8239 16.8725 28.0993 16.7857 28.3449 16.7086C29.2735 16.4174 29.7399 16.2711 30.2166 15.8799L30.484 16.2177C29.9439 16.6607 29.4205 16.825 28.4709 17.1231C28.2269 17.201 27.953 17.2858 27.6409 17.3882C26.2505 17.844 25.9919 18.7502 25.9892 18.7591Z" fill="#80EF80"/>
<path d="M26.4453 21.7699C27.4476 21.7423 28.4489 21.7007 29.4492 21.6449C29.9491 21.6169 30.448 21.5822 30.9458 21.541C31.4424 21.4985 31.942 21.4491 32.4187 21.3623L32.4833 21.7905C31.9672 21.8461 31.4653 21.8586 30.9611 21.8656C30.4569 21.8726 29.9553 21.8695 29.4534 21.8613C28.4496 21.8447 27.4469 21.8142 26.4453 21.7699Z" fill="#80EF80"/>
<path d="M31.6223 18.96C31.7588 18.9625 31.8942 18.9841 32.0249 19.0242C32.1651 19.065 32.2947 19.1368 32.4046 19.2344C32.5235 19.3437 32.6028 19.4907 32.6296 19.6517C32.6494 19.8202 32.6368 19.914 32.641 20.0335C32.6472 20.4975 32.6685 20.9696 32.6735 21.4426C32.6785 21.9155 32.6758 22.3916 32.6109 22.8727C32.5767 23.1149 32.5195 23.3532 32.4401 23.5842C32.3967 23.7166 32.3193 23.8347 32.2159 23.9263C32.094 24.0182 31.9588 24.0431 31.8431 24.0634L31.4993 24.114C31.379 24.1303 31.264 24.1385 31.1483 24.1482C30.9172 24.1657 30.6864 24.1794 30.4561 24.1926L29.073 24.2599L26.3074 24.3685L29.0665 24.1517L30.4439 24.0303C30.6731 24.0085 30.9023 23.9855 31.1315 23.9594C31.246 23.9454 31.3606 23.9322 31.4672 23.9131L31.806 23.8501C31.9157 23.8283 32.0127 23.7987 32.0761 23.7457C32.1426 23.6774 32.1909 23.5928 32.2163 23.5001C32.2806 23.2843 32.3246 23.0627 32.3477 22.8384C32.3916 22.3853 32.3771 21.9178 32.3553 21.4527C32.3335 20.9875 32.2938 20.5185 32.2698 20.0444C32.2633 19.9276 32.2633 19.7871 32.251 19.7233C32.2364 19.6507 32.1975 19.5854 32.141 19.5388C32.0295 19.4395 31.8106 19.3909 31.6318 19.3936L31.6223 18.96Z" fill="#80EF80"/>
<path d="M26.4453 23.3459C27.4484 23.3073 28.4502 23.2533 29.4507 23.184C29.9504 23.1474 30.4496 23.1062 30.9466 23.0556C31.4435 23.0049 31.9443 22.9438 32.4034 22.8306L32.4982 23.2533C31.9733 23.3428 31.4741 23.3596 30.968 23.3802C30.4618 23.4008 29.9607 23.4 29.458 23.4004C28.4526 23.3981 27.4484 23.3799 26.4453 23.3459Z" fill="#80EF80"/>
<path d="M24.8914 19.1553H24.6481V23.8157H24.8914V19.1553Z" fill="#80EF80"/>
<path d="M24.4147 19.1436H24.1714V23.8153H24.4147V19.1436Z" fill="#80EF80"/>
<path d="M23.9384 19.1313H23.695V23.8159H23.9384V19.1313Z" fill="#80EF80"/>
<path d="M23.4617 19.1201H23.2183V23.816H23.4617V19.1201Z" fill="#80EF80"/>
<path d="M22.9849 19.1074H22.7416V23.8157H22.9849V19.1074Z" fill="#80EF80"/>
<path d="M22.5082 19.0967H22.2649V23.8159H22.5082V19.0967Z" fill="#80EF80"/>
<path d="M22.0319 19.1313H21.7886V23.8159H22.0319V19.1313Z" fill="#80EF80"/>
<path d="M21.5552 19.0732H21.3119V23.8158H21.5552V19.0732Z" fill="#80EF80"/>
<path d="M21.0785 19.0615H20.8351V23.8158H21.0785V19.0615Z" fill="#80EF80"/>
<path d="M26.8223 30.1044C26.6944 29.9448 25.5714 28.5217 25.5714 27.6763V24.3677H25.9969V27.6763C25.9969 28.2621 26.8307 29.4279 27.1516 29.8296L26.8223 30.1044Z" fill="#80EF80"/>
<path d="M24.2176 28.8308C22.4811 28.8308 20.1885 28.8157 20.0433 28.8145L20.0464 28.3809C20.1003 28.3809 25.4388 28.4174 26.0714 28.3809L26.0954 28.8137C25.8743 28.8266 25.121 28.8308 24.2176 28.8308Z" fill="#80EF80"/>
<path d="M24.0056 27.226C22.8696 27.226 21.3825 27.2108 20.0422 27.1929L20.0475 26.7593C22.1102 26.7869 25.4755 26.8126 25.7318 26.7663C25.7243 26.768 25.7169 26.7702 25.7096 26.7729L25.8601 27.1793C25.7688 27.2135 25.0297 27.226 24.0056 27.226Z" fill="#80EF80"/>
<path d="M24.4266 27.0088H24.001V28.614H24.4266V27.0088Z" fill="#80EF80"/>
<path d="M29.7384 34.1369L29.3946 33.88C29.8492 33.2494 29.9236 30.8439 29.9137 29.97L30.3392 29.9653C30.3442 30.3013 30.3591 33.2755 29.7384 34.1369Z" fill="#80EF80"/>
<path d="M26.3074 26.018C27.4671 25.9012 28.6272 25.8269 29.7865 25.7572C30.3652 25.7183 30.9462 25.6934 31.5207 25.6486L31.7338 25.6303C31.8102 25.6257 31.8618 25.6159 31.9374 25.6081C32.0258 25.5961 32.1153 25.6187 32.188 25.6712C32.2371 25.7077 32.2797 25.7526 32.3137 25.8039C32.3637 25.8808 32.404 25.9639 32.4336 26.0511C32.4864 26.2042 32.5248 26.362 32.5482 26.5225C32.56 26.6003 32.5688 26.6782 32.5753 26.7584L32.5895 26.981C32.6086 27.2737 32.633 27.5839 32.5944 27.9078C32.5772 28.0817 32.5284 28.2508 32.4504 28.4064C32.4043 28.4953 32.3423 28.5745 32.2674 28.64C32.1898 28.7068 32.0984 28.7551 32.0001 28.7813C31.9195 28.7998 31.8378 28.8128 31.7556 28.8202L31.5348 28.842L31.0971 28.8774C30.8056 28.8992 30.5142 28.914 30.2227 28.9241C29.6398 28.9482 29.0565 28.9532 28.4729 28.9389C28.181 28.928 27.8892 28.9152 27.5981 28.8883C27.3063 28.867 27.0168 28.8198 26.7329 28.7474C26.8772 28.764 27.0224 28.772 27.1676 28.7715C27.312 28.7743 27.4572 28.7715 27.6016 28.768C27.8911 28.7591 28.1803 28.7462 28.4694 28.7256C29.0473 28.6898 29.6245 28.6388 30.2009 28.5863L31.0646 28.4987L31.4939 28.4488L31.7063 28.42C31.7685 28.4124 31.8303 28.4011 31.8912 28.3862C31.9347 28.3725 31.975 28.3496 32.0093 28.3191C32.0436 28.2886 32.0713 28.2511 32.0906 28.2091C32.1422 28.099 32.1735 27.9803 32.183 27.8588C32.2124 27.5933 32.1888 27.3091 32.167 27.0125L32.1555 26.7918C32.1506 26.7237 32.1437 26.6548 32.1341 26.5867C32.1167 26.4544 32.0871 26.3241 32.0459 26.1975C32.0288 26.1444 32.0056 26.0936 31.9768 26.046C31.9704 26.0358 31.9628 26.0264 31.9542 26.018C31.968 26.0255 31.9839 26.0281 31.9993 26.0254C31.9302 26.032 31.8389 26.0453 31.7701 26.0484L31.5486 26.0608C30.963 26.0826 30.3828 26.0998 29.8006 26.0998C28.6337 26.1005 27.4709 26.0822 26.3074 26.018Z" fill="#80EF80"/>
<path d="M26.2158 27.0579C27.2379 27.0255 28.2592 26.9784 29.2796 26.9166C29.7889 26.8852 30.2983 26.8463 30.8076 26.7998C31.3141 26.7527 31.8221 26.701 32.3149 26.6157L32.3725 27.0439C31.8519 27.096 31.3385 27.1116 30.8248 27.1217C30.311 27.1318 29.7988 27.1334 29.2869 27.1287C28.2614 27.123 27.2377 27.0994 26.2158 27.0579Z" fill="#80EF80"/>
<path d="M8.16333 26.3754C8.17114 26.3757 8.17893 26.3765 8.18663 26.3778C8.19007 26.3727 8.19389 26.3704 8.19504 26.368C8.185 26.3724 8.17425 26.3749 8.16333 26.3754ZM8.16333 26.3754C8.17114 26.3757 8.17893 26.3765 8.18663 26.3778C8.19007 26.3727 8.19389 26.3704 8.19504 26.368C8.185 26.3724 8.17425 26.3749 8.16333 26.3754ZM8.16333 26.3754C8.17114 26.3757 8.17893 26.3765 8.18663 26.3778C8.19007 26.3727 8.19389 26.3704 8.19504 26.368C8.185 26.3724 8.17425 26.3749 8.16333 26.3754ZM8.16333 26.3754C8.17114 26.3757 8.17893 26.3765 8.18663 26.3778C8.19007 26.3727 8.19389 26.3704 8.19504 26.368C8.185 26.3724 8.17425 26.3749 8.16333 26.3754ZM20.2721 10.4942V9.52613C20.0429 9.51873 19.9085 9.51367 19.9085 9.51367C19.9085 9.51367 16.3461 9.64485 15.5379 9.68222C14.7296 9.71958 14.2976 9.69584 14.0691 9.68222C13.8843 9.66976 12.8751 9.77641 12.4702 10.133C12.0653 10.4895 11.6776 11.3571 11.0343 12.839C10.558 13.9378 10.0412 15.2426 9.78331 15.972C9.72255 16.1344 9.67002 16.2997 9.62594 16.4676C9.62573 16.4697 9.62481 16.4717 9.62334 16.4733C9.62187 16.4749 9.61992 16.4759 9.61782 16.4762C9.61571 16.4765 9.61356 16.4761 9.61171 16.475C9.60986 16.474 9.60841 16.4723 9.6076 16.4703C9.5843 16.4057 9.53579 16.2126 9.55642 15.7183C9.5843 15.0702 9.62097 14.612 9.60264 14.489C9.58133 14.3981 9.52881 14.3178 9.45456 14.2629C9.38031 14.2079 9.28922 14.1818 9.19774 14.1893C8.95938 14.208 7.86653 14.3676 7.86653 14.3676C7.86653 14.3676 7.52733 14.489 7.39861 14.7704C7.30758 14.9784 7.22801 15.1914 7.16025 15.4084C7.16025 15.4084 7.05788 16.0736 7.53574 16.1394C7.9985 16.1995 8.46527 16.2215 8.9315 16.2052C8.9315 16.2052 8.95938 16.7315 8.99605 16.9744C8.99605 16.9744 7.61366 17.4341 7.2695 18.1366C6.92533 18.8392 6.7882 19.6987 6.71868 19.9381C6.64916 20.1775 6.10025 22.8356 6.67895 27.1695C6.67895 27.1695 6.67552 27.7331 6.68277 28.5373C6.68277 28.6735 6.68507 28.8172 6.68736 28.9655C6.70798 30.4185 6.7691 32.376 6.94023 33.3227C6.94023 33.3227 7.01472 34.4861 7.5472 34.4861H10.155C10.314 34.4489 10.4589 34.3653 10.5721 34.2456C10.5993 34.2171 10.6237 34.1861 10.6451 34.153C10.7348 34.0241 10.7979 33.8482 10.7979 33.6041V30.1317H10.8559L13.0748 30.1464C13.2465 30.1464 13.424 30.1474 13.6073 30.1492C15.9939 30.1651 19.1682 30.1799 20.0498 30.1702C20.1132 30.1702 20.1873 30.1702 20.2737 30.1725V28.5684C20.2091 28.5684 17.8672 28.5848 16.1059 28.5848C15.2036 28.5848 14.4523 28.5809 14.2361 28.5684C14.4087 28.2376 14.5352 27.9067 14.5352 27.6479V26.9472C14.5993 26.9718 15.256 26.9807 16.1059 26.9807C17.7801 26.9807 20.198 26.9484 20.2737 26.9472V23.8765H15.4607C15.4286 23.8761 15.3965 23.8732 15.3648 23.8679C15.3441 23.8639 15.3237 23.8584 15.3037 23.8516C15.2742 23.8406 15.2461 23.8261 15.2201 23.8083C15.2142 23.8054 15.2088 23.8016 15.204 23.7971C15.1919 23.7894 15.1805 23.7807 15.17 23.771C15.1487 23.7514 15.1288 23.7304 15.1104 23.7079C15.1032 23.6994 15.0959 23.6881 15.0898 23.6795C15.07 23.6533 15.053 23.6249 15.039 23.595C15.03 23.5786 15.0218 23.5617 15.0145 23.5444C15.0073 23.5269 15 23.5098 14.9939 23.4923C14.9878 23.4748 14.9817 23.4565 14.9767 23.439C14.9718 23.4214 14.966 23.402 14.9611 23.3833C14.9561 23.3646 14.9527 23.3498 14.9488 23.3327C14.931 23.2486 14.9193 23.1632 14.9137 23.0773C14.9137 23.0672 14.9137 23.0575 14.9137 23.0462C14.9099 22.987 14.911 22.9485 14.911 22.9485V19.4597C14.911 19.0658 15.2965 19.1374 15.2965 19.1374H15.366L15.8121 19.1265L16.7044 19.1039L17.1506 19.093L17.5967 19.0817L18.489 19.0584L18.9352 19.0471L19.3814 19.0358L19.7668 19.0261V19.0113H19.8279L20.0502 19.0175L20.274 19.0113V15.422C20.1977 15.422 20.127 15.422 20.0636 15.422C20.0592 15.4228 20.0546 15.4228 20.0502 15.422C20.0458 15.4228 20.0413 15.4228 20.0368 15.422C18.4394 15.4049 12.5985 15.5906 11.6478 15.6735C10.697 15.7564 10.8456 15.3255 10.8456 15.3255C10.8456 15.3255 12.5194 11.4253 12.725 11.0722C12.9427 10.7005 13.4045 10.7055 13.4045 10.7055C14.6303 10.5693 19.1239 10.5035 19.9807 10.4926C19.9807 10.4926 20.0051 10.4926 20.0514 10.4926C20.0976 10.4926 20.1232 10.4926 20.1232 10.4926C20.1644 10.4938 20.2156 10.495 20.274 10.4961L20.2721 10.4942ZM10.8636 27.1337C10.3506 27.1384 9.8387 27.1372 9.3257 27.1259C8.8784 27.1162 8.43225 27.1037 7.98113 27.064C7.9605 27.3454 7.94102 27.6167 7.9689 27.8705C7.97875 27.9941 8.01005 28.115 8.06134 28.2275C8.08026 28.27 8.10781 28.308 8.14218 28.3389C8.17655 28.3699 8.21695 28.393 8.26074 28.4069C8.3217 28.4219 8.38342 28.4336 8.44562 28.4419L8.65723 28.4704L9.08735 28.521L9.95062 28.6105C10.527 28.6634 11.1046 28.7167 11.6821 28.7514C11.9713 28.7724 12.2608 28.7849 12.55 28.7961C12.6948 28.8 12.8395 28.8024 12.9839 28.7985C13.1291 28.7996 13.2741 28.7914 13.4182 28.774C13.1348 28.8477 12.8456 28.8958 12.5538 28.9176C12.262 28.946 11.9702 28.9585 11.6783 28.9682C11.0947 28.9835 10.5115 28.979 9.92885 28.9546C9.63702 28.9448 9.34518 28.93 9.05449 28.9063L8.61713 28.8705L8.39558 28.8483C8.31351 28.8405 8.23199 28.8275 8.15149 28.8094C8.05314 28.782 7.96188 28.7329 7.8841 28.6658C7.80885 28.5993 7.74653 28.519 7.70037 28.4291C7.62314 28.2706 7.57461 28.0992 7.55713 27.9231C7.51893 27.5934 7.54261 27.2777 7.56209 26.9803L7.57661 26.7534C7.58272 26.6728 7.59113 26.5938 7.60335 26.5132C7.62672 26.3501 7.66509 26.1895 7.71794 26.0337C7.74718 25.9449 7.78762 25.8604 7.83827 25.7822C7.87185 25.73 7.91428 25.6843 7.96356 25.6471C8.03574 25.5937 8.12531 25.5706 8.21375 25.5825C8.29015 25.5903 8.34172 25.6012 8.41811 25.6063L8.63088 25.6234C9.20385 25.6705 9.78599 25.6942 10.3647 25.7351C11.5244 25.8056 12.6845 25.8826 13.8442 26.0002C12.6806 26.0648 11.5171 26.0831 10.3548 26.078C9.77262 26.078 9.19124 26.0633 8.60681 26.0411L8.38526 26.0286C8.32682 26.0263 8.25272 26.015 8.18969 26.0088C8.15832 26.0641 8.13112 26.1217 8.10833 26.1812C8.06744 26.3103 8.03803 26.4429 8.02047 26.5774C8.01818 26.5996 8.01436 26.6207 8.01321 26.6421C8.45096 26.7113 8.89826 26.7557 9.34595 26.7978C9.85284 26.8449 10.3624 26.8842 10.8716 26.9145C11.892 26.9791 12.9133 27.027 13.9355 27.0582C12.911 27.0981 11.887 27.1233 10.8636 27.1337ZM12.9744 18.777C12.9772 18.7764 12.98 18.7764 12.9828 18.777C13.0521 18.7762 13.1193 18.801 13.172 18.8468C13.2247 18.8926 13.2594 18.9562 13.2697 19.0261C13.2702 19.0294 13.2702 19.0328 13.2697 19.0362C13.2704 19.0398 13.2704 19.0435 13.2697 19.0471C13.2742 19.1277 13.2792 19.2195 13.283 19.3172C13.2953 19.6356 13.2964 20.0222 13.2513 20.2713C13.1638 20.7543 13.081 20.8871 12.4755 20.8871C11.8701 20.8871 8.56327 20.7314 8.56327 20.7314C8.56327 20.7314 7.95783 20.6535 7.90168 20.0969C7.89442 20.0264 7.88601 19.9533 7.87761 19.8777L7.87494 19.942C7.85202 20.3915 7.81688 20.8314 7.79472 21.274C8.25081 21.3545 8.72599 21.4028 9.20041 21.4425C9.69699 21.4857 10.1974 21.5204 10.697 21.5488C11.6963 21.6043 12.6972 21.6465 13.6998 21.6753C12.6982 21.7212 11.6956 21.7526 10.692 21.7695C10.1901 21.778 9.68757 21.7792 9.18437 21.773C8.71759 21.7668 8.25195 21.7547 7.77677 21.7088C7.76196 22.0619 7.76923 22.4157 7.79854 22.7679C8.24088 22.8745 8.72485 22.9302 9.19927 22.9835C9.69584 23.0357 10.1947 23.0766 10.6959 23.1147C11.6951 23.1856 12.6964 23.2406 13.6998 23.2798C12.6972 23.3132 11.6933 23.3318 10.6882 23.3354C10.1852 23.3354 9.68171 23.3304 9.17826 23.3132C8.74433 23.2957 8.31651 23.2809 7.87379 23.219C7.89098 23.2969 7.91199 23.3747 7.93453 23.4483C7.97005 23.5511 8.0136 23.6429 8.07815 23.6924C8.14271 23.7418 8.2424 23.7741 8.35165 23.7951L8.6897 23.8582C8.7978 23.878 8.91354 23.8916 9.02508 23.9053C9.25427 23.9314 9.48346 23.9535 9.71074 23.9773L11.0859 24.1011C11.9843 24.1762 12.7578 24.2385 13.8384 24.3202C12.9199 24.2865 12.0008 24.2501 11.0813 24.2112L9.70234 24.1415C9.47315 24.1279 9.24396 24.1143 9.01171 24.0956C8.89712 24.0859 8.78252 24.0785 8.66144 24.0621L8.31765 24.0115C8.20306 23.9917 8.06937 23.9695 7.94675 23.8788C7.82413 23.7881 7.75958 23.6534 7.71336 23.537C7.63206 23.3023 7.57384 23.0599 7.53956 22.8134C7.47386 22.3253 7.47004 21.8403 7.47386 21.3615C7.47768 20.8828 7.5006 20.4013 7.50671 19.9303V19.7543C7.50671 19.7248 7.50671 19.6999 7.50671 19.664L7.51397 19.5473C7.5339 19.3834 7.60658 19.2309 7.72062 19.1137C7.8348 19.0071 7.96657 18.922 8.10986 18.8622C8.23208 18.8248 8.35737 18.7988 8.4842 18.7843C8.49016 18.7837 8.49618 18.7837 8.50215 18.7843H8.50826C8.535 18.7808 8.56441 18.7797 8.59344 18.7781C9.35244 18.7559 12.0882 18.7696 12.9744 18.777ZM8.16142 26.3754C8.16923 26.3757 8.17702 26.3765 8.18472 26.3778C8.18816 26.3727 8.19198 26.3704 8.19313 26.368C8.18368 26.3722 8.17361 26.3747 8.16333 26.3754H8.16142ZM8.16142 26.3754C8.16923 26.3757 8.17702 26.3765 8.18472 26.3778C8.18816 26.3727 8.19198 26.3704 8.19313 26.368C8.18368 26.3722 8.17361 26.3747 8.16333 26.3754H8.16142ZM8.16142 26.3754C8.16923 26.3757 8.17702 26.3765 8.18472 26.3778C8.18816 26.3727 8.19198 26.3704 8.19313 26.368C8.18368 26.3722 8.17361 26.3747 8.16333 26.3754H8.16142ZM8.16142 26.3754C8.16923 26.3757 8.17702 26.3765 8.18472 26.3778C8.18816 26.3727 8.19198 26.3704 8.19313 26.368C8.18368 26.3722 8.17361 26.3747 8.16333 26.3754H8.16142Z" fill="white"/>
<path d="M19.6251 24.0005H18.9341V18.9247L19.6251 18.9072V24.0005ZM19.1774 23.7522H19.3814V19.1618L19.1774 19.1669V23.7522Z" fill="white"/>
<path d="M19.1774 24.0005H18.4879V18.936L19.1789 18.9185L19.1774 24.0005ZM18.7297 23.7521H18.934V19.173L18.7297 19.1781V23.7521Z" fill="white"/>
<path d="M18.7297 24.0004H17.591V18.9589L18.7297 18.9297V24.0004ZM17.8347 23.7521H18.4879V19.1843L17.8362 19.201L17.8347 23.7521Z" fill="white"/>
<path d="M17.8347 24.0004H17.1437V18.9702L17.8347 18.9526V24.0004ZM17.387 23.752H17.591V19.2068L17.387 19.2123V23.752Z" fill="white"/>
<path d="M17.387 24.0003H16.696V18.9814L17.387 18.9639V24.0003ZM16.9393 23.752H17.1437V19.2184L16.9393 19.2235V23.752Z" fill="white"/>
<path d="M16.9393 24.0003H16.2483V18.9926L16.9393 18.9751V24.0003ZM16.492 23.7519H16.696V19.2285L16.492 19.2336V23.7519Z" fill="white"/>
<path d="M16.492 24.0002H15.8007V19.0038L16.492 18.9863V24.0002ZM16.0432 23.7519H16.2472V19.2409L16.0432 19.246V23.7519Z" fill="white"/>
<path d="M16.0433 24.0006H15.5715C15.5331 24.0003 15.4948 23.9967 15.4569 23.9901L15.3549 23.973V19.0156L16.0459 18.998L16.0433 24.0006ZM15.5956 23.7523H15.7995V19.2526L15.5956 19.2577V23.7523Z" fill="white"/>
<path d="M15.5967 24.0185L15.4512 23.9889C14.8763 23.8722 14.8961 22.9824 14.8973 22.9442V19.4593C14.8973 19.2682 14.9737 19.1623 15.039 19.109C15.1765 18.9922 15.3595 19.0074 15.4137 19.0148L15.5967 19.0116V24.0185ZM15.3381 19.2565C15.287 19.2537 15.2364 19.2685 15.1945 19.2985C15.1586 19.3293 15.1406 19.3834 15.1406 19.4593V22.9481C15.1406 22.9571 15.1337 23.467 15.3534 23.6698V19.2569L15.3381 19.2565Z" fill="white"/>
<path d="M18.282 19.1089H18.0383V23.8764H18.282V19.1089Z" fill="white"/>
<path d="M16.3194 26.9688H15.8931V28.616H16.3194V26.9688Z" fill="white"/>
<path d="M32.6311 8.00917C34.0777 8.00917 35.2503 9.24542 35.2503 10.7697V33.2292C35.2503 34.7539 34.0777 35.9897 32.6311 35.9897H23.4636C22.017 35.9897 20.8443 34.7539 20.8443 33.2292V10.7697C20.8443 9.24542 22.017 8.00917 23.4636 8.00917H32.6311ZM32.6311 6.62891H23.4636C21.2935 6.62891 19.5349 8.48288 19.5349 10.7697V33.2292C19.5349 35.5164 21.292 37.37 23.4636 37.37H32.6311C34.8008 37.37 36.5598 35.5164 36.5598 33.2292V10.7697C36.5598 8.48288 34.8008 6.62891 32.6311 6.62891Z" fill="white"/>
<path d="M29.2372 31.4372C28.962 31.1564 28.5997 30.9816 28.2121 30.9424C27.8245 30.9033 27.4356 31.0024 27.1117 31.2227C26.7877 31.443 26.5488 31.771 26.4355 32.1507C26.3223 32.5305 26.3418 32.9385 26.4907 33.3052C26.6395 33.672 26.9086 33.9747 27.252 34.162C27.5954 34.3492 27.9919 34.4093 28.3739 34.3321C28.756 34.2548 29.0999 34.0449 29.3471 33.7382C29.5943 33.4315 29.7295 33.047 29.7296 32.6501C29.73 32.4248 29.6868 32.2017 29.6023 31.9935C29.5178 31.7854 29.3937 31.5963 29.2372 31.4372ZM29.1452 33.1635C29.1451 33.2578 29.1083 33.3481 29.0429 33.4148C28.9776 33.4815 28.8889 33.5191 28.7964 33.5193H27.2983C27.2058 33.5191 27.1171 33.4815 27.0516 33.4148C26.9862 33.3482 26.9494 33.2578 26.9492 33.1635V32.2461C26.9493 32.1518 26.9861 32.0614 27.0516 31.9947C27.117 31.9281 27.2058 31.8907 27.2983 31.8907H27.636V31.7393C27.636 31.7204 27.6397 31.7018 27.6469 31.6844C27.654 31.6671 27.6644 31.6513 27.6776 31.6381C27.6907 31.6248 27.7063 31.6144 27.7234 31.6073C27.7405 31.6002 27.7588 31.5966 27.7773 31.5968H28.3193C28.3564 31.5968 28.392 31.6118 28.4182 31.6385C28.4444 31.6652 28.4591 31.7015 28.4591 31.7393V31.8907H28.7972C28.8897 31.8907 28.9784 31.9281 29.0438 31.9948C29.1092 32.0614 29.1459 32.1518 29.1459 32.2461L29.1452 33.1635ZM28.0474 32.0869C27.9285 32.0869 27.8123 32.1229 27.7136 32.1903C27.6148 32.2576 27.5378 32.3533 27.4924 32.4653C27.447 32.5772 27.4352 32.7004 27.4585 32.8191C27.4818 32.9379 27.5392 33.0469 27.6233 33.1325C27.7074 33.2181 27.8145 33.2763 27.9311 33.2998C28.0477 33.3233 28.1685 33.311 28.2783 33.2646C28.388 33.2181 28.4818 33.1395 28.5477 33.0387C28.6136 32.9379 28.6487 32.8195 28.6486 32.6984C28.6486 32.618 28.6331 32.5384 28.603 32.4641C28.5728 32.3898 28.5286 32.3223 28.4729 32.2654C28.4171 32.2086 28.3509 32.1635 28.278 32.1327C28.2051 32.1019 28.127 32.0861 28.0481 32.0861L28.0474 32.0869ZM28.0474 33.1351C27.9626 33.1351 27.8798 33.1095 27.8094 33.0615C27.739 33.0136 27.6841 32.9454 27.6517 32.8656C27.6193 32.7859 27.6109 32.6981 27.6274 32.6135C27.644 32.5288 27.6848 32.4511 27.7447 32.3901C27.8046 32.3291 27.881 32.2875 27.9641 32.2707C28.0471 32.254 28.1332 32.2626 28.2115 32.2957C28.2897 32.3288 28.3566 32.3848 28.4036 32.4566C28.4506 32.5284 28.4756 32.6128 28.4756 32.6991C28.4756 32.7563 28.4645 32.8129 28.443 32.8658C28.4215 32.9186 28.39 32.9666 28.3503 33.007C28.3106 33.0474 28.2635 33.0795 28.2117 33.1013C28.1598 33.1231 28.1042 33.1344 28.0481 33.1343L28.0474 33.1351Z" fill="white"/>
</g>
<defs>
<linearGradient id="paint0_linear" x1="21.4998" y1="43.9995" x2="21.4998" y2="-0.000472546" gradientUnits="userSpaceOnUse">
<stop stop-color="#0052D4"/>
<stop offset="0.53" stop-color="#4364F7"/>
<stop offset="1" stop-color="#6FB1FC"/>
</linearGradient>
<clipPath id="clip0">
<rect width="43" height="44" fill="white"/>
</clipPath>
</defs>
</svg>
