<svg width="263" height="148" viewBox="0 0 263 148" fill="none" xmlns="http://www.w3.org/2000/svg">
<rect x="0.5" y="0.5" width="262" height="147" rx="9.5" stroke="#F0F4FA"/>
<path d="M96.3902 74.2708C96.3902 74.9753 96.3031 81.4581 96.4951 78.8894C97.0234 71.8242 97.4576 64.2777 96.7576 57.2136C96.0402 49.9744 84.8073 64.7299 84.3189 65.401C77.0735 75.3578 71.5656 86.7053 68.2589 98.5708C66.1603 106.101 62.7811 119.448 67.4978 126.86C74.3116 137.567 94.299 106.171 96.0753 103.399C113.223 76.6468 127.596 46.5597 136.488 15.9613C138.026 10.6675 136.87 15.6763 136.383 17.5883C133.971 27.0463 130.489 36.2004 126.358 45.0373C120.954 56.6012 114.44 67.5592 107.674 78.3645C103.387 85.2113 98.4559 91.8685 94.7632 99.0694C93.8329 100.883 96.5779 95.4136 97.6236 93.6636C102.502 85.499 108.031 77.7367 113.08 69.6785C116.066 64.9135 119.703 59.7915 121.425 54.3532C122.509 50.93 118.742 55.1785 118.486 55.4553C115.368 58.8301 99.1753 79.8238 107.91 83.1668C111.629 84.59 116.561 83.2661 120.139 82.0384C120.922 81.7699 125.882 78.4379 123.997 80.8838C123.217 81.8952 116.061 92.5614 118.853 92.0103C120.681 91.6497 122.776 90.7901 123.839 89.1762C125.932 85.9994 124.204 85.4901 129.035 84.4789C143.89 81.3697 158.737 78.7307 173.41 74.7431C183.01 72.1344 190.907 69.7487 200.124 66.2408C203.802 64.8411 210.248 62.3951 213.77 59.6016C215.378 58.3266 215.985 57.0927 213.534 56.8724C211.234 56.6657 208.834 57.6985 206.895 58.7356C201.882 61.417 199.936 65.2606 197.474 70.0196" stroke="black" stroke-linecap="round" stroke-linejoin="round"/>
</svg>
