<svg width="18" height="15" viewBox="0 0 18 15" fill="none" xmlns="http://www.w3.org/2000/svg">
<path d="M17 1.7207V6.05518M17 6.05518H12.6364M17 6.05518L13.6255 2.90546C12.8438 2.12866 11.8768 1.5612 10.8147 1.25603C9.75255 0.950858 8.6299 0.917923 7.55148 1.1603C6.47307 1.40267 5.47404 1.91246 4.64761 2.64208C3.82119 3.37171 3.1943 4.29739 2.82545 5.33276M1 13.2793V8.94482M1 8.94482H5.36364M1 8.94482L4.37455 12.0945C5.15618 12.8713 6.12318 13.4388 7.18532 13.744C8.24745 14.0491 9.3701 14.0821 10.4485 13.8397C11.5269 13.5973 12.526 13.0875 13.3524 12.3579C14.1788 11.6283 14.8057 10.7026 15.1745 9.66724" stroke="#686F7C" stroke-linecap="round" stroke-linejoin="round"/>
</svg>
